<?xml version="1.0" encoding="UTF-8"?> <svg xmlns="http://www.w3.org/2000/svg" width="414" height="108" viewBox="0 0 414 108" fill="none"><path d="M226.822 40.609C219.208 40.609 213.063 46.0858 213.063 54.7687C213.063 63.9858 218.807 69.3291 226.822 69.3291C230.963 69.3291 234.704 68.1269 238.177 65.7224L235.104 60.9134C232.834 62.3828 230.296 63.3179 227.49 63.3179C223.75 63.3179 221.479 61.3142 220.945 57.4403H238.578C238.845 56.2381 239.112 55.0358 239.112 53.0321C239.112 45.8187 234.704 40.609 226.822 40.609ZM227.09 45.9522C230.696 45.9522 232.032 48.6239 232.032 52.097H220.945C221.613 48.2231 224.017 45.9522 227.09 45.9522Z" fill="black"></path><path d="M339.432 40.609C331.818 40.609 325.673 46.0858 325.673 54.7687C325.673 63.9858 331.417 69.3291 339.432 69.3291C343.573 69.3291 347.313 68.1269 350.787 65.7224L347.714 60.9134C345.443 62.3828 342.905 63.3179 340.1 63.3179C336.36 63.3179 334.089 61.3142 333.554 57.4403H351.187C351.455 56.2381 351.722 55.0358 351.722 53.0321C351.588 45.8187 347.313 40.609 339.432 40.609ZM339.566 45.9522C343.172 45.9522 344.508 48.6239 344.508 52.097H333.421C334.089 48.2231 336.493 45.9522 339.566 45.9522Z" fill="black"></path><path d="M368.019 40.609C360.404 40.609 354.26 46.0858 354.26 54.7687C354.26 63.9858 360.004 69.3291 368.019 69.3291C372.16 69.3291 375.9 68.1269 379.373 65.7224L376.301 60.9134C374.03 62.3828 371.492 63.3179 368.687 63.3179C364.946 63.3179 362.675 61.3142 362.141 57.4403H379.774C380.041 56.2381 380.308 55.0358 380.308 53.0321C380.308 45.8187 375.9 40.609 368.019 40.609ZM368.286 45.9522C371.893 45.9522 373.228 48.6239 373.228 52.097H362.141C362.809 48.2231 365.213 45.9522 368.286 45.9522Z" fill="black"></path><path d="M268.366 47.5552C264.493 46.6202 261.019 45.6851 261.019 42.7463C261.019 40.3418 263.29 38.7388 266.763 38.7388C269.969 38.7388 273.309 39.5403 276.381 41.0097L279.053 35.2657C274.778 33.2619 270.637 32.3269 266.363 32.3269C258.615 32.3269 253.272 36.6015 253.272 42.8799C253.272 50.7612 259.684 52.3642 265.428 53.9672C269.435 55.0358 272.908 55.8373 272.908 58.9097C272.908 61.5813 270.637 63.0507 266.763 63.0507C263.424 63.0507 259.684 61.9821 256.21 59.8448L252.737 65.5888C256.611 67.8597 262.088 69.4627 266.897 69.4627C275.313 69.4627 280.656 65.4552 280.656 58.7761C280.656 50.6276 273.843 48.891 268.366 47.5552Z" fill="black"></path><path d="M169.783 52.2306V49.8261C169.783 47.8224 168.581 46.6202 166.043 46.6202C163.371 46.6202 160.699 47.6888 157.36 49.2918L154.688 43.8149C158.428 41.9448 162.703 40.7425 166.443 40.7425C174.325 40.7425 177.397 44.6164 177.397 50.2269V61.7149C177.397 63.1843 178.332 63.8522 179.668 63.8522V69.0619C174.458 69.0619 172.321 68.2605 170.852 65.7224C168.581 68.1269 166.043 69.5963 162.302 69.5963C157.493 69.5963 154.154 66.6575 154.154 62.3828C154.02 56.1045 159.631 52.8985 169.783 52.2306ZM164.573 63.9858C166.844 63.9858 168.581 63.0507 169.783 61.7149V56.3716C165.508 56.6388 161.367 57.7075 161.367 61.1806C161.367 62.7836 162.703 63.9858 164.573 63.9858Z" fill="black"></path><path d="M184.21 41.2769H191.29L191.69 44.4828C193.694 42.3455 196.633 40.609 199.972 40.609C206.117 40.609 208.655 44.3493 208.655 50.6276V68.7948H201.175V50.3605C201.175 47.956 200.106 46.2194 197.568 46.2194C195.297 46.2194 193.293 47.4216 191.69 49.4254V68.6612H184.21V41.2769Z" fill="black"></path><path d="M286.801 46.6202H282.393V41.2769H286.801V34.4642H294.281V41.2769H300.426V46.6202H294.281V60.2455C294.281 62.2493 295.083 63.3179 296.819 63.3179C298.155 63.3179 299.491 62.9172 300.56 62.1157L303.365 66.6575C301.228 68.2605 298.422 69.4627 295.35 69.4627C289.606 69.4627 286.934 66.6575 286.934 60.5127V46.6202H286.801Z" fill="black"></path><path d="M306.704 41.2769H313.651L314.185 45.5515C316.322 41.8112 318.86 40.609 322.066 40.609C323.402 40.609 324.471 40.8761 325.406 41.1433L324.337 47.956C323.402 47.5552 322.2 47.2881 320.597 47.2881C317.792 47.2881 315.922 49.0246 314.185 52.2306V68.7948H306.704V41.2769Z" fill="black"></path><path d="M386.854 46.6202H382.446V41.2769H386.854V34.4642H394.334V41.2769H400.479V46.6202H394.334V60.2455C394.334 62.2493 395.136 63.3179 396.872 63.3179C398.208 63.3179 399.544 62.9172 400.613 62.1157L403.418 66.6575C401.281 68.2605 398.475 69.4627 395.403 69.4627C389.659 69.4627 386.987 66.6575 386.987 60.5127V46.6202H386.854Z" fill="black"></path><path d="M141.063 32.9948V56.7724C141.063 60.5127 139.326 62.5164 136.12 62.5164C133.983 62.5164 132.38 61.4478 131.044 59.7112L125.968 64.3866C128.64 67.5925 132.246 69.3291 136.521 69.3291C144.001 69.3291 148.677 65.0545 148.677 56.906V32.9948H141.063Z" fill="black"></path><path d="M17.4993 74.0045L22.8425 71.1993C23.1097 71.0657 23.5104 71.1993 23.644 71.4664C29.9224 81.7522 41.0097 88.5649 53.8336 88.5649C73.0694 88.4313 88.5649 72.8022 88.5649 53.5664C88.5649 34.3306 72.8022 18.7015 53.5664 18.8351C34.3306 18.8351 18.7015 34.5978 18.8351 53.8336C18.8351 56.1045 19.1022 58.2418 19.503 60.3791C19.6366 60.7799 19.3694 61.047 18.9687 61.1806L13.091 62.65C12.8239 62.7836 12.4231 62.5164 12.2896 62.2493C11.7552 59.5776 11.4881 56.7724 11.4881 53.9672C11.4881 30.7239 30.3231 11.6216 53.5664 11.6216C76.8097 11.6216 95.9119 30.4567 95.9119 53.7C95.9119 76.9433 77.0769 96.0455 53.8336 96.0455C38.2045 96.0455 24.5791 87.6299 17.2321 75.0731C17.0985 74.6724 17.2321 74.2716 17.4993 74.0045ZM75.8746 62.7836L81.2179 65.7224C81.4851 65.856 82.0194 65.7224 82.153 65.4552C83.6224 61.8485 84.4239 57.9746 84.5575 53.9672C84.691 36.8687 70.9321 22.9761 53.9672 22.8425H53.7C36.8687 22.8425 23.1097 36.6015 22.8425 53.4328C22.709 70.3978 36.4679 84.2903 53.4328 84.4239H53.7C61.7149 84.4239 69.0619 81.3515 74.5388 76.1418C74.806 75.8746 74.806 75.4739 74.6724 75.2067L70.1306 71.0657C69.8634 70.7985 69.4627 70.9321 69.1955 71.0657C65.0545 74.6724 59.5776 76.9433 53.7 76.9433H53.5664C40.609 76.8097 30.1896 66.2567 30.3231 53.2993C30.4567 40.4754 41.0097 30.056 53.7 30.056H53.8336C66.791 30.1896 77.2104 40.7425 77.0769 53.7C77.0769 56.5052 76.5425 59.1769 75.6075 61.7149C75.4739 62.2493 75.6075 62.5164 75.8746 62.7836ZM84.691 9.88507C84.4239 9.75149 84.0231 9.75149 83.756 10.0187L80.4164 14.9612C80.2828 15.2284 80.2828 15.6291 80.55 15.8963C92.3052 24.3119 100.053 38.0709 100.053 53.7C100.053 79.2142 79.2142 100.053 53.7 100.053C28.1858 99.9194 7.4806 79.2142 7.4806 53.7C7.4806 28.1858 28.3194 7.34702 53.8336 7.34702C59.444 7.34702 64.6537 8.28209 69.5963 10.1522C69.8634 10.2858 70.2642 10.1522 70.3978 9.75149L72.5351 4.14105C72.6687 3.87388 72.5351 3.47313 72.1343 3.33955C66.3903 1.20224 60.1119 0 53.7 0C24.1784 0 0 24.0448 0 53.7C0 83.2216 24.0448 107.4 53.7 107.4C83.2216 107.4 107.4 83.3552 107.4 53.7C107.4 35.5328 98.45 19.6366 84.691 9.88507Z" fill="black"></path><path d="M413.036 34.7314C413.036 37.1359 411.166 39.006 408.761 39.006C406.357 39.006 404.487 37.1359 404.487 34.7314C404.487 32.4605 406.357 30.5903 408.761 30.5903C411.166 30.5903 413.036 32.3269 413.036 34.7314ZM405.422 34.7314C405.422 36.6015 406.757 38.0709 408.761 38.0709C410.631 38.0709 411.967 36.6015 411.967 34.7314C411.967 32.8612 410.631 31.3918 408.761 31.3918C406.757 31.3918 405.422 32.8612 405.422 34.7314ZM407.96 36.8687H407.025V32.7276C407.425 32.5941 407.96 32.5941 408.628 32.5941C409.429 32.5941 409.83 32.7276 410.097 32.8612C410.364 32.9948 410.498 33.3956 410.498 33.7963C410.498 34.197 410.097 34.5978 409.563 34.7314C409.963 34.865 410.231 35.1321 410.364 35.8C410.498 36.4679 410.631 36.7351 410.631 36.8687H409.563C409.429 36.7351 409.296 36.3344 409.296 35.8C409.162 35.3993 409.028 35.1321 408.36 35.1321H407.96V36.8687ZM408.093 34.5978H408.494C409.028 34.5978 409.429 34.4642 409.429 33.9299C409.429 33.5291 409.162 33.262 408.494 33.262C408.227 33.262 408.093 33.262 407.96 33.262V34.5978H408.093Z" fill="black"></path></svg> 