<?xml version="1.0" encoding="UTF-8"?> <svg xmlns="http://www.w3.org/2000/svg" width="420" height="216" viewBox="0 0 420 216" fill="none"><path d="M390.452 102.139C387.659 113.152 382.631 123.286 374.172 131.825C364.356 140.843 352.306 145.871 338.42 144.514C323.896 143.716 311.527 137.571 300.354 128.634C293.252 122.728 287.346 115.626 283.037 108.044C273.461 91.7646 270.588 70.9365 273.86 51.2247C275.615 42.0473 279.109 33.6546 284.872 26.1672C287.645 22.5655 289.39 21.1613 291.576 19.5429C291.831 19.3547 292.135 19.5429 292.215 19.783C292.596 22.2927 291.257 26.0871 290.858 29.3589C291.576 29.7581 293.443 29.464 293.511 29.3893C293.659 29.2263 293.644 28.7775 293.644 28.7775C294.443 23.9888 295.646 19.5429 297.162 15.0742C303.068 11.084 309.771 8.85003 316.714 7.33379C326.61 5.2583 337.861 6.29605 346.8 9.88702C365.633 17.229 381.034 34.9453 387.738 53.6994C392.287 68.5418 394.84 86.4182 390.452 102.139ZM159.902 87.7744L158.944 88.3329C148.251 89.8499 137.158 90.0891 125.826 89.8499C121.915 89.5306 117.686 89.8499 114.095 88.5729L113.936 87.9344C119.601 69.8188 126.464 52.1824 133.567 34.7053C134.205 33.4291 135.173 30.8454 135.561 30.8751C135.85 30.8972 136.121 31.4336 136.121 31.4336C143.781 49.0707 151.922 66.5471 159.104 84.3434C159.423 85.4604 160.301 86.5774 159.902 87.7744ZM402.9 45.7982C398.831 36.3016 393.245 27.0449 385.264 19.783C374.571 10.8448 362.839 4.30056 349.512 1.58734C332.595 -1.76439 314.161 0.390349 299.955 8.37079C299.955 8.37079 299.596 8.57042 299.317 8.45079C299.038 8.33117 300.641 5.0343 301.279 3.27881C301.439 2.95957 302.069 2.04525 301.073 1.90658C293.73 4.93905 284.953 4.54057 276.653 5.2583L246.168 5.89681L210.177 5.97681C200.441 5.89681 190.705 5.81757 180.969 5.57756C176.181 5.09907 170.557 5.79776 166.685 3.02434C166.017 2.54509 165.448 0.749977 164.61 1.58734C161.418 9.56854 158.465 17.7875 155.273 25.8479C155.273 25.8479 155.403 26.177 155.452 26.2266C155.602 26.3759 157.268 26.7256 158.066 26.2464C159.264 21.6984 162.615 16.5105 167.403 14.835C176.74 11.164 187.833 11.5633 198.446 11.244C204.751 11.244 210.576 11.0048 216.801 11.7225C219.753 12.361 219.881 15.9268 220.232 17.8675C220.973 21.9651 221.19 52.9009 221.43 70.218L220.951 94.7171C220.632 104.932 220.951 115.626 220.232 126C219.993 129.352 219.993 132.704 218.556 135.576C216.242 140.045 211.295 141.322 206.506 140.843C199.085 140.444 196.292 132.145 193.339 126.958C187.514 114.03 181.289 101.181 176.261 87.9344L160.78 50.9062C154.316 35.1846 146.944 19.0043 141.917 2.64414C141.917 2.64414 141.86 2.02011 141.517 2.08564C139.877 2.40108 138.427 2.03458 138.243 2.53136C137.709 3.97216 135.44 12.665 126.943 35.1846L118.165 58.9659L109.865 81.3902C103.64 97.1911 97.8567 113.251 90.5536 128.634C87.5471 134.965 84.8872 145.552 75.6303 146.191C63.8992 145.95 54.6418 139.726 45.4645 133.502C37.724 127.277 31.4194 120.015 26.7109 111.875C22.0024 102.937 19.6083 93.0416 18.4913 82.5872C17.6136 63.9131 21.045 46.756 30.3021 32.0721C39.7988 16.9097 55.9186 7.3338 72.9966 5.33831C86.1642 4.46057 98.3741 7.09379 109.466 11.9617C112.738 13.718 116.586 15.2845 118.804 18.8252C120.509 21.5483 118.439 26.9337 118.644 27.0449C119.097 27.2918 120.559 27.2841 121.198 26.7256C123.432 18.3459 129.234 5.01983 130.55 2.83233C130.913 2.22812 130.295 1.92334 129.896 2.22582C125.586 4.38056 120.958 6.21605 115.691 5.2583C109.386 4.30056 103.321 2.62508 97.0171 1.58734C75.5502 -2.40288 52.8861 1.10884 35.4891 12.361C18.4913 22.3362 6.91982 39.494 2.531 57.4496C-2.49684 75.4845 0.136872 96.9518 8.91513 112.593C15.379 124.723 26.871 135.257 38.7613 141.721C61.5051 154.968 94.2238 152.654 118.963 145.233C121.915 144.275 126.962 143.117 127.821 142.2C128.419 141.562 132.769 125.202 134.684 116.504C134.445 116.105 133.806 116.344 133.328 116.264C131.921 116.178 132.037 117.215 131.173 119.616C126.735 130.454 115.85 140.045 104.838 143.716C101.726 144.594 97.5756 146.509 94.5431 144.036C93.9046 143.158 93.9046 141.8 94.1438 140.683C97.8148 126.399 103.641 112.913 109.307 99.4258L110.504 97.5903C111.222 96.8718 112.179 96.7126 113.137 96.5526C129.497 95.3556 146.814 93.9193 163.254 95.7548C164.849 96.4726 165.168 98.3881 165.887 99.7451C169.558 109.242 173.548 118.658 176.82 128.314C177.618 131.108 178.735 133.821 178.655 137.013C178.415 139.327 176.501 141.482 174.426 142.439C172.351 143.317 168.021 143.636 167.722 143.796C167.423 143.956 167.722 145.871 168.441 146.509C177.698 145.632 187.194 144.754 196.77 144.275C217.679 143.636 238.189 143.317 258.937 145.073L259.415 144.914C259.655 144.036 259.745 142.429 259.256 142.36C253.43 142.12 247.845 141.322 242.896 138.848C236.113 134.619 237.55 126.399 236.752 119.296L236.512 96.6326L236.831 73.0905L237.31 43.8835L237.39 42.8458C237.629 32.8698 238.183 13.955 238.667 12.6003C239.306 11.4033 240.822 11.9618 241.939 11.6433C257.101 11.164 273.502 9.56548 287.467 14.5134L288.384 15.2342C284.074 18.1067 279.846 22.1769 276.334 26.0071C263.086 41.728 254.468 59.9236 256.703 81.7094C258.218 103.655 270.428 122.728 288.144 136.375C299.557 143.956 311.846 149.381 325.812 150.659C342.171 152.494 357.732 148.903 370.9 141.083C388.058 131.267 400.267 113.95 405.454 96.0741C410.801 80.2732 409.046 60.6421 402.9 45.7982Z" fill="#231F20"></path><path d="M44.7466 159.598L53.8439 169.093L79.7799 194.551L84.0894 198.62C84.4087 198.86 84.7279 198.541 84.8072 198.221C84.8872 188.167 85.2651 177.92 84.8872 168.056C84.7797 165.247 84.4087 161.671 81.1362 160.874C79.9392 160.315 77.6526 160.118 77.386 159.836C76.8244 159.243 78.3437 159.357 78.8222 159.278C83.6102 159.677 88.2389 160.156 93.1068 159.916C93.1868 159.996 93.1068 160.156 93.1868 160.315C92.5483 160.714 91.6706 160.554 90.9521 160.874C88.3189 161.751 88.2389 164.704 87.8396 167.019C86.8826 181.303 86.7226 195.588 87.2811 210.272C87.1219 210.59 86.7226 210.59 86.4034 210.511C79.9392 201.014 71.1611 193.273 62.7819 185.054L44.6665 168.056C44.3475 167.976 44.1081 168.136 44.0281 168.375C44.1876 180.265 43.5492 193.034 44.3475 204.844C45.7041 208.357 49.6143 208.755 52.8066 209.474C53.0459 209.553 52.8861 209.793 52.9662 210.032L52.6471 210.272C47.3002 209.793 41.4745 209.793 36.0478 210.192C35.8088 210.032 35.649 209.793 35.8088 209.553C37.4845 208.915 39.7187 208.995 40.5967 207.079C41.5545 203.249 41.1551 199.18 41.4745 195.03C41.3149 185.693 42.0331 175.956 41.3149 166.7C40.9161 164.545 39.9658 162.459 37.963 161.192C36.6246 160.347 35.4109 160.157 34.7709 159.677C34.6915 159.518 34.7709 159.278 34.9308 159.198C38.0431 159.677 41.5545 159.518 44.7466 159.598Z" fill="#231F20"></path><path d="M30.6215 159.916C30.6524 160.606 28.2133 160.855 27.669 160.874C26.3919 161.192 24.8754 161.352 24.1573 162.788C22.4016 166.938 22.8004 172.046 22.5613 176.835C22.4016 186.331 22.8004 196.466 23.1998 205.882C23.4394 206.92 23.8382 208.117 24.9552 208.676C26.5514 209.314 28.3868 209.474 30.3021 209.553C30.5417 209.873 30.1425 210.192 29.9033 210.272C23.1998 210.032 16.4168 209.553 9.79249 210.352C9.55355 210.352 9.31392 210.272 9.23415 210.032C9.15415 209.793 9.3937 209.393 9.71302 209.393C12.2667 209.075 15.4591 209.314 16.6559 206.6C17.7732 203.409 17.5335 199.658 17.7732 196.226L17.2148 168.854C16.7356 166.459 17.2148 163.587 14.9798 162.071C13.3042 161.113 11.1494 161.033 9.23415 160.635C8.9949 160.554 9.15415 160.315 9.07468 160.156L9.3937 159.916C16.0174 160.236 22.8804 160.395 29.3446 159.598C29.8235 159.598 30.4619 159.357 30.6215 159.916Z" fill="#231F20"></path><path d="M136.44 161.033H167.243C175.325 161.349 177.095 160.297 177.537 160.346C177.964 160.395 177.856 160.591 177.602 161.191C177.436 161.581 175.942 165.583 175.623 168.215C175.558 168.565 175.24 168.535 175 168.375C174.601 167.179 176.101 165.502 174.585 164.624C169.398 161.912 162.455 162.949 156.47 163.108C156.47 163.108 156.176 163.29 155.991 163.747C155.807 164.203 155.513 189.284 155.752 201.732C156.071 204.047 155.433 207.079 157.987 208.197C159.583 208.995 161.418 209.155 163.174 209.314C163.493 209.393 163.413 209.793 163.333 209.952C162.296 210.352 161.019 210.032 159.902 209.952C154.316 208.755 148.41 209.952 142.904 210.67C142.664 210.59 142.505 210.511 142.345 210.352C142.425 209.793 143.063 209.873 143.462 209.713C145.777 208.915 149.285 208.359 149.926 206.282C150.251 205.232 150.645 181.463 150.325 168.774C150.086 166.938 150.006 165.024 149.368 163.348L149.048 163.108C142.983 162.869 136.856 162.44 131.492 164.225C130.053 164.704 129.144 166.588 128.506 168.105C128.242 168.927 127.541 168.67 127.661 168.375C129.234 164.489 130.399 159.788 130.774 159.757C131.094 159.73 131.754 161.281 136.44 161.033Z" fill="#231F20"></path><path d="M126.384 160.236C125.986 163.667 125.746 167.417 126.703 170.77C126.464 171.089 126.1 171.03 125.906 170.77C125.268 167.019 122.395 163.348 118.724 162.151C113.856 160.315 107.391 160.874 103.641 164.704C101.167 167.417 100.688 172.205 102.364 175.558C105.955 181.063 112.419 181.782 117.846 183.937C122.873 185.612 128.779 190.162 129.257 195.986C129.816 201.174 127.263 205.802 122.873 208.436C116.489 212.347 107.072 210.91 99.8895 209.633C99.4111 209.713 99.0918 210.112 98.9326 210.59C99.0126 210.83 98.8526 211.149 98.6133 211.149C97.8948 211.149 97.8148 210.511 97.8948 209.952C97.6556 205.882 96.1393 202.211 95.4208 198.381C95.5702 197.825 96.0593 198.221 96.2193 198.381C97.0171 202.611 100.449 206.92 104.838 207.797C109.945 209.155 117.447 210.67 121.915 206.681C124.789 204.365 124.869 200.376 124.309 197.104C122.395 189.762 114.334 188.884 108.588 186.491C103.881 184.814 98.1341 181.463 97.0971 175.956C96.2993 171.647 97.8948 167.577 100.927 164.386C106.673 158.959 115.246 159.454 122.588 160.97C124.511 161.332 125.674 159.724 126.065 159.836C126.456 159.949 126.384 160.236 126.384 160.236Z" fill="#231F20"></path><path d="M213.911 161.066L245.513 161.081C249.636 161.159 250.781 160.786 251.484 160.459C251.687 160.363 251.802 160.778 251.802 160.778C250.924 163.172 250.233 165.34 249.759 168.2C249.719 168.442 249.621 168.74 249.121 168.615C249.121 168.615 249.001 168.595 248.882 168.375C248.69 168.024 250.079 165.502 248.562 164.704C243.375 162.231 236.432 162.869 230.447 163.188C229.969 163.348 229.809 163.985 229.809 164.465L229.49 188.326C229.729 194.471 229.09 201.094 230.287 206.841C231.724 209.234 234.677 209.234 237.15 209.553C237.47 209.633 237.47 210.032 237.23 210.192L236.752 210.352C230.128 209.393 223.106 209.713 216.641 210.83C216.068 210.846 216.162 210.431 216.402 210.272C218.956 209.474 222.979 208.526 223.744 206.999C223.992 206.503 224.143 201.413 224.143 201.413L224.383 176.914C224.063 172.365 224.462 167.737 223.345 163.507L222.946 163.188C210.772 163.337 205.406 162.097 203.634 165.103C202.482 167.057 202.125 168.286 201.798 168.215C201.638 168.296 201.433 168.034 201.433 167.875C203.09 164.257 204.223 159.931 204.511 159.836C204.847 159.726 205.401 161.176 213.911 161.066Z" fill="#231F20"></path><path d="M316.873 161.035L342.187 161.082L353.468 161.064C355.072 161.153 356.733 160.667 357.226 160.49C357.641 160.343 358.147 160.204 357.846 160.778C357.047 163.252 356.216 165.55 355.976 168.264C355.817 168.504 355.618 168.668 355.258 168.361C354.944 168.091 355.84 166.011 355.498 165.089C354.96 163.639 349.992 162.935 346.8 162.775C343.288 162.615 339.697 162.775 336.425 163.093L335.867 163.812C335.388 176.341 335.388 189.602 335.626 202.132C336.106 204.446 335.468 207.399 337.942 208.595C339.537 209.393 341.532 209.393 343.368 209.793C343.608 210.272 343.049 210.431 342.809 210.511C336.186 209.474 329.163 209.952 322.699 210.99C322.54 210.99 322.299 210.91 322.299 210.67V210.431C325.408 209.617 329.012 208.59 329.642 207.159C330.272 205.729 330.121 189.682 330.36 180.984C330.281 175.398 330.52 168.999 329.403 163.652C328.844 162.535 327.247 163.173 326.131 162.855C320.864 162.855 313.511 162.546 310.41 164.45C309.125 165.239 308.359 168.215 307.824 168.248C307.566 168.265 307.443 168.117 307.536 167.931C309.757 163.486 310.312 160.176 310.489 160.076C310.862 159.865 312.068 161.289 316.873 161.035Z" fill="#231F20"></path><path d="M201.08 160.554C201.143 161.578 198.994 161.157 198.207 161.433C197.01 161.671 195.653 161.991 194.856 163.188C192.86 167.338 193.658 172.684 193.179 177.392C193.099 187.288 193.019 197.104 193.738 206.841C193.977 207.797 194.536 208.836 195.494 209.314C197.089 209.952 199.005 210.032 200.76 210.192C201 210.511 200.76 210.91 200.441 210.99C193.658 210.59 186.875 210.272 180.012 210.99C179.852 210.83 179.772 210.83 179.692 210.59C179.613 210.112 180.092 210.032 180.411 210.032C182.725 209.873 185.368 209.857 186.636 208.197C188.517 205.732 188.072 200.616 188.231 196.625C188.231 186.969 188.231 177.792 187.753 168.296C187.274 166.22 187.593 163.747 185.518 162.47C183.843 161.752 181.927 161.352 179.932 161.192C179.487 161.16 179.372 160.805 179.692 160.554C179.946 160.357 192.889 161.079 200.202 160.156C200.606 160.105 201 160.156 201.08 160.554Z" fill="#231F20"></path><path d="M398.033 161.431L396.676 170.051C396.562 170.21 396.266 170.249 396.117 170.131C395.606 169.722 396.141 168.377 396.038 167.896C396.117 166.141 395.56 164.305 393.883 163.587C388.696 161.831 381.866 161.952 376.965 162.151C375.244 162.22 373.215 162.47 372.098 163.667C371.299 170.21 371.459 176.676 371.459 183.538C371.459 183.857 371.698 184.256 372.017 184.335C377.922 184.416 383.987 184.576 389.733 183.857C392.606 183.857 393.089 179.482 393.549 178.812C393.645 178.193 394.213 178.669 394.202 178.909C393.963 183.458 393.883 188.007 394.123 192.555C394.123 192.795 393.919 193.007 393.723 193.034C393.528 193.061 393.245 192.795 393.245 192.795C393.006 190.481 392.606 187.927 390.372 186.73C384.307 186.091 377.843 185.693 371.858 186.331L371.459 186.809C371.299 193.832 370.98 200.775 372.177 207.479C374.571 209.393 378.082 208.755 381.115 209.155C386.142 209.393 390.85 208.915 394.84 206.841C397.714 205.085 399.708 202.211 400.826 199.259C400.985 199.18 401.065 199.099 401.225 199.18L401.545 199.577C400.667 203.329 399.708 206.999 398.193 210.431L397.714 210.83C385.344 210.59 372.735 210.431 360.366 211.229C359.76 211.118 359.793 210.703 360.206 210.511C361.882 210.032 364.174 209.857 364.915 208.117C365.655 206.378 366.032 192.795 366.192 184.894C366.271 178.43 366.112 172.126 365.633 165.982C365.595 165.292 365.313 162.949 363.718 162.47C362.68 161.912 360.713 161.61 360.605 161.192C360.431 160.519 361.404 160.714 361.882 160.795L387.021 160.714C390.691 160.714 397.793 160.331 398.033 160.474C398.383 160.685 398.033 161.431 398.033 161.431Z" fill="#231F20"></path><path d="M272.167 161.065C272.242 161.711 271.52 161.536 271.164 161.607C269.207 162.004 265.879 162.231 265.161 165.024C264.124 174.68 264.443 185.054 264.603 195.03C264.443 200.057 267.636 204.845 272.184 206.681C279.047 209.794 288.623 208.596 294.609 204.286C298.599 201.174 298.519 196.226 299.237 191.758C299.955 183.857 300.354 175.637 299.636 167.657C299.304 165.64 299.548 163.464 297.162 162.55C295.739 162.005 294.709 162.06 293.433 162.06C292.888 161.81 293.012 161.512 293.172 161.352C298.072 160.896 307.041 161.183 307.616 161.192C308.192 161.203 308.163 161.793 307.394 161.688C305.638 162.007 302.927 162.215 302.669 163.667C302.493 164.652 302.19 176.914 301.791 184.097C300.673 192.475 302.19 202.611 293.811 207.479C284.713 211.628 270.907 212.507 263.166 204.845C259.097 201.494 259.575 195.907 259.575 190.96C259.735 181.783 259.974 172.046 258.617 163.268C257.5 161.752 254.145 162.198 253.83 161.512C253.514 160.828 254.357 160.986 254.947 160.954C260.772 161.113 266.199 161.192 271.944 160.874L272.167 161.065Z" fill="#231F20"></path><path d="M412.635 197.464C413.809 197.464 414.955 197.767 416.074 198.373C417.192 198.972 418.064 199.834 418.688 200.959C419.312 202.077 419.624 203.245 419.624 204.463C419.624 205.668 419.315 206.826 418.697 207.939C418.085 209.051 417.223 209.916 416.111 210.534C415.005 211.146 413.846 211.452 412.635 211.452C411.424 211.452 410.262 211.146 409.15 210.534C408.043 209.916 407.181 209.051 406.563 207.939C405.945 206.826 405.637 205.668 405.637 204.463C405.637 203.245 405.949 202.077 406.573 200.959C407.203 199.834 408.077 198.972 409.196 198.373C410.314 197.767 411.461 197.464 412.635 197.464ZM412.635 198.623C411.652 198.623 410.695 198.876 409.761 199.383C408.834 199.884 408.108 200.604 407.583 201.543C407.058 202.476 406.795 203.449 406.795 204.463C406.795 205.47 407.052 206.437 407.565 207.364C408.084 208.285 408.807 209.005 409.734 209.524C410.661 210.037 411.628 210.293 412.635 210.293C413.642 210.293 414.609 210.037 415.536 209.524C416.463 209.005 417.183 208.285 417.696 207.364C418.209 206.437 418.465 205.47 418.465 204.463C418.465 203.449 418.203 202.476 417.678 201.543C417.158 200.604 416.432 199.884 415.499 199.383C414.566 198.876 413.611 198.623 412.635 198.623ZM409.567 208.328V200.801H412.153C413.037 200.801 413.676 200.872 414.072 201.014C414.467 201.15 414.782 201.391 415.017 201.738C415.252 202.084 415.369 202.451 415.369 202.841C415.369 203.391 415.172 203.869 414.776 204.277C414.387 204.685 413.868 204.914 413.219 204.963C413.485 205.075 413.698 205.207 413.859 205.362C414.161 205.658 414.532 206.156 414.971 206.854L415.889 208.328H414.405L413.738 207.142C413.213 206.208 412.789 205.624 412.468 205.39C412.246 205.217 411.921 205.13 411.495 205.13H410.781V208.328H409.567ZM410.781 204.092H412.255C412.959 204.092 413.438 203.987 413.692 203.777C413.951 203.567 414.081 203.289 414.081 202.943C414.081 202.72 414.019 202.522 413.896 202.349C413.772 202.17 413.599 202.037 413.376 201.951C413.16 201.864 412.755 201.821 412.162 201.821H410.781V204.092Z" fill="#231F20"></path></svg> 