<?xml version="1.0" encoding="UTF-8"?> <svg xmlns="http://www.w3.org/2000/svg" width="409" height="157" viewBox="0 0 409 157" fill="none"><path d="M88.6627 29.003C89.2631 29.5177 89.9024 29.7387 90.4393 30.1524C91.6974 31.1245 92.8744 32.7451 92.9463 34.8543C92.9593 35.2046 92.7642 35.7537 92.895 36.2118C93.0304 36.6875 94.6953 37.1839 95.142 37.4668C97.2879 38.8289 98.5651 41.2999 97.9112 44.834C98.5009 45.2393 99.1838 45.2707 99.7918 45.5131C101.874 46.3422 103.223 47.975 103.711 50.4766C103.85 51.1886 104.153 51.9236 103.711 52.6708C118.518 52.569 133.88 51.675 134.537 65.5757C134.801 71.1495 131.943 74.8044 128.686 77.1745C127.48 78.0509 126.078 78.8279 124.401 79.4734C123.929 79.6554 123.028 79.9055 122.99 80.2053C122.937 80.6366 124.172 81.1575 124.401 81.3028C127.838 83.4878 129.856 87.5687 132.03 90.9161C133.285 92.8487 134.57 94.9832 136 96.821C137.433 98.6611 139.108 100.421 141.905 100.791C142.188 101.481 141.965 102.818 141.956 103.717C139.29 103.878 135.908 103.771 132.762 103.769C131.907 103.769 130.419 103.934 129.783 103.664C129.254 103.44 128.778 102.438 128.477 101.992C128.071 101.391 127.667 100.802 127.276 100.215C127.781 101.282 126.953 102.672 127.014 103.508C127.065 104.207 127.796 104.904 128.008 105.702C128.168 106.307 128.202 107.657 128.113 108.523C128.071 108.923 127.809 109.311 127.799 109.724C127.789 110.147 128.071 110.667 128.113 111.291C128.155 111.93 127.987 112.62 128.061 113.015C128.181 113.668 128.731 114.163 129.053 114.686C129.68 115.704 130.054 117.338 130.047 118.919C130.042 119.695 129.745 120.321 129.68 121.166C129.648 121.601 129.913 121.925 129.994 122.317C130.195 123.28 130.219 124.564 129.942 125.451C129.824 125.829 129.587 125.972 129.628 126.444C129.674 126.954 129.95 127.432 130.047 127.854C130.343 129.149 130.094 130.699 129.576 131.931C129.282 132.631 128.874 133.163 128.688 133.811C128.242 135.371 127.844 136.394 126.86 137.416C126.377 137.916 125.771 138.201 125.24 138.723C124.758 139.195 124.504 139.762 124.091 140.185C123.301 140.993 122.091 141.761 120.904 142.222C120.272 142.469 119.571 142.462 118.761 142.693C117.711 142.995 116.896 143.592 115.836 143.791C114.756 143.993 113.48 144.007 112.23 143.739C111.701 143.626 111.217 143.418 110.716 143.269C110.171 143.107 109.599 143.1 108.992 143.007C107.957 142.849 106.959 142.444 105.857 142.172C105.499 142.507 105.611 142.979 105.544 143.321C105.463 143.728 105.315 144.114 105.282 144.521C105.246 144.976 105.329 145.473 105.282 146.037C105.119 148.048 103.95 149.781 102.879 151.001C102.48 151.453 102.278 152.015 101.938 152.463C100.574 154.262 98.2141 155.767 95.6689 155.912C94.0713 156.002 92.7015 156.161 90.967 156.069C89.4229 155.986 88.4746 155.359 87.257 154.919C86.0464 154.481 84.9137 154.21 83.8086 153.507C83.3054 153.187 82.8802 152.836 82.4504 152.41C82.0427 152.007 81.5502 151.384 80.9873 151.155C80.4015 150.919 79.5908 150.819 78.9492 150.475C78.3182 150.14 77.867 149.567 77.3294 149.43C76.524 149.226 75.7837 149.327 75.1352 149.17C73.8901 148.867 72.8829 148.263 72.0003 147.496C71.569 147.122 71.2256 146.464 70.6941 146.241C70.0188 145.961 69.3702 145.998 68.7615 145.72C67.6755 145.226 66.8036 144.413 66.0977 143.526C65.7628 143.106 65.6197 142.585 65.2098 142.011C65.0416 141.775 64.1024 141.478 63.7988 141.331C62.5943 140.752 61.5748 140.005 60.82 138.719C60.5332 138.229 60.514 137.683 60.1928 137.205C59.906 136.774 59.2078 136.576 58.7826 136.316C57.4197 135.482 56.281 134.34 55.6997 132.605C55.5766 132.235 55.5682 131.594 55.3869 131.248C55.1437 130.785 54.2734 130.563 53.7143 130.256C51.7297 129.167 50.3172 127.294 50.0571 124.508C48.4465 123.859 47.1066 123.11 46.0871 121.843C45.3713 120.955 44.6968 119.787 44.5721 118.344C44.5323 117.883 44.7442 117.281 44.5721 116.723C44.3763 116.087 42.875 115.85 42.2732 115.47C41.2231 114.805 40.4086 113.774 39.9222 112.752C39.6293 112.137 39.4641 111.49 39.3479 110.82C39.2209 110.091 39.2775 109.224 39.2431 108.364C38.8615 107.955 38.3009 107.938 37.8328 107.737C36.9059 107.337 36.2237 106.717 35.5859 105.908C35.2953 105.54 34.9106 105.178 34.698 104.81C33.8942 103.423 33.4667 100.792 34.3324 99.0618C32.9963 98.4393 31.5845 97.9758 30.5704 96.9197C29.3322 95.6302 28.4198 93.9041 28.6898 91.3826C28.7334 90.9704 28.9529 90.2997 28.8466 89.9188C28.751 89.5754 27.87 89.2657 27.4348 88.9789C26.9484 88.6562 26.4368 88.2264 26.1806 87.9342C25.2246 86.8444 24.4055 85.373 24.5087 82.918C24.5271 82.4561 24.7168 81.419 24.56 81.0374C24.4101 80.6688 23.9573 80.7238 23.6201 80.3583C20.6068 80.3238 17.3687 80.2351 14.3723 80.3583C14.3287 80.3682 14.3203 80.411 14.2667 80.4103C13.9891 81.7349 14.11 83.308 14.11 84.9546C14.11 86.4574 14.11 88.0635 14.11 89.6565C14.11 93.3611 13.6748 98.0439 15.7825 99.4794C16.3194 99.8442 17.1079 100.126 17.8207 100.315C18.5449 100.506 19.3824 100.467 20.0676 100.89C20.1854 101.711 20.0875 102.751 20.1196 103.659C16.9833 103.986 13.541 103.764 10.1407 103.764C8.45438 103.764 6.74814 103.764 5.0725 103.764C3.3915 103.764 1.71433 103.891 0.161818 103.607C0.133521 103.029 -0.187689 101.553 0.161818 100.942C0.383605 100.554 1.28835 100.464 1.99042 100.264C3.14754 99.9306 3.97503 99.4725 4.39337 98.5387C4.84689 97.5323 4.86371 95.566 4.86371 93.8384C4.86371 83.5314 4.86371 73.2098 4.86371 62.8554C4.86371 60.1182 4.91419 57.5371 3.08712 56.6385C2.10972 56.1567 0.746878 56.0488 0.109048 55.593C0.00733134 54.8229 -0.0798541 53.5923 0.161053 52.8237C1.13004 52.6233 2.23668 52.7189 3.34791 52.7189C6.62501 52.7189 10.1239 52.6738 13.3788 52.6669C13.3727 51.9182 13.7207 50.9829 13.5876 50.2112C13.4928 49.6621 12.9804 49.3011 12.8037 48.7482C12.455 47.6553 12.3464 46.1441 12.5422 44.7254C12.5949 44.3461 12.7632 43.9423 12.8037 43.5239C12.8985 42.5534 12.5743 41.6273 12.5422 40.7026C12.51 39.7513 12.5261 38.7953 12.8037 37.8821C12.9911 37.2649 13.5211 36.6799 13.6404 36.0015C13.7383 35.4432 13.5486 34.8031 13.5884 34.2777C13.6817 33.0234 14.3792 32.2281 14.0059 30.7773C13.8782 30.2802 13.5861 29.9008 13.5356 29.2095C13.4859 28.5112 13.4943 27.3411 13.6411 26.6482C13.7413 26.171 13.9991 25.6777 14.1107 25.1339C14.2384 24.5122 14.2384 23.885 14.3195 23.3046C14.4281 22.5337 14.7424 21.752 14.9459 21.2159C15.1524 20.6745 15.4292 20.1789 15.729 19.7529C16.0586 19.2864 16.5527 19.0156 16.8272 18.6034C17.1507 18.1163 17.2884 17.561 17.6104 17.1404C18.1144 16.4842 18.7744 15.8426 19.5438 15.3118C20.4278 14.7015 21.679 14.0369 22.8874 13.7968C24.3099 13.513 25.7408 13.4167 27.3285 13.3792C29.0669 13.3371 30.2064 13.6782 31.352 14.2151C32.3631 14.6893 33.3198 15.4709 34.8012 15.4693C35.15 14.6457 35.1721 13.8686 35.4803 13.0656C35.7648 12.323 36.2902 11.6569 36.473 10.9755C36.704 10.1181 36.7376 9.42678 36.9954 8.7813C37.7594 6.86857 39.2561 5.79405 40.7581 4.49697C42.2999 3.16472 43.4157 1.9816 45.6688 1.36212C46.3609 1.17169 47.1135 1.14186 47.9157 0.944549C48.8824 0.705936 49.7658 0.0619873 50.8418 0.00462841C51.7634 -0.0450826 52.7362 0.317425 53.6631 0.526976C54.6283 0.74494 55.6752 0.750294 56.5372 0.944549C57.7929 1.22752 59.0847 1.75675 59.9856 2.45882C60.2861 2.69361 60.4812 3.05918 60.8215 3.24196C61.6344 3.68018 62.5101 3.84538 63.226 4.28666C63.9043 4.70576 64.5039 5.6388 65.2113 5.90647C66.861 6.53054 67.8254 7.03988 68.9205 8.15341C69.6333 8.87613 70.1496 9.82064 70.6451 10.8699C70.7813 11.1582 70.9205 11.6148 71.1155 11.8626C71.3824 12.2007 72.2214 12.3857 72.6825 12.6985C73.224 13.0664 73.4733 13.5069 73.884 13.7432C74.3941 14.0369 74.9968 14.1271 75.5038 14.3703C76.5447 14.8697 77.2223 15.5359 77.9075 16.4605C78.283 16.9668 78.654 17.6207 79.2138 17.8708C79.8975 18.1759 80.4405 18.3059 80.9376 18.6027C82.149 19.3246 83.1716 20.4206 83.6549 21.9983C83.9042 22.8151 83.908 22.9795 84.6996 23.3566C86.8716 24.3974 88.4738 25.8995 88.6627 29.003ZM58.3596 9.46272C58.4851 8.9312 58.3375 8.03869 58.2029 7.58212C57.9811 6.8288 57.5604 5.94548 57.1054 5.23117C56.4094 4.13905 55.5422 3.38957 54.4409 2.77544C53.4252 2.2095 52.3438 1.60456 50.6797 1.78275C50.5726 1.79805 50.5772 1.92424 50.4709 1.93953C51.0322 2.46571 51.7381 2.52842 52.3003 2.82821C53.6669 3.55858 54.977 5.02468 55.5384 6.43341C55.6745 6.77221 55.6905 7.1026 55.8519 7.53088C55.9314 7.74196 56.1548 7.91862 56.2182 8.158C56.3903 8.80042 56.0852 9.75028 56.4263 10.4049C57.2683 10.4959 58.2067 10.1105 58.3596 9.46272ZM55.4863 10.6642C55.6255 10.3009 55.5498 9.47266 55.4863 8.93961C55.2974 7.36186 54.3805 5.70074 53.657 4.86484C51.7703 2.68137 48.0228 1.87912 45.1411 3.14025C44.5407 3.40333 43.7232 3.69701 43.5213 4.39449C44.3656 4.37996 44.9484 4.11688 45.8202 4.18571C47.7375 4.33713 49.7642 5.41013 50.8877 6.32787C52.5939 7.72284 53.0979 9.96442 53.6057 12.1792C54.0914 11.7441 55.2592 11.2569 55.4863 10.6642ZM56.479 2.67067C56.4263 2.67067 56.4163 2.71273 56.3743 2.72267C56.3964 3.33144 57.1582 3.64883 57.5237 4.08093C58.5807 5.33365 58.9998 7.07659 59.2996 9.04438C59.9848 9.07651 60.911 8.92125 61.4937 8.67805C61.2658 5.44148 59.1971 3.593 56.479 2.67067ZM52.6651 11.3433C52.6046 11.1047 52.4157 10.902 52.3515 10.6642C52.0984 9.72122 52.0058 9.05815 51.5156 8.31325C50.682 7.04524 49.5034 5.99136 47.8584 5.49196C47.0408 5.2434 46.0917 4.89084 45.1946 4.91761C44.6539 4.93367 44.0475 5.17993 43.4708 5.28394C40.7122 5.77799 39.1865 7.7626 38.2458 9.98507C38.6878 10.0967 39.0121 9.71969 39.2897 9.51473C40.6885 8.48609 42.6617 7.95304 45.2979 8.20847C47.3253 8.40426 49.2969 9.84511 50.2613 11.0818C51.1913 12.2741 51.55 13.6721 52.1939 15.0005C52.467 13.8533 53.0306 12.7934 52.6651 11.3433ZM62.696 8.8356C63.2336 9.11704 64.1751 8.99391 64.8381 9.14916C64.5192 7.20508 63.2107 6.2491 61.7033 5.49196C61.8662 6.56648 62.5247 7.59588 62.696 8.8356ZM65.8308 8.10446C65.7788 8.10446 65.7681 8.14729 65.726 8.15647C65.957 9.56214 67.1256 10.031 68.3906 10.4034C67.8009 9.37324 67.0269 8.52815 65.8308 8.10446ZM48.9031 10.769C47.5861 9.52696 45.6199 8.68799 43.0525 8.88837C41.6414 8.99773 39.796 9.8627 38.8202 10.769C37.5996 11.9009 36.4937 13.7853 36.4692 16.0452C36.4608 16.7702 36.4769 18.0497 36.9395 18.0834C37.2707 18.1071 37.556 17.3469 37.8282 17.0387C38.45 16.3335 40.1524 15.0992 41.2766 14.7917C44.2035 13.991 47.1242 14.8353 48.9046 16.098C49.3115 16.3871 49.7367 16.6548 50.0028 16.9867C50.3202 17.3836 50.2177 17.9197 50.9428 18.0841C51.8597 15.0831 50.5466 12.3177 48.9031 10.769ZM65.2045 10.9778C64.0603 9.63862 60.6158 8.89984 59.0915 10.3506C59.6728 10.6535 60.1859 10.7919 60.7634 11.1338C61.1779 11.3793 61.8019 12.0882 62.2784 12.1265C62.7854 12.1678 63.4003 11.7907 64.055 11.7609C64.5666 11.738 65.0018 11.8488 65.622 11.8129C65.557 11.5414 65.3987 11.2049 65.2045 10.9778ZM65.674 10.1939C65.671 10.2604 65.6075 10.2665 65.6228 10.3506C65.8354 10.6413 66.1367 10.8806 66.4587 11.2906C66.718 11.6217 66.8793 12.2244 67.1378 12.388C67.5738 12.6626 68.35 12.4683 68.8617 12.284C68.2705 11.3586 67.0897 10.2948 65.674 10.1939ZM54.8072 12.1792C53.9162 12.9325 53.1079 14.1616 53.1882 15.4189C54.4799 15.2085 55.7494 15.3141 56.6878 15.6797C57.1115 15.8441 57.6744 16.2211 57.9941 16.202C58.7711 16.1561 59.2078 14.9776 59.6139 14.4254C60.1554 13.6912 60.6915 13.1788 61.2865 12.6488C60.0307 10.6061 56.4607 10.7804 54.8072 12.1792ZM69.384 17.7698C69.6119 14.5906 67.0897 12.2144 64.055 12.4928C62.0566 12.6756 60.6731 13.8495 60.0315 15.5236C64.1659 14.0828 67.8843 16.6349 68.2858 20.3823C69.0911 19.8416 69.3159 18.722 69.384 17.7698ZM70.5335 21.7933C70.9166 21.9417 71.13 22.305 71.5782 22.2637C72.1342 22.2117 72.6932 21.2832 73.0412 20.6959C73.4718 19.9686 73.7639 19.2627 73.8236 18.4489C74.0591 15.282 71.6409 13.3172 68.8601 13.2767C68.828 13.2798 68.799 13.2844 68.8089 13.3287C68.8494 13.3402 68.8693 13.3723 68.8601 13.4335C68.994 14.2304 69.4895 14.6518 69.748 15.2101C70.4042 16.6257 70.4172 18.5017 69.6968 19.912C69.436 20.4221 69.0009 20.6163 68.9129 21.323C69.3534 21.6748 69.9584 21.5708 70.5335 21.7933ZM32.1321 23.6219C32.412 21.3146 31.7658 19.3346 30.5651 17.8746C29.115 16.1148 27.1732 14.9179 23.9818 15.2101C22.4637 15.35 21.146 16.0223 20.3246 16.9867C22.0423 16.6165 24.212 16.4131 25.8632 16.9867C26.9232 17.3553 28.4497 18.2356 29.1548 18.92C30.4504 20.1766 31.0752 21.9868 31.4545 23.9875C31.7727 23.9592 31.9325 23.7703 32.1321 23.6219ZM43.0517 23.0468C45.4287 22.6583 47.8125 23.0109 49.5302 24.1451C49.8323 24.3439 50.2629 25.1125 50.6797 25.033C51.0682 24.9588 51.2418 23.846 51.3068 22.9948C51.4697 20.8404 50.6422 19.2275 49.6334 17.9274C48.3738 16.2991 46.2355 14.9669 43.2597 15.2101C39.3502 15.5298 35.9843 18.9774 36.5197 23.4652C36.6581 24.6253 37.169 25.9178 37.8259 26.548C39.1177 25.0857 40.7482 23.4231 43.0517 23.0468ZM34.8486 21.7406C34.7523 20.494 34.0938 19.2634 33.5944 18.4489C32.9734 17.4379 32.3134 16.6693 31.3994 16.098C30.806 15.7271 29.8485 15.1191 29.1525 15.3149C31.4125 16.9729 33.2235 19.0814 33.2281 22.9948C34.2536 23.0675 34.9396 22.926 34.8486 21.7406ZM74.4515 15.9932C74.4247 16.7305 74.6603 16.914 74.713 17.4042C74.918 19.3361 74.284 20.6638 73.5116 21.6886C73.2202 22.0748 72.554 22.6484 72.5716 22.9948C72.6076 23.7313 73.5544 23.6281 74.1914 23.8307C74.5616 23.9493 74.7719 24.3722 75.2369 24.3531C75.9244 24.3255 76.5332 23.3344 76.856 22.786C78.384 20.1835 76.8835 16.498 74.5058 15.8892C74.5027 15.8571 74.4974 15.8273 74.4538 15.8372C74.4515 15.8892 74.4515 15.9412 74.4515 15.9932ZM61.9128 15.8892C58.8285 16.2005 56.6068 19.216 57.8381 22.6293C58.4055 22.3807 58.5608 21.8148 59.0388 21.427C59.5787 20.9903 60.745 20.4963 61.4433 20.3295C62.8918 19.9839 64.7831 20.4144 65.9364 21.1655C66.3409 21.4293 66.643 21.9639 67.1371 22.0534C68.2621 18.8841 65.3368 15.5435 61.9128 15.8892ZM52.0899 16.9339C51.6295 18.3067 51.8467 19.7797 52.4035 20.9047C52.9564 21.0224 53.5071 20.8221 54.1801 20.7479C54.7606 20.6844 55.6355 20.8465 56.0087 20.5391C56.2182 20.3655 56.2312 19.7705 56.2695 19.4416C56.4148 18.1981 56.9257 17.6352 57.3677 16.8811C56.18 15.8273 53.2111 15.7737 52.0899 16.9339ZM28.8925 20.0167C27.6405 18.4895 24.9095 16.8444 21.8389 17.509C19.416 18.0337 17.9094 19.5816 16.7706 21.3758C16.4946 21.8109 16.025 22.2637 16.3531 22.786C16.8035 22.604 17.1079 22.0679 17.5025 21.7413C19.1698 20.3571 21.7655 19.8615 24.1906 20.2783C26.3825 20.6553 28.2967 21.9448 29.3101 23.6227C29.72 24.3003 29.6473 24.9121 30.4083 25.3985C30.6538 23.2579 30.0259 21.3987 28.8925 20.0167ZM35.4237 19.4416C35.6417 19.4332 35.8857 18.7289 35.8413 18.5009C35.7503 18.0222 34.8027 17.4348 34.327 17.561C34.2919 17.7079 35.2027 19.4508 35.4237 19.4416ZM77.2728 26.3905C77.6613 27.0612 77.8563 27.8772 78.3175 28.2191C79.379 29.003 80.3831 28.2107 80.982 27.5919C81.7169 26.8325 82.4006 25.3251 82.393 24.0915C82.3769 21.9356 80.3388 19.6405 78.683 19.4936C78.5897 19.4852 78.5018 19.5411 78.4742 19.5984C78.267 20.0626 78.4123 20.6278 78.3695 21.1135C78.2165 22.8709 77.1825 23.869 76.3321 24.9794C76.5829 25.397 76.9477 25.8268 77.2728 26.3905ZM28.3701 23.726C27.1503 22.1077 25.4999 21.0538 23.0411 20.9047C20.4623 20.7486 18.5648 21.6817 17.1897 23.0468C16.1435 24.0846 15.1768 25.7075 15.0476 27.3319C14.9688 28.3047 14.8373 29.7433 15.5707 30.362C17.0551 28.3361 18.9939 26.4371 22.258 26.2344C24.9026 26.07 26.9576 27.143 28.3189 28.3246C28.8053 28.7468 29.1808 29.2676 29.6772 29.6309C30.1567 27.1491 29.4057 25.0995 28.3701 23.726ZM67.7122 25.6066C67.5156 22.6063 64.9276 20.5858 61.5465 21.0614C61.4945 21.0683 61.4134 21.0874 61.3377 21.1135C59.4235 21.7758 57.4006 23.8032 57.6813 26.6513C57.7256 27.101 58.3168 28.707 58.7787 28.6894C59.0701 28.6787 59.3439 28.0416 59.5619 27.8535C60.0315 27.4489 60.7412 27.0038 61.3377 26.756C62.8428 26.1327 64.8114 26.3224 66.0931 26.9128C66.5122 27.1055 66.835 27.5483 67.3474 27.4352C67.7344 26.8593 67.7504 26.1993 67.7122 25.6066ZM52.6651 21.8974C52.7216 24.0273 51.42 26.4983 52.9786 27.7487C53.865 27.2937 55.1315 27.2203 56.3223 27.0696C56.4821 26.7377 56.3414 26.4318 56.3223 26.0769C56.2817 25.3114 56.5471 24.5672 56.5838 23.83C56.6243 23.0032 56.3039 22.2591 56.1135 21.583C55.0718 21.2909 53.3518 21.3513 52.6651 21.8974ZM68.4953 22.3157C68.2368 22.3058 68.1359 22.4725 67.973 22.6293C67.898 23.1417 68.22 23.5745 68.3393 24.0923C68.4732 24.6773 68.3676 25.3167 68.5481 25.7641C68.6827 26.0968 69.9025 26.3637 70.3239 26.548C70.8057 26.7583 71.4497 27.0642 71.839 27.3839C72.4317 27.8688 72.4607 28.2672 73.1452 28.6389C74.0882 25.137 71.5208 22.4266 68.4953 22.3157ZM52.2467 30.3612C52.0907 28.5082 51.4223 27.4872 50.5749 26.3385C49.4155 24.7684 47.229 23.4797 44.67 23.6219C40.6824 23.843 37.4489 26.9449 37.4596 31.1451C37.4642 32.6433 38.0301 34.176 38.7659 35.2207C38.9441 35.4746 39.4763 36.1713 39.7058 36.1606C40.0828 36.1438 40.5073 35.1358 40.7505 34.8543C42.4697 32.8636 46.4649 31.4205 49.7367 32.7649C50.4043 33.0387 50.9749 33.5894 51.7748 33.6009C52.1565 32.5852 52.3285 31.3325 52.2467 30.3612ZM32.3929 24.5099C32.0205 24.8005 31.3467 25.4322 31.0867 25.9209C30.8083 26.4448 30.3907 27.5239 30.8251 27.8535C31.4736 27.6707 32.0197 27.192 32.7585 26.9136C33.5179 26.6268 34.3645 26.5564 35.4222 26.548C35.2027 25.5829 34.9702 24.6315 34.6903 23.7267C33.8299 23.6304 32.9978 24.0372 32.3929 24.5099ZM77.2208 29.8916C77.5206 27.0604 75.8464 25.293 74.0339 24.6666C73.9681 24.6881 73.9261 24.7339 73.9291 24.8234C73.8335 25.6089 74.3436 26.1855 74.3987 26.9656C74.4867 28.1854 73.6439 29.2278 73.6156 30.2572C73.5934 31.0709 73.8251 31.7394 73.7203 32.4514C73.6538 32.898 73.3594 33.2032 73.4596 33.7064C75.4969 33.6743 77.028 31.7172 77.2208 29.8916ZM82.237 30.9883C82.5918 31.6155 82.6882 32.9676 83.1769 33.3393C83.4515 33.5488 84.1038 33.74 84.4312 33.7056C85.056 33.6383 86.041 32.5347 86.4165 31.929C86.6184 31.6055 86.7094 31.2706 86.7829 30.8316C87.2953 30.4461 87.2272 29.1085 87.0444 28.3238C86.6437 26.6069 84.7501 24.7775 83.4912 24.7186C83.3972 24.7141 83.3107 24.7622 83.2824 24.8234C82.9834 26.8761 81.8454 28.0891 80.6699 29.2645C81.2152 29.7831 81.7353 30.1043 82.237 30.9883ZM69.384 26.8608C69.2402 26.821 69.0169 26.7545 68.8617 26.756C68.3837 26.7606 68.1374 27.8237 68.2345 28.3238C68.311 28.7177 68.7546 29.019 68.9137 29.4733C69.2142 30.3306 69.1286 31.1834 69.384 32.1378C70.5725 32.3772 71.5201 32.8575 72.6756 33.1305C73.8702 30.2855 71.6623 27.5009 69.384 26.8608ZM30.042 32.4514C29.0149 29.3724 26.3878 26.7935 22.362 27.0704C18.0968 27.364 14.9811 30.9425 15.5172 35.743C15.5332 35.8868 15.5845 36.0719 15.6227 36.2134C15.8476 37.0493 16.2521 37.9701 16.877 38.5643C17.6349 37.2611 18.4103 36.3357 19.6462 35.4295C20.3544 34.9102 21.2508 34.3871 22.154 34.228C23.253 34.0337 25.2192 34.0353 26.5951 34.228C28.1109 34.4398 28.8504 35.4302 30.0435 36.0566C30.263 34.914 30.3716 33.441 30.042 32.4514ZM62.3832 34.3848C63.5135 33.6842 65.4477 33.3179 66.825 33.7576C67.1141 33.8502 67.6181 34.192 67.869 34.124C68.5802 33.9289 68.5749 31.1291 68.2865 30.362C67.5638 28.4355 65.7054 26.9021 63.1143 27.1231C60.9301 27.309 59.0021 28.9357 58.5692 30.8843C58.0858 33.0602 59.139 34.8865 60.5553 36.0566C61.3285 35.4761 61.6528 34.8367 62.3832 34.3848ZM33.7512 27.4359C32.256 27.6852 30.2477 29.097 30.3555 30.414C30.3861 30.788 30.6783 31.0908 30.8259 31.4587C31.0224 31.9505 31.0346 32.4629 31.349 32.8697C31.9784 32.6372 32.5321 32.2594 33.2816 32.0858C34.0288 31.913 34.8433 31.926 35.6853 31.7723C35.8451 30.4691 35.8689 29.0297 36.2597 27.9583C36.1518 27.1981 34.5702 27.299 33.7512 27.4359ZM56.531 27.9583C56.2863 27.8543 55.9376 27.9338 55.6424 27.9583C54.837 28.0256 53.4941 28.0126 53.2379 28.7942C53.4237 29.9895 53.7319 32.1784 53.3434 33.4441C53.169 34.0085 52.7247 34.5576 53.3434 34.9071C53.7816 34.9132 54.0011 34.5293 54.3361 34.3328C55.1552 33.8509 56.1158 33.6689 57.1566 33.3928C57.1169 32.0743 57.0404 30.7979 57.575 29.6829C57.1299 29.2087 57.1888 28.2382 56.531 27.9583ZM75.0786 36.5789C75.191 36.9988 75.1054 37.7804 75.3402 38.094C75.5145 38.328 76.0828 38.3616 76.3328 38.4075C78.3534 38.7754 79.9319 38.0496 80.9827 36.8933C83.2977 34.3442 81.642 29.149 78.2134 29.1085C77.9106 29.6171 78.0322 30.3016 77.8999 30.7283C77.3317 32.5585 75.9229 33.9825 74.1899 34.5943C74.4171 35.2581 74.8744 35.821 75.0786 36.5789ZM88.7675 39.661C89.2363 39.6098 89.8191 38.8863 90.2305 38.4068C90.7483 37.8026 90.8836 37.1525 91.1192 36.5262C91.2851 36.0818 91.5322 35.5794 91.4328 34.9063C91.3593 34.4123 91.0022 33.3936 90.6488 32.8177C90.1234 31.9627 88.9518 30.9165 88.1939 30.8323C88.0799 30.8193 88.0394 30.8935 87.9859 30.9371C87.3228 31.4602 87.3274 32.5745 86.5748 33.3408C86.3378 33.5817 85.7971 33.9144 85.5822 34.1247C85.095 34.6012 85.6969 35.0012 85.9997 35.431C86.7156 36.4436 86.9733 37.4982 87.1492 38.8794C87.8031 39.0882 88.0455 39.7405 88.7675 39.661ZM36.1549 34.0184C35.8719 33.0884 35.9384 32.5248 34.7966 32.6074C33.8605 32.6755 31.957 33.1137 31.5578 33.9657C31.365 34.3771 31.1884 36.8237 31.297 37.3093C31.3864 37.7139 32.1275 39.1302 32.4977 39.1899C32.9642 39.2656 33.4192 38.744 33.8559 38.6156C35.0452 38.2637 36.7025 38.5995 37.9315 38.6156C38.0661 38.2974 38.1211 37.8982 38.0883 37.4141C37.312 36.3571 36.5962 35.4685 36.1549 34.0184ZM42.0583 34.7503C40.7681 35.8814 39.6568 37.5548 39.4985 39.7665C39.3249 42.1817 40.2358 43.8658 41.3271 45.2003C41.4747 45.3808 41.8984 46.1594 42.3206 46.1403C42.7902 46.1196 43.0655 45.2592 43.2605 45.0428C44.2371 43.9629 46.0535 42.6658 48.0672 42.4831C49.3084 42.3706 50.8372 42.3607 52.1939 42.7439C52.5932 42.8563 53.0704 43.371 53.449 43.267C53.9048 43.14 53.9851 42.4364 54.0753 42.012C54.6283 39.4415 53.7725 37.102 52.5075 35.5862C51.2357 34.0605 48.6767 32.6594 45.977 33.0257C44.6555 33.2055 42.9951 33.9289 42.0583 34.7503ZM74.3995 37.3628C74.0989 35.2207 72.1847 33.3959 70.0119 33.2353C69.332 33.1856 69.0054 33.4318 68.9664 33.9144C68.8961 34.8077 69.9247 35.3759 70.3239 35.9518C70.8815 36.7533 70.9832 37.4271 71.2646 38.4075C71.6592 38.5735 72.1923 38.4603 72.6749 38.5123C73.2446 38.5727 73.728 38.936 74.1899 38.8259C74.4584 38.4419 74.4683 37.8546 74.3995 37.3628ZM54.1801 35.5862C54.0562 36.2134 54.7697 36.9705 55.016 37.5716C55.5812 38.9574 55.5376 40.5986 55.5904 42.4311C56.0018 42.2047 56.3031 41.8506 56.7398 41.5952C57.4756 41.1646 58.4147 41.1217 59.0908 40.6025C59.1489 39.9272 58.9562 39.2786 59.0388 38.4603C59.1007 37.8515 59.4326 37.3368 59.3523 36.8933C59.269 36.4298 58.5745 35.9357 58.3076 35.587C57.9413 35.1082 57.7776 34.5477 57.3149 34.2287C56.258 34.2739 54.3285 34.8329 54.1801 35.5862ZM82.9161 34.3848C82.3005 37.4798 80.3571 39.2465 76.8032 39.401C76.9263 42.8287 81.6359 44.613 84.4312 42.4311C85.5623 41.5477 86.3431 39.7038 86.2077 38.1467C86.0502 36.3457 84.7371 34.5836 83.0721 34.228C82.9972 34.257 82.9452 34.309 82.9161 34.3848ZM70.4287 39.1914C70.3331 36.1155 67.1784 33.3714 63.7927 34.5935C62.2402 35.1549 60.6892 36.7349 60.501 38.5123C60.3007 40.4105 60.7855 41.4881 61.5457 42.4831C61.7882 42.8005 62.3319 43.4781 62.7472 43.423C63.0225 43.3863 63.3262 42.7714 63.5831 42.4831C64.419 41.5439 65.4691 40.7149 67.0315 40.5497C68.1152 40.435 68.9565 40.7562 70.1136 40.7065C70.3951 40.2392 70.444 39.674 70.4287 39.1914ZM31.7138 41.9079C31.6228 38.2278 28.7701 34.9798 25.2345 34.6983C22.0737 34.4459 19.6822 35.743 18.3377 37.6764C17.8819 38.3318 17.3335 39.2649 17.1362 39.9753C16.2276 43.244 17.6624 46.1005 19.4872 47.6553C20.1043 47.2385 20.3789 46.4607 20.9502 45.8795C22.3559 44.447 25.1909 43.0108 28.4221 43.6325C29.4378 43.8276 30.0657 44.4585 31.1914 44.6252C31.6541 43.8031 31.7352 42.7859 31.7138 41.9079ZM14.4197 37.9892C14.0327 38.3869 13.6396 41.9049 14.4717 42.0647C14.7723 42.1221 15.3344 41.5225 15.5156 41.3336C15.807 41.0323 16.1764 40.5703 16.1428 40.1321C16.0969 39.531 14.9283 38.198 14.7853 37.8332C14.7149 37.9257 14.5023 37.9058 14.4197 37.9892ZM91.0664 44.2589C91.0534 44.7269 90.8951 45.3112 91.1184 45.6699C91.3349 46.0164 92.0966 46.0638 92.4767 46.2443C93.0289 46.5074 93.4831 47.1964 94.0445 47.1842C94.5753 47.1727 95.3171 46.3276 95.5588 45.9827C97.8164 42.7752 95.6949 38.3257 91.9536 38.146C91.8847 38.1429 91.7998 38.1689 91.7455 38.198C90.9471 38.6232 90.6221 39.8469 89.6026 40.3401C90.3911 41.4085 91.1169 42.3813 91.0664 44.2589ZM37.6699 40.7065C37.6699 40.3661 37.8083 39.84 37.6179 39.557C37.325 39.1249 35.8344 39.1211 35.1102 39.1914C34.0403 39.2962 33.1814 39.7887 32.6032 40.2889C32.9359 41.1348 33.137 42.8609 32.8112 44.0509C32.6843 44.5143 32.4128 44.8371 32.4457 45.2003C32.4786 45.5697 32.978 46.2129 33.4384 46.193C33.7795 46.1785 34.1144 45.6975 34.4311 45.5139C35.4949 44.8983 36.8799 44.7246 38.6106 44.7315C38.177 43.6264 37.6699 42.0012 37.6699 40.7065ZM71.3694 39.2954C71.1277 39.8216 71.0375 40.6323 71.2654 41.124C71.5545 41.7489 72.4363 42.1596 72.8852 42.8479C73.4114 43.6547 73.5919 44.5357 73.8779 45.5124C74.5815 45.6722 75.5466 45.6562 76.1768 45.6172C77.607 42.2628 74.4821 38.809 71.3694 39.2954ZM75.2881 39.5042C75.5115 39.4973 75.5314 39.2924 75.3402 39.2434C75.2629 39.3666 75.23 39.3406 75.2881 39.5042ZM85.6326 49.1703C88.3377 49.1321 90.8508 46.4401 90.2305 43.319C89.9062 41.6892 88.7537 40.321 87.2524 39.8706C86.6567 39.6916 86.6353 40.825 86.4158 41.2808C85.5646 43.0482 83.2886 44.2642 80.878 44.2589C80.6569 47.0657 82.8687 49.2101 85.6326 49.1703ZM72.9364 45.4604C72.6038 43.1821 70.5304 41.1271 67.6602 41.2808C65.141 41.4162 62.7457 43.9063 62.9583 46.4011C63.0294 47.237 63.3912 48.3551 63.8982 49.0656C64.1827 49.464 65.3658 50.7397 65.9868 50.6854C66.3906 50.6502 66.9168 49.7806 67.3451 49.4319C68.5726 48.4308 70.2505 48.0989 72.4126 48.1777C73.0144 47.4756 73.0588 46.2963 72.9364 45.4604ZM61.756 46.6098C61.7576 45.9774 61.8998 45.3174 61.8073 44.6772C61.7346 44.1794 60.8513 43.7495 60.4498 43.2662C60.1148 42.8655 59.8953 41.8965 59.4563 41.6992C58.9424 41.4682 57.9436 41.8896 57.471 42.1167C56.863 42.4096 55.3426 43.4046 55.3808 44.2054C55.3961 44.4944 55.7586 44.7659 56.0079 45.0413C56.7024 45.8083 57.3815 46.8569 57.6805 47.8626C57.9964 48.9294 57.8449 49.7279 58.3069 50.7886C59.0923 50.277 59.8846 49.4755 61.0241 49.116C61.3652 49.0082 61.7415 49.0334 62.0681 48.8025C61.9358 48.0285 61.753 47.3823 61.756 46.6098ZM14.6813 43.5798C14.5229 43.878 14.2935 44.0876 14.2109 44.3109C14.0037 44.87 13.9134 45.7609 13.9494 46.4011C13.9998 47.2905 14.4258 48.9891 14.9941 49.0656C15.5783 49.1443 15.82 48.2671 16.2483 47.9161C16.532 47.6836 16.9427 47.5735 17.0322 47.237C17.153 46.7819 16.6177 46.0393 16.3531 45.4084C15.9806 44.5227 15.8238 43.41 15.7787 42.4303C15.7757 42.3982 15.7703 42.3683 15.7267 42.3783C15.03 42.5695 15.0071 42.9641 14.6813 43.5798ZM56.7398 49.4319C56.5609 47.458 55.6531 46.1762 54.5457 45.0956C53.1928 43.7748 51.1332 43.0054 48.8518 43.1622C46.881 43.2983 45.4149 44.0692 44.1499 45.3564C42.9905 46.5357 42.1286 48.0996 42.0078 49.9022C41.9443 50.8552 42.1194 52.2723 42.3741 53.0371C42.4873 53.379 42.8246 53.7613 43.054 54.1353C43.8303 55.3995 44.6379 56.4886 46.1353 56.9559C47.7934 54.4061 50.6973 51.9243 55.1743 52.6715C55.5299 52.7312 55.7816 52.914 56.1142 53.0891C56.8469 52.3052 56.8545 50.69 56.7398 49.4319ZM77.5871 43.371C77.3745 43.5729 77.0647 45.6638 77.1175 45.8787C77.1948 46.1961 77.5902 46.2336 77.9007 46.4531C78.1676 46.6412 78.3075 46.9089 78.5798 46.9754C78.9622 47.0687 79.4448 46.941 79.678 46.7139C79.6283 45.9498 79.5855 45.003 79.5212 44.4149C78.9515 43.9912 78.3748 43.5759 77.5871 43.371ZM31.6618 46.0355C29.58 44.2291 26.1087 43.7595 23.4587 45.0428C20.9678 46.2489 19.0941 49.0051 19.4879 52.7228C24.3298 52.7228 29.1709 52.7228 34.0127 52.7228C34.5091 49.7868 33.3298 47.4832 31.6618 46.0355ZM40.4392 48.7528C40.5478 48.3941 40.8721 48.1073 40.8568 47.7601C40.8369 47.3119 40.3459 46.9632 40.0201 46.6106C39.3173 45.8489 38.8699 45.4145 37.5131 45.4611C36.0623 45.5108 34.5251 46.2037 33.9079 46.9762C34.7653 48.5447 35.683 50.3259 35.2654 52.7235C37.055 53.008 37.6026 52.2715 38.7659 51.9916C39.2752 51.8693 39.6935 51.9725 40.2289 51.7828C40.5088 50.7802 40.1769 49.6185 40.4392 48.7528ZM79.2589 52.9843C79.714 52.6945 79.7423 51.3072 79.6765 50.5286C79.4692 48.0675 76.8582 46.047 74.3475 46.3491C73.7295 46.4232 73.6813 47.3777 73.6156 48.1777C73.959 48.7291 74.6021 48.8384 75.0786 49.2223C76.16 50.0927 76.7833 51.3454 77.2208 52.8795C77.8265 52.9338 78.7159 53.3292 79.2589 52.9843ZM85.3191 49.9542C84.0434 54.0206 88.4103 57.3275 92.0591 55.4921C92.1669 54.819 92.3451 53.8026 92.2679 52.7755C92.8293 52.5882 93.6912 52.7014 94.4101 52.6708C95.3003 49.4441 93.3677 47.1146 90.8569 46.4538C89.7464 48.3558 88.1205 49.7424 85.3191 49.9542ZM97.0746 46.7666C96.2348 46.827 94.6395 47.6262 94.6196 48.2297C94.612 48.4476 95.041 48.9784 95.194 49.3791C95.5473 50.3015 95.6268 51.6995 95.2987 52.6708C97.5625 52.6708 99.8263 52.6708 102.091 52.6708C102.791 49.1734 100.187 46.5425 97.0746 46.7666ZM81.3483 48.7C80.8191 48.1968 80.2409 46.9578 79.5725 47.9161C80.1201 48.9906 80.5675 50.1852 80.4084 51.9389C80.3602 52.4742 80.1216 52.839 80.3036 53.2451C80.3954 53.4524 81.5273 54.1682 82.1842 54.3426C82.9023 54.5338 84.3776 54.2217 84.4312 53.7155C84.4541 53.4975 84.0969 53.1893 84.0136 52.9323C83.7413 52.0956 84.0388 50.9332 83.9088 50.0583C83.1203 49.6881 82.136 49.4472 81.3483 48.7ZM18.4432 50.163C18.535 49.8143 18.8126 49.4954 18.7568 49.1183C18.704 48.7604 17.9989 47.9987 17.6593 48.0209C16.4005 48.1027 14.8074 50.9584 15.0468 52.7228C16.1443 52.7228 17.241 52.7228 18.3385 52.7228C18.2727 51.789 18.2329 50.9645 18.4432 50.163ZM70.4815 48.9088C68.3225 49.1268 67.0239 50.5255 66.2499 52.2532C70.1587 52.0329 73.2446 52.9545 76.3336 53.7162C75.9344 50.784 73.9421 48.56 70.4815 48.9088ZM63.1143 52.2532C63.6925 52.1997 64.7311 52.2356 64.8381 51.8869C64.962 51.4884 64.0787 50.9309 63.7934 50.6854C63.2061 50.1791 62.8168 49.5481 62.0696 49.6407C60.1775 49.8762 58.3856 51.6177 57.9428 53.2459C59.6391 52.9407 61.2023 52.4291 63.1143 52.2532ZM39.9689 52.8275C40.0889 55.5808 39.9865 58.5558 40.0201 61.3962C40.8231 60.7538 41.7164 60.2184 42.9989 59.9332C43.867 59.7404 44.8398 59.6945 44.6708 58.6789C44.6256 58.4074 44.309 58.2567 44.0444 58.0518C42.797 57.0912 41.8655 56.0725 41.1711 54.6034C40.7979 53.8156 40.8285 52.1805 39.2897 52.7228C39.5062 52.7679 39.7853 52.7495 39.9689 52.8275ZM51.5676 53.5067C49.352 54.2217 47.7689 55.6871 46.8129 57.6342C46.1957 58.89 45.691 60.5901 46.2898 61.709C47.4018 59.8383 48.9123 58.3822 50.5749 57.0591C52.2459 55.7284 54.1357 54.6982 56.2175 53.7675C54.7606 53.4073 52.961 53.0577 51.5676 53.5067ZM78.3182 53.7682C77.7225 53.733 77.3454 53.746 77.2208 54.1866C79.2956 54.933 80.8405 56.3608 82.4458 57.4782C82.6829 57.6434 82.9681 57.9057 83.0721 57.8438C82.5888 55.7398 80.7441 53.9128 78.3182 53.7682ZM86.5733 56.224C86.2406 56.035 85.0973 54.6844 84.7439 54.8129C84.2813 54.9827 83.5096 55.2045 83.0201 55.4921C83.3543 56.5689 83.9623 57.3704 83.856 58.8885C84.9367 60.0372 85.7665 61.436 86.7293 62.7024C87.4 62.3705 88.3224 62.4531 88.6627 61.8665C88.9541 61.3625 88.6252 60.662 88.5579 59.9859C88.4501 58.9061 88.909 57.8048 88.9235 57.0599C88.0853 56.7302 87.4299 56.7104 86.5733 56.224ZM91.6935 56.4847C91.2286 56.6438 90.6588 56.6744 90.3873 56.9023C90.1502 57.1012 90.076 57.5118 89.9697 57.7902C89.6975 58.4977 89.5644 59.02 89.6562 59.8804C89.8091 61.3174 90.9854 63.0627 92.2167 63.5904C92.6556 63.7785 93.4984 64.1372 93.8365 64.2167C95.2796 64.5586 96.1461 63.7632 97.2321 63.224C97.0379 60.8348 97.4539 58.3776 96.1874 57.1111C95.4188 56.3425 94.215 56.279 93.0006 55.8576C92.6228 56.0718 92.2037 56.3096 91.6935 56.4847ZM61.1809 57.3734C53.7595 59.9186 51.3672 69.0417 51.8284 78.9518C52.1068 84.9271 52.8073 89.6427 55.0152 93.5806C57.0419 97.1942 60.7427 100.214 66.4572 99.9543C71.7151 99.715 75.2247 97.0497 77.22 92.9535C80.0275 87.1893 80.4443 77.1706 78.8918 69.704C78.3603 67.1435 77.5443 65.1115 76.4889 63.1728C74.4851 59.4942 70.7782 56.4427 65.0982 56.7463C63.7835 56.8167 62.3358 56.9773 61.1809 57.3734ZM20.0103 62.3889C20.567 61.8275 21.5957 61.4444 21.8909 60.8738C22.0194 60.6261 22.2412 59.5875 22.2044 59.3596C22.1456 58.9902 21.4901 58.5695 21.1605 58.2613C20.8707 57.9929 20.4393 57.3283 20.0623 57.2166C19.1606 56.9482 18.0157 57.4185 17.0842 57.2166C16.3301 59.8452 17.5354 62.2298 19.2784 63.2776C19.5889 63.0451 19.6959 62.7063 20.0103 62.3889ZM22.9363 57.843C23.1772 57.7183 23.3401 57.5157 23.4067 57.2159C22.9363 57.2503 22.3276 57.147 21.9437 57.2679C22.274 57.4606 22.4989 57.7581 22.9363 57.843ZM24.2426 57.3734C22.5708 59.6058 22.6755 63.4649 24.1914 65.6805C24.9164 66.7428 26.0177 67.6995 27.1694 68.0842C27.5121 67.8403 27.5021 67.415 27.6925 67.0915C28.9162 65.0113 31.0002 63.6156 33.8575 63.1728C33.3627 61.514 32.6262 59.9469 31.5065 58.8365C29.9571 57.2985 27.5457 57.157 24.4009 57.2166C24.3244 57.2457 24.2717 57.2977 24.2426 57.3734ZM123.512 72.4198C124.567 70.2746 124.998 66.8774 124.244 64.0079C123.579 61.4788 122.09 59.7626 119.802 58.6789C117.004 57.3528 112.636 56.9903 108.674 57.3727C109.632 58.6904 110.06 61.6425 109.248 63.4856C109.911 64.1035 110.743 64.203 111.495 64.6871C113.184 65.7761 114.569 68.1179 114.317 70.6952C114.234 71.5426 113.836 72.1559 113.794 73.0462C115.754 73.8561 117.367 75.0117 118.235 76.9129C120.568 75.986 122.427 74.627 123.512 72.4198ZM14.3677 57.4254C14.2056 57.8514 14.2231 58.7187 14.1597 59.5676C14.1015 60.3431 14.0771 61.1683 14.1077 61.8145C14.2843 65.5589 14.1597 69.5358 14.1597 73.3612C14.1597 74.1513 14.0457 75.3015 14.2109 75.5554C14.5673 76.0992 16.6024 75.817 17.2418 75.817C18.522 75.817 19.4237 75.778 20.5334 75.7642C20.3215 74.591 20.4814 73.4003 20.7949 72.4726C19.2723 70.7235 17.5194 69.2788 17.7121 65.9941C17.7396 65.5306 17.9561 64.9899 17.8689 64.531C17.7779 64.0492 17.0712 63.5957 16.6682 63.068C16.2881 62.5717 15.8736 61.953 15.6747 61.3962C15.3497 60.4838 15.0216 59.641 15.1004 58.5749C15.1309 58.1596 15.3634 57.8667 15.3627 57.3734C15.1745 57.2648 14.7975 57.3467 14.526 57.3214C14.4625 57.3459 14.4059 57.3765 14.3677 57.4254ZM108.047 61.605C108.257 60.0142 107.457 58.2912 106.689 57.5822C106.686 57.5501 106.681 57.5203 106.637 57.5302C106.296 57.8545 106.453 58.4663 106.481 59.0973C106.556 60.7905 106.306 63.1361 106.585 64.4263C107.488 64.024 107.9 62.7116 108.047 61.605ZM41.4839 61.3434C40.9501 61.6769 40.1486 62.2275 40.0209 62.7544C39.8671 63.39 40.1325 63.9666 40.0209 64.7398C41.2744 65.7868 42.3428 67.0158 42.9469 68.7106C43.4456 66.9455 44.2142 65.4503 44.8275 63.7991C44.3954 63.0137 44.4352 61.7533 44.358 60.6123C43.1878 60.4777 42.3405 60.8111 41.4839 61.3434ZM22.466 64.583C22.2626 64.1035 21.9024 62.0677 21.5773 62.1786C20.7582 62.4608 19.5675 64.2389 19.3304 65.5742C18.964 67.6468 19.9514 69.4333 21.0542 70.4857C21.3594 70.7763 21.8113 71.0868 22.2037 71.06C22.8675 71.0149 23.2476 70.1675 23.7187 69.8065C24.381 69.2995 25.0969 69.1542 25.7041 68.7091C24.2564 67.4755 23.2637 66.4698 22.466 64.583ZM89.2898 62.7024C88.6933 63.1881 87.3748 63.2982 87.3037 64.1127C87.2746 64.4431 87.6463 65.1092 87.8268 65.5757C88.3843 67.0242 88.8493 68.9591 89.2378 70.2769C89.6034 70.5292 90.1013 70.6195 90.5961 70.9568C91.019 71.2443 91.2324 71.7001 91.64 71.7927C92.5287 71.9946 93.3004 71.4929 93.8342 71.0608C93.6361 69.5075 93.3011 67.7921 93.8342 66.4109C94.0193 65.9306 94.5171 65.669 94.5141 65.1574C91.8924 65.2201 90.4454 64.1074 89.2898 62.7024ZM40.9616 67.1435C40.4721 66.4285 39.448 65.152 38.7674 65.0014C37.4252 64.7046 36.1289 65.3432 34.7966 64.9494C34.4448 64.6144 34.558 63.9827 34.0135 63.9047C33.7657 63.8695 33.0965 64.0875 32.6552 64.2182C30.5972 64.8263 28.9177 66.352 28.1109 68.0322C27.382 69.548 27.0218 72.2691 27.9021 73.8836C28.6294 72.6951 28.7831 70.9331 29.4171 69.6513C31.0721 69.6857 32.8648 69.5824 34.4326 69.7025C34.5978 71.255 34.4104 73.2588 34.5374 74.9795C36.135 73.9195 38.9968 73.2465 41.5382 73.9348C42.7764 71.9472 42.1011 68.807 40.9616 67.1435ZM97.1793 64.479C96.2555 64.944 95.1802 66.4438 94.9852 67.6139C94.6494 69.6306 95.4295 71.3055 96.5002 72.2118C96.6945 72.3754 96.9958 72.6156 97.2314 72.5773C97.1969 69.8952 97.3009 67.074 97.1793 64.479ZM108.203 72.7341C108.56 73.0867 109.025 74.1826 109.509 74.2492C109.729 74.2798 110.149 74.0786 110.398 73.9884C111.797 73.476 112.681 71.8149 112.697 70.2264C112.729 67.0877 109.938 64.6526 106.479 65.4197C106.514 67.5558 106.416 69.6169 106.479 71.6374C107.137 71.9349 107.653 72.1904 108.203 72.7341ZM26.0192 69.5465C23.6331 70.5002 21.6117 72.4527 22.3092 75.8162C24.1936 75.8193 26.1645 75.9095 26.9591 74.8235C26.748 73.9188 26.3175 72.7548 26.2272 71.8975C26.1316 70.9935 26.657 70.3228 26.4888 69.5465C26.2907 69.467 26.1385 69.4991 26.0192 69.5465ZM89.7602 77.5928C90.141 77.8911 90.4974 78.2138 90.9616 78.4287C91.3479 78.1802 91.549 77.6968 91.6935 77.1745C91.8343 76.6636 92.1364 76.1344 92.1639 75.6594C92.2037 74.9627 91.8779 74.0962 91.5895 73.4125C91.1314 72.3296 90.229 71.6061 89.3426 71.1135C89.4703 73.079 89.8405 75.2464 89.7602 77.5928ZM96.3954 73.4653C95.7905 73.1555 95.1305 72.0665 94.4628 72.107C93.9007 72.1406 92.6572 73.2075 92.6342 73.7788C92.6251 73.9914 92.7902 74.1964 92.8423 74.458C93.0365 75.4285 92.8048 76.243 92.7375 77.0177C93.3531 77.5576 94.1508 77.5874 94.8261 77.9584C95.9044 78.5488 96.2983 79.7747 97.1771 80.3621C97.2987 78.2543 97.1946 75.921 97.2291 73.7268C96.9056 73.6289 96.6922 73.6167 96.3954 73.4653ZM106.584 77.6448C107.096 77.9507 108.129 77.7381 108.883 77.8016C109.411 75.274 108.188 73.3192 106.479 72.5246C106.434 74.139 106.309 76.1871 106.584 77.6448ZM37.9315 74.458C37.0726 74.5513 34.6827 75.4193 34.4831 76.0778C34.3018 76.6766 34.4831 77.8918 34.4831 78.5855C34.4831 81.1873 34.5259 83.7424 34.4311 86.1614C34.1404 86.306 33.6609 86.2616 33.2296 86.2662C33.5669 86.9262 34.2506 87.4868 35.0589 87.9901C35.6027 88.3289 36.9418 89.1594 37.6194 89.0355C38.0806 88.9506 38.3276 88.4099 38.6641 88.0421C39.653 86.9622 40.7834 86.1882 42.1126 85.6911C41.7715 82.3459 41.5244 78.4754 41.8518 74.9283C40.9034 74.5161 39.4121 74.2973 37.9315 74.458ZM109.771 75.2419C109.76 76.1305 109.963 76.8601 109.72 77.8016C112.066 77.7282 114.461 77.7029 116.563 77.384C115.719 75.1707 112.21 73.6893 109.771 75.2419ZM94.1485 85.4823C94.5286 85.6108 95.0318 85.9748 95.4548 85.8487C95.867 85.7248 96.4543 84.1019 96.5522 83.653C96.9476 81.8442 95.9756 79.9713 95.142 79.2646C94.7328 78.9174 93.6728 78.2138 92.9998 78.0631C92.2656 77.8987 91.5857 78.4432 91.6935 79.2646C91.7371 79.5958 92.0125 79.7732 92.1639 80.0485C92.4438 80.5579 92.8606 81.2959 92.9463 82.0339C93.0656 83.0488 92.814 83.8847 92.9463 85.012C93.2208 85.2934 93.6789 85.3232 94.1485 85.4823ZM89.1858 84.856C89.068 85.4296 88.7904 85.9986 88.7162 86.5798C88.652 87.0769 88.7912 87.5985 88.5074 88.0421C90.5968 87.1656 92.1715 85.119 91.7991 81.8764C91.6377 80.4676 90.7636 79.5262 89.8137 78.7943C89.8106 78.7622 89.8061 78.7323 89.7617 78.7423C89.5919 80.9502 89.5736 82.9731 89.1858 84.856ZM26.6463 80.9364C26.1874 81.8006 25.8502 83.4931 26.176 84.6969C26.3893 85.4869 27.0807 86.5714 27.639 87.1526C28.1736 87.7101 29.5846 88.7793 30.6171 88.5109C30.9245 88.4313 31.118 88.0329 31.349 87.779C31.6044 87.4975 31.9509 87.3537 32.0289 86.9958C31.9073 86.7526 31.7849 86.5087 31.6625 86.2639C30.913 86.231 30.0274 86.3312 29.3636 86.2127C28.5537 84.3566 28.2929 81.9536 26.6463 80.9364ZM106.636 82.1907C106.293 83.3876 106.526 85.2697 106.584 86.5798C107.285 85.984 108.442 85.0533 109.824 84.9072C110.767 84.8078 111.602 85.1458 112.436 85.0127C112.861 84.2793 112.584 82.8897 112.331 82.1907C110.5 82.1792 108.345 81.9796 106.636 82.1907ZM113.794 82.5035C113.674 82.4798 113.426 82.3192 113.323 82.4515C113.384 82.5998 113.698 82.684 113.794 82.5035ZM115.413 83.0786C114.844 83.2935 113.758 83.1581 113.481 83.8105C113.28 84.2808 113.466 84.8391 113.325 85.4823C114.594 86.4238 115.645 87.5855 116.145 89.2963C117.341 89.0256 118.732 88.7678 120.064 88.93C118.582 86.9109 117.416 84.576 115.413 83.0786ZM96.0819 86.527C96.1431 87.0402 97.1205 87.4394 97.2314 87.8845C97.1969 86.8566 97.3009 85.6903 97.1793 84.7497C96.9231 85.0961 96.0352 86.1286 96.0819 86.527ZM115.361 89.8187C115.11 87.5044 112.761 85.2781 110.084 85.5863C108.85 85.7286 106.699 87.0769 106.479 88.0941C106.346 88.7097 106.479 89.6129 106.479 90.549C106.479 92.2782 106.245 93.7168 107.525 93.9974C108.604 92.2782 110.448 90.7188 113.429 91.0186C114.041 91.0798 114.547 91.401 115.153 91.3849C115.471 90.923 115.411 90.2752 115.361 89.8187ZM89.8122 95.9836C90.6611 96.3316 91.7448 96.4493 92.4767 96.4019C95.6674 96.1931 98.2286 92.3914 96.813 89.1915C96.0903 87.5587 94.4483 85.971 92.2144 85.9519C91.6683 85.9473 90.9953 87.3591 90.4905 87.7805C89.7823 88.3701 89.0573 88.6348 88.1396 88.9812C87.7373 90.1284 87.218 91.1608 86.7821 92.2736C87.462 93.9745 88.2589 95.3473 89.8122 95.9836ZM42.2678 86.527C39.5306 87.7071 37.5032 90.0718 37.5131 93.4758C37.5246 97.4374 40.7719 100.904 44.9323 100.895C46.7969 100.89 48.1054 100.181 49.3206 99.3264C45.6734 96.3346 43.47 91.9325 42.3206 86.527C42.3022 86.527 42.2862 86.527 42.2678 86.527ZM36.2069 92.9535C36.2207 92.3723 36.7965 90.9697 36.6245 90.4458C36.4952 90.0511 35.0567 89.6236 34.6918 89.4018C33.8085 88.8634 33.3298 88.1201 32.6537 87.8876C32.305 87.9663 31.7887 88.4283 31.5042 88.7762C29.5341 91.1846 30.201 94.7829 32.1834 96.4034C32.5787 96.7262 33.1523 96.8531 33.7512 97.0833C34.2062 97.2585 34.5274 97.5208 34.9519 97.5537C35.8581 97.621 36.3851 97.3831 36.938 96.9266C36.7132 95.6631 36.1732 94.3752 36.2069 92.9535ZM116.354 90.445C116.157 90.7287 115.948 91.5876 116.092 92.1184C116.149 92.3271 116.619 92.7027 116.824 92.9535C117.063 93.2479 117.322 93.5378 117.504 93.8422C118.001 94.6789 118.021 95.3962 118.443 96.0891C119.162 96.0685 119.706 95.641 120.43 95.5675C121.533 95.4543 122.438 96.0677 123.408 96.0379C123.634 95.7411 123.675 95.2578 123.825 94.8876C122.774 93.3091 121.738 91.7153 120.743 90.081C119.562 89.6879 117 89.5158 116.354 90.445ZM115.78 92.796C113.133 90.5092 108.019 92.1329 107.942 95.9316C108.317 96.4631 108.931 96.7315 109.353 97.2378C109.718 97.6745 109.861 98.2336 110.241 98.7008C111.043 98.3376 111.914 97.5399 113.219 97.4458C114.798 97.3334 116.115 97.6087 116.982 98.1257C118.281 96.444 116.896 93.7611 115.78 92.796ZM96.2914 95.3044C95.3439 96.3621 93.9963 96.9105 92.2687 97.1851C92.0209 98.3728 92.0943 99.874 92.5822 100.738C93.6575 100.396 94.68 100.285 95.5083 99.8511C97.2711 98.9219 97.1365 96.6444 97.2321 94.051C97.2291 94.0188 97.2245 93.989 97.1801 93.999C96.917 94.4685 96.6356 94.9205 96.2914 95.3044ZM89.9169 97.4466C88.8547 97.1017 87.6257 96.2666 87.0964 95.618C86.8226 95.283 86.6995 94.8785 86.3645 94.7813C86.1894 94.7324 85.4238 95.4995 85.2663 95.618C84.9566 95.8513 84.5329 95.9453 84.2224 96.1924C83.944 96.4142 83.8553 96.8845 83.5952 97.0803C83.9975 97.7915 84.6606 98.4248 85.0063 99.3272C85.4384 100.455 85.2204 101.992 85.8422 103.038C86.5366 103.121 87.371 103.212 88.0363 103.09C88.9747 102.921 90.7169 101.855 91.0152 101.157C91.3203 100.439 90.7705 99.5934 90.8064 98.7016C90.8202 98.3896 90.9915 98.1204 90.8584 97.7609C90.4722 97.4657 90.2297 97.5476 89.9169 97.4466ZM125.445 99.6943C124.842 98.151 123.519 96.8547 121.945 96.5587C120.928 96.3675 119.35 96.5082 118.653 96.9243C118.17 97.2126 117.78 98.1571 117.869 98.7008C117.956 99.2354 118.53 99.6821 118.809 100.215C119.128 100.823 119.164 101.466 119.645 101.887C121.974 101.525 123.971 101.983 125.339 102.88C126.231 101.863 125.931 100.939 125.445 99.6943ZM106.584 96.5572C106.63 98.5181 107.63 100.248 109.72 100.163C109.217 98.4186 108.43 96.9594 106.584 96.5572ZM35.7365 102.828C36.1748 105.834 40.3298 108.025 43.103 106.381C42.8307 105.005 42.771 103.41 43.0517 101.992C40.5509 101.217 38.7574 99.7387 37.4084 97.8129C37.3739 97.8129 37.3388 97.8129 37.3036 97.8129C35.8918 98.8775 35.4276 100.707 35.7365 102.828ZM69.8016 104.031C70.3102 106.334 71.8397 108.513 73.7723 109.412C74.2029 109.611 74.6465 109.624 75.0786 109.777C75.344 109.871 75.5206 110.043 75.8105 110.091C76.4973 110.207 77.7638 110.274 78.527 110.091C78.7901 110.028 79.0692 109.816 79.3629 109.724C79.7109 109.618 80.0673 109.596 80.3556 109.464C82.2905 108.571 83.8767 106.379 84.3264 104.448C84.9168 101.909 83.9945 99.6308 82.8113 98.021C82.7593 98.021 82.7486 97.9789 82.7066 97.9705C79.4899 101.075 75.3845 103.29 69.8016 104.031ZM113.114 98.1785C112.542 98.2489 112.076 98.577 111.6 98.8569C111.138 99.1284 110.468 99.302 110.502 100.007C111.065 100.389 111.698 100.341 112.331 100.634C112.911 100.905 113.371 101.38 113.899 101.575C114.323 101.732 114.723 101.666 115.101 101.732C116.465 101.966 117.545 103.03 118.339 103.874C118.388 103.934 118.593 104.261 118.6 104.031C119.119 100.442 116.841 97.7181 113.114 98.1785ZM44.514 101.782C44.0023 103.274 44.0153 104.974 44.514 106.484C45.2826 108.804 47.944 111.269 50.7317 111.5C52.5893 111.656 53.9675 111.149 55.068 110.56C56.3115 109.894 57.2469 108.872 57.9413 107.791C58.3558 107.147 58.4139 106.531 58.6732 105.649C58.8239 105.132 59.2376 104.616 59.0388 103.768C55.2944 103.195 52.379 101.791 49.9478 99.9008C48.6522 101.045 46.6309 101.462 44.514 101.782ZM111.443 103.768C110.932 103.917 110.292 103.651 109.823 103.872C110.198 104.507 110.789 104.743 111.337 105.284C111.587 105.53 111.865 105.806 112.017 106.068C112.223 106.424 112.226 106.822 112.487 107.06C112.756 107.303 113.621 107.507 113.898 107.322C114.23 107.099 114.509 105.604 114.525 105.127C114.558 104.112 114.081 102.948 113.532 102.306C113.014 101.7 112.146 101.301 111.547 101.051C111.308 101.844 111.629 102.9 111.443 103.768ZM91.5888 101.835C91.1154 102.298 90.5165 102.76 89.8649 103.09C89.2592 103.396 88.4662 103.426 88.1411 103.979C89.4283 105.085 91.0037 106.258 91.5895 107.949C91.7922 108.534 91.7348 109.281 92.3214 109.724C93.568 109.9 94.3634 109.597 95.1947 108.993C95.5542 108.733 96.5239 108.101 96.501 107.582C96.491 107.361 96.0811 106.958 95.9771 106.746C95.7064 106.193 95.7133 105.072 95.298 104.708C95.1297 104.561 94.7313 104.558 94.4621 104.447C93.7845 104.168 93.3501 103.566 92.3199 103.767C92.3268 102.873 92.0132 102.299 91.5888 101.835ZM126.49 106.275C125.847 104.423 124.377 102.97 122.31 102.566C121.316 102.373 119.901 102.666 119.593 103.246C119.446 103.522 119.539 103.866 119.436 104.238C119.292 104.763 118.679 105.497 119.175 106.118C120.153 106.211 120.939 105.893 121.892 105.962C122.878 106.034 123.794 106.36 124.504 106.798C125.221 107.239 125.719 107.999 126.542 108.209C126.741 107.575 126.657 106.759 126.49 106.275ZM114.786 102.724C114.731 103.468 115.289 104.131 115.256 105.336C115.244 105.735 115.158 106.197 115.048 106.591C114.925 107.027 114.67 107.472 114.734 107.792C114.822 108.234 115.591 108.593 115.936 108.942C116.248 109.259 116.749 110.29 117.293 110.248C117.789 110.21 118.31 108.933 118.391 108.105C118.694 104.977 116.986 103.252 114.891 102.567C114.818 102.58 114.831 102.682 114.786 102.724ZM102.717 103.821C101.516 103.876 100.257 103.649 99.164 103.821C98.7647 103.884 98.3839 104.117 97.9633 104.187C97.4883 104.265 96.9683 104.178 96.657 104.499C97.2902 107.203 99.8071 109.481 103.031 108.626C103.517 108.498 104.55 107.77 105.12 107.269C105.991 106.501 106.413 105.289 106.532 103.872C105.36 103.708 104.055 103.758 102.717 103.821ZM61.2337 105.231C61.6421 105.352 62.1469 105.529 62.4352 105.702C63.1357 106.123 63.5181 106.739 64.5238 106.327C65.4523 105.948 66.3868 105.132 66.8748 104.395C64.3403 104.441 61.9098 104.379 59.8739 103.924C59.7148 104.987 60.4773 105.006 61.2337 105.231ZM106.166 114.061C107.875 114.233 109.159 113.729 110.032 112.964C111.004 112.113 111.875 110.55 111.914 109.253C111.941 108.287 111.417 106.898 110.869 106.171C110.517 105.703 109.921 105.26 109.457 104.97C108.931 104.638 107.837 103.987 107.315 104.395C106.813 107.376 104.962 109.009 102.039 109.568C102.082 112.062 103.99 113.844 106.166 114.061ZM76.8552 114.114C77.7469 116.79 80.1858 118.776 83.3344 118.92C87.387 119.107 90.8377 116.115 91.1192 112.18C91.2943 109.741 90.4852 108.005 89.2906 106.643C88.444 105.676 87.1752 104.728 85.4231 104.395C85.3336 104.379 85.2395 104.449 85.2151 104.5C83.9654 108.275 81.3001 110.888 76.5409 110.98C76.1699 112.13 76.5623 113.235 76.8552 114.114ZM64.4726 107.217C65.8301 108.788 66.926 111.058 66.9283 113.695C69.3626 114.124 70.6765 112.986 71.735 111.763C71.9812 111.476 72.5005 111.014 72.4661 110.719C72.4263 110.38 71.3893 109.793 71.0551 109.516C69.5286 108.253 68.4754 106.514 67.973 104.607C67.9699 104.574 67.9646 104.544 67.921 104.555C67.0591 105.729 65.9004 106.607 64.4726 107.217ZM57.6805 120.539C59.4518 120.674 60.8215 120.281 62.0168 119.599C64.0213 118.455 65.7192 116.271 65.7788 113.33C65.8538 109.611 63.0019 106.304 59.7707 105.911C59.6789 105.899 59.5887 105.959 59.5626 106.016C59.2667 106.303 59.23 107.013 59.0395 107.426C58.4614 108.681 57.6622 109.483 56.7406 110.3C55.7663 111.165 54.6313 111.846 53.1354 112.129C52.5037 112.248 51.8192 112.114 51.098 112.39C50.802 116.839 53.579 120.229 57.6805 120.539ZM126.438 111.187C126.084 108.574 123.736 106.637 120.901 106.902C120.404 106.949 119.532 107.177 119.333 107.634C119.041 108.3 119.173 109.37 118.759 110.038C119.821 110.273 120.861 110.049 121.789 110.456C122.398 110.724 123.487 111.383 123.932 111.762C124.712 112.428 124.954 113.516 125.499 114.426C126.24 113.68 126.599 112.377 126.438 111.187ZM41.3271 107.844C40.9195 108.3 40.8606 109.148 40.8575 109.672C40.84 113.081 44.5996 116.27 48.2247 114.741C49.0897 114.374 49.973 113.928 49.6877 112.599C48.3333 111.932 46.9621 111.578 45.9265 110.612C44.93 109.684 44.0368 108.681 43.4708 107.321C42.5921 107.422 41.7485 107.375 41.3271 107.844ZM115.936 115.577C116.221 115.043 116.67 113.667 116.668 113.017C116.665 112.207 116.193 110.83 115.78 110.196C115.455 109.695 114.856 109.165 114.265 108.784C113.892 108.544 112.89 107.985 112.645 108.313C112.713 112.296 110.551 114.371 107.159 115.054C108.584 118.99 114.252 118.734 115.936 115.577ZM94.5148 110.979C95.1833 111.311 96.3694 112.192 97.0218 112.86C97.3277 113.172 97.6214 113.595 97.9617 114.114C98.2126 114.494 98.6294 115.255 98.9544 115.316C99.5961 115.434 100.245 114.799 100.627 114.479C101.056 114.119 101.758 113.539 101.776 113.122C101.801 112.53 100.96 111.728 100.783 110.979C100.719 110.703 100.755 110.459 100.678 110.3C100.371 109.654 99.0531 109.698 98.3273 109.256C97.8738 108.978 97.6115 108.449 97.1778 108.419C96.5614 108.814 95.9863 109.435 95.3492 109.831C94.8452 110.143 94.1355 110.185 93.8342 110.771C94.0835 110.882 94.2946 110.869 94.5148 110.979ZM120.325 120.854C123.045 120.635 125.058 118.187 124.713 114.949C124.474 112.69 121.825 110.472 119.123 111.082C120.64 112.198 121.808 114.019 121.63 116.464C121.486 118.435 120.348 119.625 119.226 120.695C119.582 120.884 119.965 120.883 120.325 120.854ZM76.2281 119.391C76.5087 119.123 77.1252 118.503 77.116 118.084C77.1076 117.713 76.5317 117.222 76.2793 116.883C75.4059 115.71 74.6411 114.454 74.5035 112.493C74.4844 112.222 74.5608 111.919 74.5035 111.711C74.4408 111.485 73.9131 110.96 73.5636 110.979C72.9533 111.012 72.8263 111.831 72.3621 112.389C72.0065 112.816 71.1621 113.473 70.7943 113.696C70.3446 113.969 69.8987 114.038 69.28 114.323C68.2185 114.81 69.9125 115.476 70.3239 115.837C71.2746 116.671 71.9858 117.727 72.4669 118.816C72.7376 119.43 72.7376 120.123 73.146 120.749C74.4698 120.624 75.4916 120.09 76.2281 119.391ZM117.137 111.45C117.23 112.065 117.531 112.73 117.451 113.278C117.406 113.586 117.221 113.928 117.137 114.27C116.604 116.454 115.258 118.039 113.218 118.556C112.877 118.641 112.411 118.556 112.121 118.921C112.252 119.622 112.999 120.032 113.636 120.333C114.315 120.652 115.188 120.909 116.092 120.906C119.009 120.9 121.109 118.397 120.742 114.951C120.55 113.155 118.973 111.611 117.292 111.295C117.219 111.321 117.167 111.373 117.137 111.45ZM89.3946 126.287C90.0829 126.462 91.0427 126.464 91.8496 126.39C95.3714 126.069 97.9174 123.053 98.4848 119.704C98.6561 118.695 98.4367 118.021 98.1713 117.142C97.5197 114.987 96.413 113.493 94.5661 112.492C93.7676 112.061 92.8499 111.509 91.9536 111.814C91.7272 112.124 91.7348 113.063 91.64 113.538C91.107 116.217 89.2187 118.065 87.0421 119.076C86.0961 119.515 85.0139 119.605 83.7505 119.859C84.0985 123.404 86.4173 125.531 89.3946 126.287ZM106.322 118.032C106.439 117.828 106.638 117.428 106.636 117.196C106.631 116.608 105.943 115.568 105.538 115.366C105.263 115.229 104.776 115.236 104.44 115.105C103.686 114.809 102.685 113.633 102.246 114.008C101.808 114.381 101.49 114.855 101.045 115.209C100.519 115.624 99.9563 115.763 99.2687 116.149C99.0447 117.026 100.201 117.06 100.732 117.246C102.375 117.824 103.485 118.915 104.599 119.703C105.044 119.31 105.936 118.709 106.322 118.032ZM52.7691 119.704C51.7335 118.808 50.828 117.62 50.3133 116.255C50.1627 115.853 49.996 114.722 49.6342 114.897C48.6155 115.389 47.8018 115.78 46.4994 115.943C45.6497 120.11 48.1085 123.005 51.8811 122.942C53.452 122.917 54.5395 122.243 55.3296 121.323C54.4141 120.59 53.6149 120.435 52.7691 119.704ZM126.96 116.778C126.924 116.208 126.922 115.065 126.437 115.054C126.179 115.048 125.497 116.088 125.497 116.255C125.498 116.51 125.746 116.62 125.863 116.83C126.165 117.377 126.079 118.578 126.855 118.606C126.965 118.046 127.004 117.477 126.96 116.778ZM65.0997 129.578C69.0162 129.322 72.0669 126.224 72.1005 122.16C72.1196 119.839 71.0902 117.895 69.6968 116.673C69.0162 116.078 67.8812 115.31 66.6147 115.106C66.4572 115.081 66.5153 115.205 66.4059 115.211C65.6802 116.995 64.8733 118.635 63.4279 119.704C62.4344 120.439 60.953 121.199 59.4051 121.323C58.7787 121.372 58.0828 121.189 57.419 121.48C56.9524 126.287 60.7756 129.861 65.0997 129.578ZM128.527 119.443C128.893 118.413 128.477 117.095 127.953 116.464C127.585 117.422 127.672 119.09 128.527 119.443ZM105.8 119.861C105.531 120.083 105.148 120.178 105.12 120.487C105.1 120.717 105.739 121.78 105.8 121.846C106.174 122.242 107.247 122.431 107.889 122.681C108.207 122.805 108.559 122.945 108.881 123.151C109.184 123.344 109.545 123.683 109.822 123.674C110.373 123.657 110.79 122.903 111.076 122.576C111.391 122.217 112.026 121.609 111.964 121.062C111.919 120.66 110.778 119.531 110.45 119.336C109.892 119.009 109.007 118.91 108.412 118.554C108.035 118.327 107.755 117.889 107.418 117.927C106.918 118.341 106.41 119.355 105.8 119.861ZM125.863 120.384C125.983 119.456 125.918 118.369 125.34 118.032C125.274 118.03 125.268 117.966 125.183 117.98C124.705 119.034 124.084 119.947 123.198 120.592C123.411 121.885 123.339 123.153 123.093 124.355C124.403 123.918 125.639 122.111 125.863 120.384ZM99.3215 118.554C99.2198 120.784 98.647 122.56 97.6497 123.936C96.6861 125.265 94.9171 126.495 93.1038 126.915C92.4316 127.07 91.705 127.035 90.9616 127.281C91.1391 128.879 92.0155 130.14 93.1038 131.094C93.7218 131.636 94.4995 132.146 95.4028 132.504C96.153 132.803 97.6007 133.241 98.3816 133.184C98.793 133.154 99.1051 132.868 99.4791 132.766C99.9769 132.63 100.373 132.608 100.785 132.454C101.978 132.003 102.799 131.317 103.607 130.416C104.55 129.363 105.442 127.602 105.487 125.767C105.532 123.943 104.692 122.07 103.711 120.906C102.736 119.752 101.357 118.564 99.4783 118.4C99.4026 118.427 99.3506 118.48 99.3215 118.554ZM79.7285 119.704C79.067 119.419 78.1309 118.394 77.6383 118.92C77.0158 119.586 76.5386 120.26 75.7577 120.749C74.9409 121.261 74.1012 121.348 73.0932 121.847C74.1555 122.502 75.3639 122.761 76.4376 123.676C76.83 124.011 77.2628 124.535 77.6391 125.035C77.9504 125.448 78.3473 126.422 78.7886 126.497C79.4991 126.615 80.6608 125.693 81.1395 125.139C81.5655 124.646 82.1789 123.718 82.3402 123.154C82.6469 122.08 81.8439 121.329 81.7659 120.437C81.2267 120.022 80.4841 120.03 79.7285 119.704ZM128.266 121.69C127.975 120.847 127.936 120.191 127.274 119.966C126.901 120.45 126.198 121.216 126.28 121.846C126.341 122.307 127.152 122.786 127.482 123.152C127.96 123.68 128.095 124.33 128.58 124.459C128.903 123.354 128.549 122.505 128.266 121.69ZM120.69 126.235C121.217 125.791 122.074 124.741 122.31 124.145C122.515 123.628 122.868 121.329 122.205 121.219C121.806 121.153 121.157 121.591 120.69 121.636C119.437 121.758 117.938 121.459 117.504 122.263C117.517 124.316 116.398 125.512 115.78 126.756C117.494 127.445 119.458 127.275 120.69 126.235ZM111.861 122.995C111.59 123.341 111.161 123.639 110.868 123.935C110.341 124.471 111.007 124.912 111.391 125.347C111.677 125.671 111.95 126.059 112.279 126.235C112.528 126.368 112.813 126.436 113.062 126.549C114.07 127.006 114.289 126.733 114.943 126.079C115.713 125.308 116.02 124.985 116.405 123.884C116.53 123.529 116.922 122.825 116.667 122.473C116.427 122.145 115.476 122.277 114.681 122.161C113.998 122.059 113.232 121.479 112.852 121.586C112.379 121.716 112.236 122.515 111.861 122.995ZM55.5384 122.369C54.5961 123.114 53.4451 123.614 51.9852 123.831C51.306 127.965 55.8167 130.904 59.3523 129.108C58.157 127.711 56.6412 126.274 56.3223 124.092C56.2389 123.523 56.3406 122.863 56.0087 122.263C55.7555 122.229 55.6324 122.294 55.5384 122.369ZM128.632 127.435C128.587 127.24 128.422 127.155 128.318 126.914C128.064 126.313 127.953 125.586 127.639 125.032C127.388 124.588 127.137 124.397 126.856 123.988C126.594 123.607 126.249 123.085 125.916 123.099C125.551 123.115 124.431 124.594 124.453 124.823C124.478 125.071 125.16 125.5 125.446 125.764C126.482 126.72 127.381 127.882 127.745 129.368C127.84 129.755 127.75 130.186 128.111 130.623C128.649 130.19 128.87 128.48 128.632 127.435ZM72.8844 123.309C71.9009 127.643 68.8425 130.489 63.5839 130.466C63.7453 132.303 64.3984 134 65.5173 135.221C66.5474 136.346 68.1321 137.404 69.8536 137.572C70.727 137.655 71.8772 137.651 72.8837 137.363C73.9414 137.06 75.1627 136.272 76.0185 135.534C77.4479 134.299 78.3763 132.185 78.3695 130.048C78.3641 128.299 77.6804 126.733 76.8024 125.607C75.9734 124.543 74.5654 123.483 73.0412 123.151C72.9663 123.182 72.9135 123.234 72.8844 123.309ZM106.166 123.727C106.136 124.605 106.335 125.494 106.27 126.287C106.081 128.622 104.763 130.697 103.345 131.879C102.763 132.363 101.912 132.915 101.151 133.186C100.189 133.525 98.9835 133.368 98.0153 133.968C98.9544 135.482 100.05 136.896 101.672 137.573C102.277 137.825 103.493 138.195 104.285 138.252C108.095 138.525 111.782 135.527 112.07 131.512C112.187 129.878 111.922 128.513 111.391 127.488C110.371 125.521 108.576 124.122 106.27 123.57C106.205 123.592 106.163 123.637 106.166 123.727ZM83.0201 123.936C83.0201 124.006 82.9283 123.984 82.9161 124.04C82.4542 124.635 82.1024 125.214 81.6611 125.714C81.1992 126.237 80.7655 126.661 79.9893 126.967C79.3775 127.207 78.9599 127.152 78.9438 127.856C78.9209 128.851 79.8501 129.063 80.6164 129.318C81.5724 129.638 82.1284 129.928 82.8633 130.52C83.1861 130.781 83.5585 131.212 83.908 131.199C84.412 131.183 85.3757 130.199 85.7886 129.737C86.4127 129.035 86.6177 128.121 87.0429 127.281C85.4628 126.405 84.1941 125.217 83.0201 123.936ZM126.594 135.169C127.117 134.165 127.178 132.241 127.065 130.781C126.855 128.057 124.911 126.286 123.251 125.294C122.878 125.516 121.633 125.788 121.788 126.549C121.845 126.827 122.621 127.088 122.937 127.333C124.079 128.209 124.933 129.318 125.499 130.728C126.144 132.341 126.122 133.834 125.864 135.744C126.292 135.697 126.467 135.415 126.594 135.169ZM105.853 140.08C106.25 140.366 106.637 140.69 107.001 140.864C109.847 142.22 113.195 141.511 115.362 139.452C116.143 138.711 116.691 137.681 117.086 136.58C117.227 136.188 117.454 135.751 117.504 135.43C117.597 134.825 117.612 134.066 117.608 133.549C117.608 133.349 117.565 133.056 117.504 132.767C117.092 130.825 115.755 128.955 114.265 127.96C113.675 127.565 112.798 126.934 112.176 127.176C112.276 127.922 112.725 128.397 112.802 129.267C112.919 130.574 112.912 131.938 112.646 132.976C111.924 135.791 109.518 138.115 106.638 138.827C106.062 138.969 105.484 138.902 104.914 139.14C104.969 139.651 105.508 139.833 105.853 140.08ZM122.31 139.609C122.39 139.551 122.495 139.465 122.571 139.402C124.118 138.096 125.092 136.041 125.079 133.602C125.062 130.474 123.18 128.487 120.899 127.333C120.213 127.587 119.554 127.869 118.861 128.117C120.08 129.458 121.578 130.52 121.943 132.715C122.24 133.052 122.348 133.497 122.361 134.02C122.417 136.222 121.928 138.008 121.107 139.297C120.836 139.723 120.309 140.028 120.375 140.552C121.038 140.438 121.777 139.993 122.31 139.609ZM87.1997 129.213C86.9741 129.734 86.2666 130.52 85.8414 130.885C85.4973 131.181 84.5879 131.554 84.5352 131.931C84.4801 132.327 84.9818 132.699 85.2151 133.131C85.3734 133.426 85.368 133.68 85.5286 133.915C85.7917 134.304 86.5075 134.522 86.9909 134.752C87.5431 135.015 88.1625 135.489 88.6107 135.484C89.1132 135.478 89.8275 134.94 90.1777 134.647C90.6359 134.266 91.8151 133.234 91.7463 132.453C91.7134 132.084 91.3081 131.772 90.9624 131.409C90.3192 130.731 89.8535 130.102 89.4474 129.161C89.0443 128.226 89.0849 127.336 87.7756 127.647C87.3213 128.231 87.4628 128.61 87.1997 129.213ZM114.786 142.326C118.45 142.029 121.542 138.964 121.526 134.855C121.513 131.742 119.372 129.126 117.033 128.114C116.614 127.934 115.937 127.796 115.57 127.853C116.502 129.088 117.746 130.387 118.183 132.189C118.418 133.157 118.358 134.291 118.287 135.168C118.086 137.643 116.339 139.873 114.682 140.968C114.011 141.412 113.238 141.572 112.644 142.065C113.263 142.433 114.047 142.386 114.786 142.326ZM62.8527 133.34C62.5101 132.422 62.6799 131.115 62.1736 130.466C61.8868 130.1 60.9156 129.764 60.4498 129.631C59.9427 129.486 58.9715 130.241 58.3596 130.363C57.9099 130.452 57.4863 130.327 57.1062 130.572C56.9555 131.805 57.5864 133.086 58.3596 133.967C59.5137 135.281 61.6513 136.295 64.0022 135.429C63.7177 134.674 63.164 134.174 62.8527 133.34ZM79.0494 131.616C78.9377 132.593 78.5301 133.608 78.0567 134.384C76.9898 136.135 75.0778 137.865 72.6236 138.252C71.8803 138.368 70.7721 138.241 70.5863 138.618C70.4325 138.927 70.7706 139.399 70.8991 139.716C71.114 140.245 71.1078 140.539 71.2654 140.866C71.7954 141.967 73.0603 143.147 74.2435 143.844C75.6048 144.645 77.5114 144.807 79.3109 144.628C79.6612 144.593 80.2294 144.261 80.6172 144.105C81.9984 143.552 82.9085 142.834 83.7528 141.597C84.191 140.954 84.9535 139.709 85.1103 138.932C85.3237 137.876 85.2977 136.552 85.1103 135.589C84.552 132.718 82.1314 130.778 79.3629 130.051C78.9148 130.368 79.1044 131.14 79.0494 131.616ZM90.3873 137.363C90.6267 137.65 90.7429 138.012 91.0664 138.2C92.5379 139.055 94.5263 137.941 95.4028 136.945C95.737 136.567 96.5033 135.481 96.3962 134.855C96.2761 134.158 95.1871 134.237 94.2533 133.863C93.4977 133.559 93.0679 132.895 92.3727 133.236C92.0063 133.622 91.8251 134.097 91.4848 134.491C90.8859 135.184 90.0668 135.531 89.3426 136.11C89.4405 136.67 90.0431 136.951 90.3873 137.363ZM85.8422 135.639C85.7642 136.851 85.9592 137.863 85.7909 138.984C85.7405 139.316 85.5164 139.701 85.3734 140.08C84.9237 141.271 84.5833 141.683 83.8583 142.588C82.3762 144.439 80.1453 145.561 76.8575 145.462C77.6934 147.195 79.0019 148.653 80.7762 149.38C81.645 149.736 82.7731 150.085 83.8063 150.06C84.8564 150.033 86.1359 149.646 86.9932 149.223C89.2684 148.106 91.0878 145.459 91.0687 142.326C91.058 140.64 90.3949 139.127 89.4497 137.885C88.6681 136.859 87.1981 135.767 85.8965 135.482C85.833 135.492 85.8376 135.564 85.8422 135.639ZM95.4028 139.924C96.5178 139.924 97.161 139.709 97.9105 139.192C98.2585 138.952 99.0898 138.33 99.0599 138.043C99.0439 137.875 98.5537 137.667 98.3808 137.521C97.8776 137.097 97.4684 136.12 96.8658 136.11C96.0918 137.496 94.9523 138.515 93.4174 139.139C93.5948 139.814 94.5814 139.924 95.4028 139.924ZM67.921 138.2C67.4705 138.031 66.9925 137.765 66.6667 137.573C66.0098 137.184 65.0614 136.185 64.3158 136.162C63.9028 136.149 63.3468 136.344 62.9055 136.422C62.53 136.49 62.0268 136.471 61.8601 136.789C62.4107 138.649 64.273 140.683 66.8235 140.602C67.6885 140.577 68.8647 140.402 69.3305 139.82C69.4597 138.565 68.8364 138.543 67.921 138.2ZM103.71 145.357C103.868 143.178 102.97 140.976 101.672 139.715C101.254 139.309 100.619 138.855 100.158 138.67C99.7506 138.507 99.1066 139.533 98.8519 139.715C100.018 140.486 100.982 141.283 101.726 142.328C102.628 143.596 102.966 145.256 103.136 147.083C103.896 146.84 103.672 145.883 103.71 145.357ZM91.2752 152.986C93.8342 152.171 95.8716 149.651 96.0819 146.716C96.3526 142.945 94.1806 140.137 91.2752 139.192C91.2752 139.244 91.2752 139.296 91.2752 139.348C93.1245 145.631 89.2921 150.731 83.3337 150.844C84.643 153.307 88.561 153.851 91.2752 152.986ZM103.031 139.766C103.147 140.075 103.342 140.363 103.501 140.655C103.66 140.945 103.829 141.28 104.127 141.439C104.375 140.989 104.284 140.145 104.023 139.765C103.636 139.708 103.441 139.753 103.031 139.766ZM99.6351 152.672C100.885 151.629 102.046 149.832 102.196 147.865C102.492 143.961 100.159 140.967 97.5977 140.236C97.4876 140.205 97.5021 140.219 97.3361 140.236C97.0073 140.868 97.7002 141.247 98.0153 141.543C99.141 142.598 100.074 143.968 100.209 145.984C100.336 147.874 100.203 149.598 99.6351 150.791C99.0431 152.037 97.9533 152.645 97.3361 153.82C98.1942 153.7 99.0041 153.198 99.6351 152.672ZM70.7943 142.326C70.4723 141.883 69.8895 140.458 69.488 140.655C69.1125 140.838 68.7248 141.098 68.1305 141.228C67.5753 141.351 66.9551 141.283 66.8755 141.647C66.8319 141.85 67.3635 142.549 67.6074 142.847C68.4823 143.923 69.9285 144.72 71.4214 144.833C72.2611 144.897 72.681 144.803 72.9892 144.468C72.2137 143.798 71.4826 143.275 70.7943 142.326ZM92.947 154.552C97.3736 154.23 100.651 149.281 99.0599 144.729C98.7487 143.839 98.1529 142.94 97.4929 142.274C96.9843 141.761 95.9955 140.984 95.246 140.759C95.1726 140.773 95.1871 140.874 95.1412 140.916C95.1091 140.918 95.0792 140.924 95.09 140.968C95.9702 142.024 96.784 143.777 96.9186 145.461C97.0233 146.779 96.7136 148.029 96.3442 149.014C95.4831 151.307 93.6705 152.803 91.4848 153.664C91.0358 153.841 90.4194 153.922 90.1273 154.396C91.0251 154.524 92.1471 154.611 92.947 154.552ZM75.3922 145.566C74.7566 144.944 73.4152 145.214 72.6236 145.618C73.364 146.849 74.8239 147.845 76.5936 147.706C76.1952 147.129 75.864 146.028 75.3922 145.566Z" fill="black"></path><path d="M297.912 53.9249C297.925 57.5554 298.148 61.5238 297.912 65.0533C296.41 65.2483 294.377 65.165 292.792 65.1053C291.83 63.3899 291.299 61.6791 290.284 60.2987C289.246 58.8869 287.96 57.8827 286.053 57.2686C282.026 55.9715 277.094 56.5787 274.088 58.5228C271.062 60.4799 269.191 63.4305 267.921 66.9347C265.378 73.9615 265.82 85.7056 268.653 92.0655C270.149 95.4222 272.434 98.1242 276.072 99.2231C280.075 100.432 285.491 99.7983 287.723 97.4458C289.494 95.5805 289.483 91.7588 289.186 88.198C289.04 86.4459 288.693 84.7458 287.462 83.9657C286.524 83.3722 285.3 83.2491 284.17 82.7642C283.944 81.9979 284.123 80.8262 284.066 79.8909C289.988 79.6829 296.5 79.7854 302.509 79.8389C302.454 80.6328 302.955 81.8771 302.56 82.6602C302.35 83.0785 300.992 83.2866 300.418 83.6001C297.844 85.0089 298.432 90.0947 298.432 94.1021C298.432 97.2355 298.624 100.455 298.38 103.455C297.67 103.741 297.084 103.834 296.449 103.978C295.841 104.114 295.097 104.451 294.411 104.395C293.74 104.341 293.245 103.606 292.738 103.141C292.259 102.701 291.715 101.886 291.118 101.834C290.475 101.779 289.072 102.668 288.506 102.88C285.83 103.878 282.78 104.282 279.206 104.394C264.849 104.844 257.861 96.6443 256.479 83.8609C254.892 69.174 260.16 58.7974 269.854 54.4458C272.461 53.2756 275.048 52.4887 278.474 52.2516C285.376 51.7744 292.198 52.6439 297.912 53.9249Z" fill="black"></path><path d="M226.334 53.9249C226.386 57.3626 226.49 61.3563 226.283 64.7925C225.602 65.0717 224.637 64.9493 223.722 64.9493C222.814 64.9493 221.888 64.9883 221.11 64.8973C220.587 63.9926 220.294 63.0503 219.96 62.1808C218.925 59.4696 216.79 57.5921 213.69 57.0078C208.856 56.0977 204.11 57.3129 202.249 60.2474C201.252 61.819 201.037 63.9711 201.517 65.838C201.959 67.5534 202.957 68.9399 204.182 69.9655C206.705 72.0763 210.118 73.4139 213.064 74.7194C216.13 76.0784 219.284 77.5155 221.894 79.5261C224.462 81.5046 226.697 84.046 227.275 87.782C227.954 92.1672 226.692 96.0707 224.714 98.544C222.577 101.218 219.52 102.768 216.094 103.56C209.557 105.069 201.043 104.322 194.569 102.985C194.202 102.91 193.75 102.782 193.158 102.672C192.751 102.597 191.985 102.491 191.852 102.307C191.588 101.94 191.801 100.377 191.801 99.5879C191.801 96.7911 191.755 93.732 191.852 91.2816C193.424 91.0743 195.575 91.1768 197.234 91.2296C197.963 94.0455 198.922 96.2321 200.787 97.7616C204.391 100.718 213.093 100.62 216.305 97.4481C217.993 95.7793 218.739 92.6949 218.08 89.6105C217.541 87.0891 215.553 85.4341 213.535 84.124C211.463 82.781 209.048 81.7294 206.847 80.7803C202.142 78.7529 197.442 76.6757 194.621 72.9956C193.057 70.9536 192.202 68.4681 192.322 65.2629C192.436 62.2274 193.62 59.8635 195.144 58.0525C197.951 54.715 203.376 52.491 209.511 52.2011C215.9 51.8982 221.341 52.7143 226.334 53.9249Z" fill="black"></path><path d="M324.401 52.7755C324.684 53.603 324.365 54.5903 324.453 55.6488C322.772 56.1971 320.735 56.334 320.012 57.8429C319.146 59.6509 319.489 63.2584 319.489 65.994C319.489 68.0283 319.489 70.25 319.489 72.5245C319.489 73.222 319.427 74.3669 319.593 74.5627C319.879 74.9007 321.554 74.7194 322.258 74.7194C328.119 74.7194 333.278 74.7194 339.186 74.7194C340.072 74.7194 341.429 74.8808 341.745 74.5627C341.996 74.3103 341.902 73.1784 341.902 72.4725C341.902 68.6685 342.078 65.1237 341.902 61.3969C341.832 59.9163 341.774 58.4356 341.276 57.5829C340.512 56.2782 338.571 56.2698 337.043 55.6495C336.872 54.7624 336.861 53.7177 336.992 52.7762C343.107 52.5682 349.809 52.6707 356.01 52.7242C356.303 53.421 356.154 54.7892 356.115 55.6503C354.454 56.178 352.347 56.3333 351.673 57.9492C351.239 58.9924 351.203 60.8723 351.203 62.6511C351.204 72.8014 351.203 83.2544 351.203 93.4766C351.203 96.424 351.189 99.0052 353.084 99.9551C353.952 100.389 355.393 100.488 356.114 100.896C356.25 101.643 356.166 102.838 356.114 103.717C349.999 103.891 343.159 103.891 337.043 103.717C336.9 102.997 336.851 101.659 337.043 100.948C337.753 100.419 338.743 100.446 339.55 100.164C341.741 99.3975 341.858 97.4404 341.955 94.3637C342.092 90.0128 341.953 86.296 341.955 81.8251C341.955 81.0297 342.038 79.712 341.798 79.4741C341.492 79.172 339.955 79.3173 339.134 79.3173C332.729 79.3173 325.843 79.3663 319.697 79.4213C319.416 80.8125 319.541 82.3987 319.541 84.0192C319.541 87.1181 319.541 90.3203 319.541 93.5293C319.541 95.1308 319.456 96.7674 319.802 97.9704C320.104 99.0128 320.893 99.6491 321.788 100.008C322.652 100.353 323.701 100.348 324.505 100.949C324.444 101.862 324.631 103.025 324.4 103.769C318.253 103.959 311.43 103.923 305.278 103.769C305.271 103.159 304.903 101.636 305.278 101.001C305.628 100.409 307.741 100.377 308.622 99.851C310.401 98.7888 310.241 95.8451 310.241 92.8502C310.242 84.4513 310.241 76.0318 310.241 67.5106C310.241 65.926 310.284 64.2021 310.241 62.4424C310.186 60.0853 310.193 57.9164 308.935 56.9566C307.962 56.2147 306.164 56.1574 305.225 55.6503C305.359 54.9857 304.681 52.878 305.643 52.6722C306.305 52.53 307.254 52.6722 308.047 52.6722C313.317 52.6707 319.385 52.6959 324.401 52.7755Z" fill="black"></path><path d="M408.884 52.7755C409.165 57.2204 408.834 61.9537 408.936 66.5684C408.187 66.7084 407.371 66.6732 406.428 66.6732C405.69 66.6732 404.435 66.9279 403.973 66.6212C403.704 66.443 403.475 65.3035 403.293 64.7406C402.194 61.3273 400.697 57.6824 396.71 57.2694C394.736 57.0644 392.679 57.2686 390.337 57.2694C390.06 58.8655 390.179 60.5832 390.18 62.3376C390.183 72.572 390.233 83.1451 390.232 93.5286C390.232 96.1442 390.282 98.4729 391.799 99.5375C392.962 100.353 394.675 100.299 395.874 100.843C395.932 101.657 396.021 102.934 395.822 103.664C395.069 103.901 394.229 103.769 393.419 103.769C387.485 103.769 381.058 103.785 375.237 103.769C375.037 103.04 375.127 101.762 375.185 100.948C376.307 100.412 377.936 100.371 379.051 99.6943C380.713 98.6863 380.85 96.6099 380.88 93.7894C380.998 82.6044 380.931 71.3422 380.932 59.8811C380.932 59.072 381.01 57.6885 380.775 57.4254C380.467 57.0805 379.305 57.2006 378.842 57.2166C376.824 57.2862 374.425 57.1226 372.835 57.635C369.227 58.7951 368.566 63.3311 367.191 66.6732C365.676 66.807 363.396 66.9118 361.967 66.6212C361.777 62.7835 361.863 58.4777 361.861 54.2393C361.861 53.6229 361.715 52.8076 362.175 52.7243C363.631 52.4581 366.491 52.6723 368.183 52.6723C381.597 52.6707 395.845 52.5851 408.884 52.7755Z" fill="black"></path><path d="M251.622 52.8276C251.758 53.6008 251.736 54.8306 251.622 55.5969C250.754 56.1957 249.363 56.1345 248.382 56.6943C246.733 57.635 246.71 60.0831 246.71 62.9113C246.711 73.2443 246.709 83.5658 246.71 94.0502C246.71 95.8077 246.737 97.683 247.233 98.7009C247.957 100.185 250.092 100.31 251.622 100.895C251.793 101.628 251.793 103.034 251.622 103.768C245.532 103.943 238.696 103.943 232.551 103.768C232.316 103.007 232.242 101.663 232.551 100.947C233.183 100.538 234.247 100.468 235.059 100.163C235.804 99.884 236.515 99.3984 236.834 98.7529C237.347 97.7151 237.357 95.706 237.357 93.9982C237.357 83.5849 237.306 73.089 237.305 62.7025C237.305 60.9037 237.315 58.9887 236.835 57.9478C236.136 56.4313 233.978 56.2454 232.393 55.7009C232.402 55.4271 232.342 54.8604 232.342 54.1338C232.342 53.6742 232.183 52.8001 232.604 52.7756C235.41 52.6073 239.182 52.7236 242.269 52.7236C245.58 52.7236 248.819 52.6387 251.622 52.8276Z" fill="black"></path><path d="M144.463 52.7755C157.994 52.8451 171.828 52.6363 185.267 52.8803C185.475 56.6775 185.373 61.065 185.319 64.9494C184.688 65.2063 183.821 65.1061 182.76 65.1061C182.013 65.1061 180.658 65.3203 180.147 65.0541C179.875 64.9119 179.71 64.0844 179.573 63.7479C178.319 60.6979 177.089 57.7367 173.093 57.3742C168.492 56.9566 163.505 57.3856 158.621 57.3742C158.338 58.7363 158.464 60.2299 158.465 61.7105C158.465 66.0254 158.379 70.738 158.57 74.929C159.296 75.2036 160.237 75.0858 161.183 75.0858C162.071 75.0858 163.011 75.0858 163.952 75.0858C167.117 75.0858 169.686 75.3543 170.952 73.5715C171.703 72.5146 171.998 71.1632 172.467 69.6528C174.131 69.6788 175.981 69.6153 177.483 69.6528C177.757 70.1874 177.639 70.829 177.639 71.4294C177.639 75.7642 177.683 80.502 177.587 84.8039C176.232 85.0747 174.007 85.0127 172.572 84.856C172.215 84.5393 172.223 84.0506 172.101 83.6537C171.634 82.1295 170.839 80.3208 169.228 79.8397C167.268 79.2539 163.924 79.5782 161.234 79.5782C160.432 79.5782 158.948 79.4329 158.621 79.6829C158.293 79.9361 158.465 81.2821 158.465 81.9299C158.465 87.0142 158.465 91.7207 158.465 96.7682C158.465 97.4183 158.322 98.8355 158.57 99.1192C158.816 99.4029 159.954 99.276 160.659 99.276C162.767 99.276 165.442 99.276 167.347 99.276C170.43 99.276 173.672 99.5391 175.551 98.5456C178.65 96.9028 178.908 92.7738 180.513 89.7666C182.144 89.7085 184.245 89.6206 185.79 89.8186C185.601 94.3852 185.276 99.2653 184.902 103.821C172.67 103.917 159.374 103.873 146.71 103.873C145.898 103.873 144.649 103.999 144.411 103.77C143.899 103.276 144.467 101.771 144.254 100.896C145.801 100.413 147.911 100.239 148.643 98.8569C149.17 97.8619 149.166 95.9155 149.166 94.1037C149.166 83.6155 149.166 73.2358 149.166 62.7032C149.166 60.9029 149.204 59.0269 148.696 57.9485C148.001 56.4725 145.799 56.3203 144.36 55.7544C144.237 54.9498 144.098 53.4195 144.463 52.7755Z" fill="black"></path><path d="M215.832 120.644C215.882 122.031 215.986 123.893 215.78 125.191C215.418 125.387 214.734 125.258 214.213 125.294C213.401 123.942 212.833 122.197 211.026 121.585C209.379 121.026 207.035 121.156 205.593 122.003C204.115 122.87 203.166 125.04 204.235 127.018C205.317 129.022 207.973 129.872 210.192 130.884C212.933 132.137 216.48 133.614 216.513 137.521C216.57 144.09 209.522 144.741 203.243 143.842C202.099 143.679 200.942 143.636 200.056 143.164C200.003 141.802 199.901 139.946 200.107 138.671C200.591 138.527 201.661 138.444 201.988 138.721C202.31 138.997 202.281 139.652 202.405 139.924C202.804 140.796 203.576 141.759 204.547 142.223C206.633 143.216 210.338 142.964 211.81 141.491C212.878 140.424 213.221 137.775 212.227 136.215C212.041 135.919 211.805 135.618 211.548 135.378C208.807 132.821 202.636 132.175 200.734 128.43C200.399 127.773 200.217 127.049 200.21 126.235C200.161 119.472 209.609 118.996 215.832 120.644Z" fill="black"></path><path d="M246.501 143.685C246.449 143.022 246.991 143.03 247.389 142.902C247.889 142.74 248.357 142.585 248.591 142.171C249.171 141.143 248.957 139.016 248.957 137.365C248.957 134.097 248.957 130.411 248.957 127.019C248.957 124.734 249.312 122.062 247.964 121.324C247.375 121.001 246.575 121.094 246.501 120.646C246.366 119.823 248.187 120.122 249.271 120.122C250.874 120.122 251.796 120.122 253.503 120.122C254.119 120.122 255.039 120.044 255.123 120.489C255.231 121.064 254.041 121.15 253.66 121.377C252.21 122.239 252.615 125.654 252.615 128.065C252.615 131.121 252.615 134.468 252.615 137.783C252.615 139.789 252.451 141.989 253.608 142.693C254.031 142.95 255.159 142.908 255.123 143.529C255.091 144.085 254.024 143.896 253.242 143.896C251.569 143.896 250.201 143.896 248.592 143.896C247.845 143.895 247.041 144.049 246.501 143.685Z" fill="black"></path><path d="M191.851 138.095C192.291 137.623 192.05 136.899 192.007 136.319C191.776 133.188 191.961 129.528 191.799 126.078C191.706 124.108 192.143 122.18 191.015 121.428C190.555 121.122 189.47 121.077 189.448 120.591C189.419 119.953 190.449 120.162 191.015 120.174C192.533 120.204 193.48 120.173 195.091 120.122C195.639 120.106 196.723 120.006 196.815 120.436C196.957 121.107 195.4 121.202 195.038 121.534C194.134 122.362 194.359 125.198 194.359 127.073C194.359 132.699 194.491 139.029 194.307 144.053C193.691 143.909 192.748 144.243 192.06 144.053C191.47 143.89 190.544 142.165 190.179 141.648C186.613 136.602 183.062 131.662 179.573 126.602C179.293 126.196 178.983 125.744 178.738 125.295C178.516 124.89 178.38 124.249 177.798 124.146C177.382 124.666 177.6 125.462 177.641 126.131C177.861 129.679 177.85 133.566 177.85 137.468C177.85 139.531 177.515 141.845 178.686 142.641C179.08 142.911 180.439 143.032 180.253 143.685C180.131 144.117 179.045 143.917 178.53 143.894C177.106 143.835 176.05 143.946 174.559 143.946C173.866 143.946 172.982 144.082 172.886 143.633C172.743 142.962 173.857 142.989 174.297 142.744C175.548 142.05 175.29 139.14 175.29 137.101C175.29 133.983 175.29 130.034 175.29 126.861C175.29 124.778 175.558 122.205 174.507 121.427C173.97 121.029 172.24 121.1 173.044 120.172C173.779 120.059 174.838 120.124 176.127 120.172C177.131 120.21 178.494 120.011 179.052 120.224C179.684 120.467 180.329 121.605 180.828 122.314C183.486 126.084 186.125 129.896 188.717 133.6C189.508 134.73 190.291 135.818 191.016 137.048C191.237 137.426 191.367 137.966 191.851 138.095Z" fill="black"></path><path d="M300.472 120.173C300.84 120.035 301.89 120.122 302.561 120.122C303.228 120.122 303.931 120.122 304.6 120.122C305.481 120.122 308.181 119.849 308.31 120.487C308.441 121.147 307.049 121.215 306.795 121.376C305.644 122.102 305.855 123.969 305.855 125.869C305.855 127.336 305.855 128.718 305.855 129.789C305.855 132.416 306.007 135.332 305.75 137.468C305.201 142.024 302.096 144.083 296.92 144.209C291.552 144.337 287.886 142.894 287.15 138.356C286.763 135.974 286.994 133.315 286.994 130.729C286.994 129.441 286.994 128.117 286.994 126.81C286.994 125.097 287.265 122.254 286.262 121.48C285.924 121.22 284.523 121.205 284.589 120.54C284.641 120.017 285.794 120.174 286.575 120.174C288.22 120.174 289.471 120.174 291.277 120.174C292.105 120.174 293.193 119.999 293.21 120.59C293.226 121.149 292.437 121.142 292.217 121.218C291.723 121.393 291.321 121.586 291.119 121.949C290.575 122.929 290.805 124.993 290.805 126.704C290.805 128.525 290.754 129.796 290.754 131.668C290.754 136.074 290.235 140.733 293.262 142.17C296.078 143.505 300.453 142.746 301.725 140.446C302.765 138.562 302.561 135.189 302.561 132.399C302.561 129.254 302.745 126.38 302.561 123.57C302.47 122.184 302.146 121.5 300.889 121.114C300.674 121.049 300.12 120.998 300.105 120.591C300.091 120.152 300.468 120.176 300.472 120.173Z" fill="black"></path><path d="M333.597 120.173C333.728 121.959 333.84 124.536 333.545 126.235C333.165 126.446 332.418 126.291 331.873 126.339C330.947 124.985 330.726 122.95 329.155 122.265C328.042 121.777 326.248 122.063 324.662 122.056C324.307 122.686 324.454 123.474 324.454 124.198C324.454 127.913 324.328 131.996 324.506 135.745C324.626 138.294 323.932 141.669 325.55 142.694C325.982 142.968 327.325 143.022 327.274 143.582C327.224 144.128 325.731 143.896 325.132 143.896C323.216 143.896 321.936 143.896 320.064 143.896C319.302 143.896 317.95 144.069 317.869 143.582C317.769 142.977 319.173 142.886 319.541 142.694C321.012 141.929 320.743 139.485 320.743 137.052C320.743 132.796 320.743 128.841 320.743 124.408C320.743 123.602 320.844 122.318 320.586 122.057C320.256 121.723 317.967 121.897 317.294 121.952C314.846 122.157 314.273 124.224 313.376 126.288C312.801 126.288 312.226 126.288 311.652 126.288C311.393 125.465 311.494 124.327 311.495 123.205C311.495 122.132 311.341 120.925 311.704 120.176C318.89 120.077 326.408 120.1 333.597 120.173Z" fill="black"></path><path d="M160.555 120.227C160.581 120.214 160.55 120.178 160.607 120.175C162.44 120.041 164.848 120.175 167.085 120.175C167.803 120.175 168.839 120.064 168.914 120.489C169.016 121.069 167.928 121.114 167.608 121.273C166.14 121.994 166.458 124.404 166.458 126.758C166.459 130.222 166.458 133.523 166.458 137.051C166.458 139.383 166.106 141.862 167.347 142.693C167.713 142.938 169.021 143.053 168.914 143.634C168.822 144.132 167.472 143.947 166.876 143.947C165.101 143.947 163.953 143.947 162.175 143.947C161.441 143.947 160.289 144.104 160.242 143.581C160.195 143.068 161.164 143.006 161.652 142.744C162.954 142.05 162.75 139.843 162.75 137.521C162.75 135.8 162.786 134.178 162.75 132.714C162.657 128.853 162.932 125.969 162.698 123.153C162.636 122.402 162.343 121.762 161.863 121.429C161.521 121.189 160.338 121.106 160.296 120.645C160.264 120.324 160.437 120.285 160.555 120.227Z" fill="black"></path><path d="M220.482 120.173C227.779 120.173 235.076 120.173 242.374 120.173C242.689 121.88 242.507 124.359 242.479 126.235C242.062 126.504 241.268 126.324 240.702 126.287C239.976 125.036 239.768 123.637 238.664 122.733C237.571 121.84 235.397 121.903 233.439 122.106C233.158 123.589 233.282 125.351 233.282 127.123C233.282 130.54 233.282 133.797 233.282 137.414C233.282 139.416 233.096 141.768 234.222 142.587C234.891 143.073 235.929 142.798 236.154 143.738C235.669 144.167 234.743 143.998 233.907 143.998C232.1 143.998 230.871 143.998 228.943 143.998C228.236 143.998 226.887 144.154 226.801 143.684C226.685 143.037 227.985 143.004 228.474 142.744C229.887 141.99 229.623 139.737 229.622 137.362C229.622 133.111 229.622 128.996 229.622 124.561C229.622 123.79 229.722 122.379 229.466 122.158C229.101 121.842 227.922 122.037 227.324 122.053C226.654 122.072 225.764 122.081 225.285 122.21C223.553 122.674 223.077 124.789 222.255 126.336C221.734 126.393 220.793 126.496 220.427 126.232C220.376 124.351 220.275 121.972 220.482 120.173Z" fill="black"></path><path d="M281.141 120.227C281.31 122.017 281.316 124.499 281.141 126.287C280.642 126.486 279.899 126.361 279.364 126.287C278.47 124.582 277.991 122.239 275.497 122.003C275.044 121.96 274.367 122.003 273.774 122.003C273.309 122.003 272.408 121.887 272.154 122.108C271.897 122.332 271.997 123.733 271.997 124.512C271.997 128.806 271.974 132.706 271.997 137.051C272.01 139.32 271.751 141.942 273.199 142.746C273.559 142.947 274.873 142.997 274.818 143.582C274.77 144.106 273.435 143.948 272.624 143.948C270.804 143.948 269.199 143.932 267.557 144C266.793 144.033 265.485 144.127 265.414 143.635C265.323 142.997 266.788 142.939 267.19 142.694C268.257 142.046 268.288 140.381 268.288 138.358C268.288 132.903 268.375 127.278 268.184 122.161C267.521 121.901 266.702 121.992 265.99 122.005C263.226 122.047 262.483 122.808 261.6 124.825C261.388 125.314 261.136 126.113 260.817 126.289C260.355 126.544 259.522 126.394 259.093 126.237C258.918 124.949 259.115 123.154 259.041 121.587C259.019 121.109 258.828 120.573 259.145 120.228C266.355 120.139 273.931 120.139 281.141 120.227Z" fill="black"></path><path d="M356.639 120.227C356.778 121.703 356.958 123.869 356.639 125.294C356.176 125.406 355.514 125.319 354.966 125.346C354.137 124.157 353.86 122.463 352.406 121.846C351.347 121.397 349.553 121.533 348.174 121.533C347.381 121.533 344.287 121.247 343.838 121.74C343.587 122.016 343.681 123.337 343.681 123.988C343.681 125.637 343.681 127.155 343.681 128.794C343.681 129.58 343.533 130.39 343.943 130.882C345.702 130.897 347.428 131.028 348.906 130.882C349.662 130.807 350.239 130.373 350.579 129.838C350.891 129.344 350.949 128.586 351.31 128.376C351.741 128.122 352.621 128.406 353.086 128.324C353.115 130.529 353.053 132.645 353.034 134.802C352.601 134.937 351.789 134.971 351.362 134.802C350.824 133.854 350.691 132.848 349.586 132.452C348.803 132.171 347.945 132.295 346.817 132.295C346.051 132.295 344.407 132.093 343.996 132.4C343.611 132.686 343.787 134.147 343.787 134.803C343.787 136.701 343.787 138.149 343.787 139.978C343.787 140.636 343.607 142.097 343.892 142.432C344.251 142.852 347.655 142.554 348.28 142.537C349.932 142.492 351.479 142.676 352.513 142.223C354.174 141.497 354.32 139.493 355.073 137.992C355.647 137.875 356.331 137.898 356.85 137.941C356.984 139.758 356.728 142.061 356.483 143.845C351.083 144.007 345.297 143.949 339.608 143.949C338.803 143.949 337.71 144.101 337.623 143.637C337.522 143.097 338.24 143.084 338.616 142.957C340.311 142.384 340.079 140.379 340.079 137.837C340.079 136.124 340.079 134.632 340.079 133.187C340.079 129.759 340.238 126.459 340.079 123.835C340.019 122.849 339.849 121.901 339.243 121.484C338.686 121.101 337.465 121.297 337.674 120.283C343.625 120.07 350.609 120.173 356.639 120.227Z" fill="black"></path></svg> 