<?xml version="1.0" encoding="UTF-8"?> <svg xmlns="http://www.w3.org/2000/svg" width="412" height="69" viewBox="0 0 412 69" fill="none"><path d="M58.3 68.1H67.7V0.5H0V10H58.3V68.1Z" fill="black"></path><path d="M44.3 68.1H52.6V15.6H0V23.9H44.3V68.1Z" fill="black"></path><path d="M31.5 68.1H38.7V29.5H0V36.7H31.5V68.1Z" fill="black"></path><path d="M19.9 68.1H25.9V42.3H0V48.3H19.9V68.1Z" fill="black"></path><path d="M9.4 68.1H14.2V53.9H0V58.8H9.4V68.1Z" fill="black"></path><path d="M105 0.400009H95.5V30.4H105V0.400009Z" fill="black"></path><path d="M136.2 30.4H128L117.4 15.1V30.4H108.3V0.400009H117.5L127.1 14.6V0.400009H136.2V30.4Z" fill="black"></path><path d="M142.2 19.4C145 22.1 148.5 23.2 151.3 23.2C153.4 23.2 154.7 22.6 154.7 21.4C154.7 20 153 19.8 148.4 19C144.1 18.2 139.3 16.5 139.3 10.3C139.3 3.9 144.9 0 151.8 0C157.1 0 161.3 1.9 163.8 4.2L159.2 10.7C157.1 8.7 154.3 7.7 151.6 7.7C149.9 7.7 148.7 8.2 148.7 9.4C148.7 10.7 150.3 10.9 153.8 11.5C158.4 12.4 164.2 13.8 164.2 20.5C164.2 27.2 158.3 31 151 31C146.2 31 140.3 29.4 137.6 26.6L142.2 19.4Z" fill="black"></path><path d="M183 8.30001V30.4H173.6V8.30001H165.1V0.400009H191.5V8.30001H183Z" fill="black"></path><path d="M202.8 0.400009H193.3V30.4H202.8V0.400009Z" fill="black"></path><path d="M222.6 8.30001V30.4H213.1V8.30001H204.7V0.400009H231.1V8.30001H222.6Z" fill="black"></path><path d="M232.7 17.9V0.400009H242.2V17.7C242.2 21.1 243.7 22.6 246.2 22.6C248.7 22.6 250.2 21.1 250.2 17.7V0.400009H259.7V18C259.7 26.3 254.6 30.9 246.2 30.9C237.7 30.9 232.7 26.2 232.7 17.9Z" fill="black"></path><path d="M279.1 8.30001V30.4H269.6V8.30001H261.2V0.400009H287.5V8.30001H279.1Z" fill="black"></path><path d="M311.7 0.400009V8.30001H298.4V11.4H309.3V19.1H298.4V22.4H311.7V30.4H289.1V0.400009H311.7Z" fill="black"></path><path d="M95.5 67.5V37.5H118.1V45.4H104.8V50.2H115.7V57.9H104.8V67.5H95.5Z" fill="black"></path><path d="M134 37C142.9 37 149 43.5 149 52.5C149 61.5 142.9 68 134 68C125.1 68 119 61.5 119 52.5C119 43.5 125.1 37 134 37ZM134 45.1C130.7 45.1 128.5 47.8 128.5 52.5C128.5 57.2 130.7 59.9 134 59.9C137.3 59.9 139.5 57.2 139.5 52.5C139.5 47.8 137.2 45.1 134 45.1Z" fill="black"></path><path d="M160.8 67.5H151.3V37.5H165C172.7 37.5 177.4 41.3 177.4 47.9C177.4 52 175.4 55.1 171.9 56.8L178.5 67.5H167.6L162.3 58.3H160.8V67.5ZM164.4 50.9C166.9 50.9 168 49.8 168 48.1C168 46.4 166.9 45.3 164.4 45.3H160.7V50.9H164.4Z" fill="black"></path><path d="M197.3 67.5H187.8V37.5H201.5C209.2 37.5 213.9 41.2 213.9 48.2C213.9 55.2 209.2 58.9 201.5 58.9H197.3V67.5ZM201 51C203.5 51 204.6 49.9 204.6 48.2C204.6 46.5 203.5 45.4 201 45.4H197.3V51.1H201V51Z" fill="black"></path><path d="M225.1 67.5H215.6V37.5H229.3C237 37.5 241.7 41.3 241.7 47.9C241.7 52 239.7 55.1 236.2 56.8L242.8 67.5H231.9L226.6 58.3H225.1V67.5ZM228.8 50.9C231.3 50.9 232.4 49.8 232.4 48.1C232.4 46.4 231.3 45.3 228.8 45.3H225.1V50.9H228.8Z" fill="black"></path><path d="M258 37C266.9 37 273 43.5 273 52.5C273 61.5 266.9 68 258 68C249.1 68 243 61.5 243 52.5C243 43.5 249.1 37 258 37ZM258 45.1C254.7 45.1 252.5 47.8 252.5 52.5C252.5 57.2 254.7 59.9 258 59.9C261.3 59.9 263.5 57.2 263.5 52.5C263.5 47.8 261.3 45.1 258 45.1Z" fill="black"></path><path d="M295.2 65.4C294 66.9 291.5 67.9 288.4 67.9C280.3 67.9 274.4 61.6 274.4 52.7C274.4 43.8 280.5 37 289.3 37C296.6 37 301.1 40.7 303 46.6L293.9 49.4C293.5 46.7 291.9 45.1 289.4 45.1C286.1 45.1 283.9 48 283.9 52.6C283.9 57.2 286.1 60 289.5 60C291.5 60 293.1 59 293.7 57.6H288.9V50.3H303.4V67.5H295.3V65.4H295.2Z" fill="black"></path><path d="M316.2 67.5H306.7V37.5H320.4C328.1 37.5 332.8 41.3 332.8 47.9C332.8 52 330.8 55.1 327.3 56.8L333.9 67.5H323L317.7 58.3H316.2V67.5ZM319.8 50.9C322.3 50.9 323.4 49.8 323.4 48.1C323.4 46.4 322.3 45.3 319.8 45.3H316.1V50.9H319.8Z" fill="black"></path><path d="M358 37.5V45.4H344.8V48.5H355.6V56.2H344.8V59.5H358V67.5H335.4V37.5H358Z" fill="black"></path><path d="M363.4 56.5C366.2 59.2 369.7 60.3 372.5 60.3C374.6 60.3 375.9 59.7 375.9 58.5C375.9 57.1 374.2 56.9 369.6 56.1C365.3 55.3 360.5 53.6 360.5 47.4C360.5 41 366.1 37.1 373 37.1C378.3 37.1 382.5 39 385 41.3L380.4 47.8C378.3 45.8 375.5 44.8 372.8 44.8C371.1 44.8 369.9 45.3 369.9 46.5C369.9 47.8 371.5 48 375 48.6C379.6 49.5 385.4 50.9 385.4 57.6C385.4 64.4 379.5 68.1 372.2 68.1C367.4 68.1 361.5 66.5 358.8 63.7L363.4 56.5Z" fill="black"></path><path d="M389.4 56.5C392.2 59.2 395.7 60.3 398.5 60.3C400.6 60.3 401.9 59.7 401.9 58.5C401.9 57.1 400.2 56.9 395.6 56.1C391.3 55.3 386.5 53.6 386.5 47.4C386.5 41 392.1 37.1 399 37.1C404.3 37.1 408.5 39 411 41.3L406.4 47.8C404.3 45.8 401.5 44.8 398.8 44.8C397.1 44.8 395.9 45.3 395.9 46.5C395.9 47.8 397.5 48 401 48.6C405.6 49.5 411.4 50.9 411.4 57.6C411.4 64.4 405.5 68.1 398.2 68.1C393.4 68.1 387.5 66.5 384.8 63.7L389.4 56.5Z" fill="black"></path><path d="M0.0999985 68.1H3.7V64.4H0V68.1H0.0999985Z" fill="black"></path><path d="M67.6 0.400009H0V0.500008H67.6V0.400009Z" fill="black"></path></svg> 