<?xml version="1.0" encoding="UTF-8"?> <svg xmlns="http://www.w3.org/2000/svg" width="414" height="107" viewBox="0 0 414 107" fill="none"><path d="M100.737 94.978H99.3525L99.1322 94.4115C99.1322 94.1283 98.912 93.8451 98.7861 93.5304L98.4084 92.6177L97.9364 91.5477H94.7893C94.5061 92.2401 94.2858 92.8695 94.034 93.4674C93.846 93.9609 93.6884 94.4653 93.562 94.978H92.5864C93.2787 93.4674 93.9711 91.9883 94.632 90.5092C95.2928 89.0301 95.9537 87.3621 96.6146 85.9774H96.8664C97.0552 86.4809 97.2755 87.0159 97.5272 87.5824L98.2511 89.3448L99.0064 91.1071L99.6987 92.7121C99.919 93.2156 100.108 93.6877 100.297 94.0654C100.485 94.443 100.611 94.7577 100.737 94.978ZM95.0411 90.9812H97.9364L96.4887 87.8342L95.0411 90.9812Z" fill="black"></path><path d="M106.213 86.8271H104.231H103.633C103.645 86.6911 103.645 86.5541 103.633 86.418C103.641 86.2818 103.641 86.1452 103.633 86.0089H105.269H108.416H110.084C110.076 86.1452 110.076 86.2818 110.084 86.418C110.071 86.5541 110.071 86.6911 110.084 86.8271H109.486H107.378C107.378 87.7083 107.378 88.5895 107.378 89.4707V91.6736C107.378 92.2401 107.378 92.8066 107.378 93.3416C107.378 93.8766 107.378 94.443 107.378 94.978H106.119C106.119 94.443 106.119 93.908 106.119 93.3416C106.119 92.7751 106.119 92.2401 106.119 91.6736V89.4707C106.245 88.5895 106.245 87.7083 106.213 86.8271Z" fill="black"></path><path d="M128.463 87.2366C128.272 87.0813 128.06 86.9542 127.833 86.8589C127.584 86.7319 127.32 86.6367 127.047 86.5757C126.744 86.5274 126.436 86.5274 126.134 86.5757C125.63 86.5744 125.13 86.6596 124.655 86.8274C124.198 86.9715 123.786 87.2317 123.459 87.5827C123.084 87.9391 122.803 88.3823 122.641 88.873C122.437 89.4595 122.341 90.0778 122.358 90.6983C122.355 91.2743 122.44 91.8474 122.609 92.3977C122.785 92.8683 123.04 93.3048 123.365 93.688C123.704 94.0315 124.111 94.2996 124.561 94.4748C125.084 94.6678 125.639 94.7638 126.197 94.758H126.763H127.33H127.833L128.243 94.5692C128.228 94.3072 128.228 94.0445 128.243 93.7824V93.0271C128.258 92.7231 128.258 92.4185 128.243 92.1145C128.243 91.7998 128.243 91.5166 128.243 91.2648H128.841H129.407C129.387 91.5687 129.387 91.8736 129.407 92.1774C129.407 92.618 129.407 93.153 129.407 93.8454V94.3804C129.422 94.5584 129.422 94.7374 129.407 94.9154L128.715 95.1042C128.437 95.1887 128.153 95.2519 127.865 95.293H126.952H126.134C125.431 95.3027 124.731 95.2072 124.057 95.0098C123.487 94.8428 122.961 94.5527 122.515 94.1601C122.059 93.7735 121.712 93.2745 121.508 92.7124C121.27 92.0788 121.153 91.4064 121.162 90.7298C121.15 90.0601 121.278 89.3954 121.539 88.7786C121.759 88.225 122.104 87.7296 122.546 87.331C123.002 86.928 123.538 86.6275 124.12 86.4498C124.79 86.2293 125.492 86.1229 126.197 86.1351H127.361L128.243 86.3239L128.935 86.5757L129.47 86.8274C129.39 86.9663 129.326 87.1142 129.281 87.268C129.27 87.4462 129.27 87.6249 129.281 87.803C129.038 87.5744 128.762 87.3834 128.463 87.2366Z" fill="black"></path><path d="M134.757 87.8028C134.757 87.2364 134.757 86.7014 134.757 86.1349H135.89H138.187H139.32C139.32 86.1349 139.32 86.3866 139.32 86.544C139.32 86.7014 139.32 86.7958 139.32 86.9217H138.596H137.872H137.023H135.953C135.969 87.1836 135.969 87.4464 135.953 87.7084V90.2575H137.778H138.47H138.848C138.831 90.3934 138.831 90.5308 138.848 90.6666C138.833 90.7921 138.833 90.9189 138.848 91.0443H138.061H135.732V94.4116H137.589H138.47C138.71 94.4489 138.954 94.4489 139.194 94.4116C139.207 94.4845 139.207 94.5591 139.194 94.6319V94.8208C139.194 94.8208 139.194 95.0725 139.194 95.1669H134.694C134.694 94.6005 134.694 94.0655 134.694 93.5305C134.694 92.9955 134.694 92.429 134.694 91.8625V89.6596C134.788 88.9043 134.788 88.3378 134.757 87.8028Z" fill="black"></path><path d="M144.041 88.621C144.3 88.0651 144.676 87.5714 145.142 87.1734C145.575 86.7717 146.09 86.4708 146.653 86.2922C147.279 86.0705 147.94 85.9639 148.604 85.9775C149.268 85.9666 149.928 86.0731 150.555 86.2922C151.118 86.4708 151.633 86.7717 152.066 87.1734C152.498 87.5808 152.841 88.0738 153.073 88.621C153.535 89.8807 153.535 91.2636 153.073 92.5234C152.841 93.0706 152.498 93.5636 152.066 93.971C151.633 94.3726 151.118 94.6736 150.555 94.8522C149.923 95.0455 149.265 95.141 148.604 95.1354C147.943 95.1441 147.284 95.0485 146.653 94.8522C146.09 94.6736 145.575 94.3726 145.142 93.971C144.71 93.5636 144.367 93.0706 144.135 92.5234C143.673 91.2636 143.673 89.8807 144.135 88.621H144.041ZM151.783 88.621C151.646 88.1581 151.404 87.7328 151.077 87.3781C150.749 87.0234 150.345 86.7487 149.894 86.5754C149.002 86.2397 148.018 86.2397 147.125 86.5754C146.674 86.7487 146.27 87.0234 145.942 87.3781C145.615 87.7328 145.373 88.1581 145.237 88.621C145.033 89.2075 144.937 89.8258 144.953 90.4463C144.94 91.0769 145.036 91.7051 145.237 92.3031C145.373 92.7818 145.634 93.2159 145.992 93.5619C146.301 93.904 146.69 94.1636 147.125 94.3172C148.018 94.6529 149.002 94.6529 149.894 94.3172C150.329 94.1636 150.718 93.904 151.027 93.5619C151.385 93.2159 151.646 92.7818 151.783 92.3031C151.983 91.7051 152.079 91.0769 152.066 90.4463C152.067 89.868 151.971 89.2935 151.783 88.7469V88.621Z" fill="black"></path><path d="M158.297 87.803C158.297 87.268 158.297 86.7015 158.297 86.135H159.021H161.224C161.558 86.0868 161.897 86.0868 162.231 86.135C162.534 86.1761 162.824 86.2836 163.08 86.4497C163.325 86.6111 163.53 86.8264 163.678 87.0791C163.825 87.3835 163.9 87.7171 163.899 88.0547C163.911 88.4215 163.812 88.7834 163.615 89.0933C163.445 89.3939 163.208 89.6521 162.923 89.8486C162.668 90.0442 162.38 90.1933 162.073 90.2891C161.808 90.3878 161.534 90.4615 161.255 90.5094C161.402 90.6794 161.539 90.858 161.664 91.0444L162.294 91.7997L162.986 92.6809C163.206 92.9956 163.458 93.2788 163.678 93.5621C163.899 93.8453 164.088 94.0971 164.308 94.3174L164.78 94.8524H163.269L162.671 94.0341C162.4 93.6293 162.106 93.2405 161.79 92.8697L160.846 91.6424C160.5 91.2333 160.217 90.8871 159.933 90.6038H159.43V91.548C159.43 92.1144 159.43 92.6809 159.43 93.2159V94.8524H158.171C158.171 94.3174 158.171 93.7824 158.171 93.2159C158.171 92.6494 158.171 92.1144 158.171 91.548V89.345C158.328 88.9044 158.328 88.338 158.297 87.803ZM159.776 90.2577H160.248H161.066C161.351 90.2196 161.621 90.1114 161.853 89.943C162.103 89.8019 162.31 89.5952 162.451 89.345C162.622 89.0603 162.71 88.7331 162.703 88.4009C162.719 88.1158 162.653 87.8321 162.514 87.5827C162.397 87.3623 162.223 87.1774 162.01 87.0477C161.821 86.919 161.607 86.8331 161.381 86.7959C161.151 86.7652 160.918 86.7652 160.689 86.7959H159.461C159.461 87.268 159.461 87.74 159.461 88.2121C159.461 88.6841 159.461 89.1247 159.461 89.5968V90.3206L159.776 90.2577Z" fill="black"></path><path d="M176.267 87.2366C176.069 87.0744 175.846 86.9467 175.606 86.859C175.359 86.727 175.094 86.6316 174.819 86.5757C174.517 86.5253 174.208 86.5253 173.906 86.5757C173.403 86.5775 172.903 86.6625 172.427 86.8275C171.976 86.9853 171.567 87.2435 171.231 87.5828C170.868 87.9426 170.598 88.3855 170.445 88.8731C170.241 89.4595 170.145 90.0779 170.161 90.6984C170.143 91.2754 170.228 91.851 170.413 92.3978C170.564 92.8795 170.822 93.3207 171.168 93.6881C171.501 94.0387 171.91 94.3079 172.364 94.4748C172.876 94.6712 173.421 94.7673 173.969 94.7581H174.536H175.102H175.637L176.046 94.5693V92.1145C176.046 91.7998 176.046 91.5166 176.046 91.2648H176.676H177.211C177.211 91.4537 177.211 91.7684 177.211 92.1775V94.9154L176.55 95.1043C176.26 95.1854 175.966 95.2485 175.669 95.2931H174.756H173.938C173.246 95.3029 172.556 95.2074 171.892 95.0098C171.313 94.8424 170.776 94.5526 170.319 94.1601C169.882 93.7628 169.548 93.2663 169.343 92.7125C169.09 92.0831 168.972 91.4077 168.997 90.7298C168.991 90.0636 169.108 89.402 169.343 88.7787C169.545 88.178 169.879 87.6298 170.319 87.1737C170.786 86.7708 171.333 86.4706 171.924 86.2925C172.582 86.0689 173.274 85.9623 173.969 85.9778H175.134L176.046 86.1666L176.739 86.4184L177.242 86.6701C177.162 86.809 177.099 86.9569 177.053 87.1107C177.041 87.2888 177.041 87.4676 177.053 87.6457H176.613C176.509 87.5003 176.393 87.3635 176.267 87.2366Z" fill="black"></path><path d="M182.561 87.8028V86.1349H183.725H186.054H187.187C187.17 86.2707 187.17 86.4081 187.187 86.544C187.171 86.6694 187.171 86.7962 187.187 86.9217H186.432H185.708H184.89H183.82C183.804 87.1837 183.804 87.4464 183.82 87.7084C183.803 87.9914 183.803 88.2751 183.82 88.5581V90.2575H185.676H186.369H186.967C186.883 90.513 186.883 90.7888 186.967 91.0443H186.18H183.82V94.1914C183.82 94.5061 183.82 94.7263 183.82 94.9152H185.676H186.557C186.797 94.9524 187.041 94.9524 187.281 94.9152C187.281 94.9152 187.281 94.9152 187.281 95.1355V95.3243C187.264 95.439 187.264 95.5557 187.281 95.6705H182.466V94.034C182.466 93.4675 182.466 92.9325 182.466 92.3661V90.1631C182.592 88.9043 182.561 88.3378 182.561 87.8028Z" fill="black"></path><path d="M201.6 89.5336L203.489 93.0583L203.866 92.3659L204.433 91.2959L205.125 90.0371C205.377 89.5651 205.597 89.093 205.88 88.6209C206.164 88.1489 206.384 87.7083 206.604 87.2362C206.825 86.7642 207.108 86.3865 207.297 85.9774H207.485C207.485 86.7957 207.485 87.5824 207.737 88.3692C207.989 89.1559 207.737 89.8798 207.989 90.6036C208.241 91.3274 207.989 92.0827 208.241 92.8065L208.524 94.978H207.328C207.328 93.8136 207.139 92.7121 207.045 91.6421C206.95 90.5721 206.825 89.5021 206.699 88.4951L204.968 91.6421C204.401 92.7121 203.835 93.8451 203.331 95.0095C202.828 93.9395 202.293 92.838 201.726 91.8624C201.16 90.8868 200.625 89.6595 200.058 88.5265C200.058 89.0615 200.058 89.628 199.838 90.2574L199.649 92.1142C199.649 92.7121 199.649 93.2786 199.492 93.8136C199.335 94.3486 199.492 94.7892 199.492 95.1354H198.611C198.611 94.443 198.831 93.6877 198.957 92.9324C199.083 92.1771 199.177 91.3904 199.303 90.6036L199.586 88.3062C199.586 87.5509 199.775 86.8271 199.838 86.1348H200.058C200.405 87.2048 201.002 88.3692 201.6 89.5336Z" fill="black"></path><path d="M220.672 94.978H219.318C219.318 94.7577 219.318 94.5374 219.067 94.2542C218.815 93.9709 218.846 93.6877 218.72 93.373L218.343 92.4604C218.343 92.1456 218.091 91.8309 217.997 91.5477H214.85L214.126 93.4674C213.929 93.961 213.761 94.4653 213.622 94.978H212.678L214.692 90.5092C215.364 89.0196 216.024 87.509 216.675 85.9774H216.927C217.136 86.4809 217.357 87.0159 217.587 87.5824L218.343 89.3448L219.067 91.1071L219.79 92.7121C219.979 93.2156 220.2 93.6877 220.357 94.0654C220.514 94.443 220.672 94.7577 220.672 94.978ZM215.007 90.9812H217.839L216.423 87.8342L215.007 90.9812Z" fill="black"></path><path d="M225.392 93.7508C225.632 94.1103 225.987 94.3769 226.399 94.5061C226.638 94.5535 226.884 94.5535 227.123 94.5061C227.389 94.5224 227.655 94.4904 227.91 94.4116C228.121 94.3231 228.313 94.1949 228.476 94.034C228.631 93.8545 228.758 93.653 228.854 93.4361C228.887 93.1959 228.887 92.9524 228.854 92.7122C228.868 92.5417 228.848 92.3701 228.794 92.2078C228.74 92.0454 228.653 91.8958 228.539 91.7681C228.359 91.5659 228.147 91.3956 227.91 91.2646L226.966 90.824C226.633 90.7051 226.316 90.5466 226.022 90.3519C225.711 90.167 225.451 89.9074 225.266 89.5966C225.032 89.2436 224.922 88.8232 224.952 88.4008C224.947 88.0661 225.012 87.7341 225.14 87.4252C225.263 87.1302 225.458 86.8706 225.707 86.6699C225.966 86.4474 226.265 86.2764 226.588 86.1664C226.962 86.0347 227.356 85.9708 227.753 85.9775C228.115 85.9766 228.476 86.0296 228.822 86.1349C229.117 86.2377 229.393 86.3864 229.641 86.5755L229.452 87.0475C229.452 87.2049 229.452 87.4252 229.452 87.6455L229.295 87.2678C229.207 87.1283 229.101 87.0013 228.98 86.8902C228.852 86.7606 228.703 86.6541 228.539 86.5755C228.343 86.5248 228.137 86.5248 227.941 86.5755C227.724 86.5245 227.498 86.5245 227.28 86.5755C227.082 86.6422 226.9 86.7494 226.745 86.8902C226.592 87.0287 226.474 87.2011 226.399 87.3937C226.352 87.6114 226.352 87.8369 226.399 88.0546C226.377 88.3983 226.49 88.737 226.714 88.9987C226.92 89.2284 227.165 89.4201 227.438 89.5652L228.413 90.0058L229.389 90.4464C229.69 90.6173 229.948 90.854 230.144 91.1387C230.348 91.4801 230.447 91.8743 230.427 92.2716C230.435 92.6577 230.371 93.0417 230.239 93.4046C230.096 93.7499 229.881 94.0609 229.609 94.3172C229.334 94.5879 229 94.7924 228.634 94.9152C228.21 95.0695 227.762 95.1442 227.312 95.1355C226.871 95.1593 226.43 95.084 226.022 94.9152C225.712 94.8098 225.425 94.6499 225.172 94.4431C225.196 94.2656 225.196 94.0857 225.172 93.9081C225.172 93.7508 225.172 93.5305 225.172 93.3102C225.231 93.4639 225.305 93.6115 225.392 93.7508Z" fill="black"></path><path d="M234.645 88.621C234.876 88.0738 235.219 87.5808 235.652 87.1734C236.084 86.7717 236.6 86.4708 237.162 86.2922C237.788 86.0705 238.449 85.9639 239.113 85.9775C239.777 85.9666 240.438 86.0731 241.065 86.2922C241.624 86.478 242.138 86.7781 242.575 87.1734C242.998 87.582 243.331 88.0752 243.551 88.621C244.055 89.873 244.055 91.2714 243.551 92.5234C243.331 93.0691 242.998 93.5624 242.575 93.971C242.138 94.3663 241.624 94.6664 241.065 94.8522C240.432 95.0455 239.774 95.141 239.113 95.1354C238.452 95.1441 237.794 95.0485 237.162 94.8522C236.6 94.6736 236.084 94.3726 235.652 93.971C235.219 93.5636 234.876 93.0706 234.645 92.5234C234.182 91.2636 234.182 89.8807 234.645 88.621ZM242.386 88.621C242.232 88.1406 241.975 87.7 241.631 87.3307C241.322 86.9886 240.933 86.729 240.498 86.5754C240.056 86.4076 239.586 86.3223 239.113 86.3237C238.63 86.3252 238.151 86.4104 237.697 86.5754C237.269 86.7415 236.882 86.9993 236.564 87.3307C236.224 87.6972 235.976 88.1395 235.84 88.621C235.637 89.2075 235.541 89.8258 235.557 90.4463C235.544 91.0769 235.64 91.7051 235.84 92.3031C235.98 92.7734 236.228 93.2044 236.564 93.5619C236.882 93.8933 237.269 94.1511 237.697 94.3172C238.151 94.4822 238.63 94.5674 239.113 94.5689C239.581 94.6007 240.05 94.5474 240.498 94.4116C240.933 94.258 241.322 93.9984 241.631 93.6563C241.968 93.2943 242.226 92.8654 242.386 92.3975C242.587 91.7995 242.683 91.1713 242.67 90.5407C242.682 89.9307 242.586 89.3234 242.386 88.7469V88.621Z" fill="black"></path><path d="M252.992 91.6424L249.656 88.1177V89.0933C249.656 89.5024 249.656 90.0374 249.656 90.7297V93.1215C249.671 93.4046 249.671 93.6882 249.656 93.9712C249.67 94.1913 249.67 94.412 249.656 94.6321C249.656 94.8209 249.656 94.9468 249.656 95.0412H248.712C248.851 94.8544 248.947 94.6397 248.995 94.4118C249.014 94.1394 249.014 93.866 248.995 93.5936C248.995 93.2789 248.995 92.9327 248.995 92.555C248.995 92.1774 248.995 91.7997 248.995 91.4221C248.995 91.0444 248.995 90.6668 248.995 90.3206V87.1736C248.995 86.5756 248.995 86.135 248.995 85.8518H249.184L250.883 87.6771L252.646 89.5968L254.314 91.3592L255.698 92.8068V91.2647C255.698 90.3836 255.698 89.5024 255.698 88.6527C255.698 87.803 255.698 86.9847 255.698 86.2295C255.844 86.2541 255.993 86.2541 256.139 86.2295C256.274 86.2574 256.413 86.2574 256.548 86.2295C256.548 86.4183 256.548 86.7015 256.548 87.0792C256.548 87.4568 256.548 87.8659 256.548 88.3065C256.548 88.7471 256.548 89.1562 256.548 89.5653C256.548 89.9744 256.548 90.2892 256.548 90.5409V95.23H256.359C255.289 94.0027 254.125 92.8383 252.992 91.6424Z" fill="black"></path><path d="M275.588 87.5196C275.588 86.8587 275.588 86.3867 275.588 86.1349H275.84H276.091C276.226 86.1629 276.365 86.1629 276.5 86.1349C276.5 86.4496 276.5 86.7958 276.5 87.2049C276.5 87.614 276.5 88.0861 276.5 88.5581C276.5 89.0302 276.5 89.5022 276.5 90.0058C276.5 90.5093 276.5 91.0128 276.5 91.4849C276.501 92.0092 276.416 92.5301 276.249 93.0269C276.091 93.4519 275.844 93.8378 275.523 94.1582C275.203 94.4787 274.817 94.7262 274.392 94.8837C273.896 95.0563 273.375 95.1415 272.85 95.1355C272.348 95.183 271.841 95.1296 271.36 94.9782C270.879 94.8269 270.433 94.5807 270.049 94.2543C269.404 93.4823 269.087 92.4878 269.168 91.4849C269.168 91.1072 269.168 90.7296 269.168 90.4149C269.168 90.1002 269.168 89.7855 269.168 89.4708V87.5511C269.168 86.9846 269.168 86.544 269.168 86.1349H269.514H270.112H270.395C270.395 86.3237 270.395 86.5755 270.395 86.8902C270.395 87.2049 270.395 87.5196 270.395 87.9287C270.395 88.3378 270.395 88.7155 270.395 89.1561V91.4534C270.363 91.7568 270.363 92.0627 270.395 92.3661C270.45 92.6571 270.534 92.9419 270.647 93.2158C270.767 93.4777 270.938 93.713 271.15 93.9081C271.368 94.1299 271.639 94.2924 271.937 94.3802C272.332 94.514 272.748 94.5779 273.165 94.569C273.574 94.584 273.983 94.5088 274.36 94.3487C274.657 94.2264 274.925 94.0443 275.147 93.8137C275.34 93.5856 275.498 93.3313 275.619 93.0584C275.736 92.7643 275.821 92.4582 275.871 92.1458V91.2016V87.5196H275.588Z" fill="black"></path><path d="M286.193 91.6421L282.857 88.1174C282.839 88.4423 282.839 88.7681 282.857 89.093C282.857 89.5021 282.857 90.0371 282.857 90.7295C282.844 90.9601 282.844 91.1912 282.857 91.4218V92.2401C282.842 92.5336 282.842 92.8277 282.857 93.1212V93.9709C282.872 94.191 282.872 94.4118 282.857 94.6318C282.87 94.7679 282.87 94.9048 282.857 95.0409H281.945C281.945 95.0409 281.945 94.7892 281.945 94.5374C281.945 94.2857 281.945 94.0339 281.945 93.7192C281.962 93.3732 281.962 93.0266 281.945 92.6807C281.945 92.303 281.945 91.9254 281.945 91.5477C281.945 91.1701 281.945 90.7924 281.945 90.4462V87.2992C281.945 86.7012 281.945 86.2607 281.945 85.9774H282.165L283.833 87.8027L285.595 89.7224L287.263 91.4848L288.648 92.9324V91.2645C288.648 90.3833 288.648 89.5021 288.648 88.6524C288.648 87.8027 288.648 86.9845 288.648 86.2292C288.793 86.258 288.943 86.258 289.089 86.2292C289.224 86.2533 289.362 86.2533 289.498 86.2292C289.498 86.418 289.498 86.7012 289.498 87.0789C289.498 87.4565 289.498 87.8657 289.498 88.3062C289.498 88.7468 289.498 89.1559 289.498 89.5651C289.498 89.9742 289.498 90.2889 289.498 90.5407V95.2298H289.34L286.193 91.6421Z" fill="black"></path><path d="M295.257 87.8028C295.257 87.2678 295.257 86.7014 295.257 86.1349H295.572H296.201H296.516C296.516 86.7014 296.516 87.2678 296.516 87.8028C296.516 88.3378 296.516 88.9043 296.516 89.4708V91.6737C296.516 92.2402 296.516 92.8066 296.516 93.3416C296.516 93.8766 296.516 94.4431 296.516 94.9781H295.257C295.257 94.4431 295.257 93.9081 295.257 93.3416C295.257 92.7752 295.257 92.2402 295.257 91.6737V89.4708C295.288 88.9043 295.288 88.3378 295.257 87.8028Z" fill="black"></path><path d="M303.911 93.1528L302.999 90.8869C302.684 90.1002 302.338 89.3134 302.023 88.4952L301.047 86.1349H301.394H302.023H302.369L302.999 87.9287C303.219 88.5581 303.471 89.1875 303.722 89.8169C303.974 90.4464 304.226 91.1072 304.509 91.7681C304.792 92.429 305.044 93.0899 305.296 93.7193L305.8 92.5549C305.988 92.1143 306.177 91.6737 306.335 91.2016L306.901 89.7855C307.09 89.3134 307.247 88.8414 307.404 88.4008C307.562 87.9602 307.719 87.5196 307.877 87.1419L308.223 86.1349C308.532 86.2192 308.858 86.2192 309.167 86.1349C308.506 87.6455 307.845 89.1246 307.247 90.5722C306.649 92.0199 306.02 93.499 305.485 94.9781H304.635C304.415 94.4116 304.194 93.8452 303.911 93.1528Z" fill="black"></path><path d="M313.824 87.8028C313.824 87.2364 313.824 86.7014 313.824 86.1349H314.957H317.255H318.388C318.388 86.1349 318.388 86.3866 318.388 86.544C318.388 86.7014 318.388 86.7958 318.388 86.9217H317.632H316.94H316.09H315.083C315.083 87.2049 315.083 87.4567 315.083 87.7084C315.083 87.9602 315.083 88.2434 315.083 88.5581C315.083 88.8728 315.083 89.219 315.083 89.5337V90.2575H316.909H317.601H318.199C318.182 90.3934 318.182 90.5308 318.199 90.6666C318.183 90.7921 318.183 90.9189 318.199 91.0443H317.412H315.083V91.2961C315.066 91.4108 315.066 91.5275 315.083 91.6422V92.9011C315.083 93.4046 315.083 93.8137 315.083 94.1284V94.4116H316.94H317.821C318.061 94.4489 318.305 94.4489 318.545 94.4116C318.545 94.4116 318.545 94.4116 318.545 94.6319V94.8208C318.545 94.8208 318.545 95.0725 318.545 95.1669H313.919C313.919 94.6005 313.919 94.0655 313.919 93.5305C313.919 92.9955 313.919 92.429 313.919 91.8625V89.6596C313.856 88.9043 313.856 88.3378 313.824 87.8028Z" fill="black"></path><path d="M323.454 87.803C323.454 87.268 323.454 86.7015 323.454 86.135H324.178H326.381C326.715 86.0868 327.054 86.0868 327.388 86.135C327.691 86.1761 327.981 86.2836 328.238 86.4497C328.483 86.6111 328.687 86.8264 328.836 87.0791C328.982 87.3835 329.057 87.7171 329.056 88.0547C329.068 88.4215 328.97 88.7834 328.773 89.0933C328.602 89.3939 328.365 89.6521 328.081 89.8486C327.825 90.0442 327.538 90.1933 327.231 90.2891C326.966 90.3878 326.692 90.4615 326.413 90.5094C326.56 90.6794 326.696 90.858 326.822 91.0444L327.451 91.7997L328.144 92.6809C328.364 92.9956 328.616 93.2788 328.836 93.5621C329.056 93.8453 329.245 94.0971 329.465 94.3174L329.937 94.8524H328.427L327.829 94.0341C327.558 93.6293 327.264 93.2405 326.948 92.8697L326.004 91.6424C325.657 91.2333 325.374 90.8871 325.091 90.6038H324.524V91.548C324.524 92.1144 324.524 92.6809 324.524 93.2159V94.8524H323.266C323.266 94.3174 323.266 93.7824 323.266 93.2159C323.266 92.6494 323.266 92.1144 323.266 91.548V89.345C323.486 88.9044 323.486 88.338 323.454 87.803ZM324.934 90.2577H325.406H326.224C326.508 90.2196 326.779 90.1114 327.011 89.943C327.261 89.8019 327.468 89.5952 327.609 89.345C327.78 89.0603 327.867 88.7331 327.86 88.4009C327.876 88.1158 327.811 87.8321 327.672 87.5827C327.555 87.3623 327.381 87.1774 327.168 87.0477C326.979 86.919 326.764 86.8331 326.539 86.7959C326.309 86.7652 326.076 86.7652 325.846 86.7959H324.524C324.524 87.268 324.524 87.74 324.524 88.2121C324.524 88.6841 324.524 89.1247 324.524 89.5968V90.3206L324.934 90.2577Z" fill="black"></path><path d="M334.532 93.7508C334.654 93.9203 334.803 94.069 334.973 94.1914C335.139 94.333 335.331 94.44 335.539 94.5061C336.025 94.6956 336.564 94.6956 337.05 94.5061C337.261 94.4175 337.453 94.2893 337.616 94.1284C337.771 93.9489 337.898 93.7474 337.994 93.5305C338.041 93.2915 338.041 93.0456 337.994 92.8066C338.008 92.6361 337.988 92.4645 337.934 92.3022C337.88 92.1398 337.793 91.9902 337.679 91.8625C337.523 91.6348 337.332 91.4331 337.113 91.2646L336.137 90.824C335.797 90.6987 335.471 90.5406 335.162 90.3519C334.825 90.1547 334.549 89.8678 334.366 89.5233C334.183 89.1789 334.099 88.7902 334.123 88.4008C334.119 88.0661 334.183 87.7341 334.312 87.4252C334.435 87.1384 334.617 86.8809 334.847 86.6699C335.106 86.4474 335.405 86.2764 335.728 86.1664C336.102 86.0347 336.496 85.9708 336.892 85.9775C337.255 85.9766 337.616 86.0296 337.962 86.1349C338.257 86.2377 338.533 86.3864 338.781 86.5755L338.592 87.0475C338.592 87.2049 338.592 87.4252 338.592 87.6455C338.523 87.5228 338.46 87.3968 338.403 87.2678C338.338 87.1224 338.241 86.9934 338.12 86.8902C337.986 86.7678 337.838 86.6621 337.679 86.5755C337.472 86.5248 337.257 86.5248 337.05 86.5755C336.832 86.5245 336.606 86.5245 336.389 86.5755C336.194 86.6496 336.013 86.756 335.854 86.8902C335.711 87.037 335.593 87.2073 335.508 87.3937C335.475 87.6128 335.475 87.8355 335.508 88.0546C335.5 88.3962 335.612 88.7298 335.822 88.9987C336.034 89.2358 336.291 89.4284 336.578 89.5652L337.553 90.0058C337.879 90.1274 338.195 90.2748 338.497 90.4464C338.798 90.6173 339.056 90.854 339.253 91.1387C339.482 91.4703 339.593 91.8694 339.567 92.2716C339.576 92.6607 339.501 93.0472 339.347 93.4046C339.216 93.7484 339.012 94.0597 338.749 94.3172C338.462 94.5885 338.118 94.7927 337.742 94.9152C337.32 95.0748 336.871 95.1496 336.42 95.1355C335.979 95.1593 335.538 95.084 335.13 94.9152C334.706 94.8481 334.305 94.6749 333.966 94.4116C333.975 94.2334 333.975 94.0548 333.966 93.8766C333.985 93.6778 333.985 93.4776 333.966 93.2787C334.13 93.463 334.321 93.6221 334.532 93.7508Z" fill="black"></path><path d="M344.131 87.8028C344.131 87.2678 344.131 86.7014 344.131 86.1349H344.445H345.075H345.389C345.389 86.7014 345.389 87.2678 345.389 87.8028C345.389 88.3378 345.389 88.9043 345.389 89.4708V91.6737C345.389 92.2402 345.389 92.8066 345.389 93.3416C345.389 93.8766 345.389 94.4431 345.389 94.9781H344.131C344.131 94.4431 344.131 93.9081 344.131 93.3416C344.131 92.7752 344.131 92.2402 344.131 91.6737V89.4708C344.162 88.9043 344.162 88.3378 344.131 87.8028Z" fill="black"></path><path d="M352.848 86.8271H350.708H350.11C350.123 86.6911 350.123 86.5541 350.11 86.418C350.118 86.2818 350.118 86.1452 350.11 86.0089H351.747H355.082H356.719C356.71 86.1452 356.71 86.2818 356.719 86.418C356.706 86.5541 356.706 86.6911 356.719 86.8271H356.121H353.981C353.981 87.7083 353.981 88.5895 353.981 89.4707V91.6736C353.981 92.2401 353.981 92.8066 353.981 93.3416C353.981 93.8766 353.981 94.443 353.981 94.978H352.722C352.722 94.443 352.722 93.908 352.722 93.3416C352.722 92.7751 352.722 92.2401 352.722 91.6736V89.4707C352.848 88.5895 352.848 87.7083 352.848 86.8271Z" fill="black"></path><path d="M363.076 90.7296C362.887 90.4568 362.698 90.1421 362.509 89.7855L361.88 88.7469L361.251 87.6769L360.684 86.7643L360.306 86.1349H360.684H361.376H361.723L362.919 88.3378C363.296 89.0616 363.737 89.8169 364.177 90.5722C364.397 90.2492 364.597 89.9129 364.775 89.5652C364.985 89.2295 365.205 88.8518 365.436 88.4322C365.656 88.0546 365.845 87.6769 366.034 87.2678C366.248 86.9033 366.437 86.5248 366.601 86.1349C366.931 86.2188 367.277 86.2188 367.608 86.1349L366.506 87.8343C366.16 88.3378 365.877 88.8099 365.625 89.219L364.996 90.3205C364.807 90.6666 364.618 90.9499 364.492 91.2016V92.2402C364.492 92.5863 364.492 92.9325 364.492 93.2787C364.475 93.6037 364.475 93.9293 364.492 94.2543C364.492 94.5375 364.492 94.7893 364.492 94.9781H363.233C363.269 94.4332 363.269 93.8865 363.233 93.3416C363.233 92.7122 363.233 92.0514 363.233 91.359L363.076 90.7296Z" fill="black"></path><path d="M92.8067 17.3089C92.8067 15.6725 92.8067 14.1619 92.5864 12.368H93.562H94.4746H95.3872H96.3314C96.3314 14.036 96.3314 15.6725 96.1111 17.3089C95.8908 18.9454 96.1111 20.456 96.1111 22.2183V28.7957C96.1111 30.4636 96.1111 32.1316 96.1111 33.7366C96.1111 35.3416 96.1111 36.8836 96.3314 38.5516C95.7129 38.5186 95.0931 38.5186 94.4746 38.5516C93.8456 38.5186 93.2153 38.5186 92.5864 38.5516C92.5864 36.978 92.7437 35.4045 92.8067 33.7366C92.8696 32.0686 92.8067 30.5895 92.8067 28.7957V22.2183C92.8696 20.5609 92.8696 18.9244 92.8067 17.3089Z" fill="black"></path><path d="M115.623 28.6697C112.224 25.1241 108.92 21.5994 105.71 18.0956C105.71 18.788 105.71 19.7321 105.71 20.928C105.71 22.1239 105.71 23.7603 105.71 25.8059C105.71 26.3409 105.71 27.0018 105.71 27.7886C105.71 28.5753 105.71 29.425 105.71 30.2747C105.71 31.1244 105.71 32.0056 105.71 32.9183C105.71 33.8309 105.71 34.6177 105.71 35.373C105.71 36.1283 105.71 36.8206 105.71 37.3871C105.71 37.9536 105.71 38.3312 105.71 38.5515C105.27 38.518 104.828 38.518 104.388 38.5515C103.916 38.5182 103.443 38.5182 102.972 38.5515C102.997 38.0798 102.997 37.607 102.972 37.1353C102.972 36.443 103.035 35.6247 103.161 34.6806C103.161 33.7365 103.161 32.698 103.161 31.5336C103.161 30.3692 103.161 29.2991 103.318 28.1977C103.475 27.0962 103.318 25.9633 103.318 24.8933C103.318 23.8233 103.318 22.8792 103.318 22.0609V15.7353C103.318 13.973 103.318 12.5883 103.318 11.8015H103.916L108.888 17.183L114.144 22.8792L119.683 28.3236C121.225 29.9915 122.609 31.4706 123.774 32.5721V27.3165C123.774 24.6415 123.774 22.0294 123.774 19.5118C123.774 16.9942 123.774 14.6024 123.522 12.368C123.943 12.4815 124.376 12.5449 124.812 12.5568C125.227 12.542 125.639 12.4786 126.04 12.368C126.04 12.9345 126.04 13.7527 126.04 14.8856C126.04 16.0186 126.04 17.183 125.851 18.4733C125.662 19.7636 125.851 20.9909 125.662 22.1868C125.473 23.3827 125.662 24.3897 125.662 25.145V30.1174C125.662 31.0615 125.662 32.0056 125.662 32.9497C125.662 33.8939 125.662 34.8065 125.662 35.6247V39.055H125.127C122.106 35.6562 118.938 32.1944 115.623 28.6697Z" fill="black"></path><path d="M133.12 34.9953C133.475 35.4754 133.899 35.8997 134.379 36.2541C135.508 37.1155 136.894 37.5702 138.313 37.5444C139.102 37.5657 139.886 37.4154 140.61 37.1038C141.252 36.8386 141.831 36.4419 142.31 35.9394C142.784 35.4263 143.158 34.8284 143.411 34.1771C143.666 33.4926 143.794 32.7674 143.789 32.0371C143.837 31.0233 143.512 30.027 142.876 29.2362C142.25 28.5293 141.49 27.952 140.642 27.5368C139.719 27.0491 138.762 26.6285 137.778 26.2779C136.767 25.9167 135.805 25.4304 134.914 24.8303C133.978 24.2887 133.172 23.5473 132.554 22.6588C131.897 21.5815 131.579 20.3315 131.641 19.0712C131.629 18.0672 131.821 17.0712 132.208 16.1444C132.604 15.2834 133.171 14.5123 133.876 13.8785C134.643 13.2218 135.53 12.7195 136.488 12.3994C138.643 11.7502 140.942 11.7502 143.097 12.3994C143.99 12.6993 144.821 13.1577 145.551 13.7527C145.325 14.1979 145.135 14.661 144.985 15.1374C144.791 15.7333 144.643 16.3436 144.544 16.9627H144.198C144.068 16.539 143.9 16.1281 143.695 15.7353C143.458 15.3074 143.161 14.9153 142.813 14.5709C142.417 14.2068 141.972 13.8996 141.492 13.6582C140.913 13.4198 140.292 13.302 139.666 13.3121C139 13.3057 138.339 13.4231 137.715 13.6582C137.132 13.8702 136.599 14.2004 136.149 14.6283C135.7 15.0561 135.344 15.5723 135.103 16.1444C134.871 16.7466 134.753 17.3871 134.757 18.0327C134.695 19.0527 135.008 20.0601 135.638 20.865C136.27 21.5747 137.027 22.1615 137.873 22.5959C138.799 23.0778 139.755 23.4983 140.736 23.8547C141.749 24.1966 142.72 24.6505 143.632 25.2079C144.504 25.7353 145.264 26.4306 145.866 27.2535C146.504 28.2565 146.812 29.434 146.747 30.6209C146.729 31.6993 146.516 32.7655 146.118 33.7679C145.705 34.7969 145.084 35.7291 144.293 36.5059C143.444 37.2899 142.449 37.8994 141.366 38.2997C140.089 38.7327 138.748 38.9455 137.4 38.9291C136.102 38.9708 134.808 38.757 133.593 38.2997C132.716 37.9233 131.891 37.4368 131.138 36.8521C131.34 36.342 131.498 35.8156 131.61 35.2785C131.61 34.8065 131.61 34.2085 131.862 33.4532H132.302C132.519 33.995 132.794 34.5119 133.12 34.9953Z" fill="black"></path><path d="M157.384 14.3505H155.307H153.136H151.027L149.233 14.5393C149.353 14.1409 149.416 13.7279 149.422 13.312C149.402 12.9181 149.339 12.5276 149.233 12.1476H154.143H159.052L164.025 12.5882H168.965C168.855 12.9885 168.791 13.4004 168.777 13.8155C168.787 14.2103 168.851 14.6019 168.965 14.9799L167.172 14.5708H165.095H162.923H160.877C160.877 17.1829 160.877 19.8264 160.877 22.4385V28.7955C160.877 30.4635 160.877 32.1314 160.877 33.7364C160.877 35.3414 160.877 36.8834 161.098 38.5514C160.469 38.5185 159.839 38.5185 159.21 38.5514C158.591 38.5184 157.971 38.5184 157.353 38.5514C157.353 36.9779 157.51 35.4043 157.573 33.7364C157.636 32.0685 157.573 30.5893 157.573 28.7955V22.2182C157.51 19.6061 157.447 16.9626 157.384 14.3505Z" fill="black"></path><path d="M173.466 17.3089C173.466 15.6725 173.308 14.1619 173.245 12.368H174.19H175.102H176.015H176.99C176.613 14.036 176.613 15.7354 176.613 17.3089C176.613 18.8824 176.613 20.456 176.613 22.2183V28.7957C176.613 30.4636 176.613 32.1316 176.613 33.7366C176.613 35.3416 176.613 36.8836 176.833 38.5516C176.204 38.5186 175.574 38.5186 174.945 38.5516C174.326 38.5178 173.707 38.5178 173.088 38.5516C173.088 36.978 173.088 35.4045 173.308 33.7366C173.529 32.0686 173.308 30.5895 173.308 28.7957V22.2183C173.413 20.5609 173.466 18.9244 173.466 17.3089Z" fill="black"></path><path d="M189.201 14.3505H187.124H184.953H182.844L181.05 14.5393C181.17 14.1409 181.233 13.7279 181.239 13.312C181.219 12.9181 181.156 12.5276 181.05 12.1476L186.054 12.5882H190.963H195.873H200.814C200.703 12.9885 200.64 13.4004 200.625 13.8155C200.636 14.2103 200.699 14.6019 200.814 14.9799L198.988 14.7911H196.911H194.74H192.663C192.663 17.4032 192.663 20.0467 192.663 22.6588V28.7955C192.663 30.4635 192.663 32.1314 192.663 33.7364L192.852 38.5514C191.617 38.4256 190.373 38.4256 189.138 38.5514C189.138 36.9779 189.138 35.4043 189.358 33.7364C189.579 32.0685 189.358 30.5893 189.358 28.7955V22.2182C189.201 19.6061 189.201 16.9626 189.201 14.3505Z" fill="black"></path><path d="M224.983 16.3961C224.983 14.445 224.983 13.2491 224.794 12.3679H225.612H226.368C226.752 12.3569 227.133 12.2934 227.501 12.1791C227.501 13.0603 227.501 14.1303 227.28 15.3261C227.06 16.522 227.28 17.8753 227.092 19.2914C226.903 20.7076 227.092 22.1552 226.934 23.6344C226.777 25.1135 226.966 26.7814 226.966 28.3235C226.958 29.8853 226.703 31.4361 226.21 32.9182C225.651 34.1646 224.836 35.2796 223.819 36.1911C222.874 37.1517 221.722 37.8836 220.451 38.3311C218.972 38.8333 217.418 39.0782 215.857 39.0549C212.851 39.319 209.863 38.3796 207.548 36.4429C206.601 35.3274 205.883 34.0362 205.435 32.6431C204.986 31.2499 204.817 29.7821 204.936 28.3235C204.936 27.1276 204.936 26.0576 204.936 25.1764C204.936 24.2952 204.936 23.2882 204.936 22.3126C204.936 20.2041 204.936 18.3158 204.936 16.6479C204.936 14.98 204.936 13.5008 204.936 12.4623H205.912H206.919H207.737H208.555C208.555 13.0288 208.555 13.7526 208.398 14.6653C208.241 15.5779 208.398 16.585 208.398 17.8123C208.398 19.0397 208.398 20.1726 208.398 21.4944C208.398 22.8161 208.398 24.2008 208.398 25.617C208.398 26.4982 208.398 27.3794 208.398 28.3235C208.428 29.2312 208.523 30.1356 208.681 31.0299C208.845 31.8895 209.087 32.7323 209.405 33.5476C209.751 34.3336 210.255 35.0405 210.884 35.6246C211.577 36.2542 212.391 36.7361 213.276 37.0408C214.435 37.409 215.648 37.5792 216.864 37.5444C218.067 37.5862 219.266 37.3828 220.388 36.9464C221.275 36.5764 222.078 36.0304 222.749 35.3414C223.357 34.6685 223.837 33.8899 224.165 33.0441C224.517 32.1729 224.77 31.2651 224.92 30.3376C225.068 29.4108 225.152 28.475 225.172 27.5367C225.172 26.5926 225.172 25.7114 225.172 24.9247C225.015 21.1482 225.015 18.3473 224.983 16.3961Z" fill="black"></path><path d="M239.994 14.3505H237.917H235.746H233.669L231.844 14.5393C231.963 14.1409 232.027 13.7279 232.032 13.312C232.012 12.9181 231.949 12.5276 231.844 12.1476H236.753H241.694H246.603H251.513C251.402 12.5479 251.339 12.9598 251.324 13.3749C251.335 13.7697 251.398 14.1613 251.513 14.5393L249.719 14.3505H247.61H245.439H243.362C243.362 16.9626 243.362 19.6061 243.362 22.2182V28.7955C243.362 30.4635 243.362 32.1314 243.362 33.7364C243.362 35.3414 243.362 36.8834 243.582 38.5514C242.964 38.5184 242.344 38.5184 241.725 38.5514C241.096 38.5185 240.466 38.5185 239.837 38.5514C239.837 36.9779 239.837 35.4043 240.057 33.7364C240.278 32.0685 240.057 30.5893 240.057 28.7955V22.2182C240.12 19.6061 240.089 16.9626 239.994 14.3505Z" fill="black"></path><path d="M255.919 17.246C255.919 15.6095 255.919 14.0989 255.698 12.368H259.129L262.527 12.5883H265.926H269.325C269.279 12.9646 269.279 13.3451 269.325 13.7213C269.28 14.1081 269.28 14.4988 269.325 14.8857H267.091L264.951 14.7283H262.496C261.583 14.7283 260.545 14.7283 259.349 14.7283C259.349 15.5466 259.349 16.3019 259.349 17.0572C259.349 17.8125 259.349 18.6307 259.349 19.5748C259.349 20.5189 259.349 21.526 259.349 22.4701V24.5786H262.496H264.951H266.965H268.759C268.71 24.9758 268.71 25.3773 268.759 25.7745C268.712 26.1507 268.712 26.5312 268.759 26.9074L266.43 26.7186C265.58 26.7186 264.699 26.7186 263.818 26.7186H259.16V27.4739C259.142 27.8093 259.142 28.1455 259.16 28.481V31.156C259.16 32.6036 259.16 33.7995 259.16 34.7436C259.16 35.6877 259.16 36.3801 259.16 36.8836H261.804H264.667H267.279C268.008 36.8325 268.733 36.7379 269.451 36.6004C269.416 36.7981 269.416 37.0006 269.451 37.1983C269.436 37.3869 269.436 37.5763 269.451 37.7648C269.397 38.0983 269.397 38.4383 269.451 38.7718H266.021H259.097H255.635C255.635 37.1354 255.793 35.6248 255.856 33.8939C255.919 32.163 255.856 30.7469 255.856 28.9845V22.1869C256.013 20.5189 255.982 18.8824 255.919 17.246Z" fill="black"></path><path d="M279.962 20.802C279.962 19.8578 279.962 18.9452 279.962 17.9696H281.913H285.847H288.019C288.003 18.1896 288.003 18.4105 288.019 18.6305C288.003 18.8505 288.003 19.0713 288.019 19.2914H286.602H284.934H283.267H281.945C281.945 19.7949 281.945 20.267 281.945 20.739V24.5784H284.809H287.578C287.545 24.7869 287.545 24.9993 287.578 25.2078C287.547 25.4271 287.547 25.6495 287.578 25.8687H286.351H284.934H281.787V27.694C281.787 28.6696 281.787 29.6137 281.787 30.5264C281.787 31.439 281.787 32.3831 281.787 33.2958H280.717H279.647C279.647 32.3831 279.647 31.4705 279.647 30.5264C279.647 29.5822 279.647 28.6696 279.647 27.694V23.6028C280.025 22.6587 279.994 21.7146 279.962 20.802Z" fill="black"></path><path d="M290.285 22.1867C290.654 21.2516 291.227 20.4106 291.961 19.7247C292.696 19.0387 293.575 18.5252 294.533 18.2214C296.678 17.5086 298.997 17.5086 301.142 18.2214C302.097 18.5406 302.976 19.055 303.722 19.732C304.466 20.4055 305.038 21.2472 305.39 22.1867C305.788 23.1881 305.991 24.2562 305.988 25.3337C306.012 26.4641 305.808 27.5876 305.39 28.6381C305.018 29.5668 304.449 30.4041 303.722 31.0928C302.983 31.7712 302.101 32.2764 301.142 32.5719C298.99 33.2424 296.685 33.2424 294.533 32.5719C293.574 32.2764 292.692 31.7712 291.953 31.0928C291.246 30.3878 290.68 29.5548 290.285 28.6381C289.867 27.5876 289.663 26.4641 289.687 25.3337C289.684 24.2562 289.887 23.1881 290.285 22.1867ZM303.408 22.3755C303.137 21.5658 302.709 20.8173 302.149 20.1725C301.605 19.6227 300.95 19.1938 300.229 18.9137C299.464 18.633 298.653 18.4943 297.837 18.5046C297.032 18.4886 296.231 18.6275 295.477 18.9137C294.748 19.1778 294.09 19.6089 293.558 20.1725C292.988 20.8155 292.549 21.5639 292.267 22.3755C291.954 23.3945 291.805 24.4568 291.827 25.5225C291.808 26.5881 291.957 27.65 292.267 28.6696C292.546 29.4732 292.985 30.2119 293.558 30.8411C294.081 31.4237 294.74 31.8671 295.477 32.1314C296.231 32.4176 297.032 32.5565 297.837 32.5405C298.653 32.5507 299.464 32.4121 300.229 32.1314C300.959 31.852 301.615 31.4109 302.149 30.8411C302.715 30.2128 303.144 29.4732 303.408 28.6696C303.742 27.6548 303.902 26.5907 303.88 25.5225C303.908 24.454 303.748 23.3888 303.408 22.3755Z" fill="black"></path><path d="M309.009 20.802C309.009 19.8579 309.009 18.9452 309.009 17.9696H310.237H311.496H312.723H313.982C314.564 17.9686 315.144 18.0319 315.713 18.1584C316.23 18.2421 316.724 18.4352 317.16 18.7249C317.564 19.0009 317.898 19.3673 318.136 19.7949C318.402 20.2868 318.533 20.8409 318.514 21.3999C318.535 22.0411 318.371 22.6748 318.042 23.2252C317.746 23.7133 317.349 24.132 316.877 24.4526C316.433 24.7718 315.945 25.0261 315.429 25.2078C314.982 25.3803 314.518 25.5068 314.045 25.5855C314.202 25.8058 314.454 26.089 314.737 26.4981L315.776 27.7884L316.94 29.2676L318.136 30.7467C318.514 31.2187 318.86 31.6593 319.206 32.037C319.552 32.4146 319.804 32.7293 319.993 32.9496H319.332H318.073H317.444L316.437 31.5649L314.957 29.6137L313.321 27.5367C312.755 26.8443 312.251 26.2464 311.779 25.7743H310.961V27.3478C310.961 28.3234 310.961 29.2676 310.961 30.1802C310.961 31.0928 310.961 32.037 310.961 32.9496H309.891H308.821C308.821 32.037 308.821 31.1243 308.821 30.1802C308.821 29.2361 308.821 28.3234 308.821 27.3478V23.6028C309.041 22.6587 309.041 21.7146 309.009 20.802ZM311.496 24.9561H312.282C312.752 25.0177 313.229 25.0177 313.699 24.9561C314.176 24.8735 314.632 24.6941 315.038 24.429C315.444 24.1638 315.791 23.8184 316.059 23.414C316.342 22.9159 316.483 22.3501 316.468 21.7776C316.48 21.297 316.372 20.8211 316.153 20.3929C315.948 20.0427 315.669 19.7419 315.335 19.5117C314.999 19.2963 314.625 19.1468 314.234 19.0711C313.847 19.0246 313.456 19.0246 313.069 19.0711H311.936H311.087V21.4629C311.087 22.2496 311.087 23.0049 311.087 23.7917V25.0505L311.496 24.9561Z" fill="black"></path><path d="M111.878 52.4929C111.878 50.8879 111.878 49.3458 111.658 47.552H112.602C112.905 47.5831 113.211 47.5831 113.514 47.552C113.818 47.5843 114.124 47.5843 114.427 47.552H115.371C115.371 49.2199 115.371 50.8879 115.182 52.4929C114.993 54.0979 115.182 55.6399 115.182 57.4338V63.9796C115.182 65.6476 115.182 67.3155 115.182 68.9205L115.371 73.7355C114.135 73.6516 112.894 73.6516 111.658 73.7355C111.658 72.162 111.658 70.5885 111.878 68.9205C112.098 67.2526 111.878 65.7735 111.878 63.9796V60.5493H107.881H100.013H96.0166V63.9796C96.0166 65.6476 96.0166 67.3155 96.0166 68.9205C96.0166 70.5255 96.0166 72.0676 96.2369 73.7355C95.6184 73.703 94.9987 73.703 94.3802 73.7355C93.7512 73.703 93.1209 73.703 92.4919 73.7355C92.4919 72.162 92.6493 70.5885 92.7122 68.9205C92.7752 67.2526 92.7122 65.7735 92.7122 63.9796V57.4338C92.7122 55.7344 92.7122 54.0979 92.7122 52.4929C92.7122 50.8879 92.7122 49.3458 92.4919 47.552H93.4675C93.7709 47.5843 94.0768 47.5843 94.3802 47.552C94.6836 47.5823 94.9894 47.5823 95.2928 47.552H96.2369C96.2369 49.2199 96.2369 50.8879 96.0166 52.4929C95.7963 54.0979 96.0166 55.6399 96.0166 57.4338V58.7555H100.013H107.975H111.972V57.4338C111.972 55.7344 111.941 54.0979 111.878 52.4929Z" fill="black"></path><path d="M142.373 51.5805C142.373 49.6293 142.373 48.4334 142.184 47.5522H142.971C143.222 47.5825 143.475 47.5825 143.726 47.5522C144.121 47.5437 144.513 47.4802 144.89 47.3634C144.89 48.2446 144.733 49.3146 144.67 50.5105C144.607 51.7063 144.513 53.0596 144.481 54.4757C144.45 55.8919 144.481 57.3396 144.481 58.8187C144.481 60.2978 144.481 61.7455 144.481 63.1616C144.48 64.7163 144.213 66.2593 143.695 67.7249C143.24 69.0033 142.521 70.1719 141.586 71.1552C140.636 72.1089 139.486 72.8398 138.219 73.2952C136.739 73.7944 135.185 74.0391 133.624 74.019C130.618 74.283 127.63 73.3436 125.316 71.4069C124.365 70.2822 123.647 68.9796 123.204 67.5749C122.761 66.1702 122.601 64.6914 122.735 63.2246C122.735 62.0287 122.735 60.9587 122.735 60.0775C122.735 59.1963 122.735 58.1893 122.735 57.2452C122.735 55.1052 122.735 53.2169 122.735 51.549C122.735 49.881 122.735 48.4019 122.735 47.3634H123.742C124.067 47.3928 124.393 47.3928 124.718 47.3634C124.99 47.3958 125.264 47.3958 125.536 47.3634H126.354C126.354 47.9299 126.354 48.6537 126.354 49.5663C126.354 50.479 126.354 51.486 126.197 52.7134C126.04 53.9408 126.197 55.1052 126.197 56.4269C126.197 57.7487 126.197 59.1019 126.197 60.5181C126.197 61.3993 126.197 62.2805 126.197 63.2246C126.227 64.1323 126.322 65.0367 126.48 65.931C126.61 66.7983 126.854 67.6447 127.204 68.4487C127.55 69.2347 128.054 69.9416 128.683 70.5257C129.371 71.162 130.186 71.6448 131.075 71.9419C132.232 72.3219 133.445 72.5028 134.663 72.4769C135.868 72.507 137.067 72.2929 138.187 71.8475C139.069 71.4851 139.863 70.9378 140.516 70.2425C141.138 69.5857 141.629 68.8167 141.964 67.9766C142.311 67.1061 142.554 66.1977 142.688 65.2702C142.844 64.3333 142.939 63.3871 142.971 62.4378C142.971 61.4937 142.971 60.644 142.971 59.8572C142.404 56.3325 142.404 53.5002 142.373 51.5805Z" fill="black"></path><path d="M159.965 57.5913C161.759 60.9901 163.615 64.4834 165.567 68.071L166.668 65.9939L168.368 62.8469C168.997 61.6825 169.689 60.4237 170.413 59.0389L172.616 54.9163C173.371 53.5316 174.095 52.1469 174.85 50.7937C175.606 49.4404 176.267 48.2131 176.896 47.0172H177.4C177.683 49.4719 177.935 51.8322 178.186 54.0981C178.438 56.3639 178.658 58.5984 178.91 60.8013L179.76 67.3472C180.012 69.4872 180.295 71.6272 180.61 73.6413C180.317 73.6112 180.021 73.6112 179.728 73.6413H177.935C177.631 73.6101 177.325 73.6101 177.022 73.6413C176.739 70.2739 176.455 67.001 176.204 63.8225C175.952 60.6439 175.574 57.5284 175.165 54.0981L170.004 63.5392C168.336 66.6863 166.857 70.0222 165.189 73.4839H164.654C163.143 70.3369 161.507 67.1898 159.87 63.8539C158.234 60.5181 156.535 57.3395 154.867 54.0037C154.678 55.5772 154.489 57.1507 154.269 59.1334C154.048 61.116 153.86 62.7839 153.671 64.5778C153.482 66.3716 153.356 68.0395 153.23 69.6445C153.104 71.2495 153.041 72.5398 153.041 73.5469C152.591 73.5145 152.139 73.5145 151.688 73.5469C151.248 73.514 150.806 73.514 150.366 73.5469C150.681 71.5013 151.027 69.3298 151.373 67.0325C151.72 64.7351 152.097 62.4378 152.412 60.1404C152.727 57.8431 153.041 55.5457 153.325 53.2798C153.608 51.014 153.86 48.9054 154.048 46.9857H154.583C156.409 50.6678 158.171 54.161 159.965 57.5913Z" fill="black"></path><path d="M207.108 73.7355C206.773 73.7051 206.436 73.7051 206.101 73.7355H204.087C203.752 73.7051 203.415 73.7051 203.08 73.7355C202.891 73.1376 202.67 72.4452 202.356 71.627L201.349 69.0149C200.971 68.1337 200.593 67.2211 200.216 66.277L199.146 63.6334H196.691H191.845H189.516C188.698 65.6161 187.974 67.5043 187.313 69.2982C186.652 71.092 186.148 72.4452 185.802 73.7355C185.341 73.7016 184.878 73.7016 184.418 73.7355C183.946 73.7012 183.473 73.7012 183.001 73.7355C185.047 69.2982 187.061 64.8608 189.012 60.4864C190.963 56.112 192.946 51.6117 194.929 47.2058H195.653C196.25 48.6849 196.911 50.3529 197.635 51.9893C198.359 53.6258 199.051 55.4511 199.807 57.2135L202.01 62.4376C202.733 64.137 203.426 65.7734 204.087 67.2526C204.748 68.7317 205.314 70.0534 205.849 71.2179C206.384 72.3823 206.793 73.1376 207.108 73.7355ZM190.24 61.8711H192.285H196.471H198.611L194.394 52.2096L190.24 61.8711Z" fill="black"></path><path d="M223.63 63.8537C220.336 60.287 217.031 56.7623 213.717 53.2796C213.717 53.9719 213.717 54.9475 213.717 56.1434C213.717 57.3393 213.717 58.9443 213.717 61.0213C213.717 61.5563 213.717 62.2172 213.717 63.004C213.717 63.7908 213.717 64.609 213.717 65.4587C213.717 66.3084 213.717 67.221 213.717 68.1022C213.717 68.9834 213.717 69.8016 213.717 70.5884C213.717 71.3752 213.717 72.0046 213.717 72.571C213.689 72.9587 213.689 73.3478 213.717 73.7355C213.277 73.7026 212.835 73.7026 212.395 73.7355C211.923 73.7026 211.45 73.7026 210.979 73.7355C210.979 73.4837 210.979 73.0116 211.136 72.3193C211.293 71.6269 211.136 70.8087 211.325 69.8646C211.514 68.9205 211.325 67.8819 211.482 66.7175C211.64 65.5531 211.482 64.4831 211.482 63.3816C211.482 62.2802 211.482 61.1787 211.482 60.2346C211.482 59.2905 211.482 58.2205 211.482 57.3708V51.0766C211.482 49.3143 211.482 47.9296 211.482 47.1428H212.08L217.524 52.4613L222.78 58.126C224.511 60.0143 226.179 61.7766 227.752 63.4131C229.326 65.0496 230.679 66.5602 231.844 67.6931V62.5005C231.844 59.8255 231.844 57.2449 231.844 54.6958C231.844 52.1466 231.844 49.7864 231.592 47.5519C232.013 47.6655 232.446 47.7289 232.882 47.7408C233.297 47.726 233.709 47.6626 234.109 47.5519C234.109 48.1184 234.109 48.9681 234.109 50.0696C234.109 51.1711 234.109 52.3669 233.921 53.6572C233.732 54.9475 233.921 56.1749 233.732 57.4022C233.543 58.6296 233.732 59.5737 233.732 60.329V65.3013C233.732 66.2455 233.732 67.1896 233.732 68.1652C233.732 69.1408 233.732 69.9905 233.732 70.8087V74.239H232.945C230.113 70.8402 226.966 67.3784 223.63 63.8537Z" fill="black"></path><path d="M241.065 52.4299C241.065 50.7935 241.065 49.2829 240.844 47.552H244.243C245.376 47.552 246.509 47.552 247.673 47.552C248.838 47.552 249.939 47.552 251.072 47.552H254.44C254.408 47.929 254.408 48.3079 254.44 48.6849C254.407 49.0724 254.407 49.4619 254.44 49.8494L252.142 49.692H250.034H247.547H244.4C244.4 50.5102 244.4 51.297 244.4 52.0208C244.4 52.7446 244.4 53.5944 244.4 54.5385C244.4 55.4826 244.4 56.4896 244.4 57.4338V59.5738H247.547C248.429 59.5738 249.247 59.5738 249.971 59.5738H252.016H253.779C253.746 59.9612 253.746 60.3507 253.779 60.7382C253.748 61.1152 253.748 61.4941 253.779 61.8711L251.481 61.6823H248.869H244.306V62.4061C244.288 62.7416 244.288 63.0777 244.306 63.4132V67.1896C244.306 68.6373 244.306 69.8332 244.306 70.7773C244.306 71.7214 244.306 72.4138 244.306 72.9173H246.981H249.813L252.457 72.7599C253.175 72.7111 253.89 72.6165 254.597 72.4767V73.0746V73.6726C254.559 73.9967 254.559 74.324 254.597 74.6482C253.464 74.6482 252.331 74.6482 251.198 74.6482H244.275C243.142 74.6482 241.977 74.6482 240.813 74.6482C240.813 73.0117 240.813 71.5011 241.033 69.8017C241.253 68.1023 241.033 66.6546 241.033 64.8608V57.4023C241.159 55.7029 241.127 54.0664 241.065 52.4299Z" fill="black"></path><path d="M270.773 70.1794C271.127 70.6594 271.552 71.0838 272.032 71.4382C272.561 71.8331 273.144 72.151 273.762 72.3823C274.468 72.6386 275.214 72.7665 275.965 72.76C276.749 72.7858 277.529 72.6575 278.263 72.3823C278.9 72.0951 279.477 71.6893 279.962 71.1864C280.437 70.6733 280.81 70.0754 281.064 69.4241C281.319 68.7396 281.446 68.0144 281.441 67.2841C281.494 66.2794 281.168 65.2914 280.529 64.5147C279.903 63.7983 279.144 63.2104 278.294 62.7838C277.365 62.3091 276.409 61.8888 275.43 61.525C274.426 61.1615 273.465 60.6864 272.567 60.1088C271.674 59.5412 270.912 58.7903 270.332 57.9059C269.675 56.8285 269.357 55.5785 269.42 54.3182C269.403 53.324 269.596 52.3375 269.986 51.4229C270.364 50.5514 270.934 49.7768 271.654 49.157C272.419 48.4903 273.306 47.9775 274.266 47.6465C275.378 47.3129 276.536 47.164 277.696 47.2059C278.762 47.1884 279.824 47.337 280.843 47.6465C281.743 47.952 282.584 48.4097 283.33 48.9997C283.108 49.4474 282.919 49.9101 282.763 50.3844C282.575 50.9845 282.417 51.5937 282.291 52.2097H281.85C281.711 51.8098 281.543 51.4206 281.347 51.0453C281.123 50.5618 280.826 50.116 280.466 49.7235C280.077 49.3591 279.63 49.0614 279.144 48.8423C278.572 48.5788 277.948 48.4496 277.319 48.4647C276.642 48.4615 275.971 48.5787 275.336 48.8109C274.766 49.0375 274.243 49.3683 273.794 49.7864C273.343 50.2097 272.989 50.7249 272.755 51.297C272.511 51.8958 272.393 52.5387 272.409 53.1853C272.347 54.2053 272.661 55.2127 273.29 56.0176C273.922 56.7273 274.68 57.3142 275.525 57.7485C276.451 58.2304 277.407 58.6509 278.389 59.0073C279.396 59.3625 280.366 59.8157 281.284 60.3606C282.157 60.888 282.916 61.5832 283.518 62.4061C284.152 63.4108 284.46 64.587 284.4 65.7735C284.401 66.9049 284.187 68.0262 283.77 69.0779C283.357 70.1068 282.736 71.0391 281.945 71.8158C281.096 72.5999 280.102 73.2094 279.018 73.6097C277.742 74.0426 276.401 74.2555 275.053 74.2391C273.754 74.2808 272.461 74.0669 271.245 73.6097C270.368 73.2333 269.544 72.7468 268.79 72.162C268.992 71.652 269.15 71.1255 269.262 70.5885C269.262 70.1164 269.262 69.5185 269.514 68.7947H269.955C270.187 69.2787 270.461 69.7419 270.773 70.1794Z" fill="black"></path><path d="M295.037 49.5348H293.054H290.882H288.774L286.98 49.7237C287.097 49.3355 287.161 48.9331 287.169 48.5278C287.152 48.1233 287.088 47.722 286.98 47.3319H291.89C293.495 47.3319 295.037 47.3319 296.799 47.3319C298.561 47.3319 300.135 47.3319 301.708 47.3319H306.649C306.539 47.7322 306.475 48.1442 306.46 48.5593C306.471 48.9541 306.535 49.3457 306.649 49.7237L304.824 49.5348H302.747H300.544H298.404C298.404 52.1469 298.404 54.7904 298.404 57.434V63.9798C298.404 65.6478 298.404 67.3157 298.404 68.9207C298.404 70.5257 298.404 72.0678 298.624 73.7357C297.995 73.7032 297.365 73.7032 296.736 73.7357C296.117 73.7027 295.498 73.7027 294.879 73.7357C294.879 72.1622 295.037 70.5887 295.1 68.9207C295.162 67.2528 295.1 65.7737 295.1 63.9798V57.434C295.162 54.7904 295.1 52.1469 295.037 49.5348Z" fill="black"></path><path d="M330.819 51.5805C330.819 49.6293 330.819 48.4334 330.63 47.5522H331.448C331.699 47.5825 331.952 47.5825 332.203 47.5522C332.588 47.5412 332.969 47.4777 333.336 47.3634C333.336 48.2446 333.336 49.3146 333.116 50.5105C332.896 51.7063 333.116 53.0596 332.927 54.4757C332.738 55.8919 332.927 57.3396 332.77 58.8187C332.612 60.2978 332.77 61.7455 332.77 63.1616C332.778 64.7145 332.523 66.2575 332.014 67.7249C331.548 69.0052 330.819 70.1737 329.874 71.1552C328.93 72.1157 327.778 72.8476 326.507 73.2952C325.028 73.7974 323.474 74.0422 321.912 74.019C318.906 74.283 315.918 73.3436 313.604 71.4069C312.653 70.2822 311.935 68.9796 311.492 67.5749C311.049 66.1702 310.89 64.6914 311.024 63.2246C311.024 62.0287 311.024 60.9587 311.024 60.0775C311.024 59.1963 311.024 58.1893 311.024 57.2452C311.024 55.1052 311.024 53.2169 311.024 51.549C311.024 49.881 311.024 48.4019 311.024 47.3634H311.999C312.334 47.3938 312.671 47.3938 313.006 47.3634C313.278 47.3946 313.553 47.3946 313.824 47.3634H314.643C314.643 47.9299 314.643 48.6537 314.643 49.5663C314.643 50.479 314.643 51.486 314.643 52.7134C314.643 53.9408 314.643 55.1052 314.643 56.4269C314.643 57.7487 314.643 59.1019 314.643 60.5181C314.643 61.3993 314.643 62.2805 314.643 63.2246C314.673 64.1323 314.768 65.0367 314.926 65.931C315.082 66.7961 315.335 67.6408 315.681 68.4487C316.008 69.2374 316.502 69.946 317.129 70.5257C317.822 71.1553 318.635 71.6372 319.521 71.9419C320.678 72.3219 321.891 72.5028 323.108 72.4769C324.314 72.5096 325.513 72.2954 326.633 71.8475C327.524 71.4856 328.329 70.9385 328.993 70.2425C329.595 69.5762 330.074 68.8092 330.409 67.9766C330.752 67.1024 331.005 66.1956 331.165 65.2702C331.311 64.3326 331.395 63.3864 331.417 62.4378C331.417 61.4937 331.417 60.644 331.417 59.8572C330.819 56.3325 330.819 53.5002 330.819 51.5805Z" fill="black"></path><path d="M340.606 52.4928C340.606 50.8878 340.606 49.3457 340.386 47.5519H343.249C344.225 47.5519 345.169 47.5519 346.145 47.5519C347.12 47.5519 348.064 47.5519 349.009 47.5519C349.953 47.5519 350.928 47.5519 351.904 47.5519C353.85 47.5025 355.79 47.8009 357.632 48.4331C359.135 48.8985 360.499 49.7325 361.598 50.8592C362.697 51.986 363.498 53.3697 363.926 54.8845C364.412 56.6039 364.645 58.385 364.618 60.1716C364.665 62.3398 364.224 64.4908 363.328 66.4657C362.523 68.0983 361.374 69.537 359.96 70.6828C358.631 71.7381 357.099 72.5093 355.46 72.9486C353.933 73.3734 352.356 73.5956 350.771 73.6095H343.092C342.242 73.6095 341.393 73.6095 340.543 73.6095C340.543 72.036 340.543 70.4625 340.763 68.7945C340.984 67.1266 340.763 65.6475 340.763 63.8536V57.4336C340.7 55.7342 340.669 54.0978 340.606 52.4928ZM344.036 72.0675C344.752 72.2178 345.478 72.3125 346.208 72.3507C347.131 72.3507 348.075 72.3507 349.04 72.3507C350.451 72.354 351.856 72.1849 353.226 71.8472C354.606 71.5399 355.891 70.9028 356.971 69.9904C358.16 68.9646 359.088 67.67 359.677 66.2139C360.464 64.2672 360.829 62.1755 360.747 60.0772C360.796 58.2284 360.519 56.3854 359.929 54.6328C359.453 53.3455 358.676 52.1908 357.663 51.2654C356.695 50.4095 355.526 49.8139 354.264 49.5345C352.84 49.2097 351.382 49.0513 349.921 49.0625C348.757 49.0625 347.718 49.0625 346.774 49.0625L344.099 49.3142C344.099 50.5416 344.099 51.8004 344.099 53.1536C344.099 54.5069 344.099 55.8286 344.099 57.2134V63.7592C343.816 66.7175 343.879 69.4239 344.036 72.0675Z" fill="black"></path><path d="M370.251 52.4929C370.251 50.8879 370.251 49.3458 370.031 47.552H370.975C371.289 47.5833 371.605 47.5833 371.919 47.552C372.223 47.5823 372.528 47.5823 372.832 47.552H373.776C373.776 49.2199 373.619 50.8879 373.556 52.4929C373.493 54.0979 373.556 55.6399 373.556 57.4338V63.9796C373.556 65.6476 373.556 67.3155 373.556 68.9205C373.556 70.5255 373.556 72.0676 373.776 73.7355C373.157 73.7036 372.538 73.7036 371.919 73.7355C371.29 73.703 370.66 73.703 370.031 73.7355C370.031 72.162 370.188 70.5885 370.251 68.9205C370.314 67.2526 370.251 65.7735 370.251 63.9796V57.4338C370.346 55.7344 370.314 54.0979 370.251 52.4929Z" fill="black"></path><path d="M380.825 52.4299L380.637 47.552H384.035C385.168 47.552 386.301 47.552 387.466 47.552C388.63 47.552 389.732 47.552 390.833 47.552H394.232C394.064 48.3086 394.064 49.0927 394.232 49.8494L391.997 49.692H389.857H387.403H384.256C384.256 50.5102 384.256 51.297 384.256 52.0208C384.256 52.7446 384.256 53.5944 384.256 54.5385V57.4338C384.256 58.3779 384.256 59.0702 384.256 59.5738H387.403C388.284 59.5738 389.102 59.5738 389.826 59.5738H391.872H393.634C393.601 59.9612 393.601 60.3507 393.634 60.7382C393.603 61.1152 393.603 61.4941 393.634 61.8711L391.337 61.6823H388.693H384.382C384.397 61.9233 384.397 62.1651 384.382 62.4061V70.7773C384.382 71.7214 384.382 72.4138 384.382 72.9173H387.057H389.889L392.532 72.7599C393.251 72.7111 393.966 72.6165 394.672 72.4767V73.0746V73.6726C394.635 73.9967 394.635 74.324 394.672 74.6482C393.539 74.6482 392.407 74.6482 391.274 74.6482H384.35C383.217 74.6482 382.053 74.6482 380.888 74.6482L381.077 69.8017C381.077 68.1652 381.077 66.6546 381.077 64.8608V57.4023C380.951 55.7029 380.92 54.0664 380.825 52.4299Z" fill="black"></path><path d="M400.054 70.1791C400.416 70.6521 400.84 71.0753 401.313 71.438C401.842 71.8329 402.425 72.1508 403.043 72.3821C403.759 72.6421 404.516 72.7701 405.278 72.7597C406.055 72.7622 406.825 72.6125 407.544 72.3191C408.181 72.0319 408.758 71.6261 409.243 71.1232C409.728 70.6182 410.103 70.0181 410.345 69.3609C410.6 68.6764 410.728 67.9512 410.722 67.2209C410.775 66.2162 410.449 65.2283 409.81 64.4515C409.189 63.7427 408.442 63.1558 407.607 62.7206C406.664 62.2518 405.697 61.8316 404.711 61.4618C403.707 61.0983 402.746 60.6232 401.848 60.0456C400.955 59.478 400.193 58.7271 399.613 57.8427C398.956 56.7653 398.638 55.5154 398.701 54.255C398.679 53.2572 398.883 52.2673 399.299 51.3597C399.667 50.4913 400.227 49.7169 400.935 49.0938C401.701 48.4272 402.587 47.9143 403.547 47.5833C405.702 46.934 408.001 46.934 410.156 47.5833C411.043 47.8959 411.873 48.3531 412.611 48.9365C412.389 49.3842 412.2 49.8469 412.044 50.3212C411.887 50.7933 411.761 51.4227 411.603 52.1465H411.131C410.992 51.7466 410.824 51.3574 410.628 50.9821C410.402 50.5473 410.104 50.1537 409.747 49.8177C409.358 49.4532 408.911 49.1555 408.425 48.9365C407.854 48.6696 407.229 48.5403 406.6 48.5588C405.934 48.5553 405.273 48.6726 404.649 48.905C404.065 49.1239 403.53 49.4554 403.075 49.8806C402.625 50.3039 402.27 50.819 402.036 51.3912C401.807 51.9942 401.689 52.6342 401.69 53.2794C401.628 54.2995 401.942 55.3069 402.571 56.1118C403.203 56.8215 403.961 57.4083 404.806 57.8427C405.74 58.3303 406.707 58.751 407.701 59.1015C408.696 59.4629 409.654 59.916 410.565 60.4547C411.438 60.9821 412.197 61.6774 412.799 62.5003C413.433 63.505 413.741 64.6812 413.681 65.8677C413.697 67.0004 413.483 68.1248 413.051 69.1721C412.65 70.2068 412.027 71.1413 411.226 71.91C410.382 72.7008 409.387 73.3112 408.299 73.7038C407.033 74.1339 405.703 74.3467 404.365 74.3332C403.057 74.375 401.753 74.1612 400.526 73.7038C399.649 73.3274 398.825 72.841 398.071 72.2562C398.273 71.7461 398.431 71.2197 398.543 70.6827C398.543 70.2106 398.701 69.6127 398.795 68.8888H399.236C399.483 69.3343 399.756 69.7652 400.054 70.1791Z" fill="black"></path><path d="M0 64.2001V85.6001V107L21.4 85.6001V64.2001H0Z" fill="black" fill-opacity="0.8"></path><path d="M42.8 21.4V42.8H64.2314V21.4V0L42.8 21.4Z" fill="black" fill-opacity="0.45"></path><path d="M21.4 21.4001V42.8001L42.7999 21.4001H21.4Z" fill="black" fill-opacity="0.55"></path><path d="M42.7999 85.6001V64.2001L21.4 85.6001H42.7999Z" fill="black" fill-opacity="0.55"></path><path d="M42.7999 42.7999H21.4V64.1999H42.7999V85.5999L64.2314 64.1999V42.7999H42.7999Z" fill="black" fill-opacity="0.65"></path><path d="M0 42.8001V64.2001H21.4V42.8001V21.4001L0 42.8001Z" fill="black"></path></svg> 