<?xml version="1.0" encoding="UTF-8"?> <svg xmlns="http://www.w3.org/2000/svg" width="1013" height="685" viewBox="0 0 1013 685" fill="none"><rect width="1013" height="685" fill="white"></rect><path fill-rule="evenodd" clip-rule="evenodd" d="M594.655 413.921C593.988 414.302 593.225 414.54 592.462 414.54H592.271C589.697 414.54 587.552 412.492 587.504 409.92V409.777V390.725L610.865 404.252L594.655 413.921Z" fill="#B1A597"></path><path fill-rule="evenodd" clip-rule="evenodd" d="M587.504 390.725V387.772L603.713 378.437L603.856 378.341L604.047 378.246C604.81 377.865 605.62 377.722 606.431 377.817H606.669C607.337 377.913 607.909 378.103 608.481 378.389C609.053 378.722 609.577 379.151 610.006 379.723C610.531 380.485 610.865 381.342 610.912 382.342V382.533V404.252L587.504 390.725Z" fill="#3069BE"></path><path fill-rule="evenodd" clip-rule="evenodd" d="M406.815 377.817H407.006C407.721 377.865 408.436 378.008 409.056 378.341L409.199 378.437L425.456 387.772L425.408 482.889L411.487 490.795C408.531 492.462 405.29 493.32 402 493.32V382.58V382.437C402.095 379.865 404.241 377.817 406.815 377.817Z" fill="#3069BE"></path><path fill-rule="evenodd" clip-rule="evenodd" d="M691.814 358.003V439.355C691.814 446.166 688.143 452.453 682.231 455.883L515.989 551.333C513.129 552.952 509.982 553.81 506.788 553.857H506.502L506.025 431.449H506.502H506.645C509.792 431.449 512.938 430.639 515.751 429.067L516.037 428.924L587.502 387.772V409.825C587.502 412.444 589.647 414.588 592.269 414.588C593.127 414.588 593.938 414.349 594.653 413.968L682.327 363.481L691.814 358.003Z" fill="#E8E1D7"></path><path fill-rule="evenodd" clip-rule="evenodd" d="M587.359 186.536V202.873L515.99 244.073C513.463 245.549 510.65 246.359 507.838 246.597H507.552C507.17 246.597 506.836 246.645 506.455 246.645V219.496H506.693C509.792 219.448 512.891 218.639 515.704 217.114L515.99 216.972L584.928 177.201L585.071 177.439C586.549 180.201 587.359 183.297 587.359 186.536Z" fill="#E8E1D7"></path><path fill-rule="evenodd" clip-rule="evenodd" d="M505.978 431.449L506.455 553.857C503.165 553.857 499.875 553 496.967 551.333L434.99 515.61C429.078 512.229 425.455 505.894 425.455 499.083L425.503 387.772L496.92 428.924C499.637 430.496 502.641 431.306 505.644 431.449H505.978V431.449Z" fill="#DDD1C4"></path><path fill-rule="evenodd" clip-rule="evenodd" d="M427.886 177.153L496.92 216.972C499.875 218.686 503.165 219.544 506.455 219.544V246.693C506.073 246.693 505.739 246.693 505.358 246.645C502.545 246.502 499.732 245.692 497.158 244.263L496.872 244.121L425.455 202.921V186.346V186.155C425.55 182.916 426.409 179.868 427.886 177.153Z" fill="#DDD1C4"></path><path fill-rule="evenodd" clip-rule="evenodd" d="M515.132 134.096L580.017 171.533C582.019 173.104 583.688 175.01 584.88 177.201L515.99 216.972C510.078 220.353 502.831 220.353 496.92 216.972L427.887 177.153C428.936 175.248 430.318 173.486 432.034 172.057L498.112 133.905C503.499 131.286 509.792 131.381 515.132 134.096Z" fill="#E2D8CC"></path><path fill-rule="evenodd" clip-rule="evenodd" d="M323.479 237.881L496.92 337.951C499.637 339.523 502.689 340.38 505.74 340.476H505.978V431.449C502.879 431.353 499.733 430.544 496.968 428.924L409.246 378.437C408.579 378.056 407.816 377.817 407.053 377.817H406.862C404.288 377.817 402.19 379.865 402.095 382.437V382.58V493.32C398.853 493.32 395.563 492.462 392.655 490.795L330.678 455.359C324.766 451.977 321.095 445.642 321.095 438.831L321 247.169V247.026C321.048 243.787 321.906 240.691 323.431 237.976L323.479 237.881Z" fill="#397FE7"></path><path fill-rule="evenodd" clip-rule="evenodd" d="M691.861 247.216L691.909 357.956L610.862 404.3V382.58C610.862 381.532 610.528 380.58 609.956 379.77C609.527 379.199 609.05 378.77 608.43 378.437C607.954 378.151 607.382 377.96 606.81 377.865L606.571 377.817C605.713 377.722 604.855 377.865 604.044 378.246L603.901 378.294L603.806 378.341L603.663 378.389L515.941 428.877C512.843 430.639 509.41 431.496 505.93 431.401V340.428C509.267 340.523 512.652 339.714 515.655 338.046L515.941 337.904L689.335 237.881C689.287 237.786 689.239 237.738 689.192 237.643C690.908 240.548 691.814 243.835 691.861 247.216Z" fill="#6FADEA"></path><path fill-rule="evenodd" clip-rule="evenodd" d="M410.771 194.395L496.919 244.121C502.736 247.502 509.887 247.502 515.751 244.263L515.989 244.121L602.138 194.395C607.906 191.442 614.771 191.585 620.445 194.871L682.374 230.737C685.378 232.499 687.809 234.976 689.43 237.881L515.989 337.951C510.078 341.333 502.831 341.333 496.919 337.951L323.479 237.881C325.099 234.976 327.531 232.499 330.534 230.737L392.512 194.871C398.137 191.632 405.002 191.442 410.771 194.395Z" fill="#5496E8"></path></svg> 