<?xml version="1.0" encoding="UTF-8"?> <svg xmlns="http://www.w3.org/2000/svg" id="b" data-name="Layer 2" width="529.893" height="346.774" viewBox="0 0 529.893 346.774"><g id="c" data-name="Layer 1"><g><rect width="529.893" height="346.774" fill="none" stroke-width="0"></rect><g><path d="M193.599,97.985l-1.854,7.436c-.629,2.524,1.28,4.968,3.881,4.968h137.504l-26.315,105.545c-.629,2.524,1.28,4.968,3.881,4.968h29.017c1.836,0,3.437-1.25,3.881-3.032l26.798-107.48h58.618c1.836,0,3.437-1.25,3.881-3.032l1.854-7.436c.629-2.524-1.28-4.968-3.881-4.968h-233.385c-1.836,0-3.437,1.25-3.881,3.032Z" fill="#212b33" stroke-width="0"></path><path d="M336.295,248.79l1.854-7.436c.629-2.524-1.28-4.968-3.881-4.968h-137.504l26.315-105.545c.629-2.524-1.28-4.968-3.881-4.968h-29.017c-1.836,0-3.437,1.25-3.881,3.032l-26.798,107.48h-58.618c-1.836,0-3.437,1.25-3.881,3.032l-1.854,7.436c-.629,2.524,1.28,4.968,3.881,4.968h233.385c1.836,0,3.437-1.25,3.881-3.032Z" fill="#212b33" stroke-width="0"></path><path d="M270.369,165.599l9.31-37.218c.319-1.266-.653-2.507-1.963-2.507h-3.366c-1.81,0-3.376,1.218-3.817,2.967l-8.963,35.838c-.881,3.499-4.014,5.934-7.633,5.934h-26.149c-1.808,0-3.374,1.216-3.816,2.963l-.635,2.509c-.32,1.267.651,2.509,1.962,2.509h27.58c2.62,0,4.563,2.482,3.926,5.014l-8.731,34.784c-.319,1.266.653,2.507,1.963,2.507h3.366c1.81,0,3.376-1.218,3.817-2.967l8.383-33.404c.881-3.498,4.014-5.934,7.633-5.934h26.478c1.808,0,3.374-1.216,3.816-2.963l.635-2.509c.32-1.267-.651-2.509-1.962-2.509h-27.909c-2.62,0-4.563-2.482-3.926-5.014Z" fill="#212b33" stroke-width="0"></path></g></g></g></svg> 