<?xml version="1.0" encoding="UTF-8"?> <svg xmlns="http://www.w3.org/2000/svg" width="418" height="80" viewBox="0 0 418 80" fill="none"><path d="M392.126 27.4215L418 10.0594L416.474 7.78513L392.272 24.0252C394.187 16.1581 395.189 8.09648 395.257 0H392.518C392.444 8.15598 391.404 16.2745 389.422 24.1862C385.012 18.9723 380.391 14.0248 373.335 9.45057L371.845 11.7486C378.972 16.3677 383.569 21.4603 388.076 26.8415L368.04 40.287L369.566 42.5613L387.76 30.3521C386.044 36.1485 383.954 41.8274 381.503 47.3529H378.823V53.2552C378.824 53.5596 378.925 53.8554 379.112 54.0957C379.299 54.3359 379.561 54.507 379.856 54.5819C380.151 54.6568 380.463 54.6313 380.742 54.5093C381.021 54.3873 381.251 54.1758 381.397 53.9082C385.266 46.2617 388.385 38.2577 390.708 30.0088C395.271 35.4921 400.135 41.1248 407.651 46.5247L409.249 44.3005C401.637 38.8249 396.784 33.0337 392.126 27.4215Z" fill="black"></path><path d="M141.872 28.8458C135.243 28.8458 129.936 31.1104 126.099 35.5788C122.225 40.092 120.261 46.4266 120.261 54.4093C120.261 62.3234 122.238 68.5733 126.136 72.9865C129.793 77.129 136.257 79.561 142.362 79.561C147.772 79.561 151.425 78.7739 154.575 77.2226C157.313 75.9172 159.732 74.0292 161.664 71.6906L155.738 64.7023C152.44 68.4835 148.02 70.3408 142.496 70.3408C139.606 70.2467 136.843 69.1332 134.695 67.1972C132.598 65.0666 131.534 61.8128 131.534 58.2426V57.3367H163.11C163.11 57.3367 163.302 54.8918 163.302 53.0704C163.302 45.481 161.355 39.7744 157.515 35.3921C153.709 31.0475 148.445 28.8458 141.872 28.8458ZM152.211 49.3495H131.536V48.8478C131.536 45.3629 133.552 38.0134 141.964 38.0134C150.376 38.0134 152.213 45.37 152.213 48.8478L152.211 49.3495Z" fill="black"></path><path d="M94.7989 28.8458C88.1704 28.8458 82.8623 31.1104 79.0259 35.5788C75.1516 40.092 73.1879 46.4266 73.1879 54.4093C73.1879 62.3234 75.1645 68.5733 79.0631 72.9865C82.7199 77.129 89.1834 79.561 95.2884 79.561C100.699 79.561 104.352 78.7739 107.501 77.2226C110.239 75.9172 112.659 74.0292 114.591 71.6906L108.666 64.7023C105.368 68.4835 100.949 70.3408 95.425 70.3408C92.5349 70.2467 89.7712 69.1332 87.6232 67.1972C85.5267 65.0666 84.4623 61.8128 84.4623 58.2426V57.3367H116.038C116.038 57.3367 116.231 54.8918 116.231 53.0704C116.231 45.481 114.284 39.7744 110.444 35.3921C106.635 31.0475 101.371 28.8458 94.7989 28.8458ZM105.137 49.3495H84.4591V48.8478C84.4591 45.3629 86.4755 38.0134 94.8874 38.0134C103.299 38.0134 105.138 45.3694 105.138 48.8472L105.137 49.3495Z" fill="black"></path><path d="M186.397 9.65845H175.041V30.0101H163.443V39.2714H175.039V64.8337C175.039 68.9839 176.164 72.3237 178.382 74.759C180.576 77.1687 183.905 78.3902 188.276 78.3902H198.476V69.1289H190.434C189.89 69.1334 189.351 69.0204 188.854 68.7975C188.357 68.5746 187.914 68.2472 187.555 67.8374C186.794 67.0244 186.379 65.9473 186.397 64.8337V39.2714H198.478V30.0101H186.397V9.65845Z" fill="black"></path><path d="M56.7644 37.3494H54.5613V30.0101H43.206V78.3908H54.5613V48.4693C54.5148 47.3002 54.7435 46.1367 55.2289 45.0722C55.7142 44.0077 56.4428 43.0721 57.3559 42.3406C59.1721 40.9267 61.4266 40.1944 63.7271 40.271H72.3282V30.0063H68.7561C60.9081 30.0095 56.7644 37.3494 56.7644 37.3494Z" fill="black"></path><path d="M0 78.3902H11.3605V49.3129H38.0204V39.2708H11.3605V19.7005H38.0204V9.65845H0V78.3902Z" fill="black"></path><path d="M301.885 28.8458C294.036 28.8458 289.888 36.1869 289.888 36.1869H287.685V30.0166H276.322V78.4133H287.685V46.3098C287.638 45.1405 287.867 43.9766 288.352 42.9118C288.838 41.847 289.567 40.911 290.48 40.1793C292.287 38.7359 294.541 37.9692 296.853 38.0121C299.734 38.0121 301.96 38.9745 303.469 40.8696C304.924 42.6986 305.661 45.3501 305.661 48.749V78.4133H317.024V46.798C317.024 41.0768 315.707 36.593 313.11 33.4693C310.522 30.3585 306.178 28.8458 301.885 28.8458Z" fill="black"></path><path d="M228.973 28.8457C221.123 28.8457 216.976 36.1869 216.976 36.1869H214.772V9.65778H203.41V78.4132H214.772V46.313C214.726 45.1437 214.955 43.9798 215.44 42.915C215.925 41.8503 216.654 40.9143 217.567 40.1824C219.374 38.7391 221.629 37.9725 223.941 38.0153C226.821 38.0153 229.047 38.9776 230.557 40.8727C232.012 42.7017 232.749 45.3532 232.749 48.7521V78.4152H244.112V46.7973C244.112 41.0761 242.795 36.5923 240.198 33.4686C237.612 30.3578 233.266 28.8457 228.973 28.8457Z" fill="black"></path><path d="M361.388 30.0178H349.619L339.126 49.3507H335.505V9.65778H324.147V78.4132H335.505V57.336H339.492L351.069 78.4132H362.933L348.148 52.8798L361.388 30.0178Z" fill="black"></path><path d="M248.148 39.2772H256.766V78.4113H268.13V30.0127H248.148V39.2772Z" fill="black"></path><path d="M262.409 8.9104C261.113 8.91053 259.846 9.29492 258.769 10.015C257.691 10.7351 256.852 11.7585 256.356 12.9558C255.86 14.1531 255.73 15.4706 255.983 16.7416C256.236 18.0127 256.86 19.1802 257.776 20.0966C258.693 21.013 259.86 21.637 261.131 21.8899C262.402 22.1428 263.72 22.0131 264.917 21.5172C266.114 21.0213 267.138 20.1815 267.858 19.104C268.578 18.0265 268.962 16.7597 268.962 15.4638C268.963 14.6031 268.793 13.7509 268.464 12.9558C268.134 12.1607 267.652 11.4382 267.043 10.8296C266.435 10.2211 265.712 9.73837 264.917 9.40906C264.122 9.07975 263.27 8.91032 262.409 8.9104Z" fill="black"></path></svg> 