<?xml version="1.0" encoding="UTF-8"?> <svg xmlns="http://www.w3.org/2000/svg" width="411" height="168" viewBox="0 0 411 168" fill="none"><path d="M133.711 110.1C101.694 96.0148 103.425 113.434 115.396 82.9277C117.329 75.6041 113.99 66.7995 118.429 60.3966C119.422 56.4744 124.694 53.0563 121.678 49.2695C115.279 41.3814 115.336 31.1126 110.655 22.5475C109.393 19.8772 107.27 17.7484 105.387 15.5551C112.669 18.3733 106.912 12.9868 103.554 11.1497C109.26 11.5392 100.382 5.66324 98.6366 4.14269C99.5927 4.16977 100.765 5.45494 101.142 4.06562C89.3155 -1.54581 73.7101 -1.49582 62.1707 5.13625C65.3555 2.19098 66.1741 0.187196 61.3479 3.35118C58.6359 4.24267 54.6638 8.99385 53.5369 9.23547C53.941 8.50853 55.399 6.45683 53.6827 7.00256C47.9213 12.4973 45.0864 20.9895 41.7496 27.4653C45.2427 27.0592 49.2627 24.67 53.314 24.6096C57.0196 24.7138 59.0817 25.5365 61.4229 21.8102C72.0209 13.0556 87.822 17.4339 100.438 17.4443C111.245 19.0586 117.995 40.4733 116.46 49.5153C115.323 49.5153 114.854 48.4363 114.388 47.5615C111.547 46.8637 108.31 46.6429 105.485 47.4532C101.311 51.5587 95.0644 53.9228 89.6446 50.9796C90.734 49.3091 86.2203 48.0781 84.9059 48.328C82.9542 46.1888 67.5717 44.8266 70.6836 48.0906C73.4602 46.8929 76.5179 47.1657 78.7988 48.5467C80.9338 49.2653 84.3144 48.3905 85.7516 50.1443C87.4908 50.9525 74.3538 48.9946 70.8857 49.2154C68.8798 49.0508 67.9029 50.0569 68.5007 52.0065C61.4396 48.478 54.0576 45.5535 46.3008 43.8893C44.2616 44.787 44.8073 41.0669 46.3175 41.0377C45.8134 41.9417 46.3799 42.125 47.2089 41.9188C47.4277 42.5895 47.2048 43.3165 48.0463 43.5102C49.1377 41.4981 50.1667 41.2794 49.6502 43.9934C50.7687 44.3725 50.7604 43.3602 50.952 42.5645C51.4894 41.7418 51.8789 43.606 51.5456 44.0663C51.6519 46.4888 52.7912 43.4852 53.816 43.4185C53.9368 44.0163 53.4223 45.3598 54.293 45.5202C56.2322 41.5751 55.5907 39.838 61.4396 39.3152C62.6747 36.2282 59.9544 27.1737 56.8738 25.7302C51.4748 25.7115 41.4767 25.6053 41.4892 32.6518C41.0851 37.8196 40.6727 43.0394 39.9374 48.1593C37.7691 47.3282 35.1925 48.0614 34.3989 50.3547C33.6345 58.9656 36.9859 74.875 46.4883 77.8474C47.6609 79.2492 48.3629 77.4058 47.0298 76.9413C44.12 76.2144 41.6329 74.4397 40.2582 71.7361C37.8566 65.1457 33.3991 56.4869 36.0652 49.6674C40.8831 46.9762 47.1069 55.0226 47.6047 59.4988C46.9757 63.7147 48.8857 64.7666 52.4954 64.6791C54.1868 65.2227 53.5744 59.5321 53.7244 58.0449C53.9306 54.8414 55.3324 51.9502 54.7221 48.6009C59.6337 50.1985 64.539 51.9273 69.1381 54.2998C72.2542 57.9908 68.1529 57.7991 66.0054 59.1614C67.6363 60.3278 70.7503 57.6992 70.3941 61.6109C69.2506 62.0379 65.645 62.1087 66.2116 63.6876C68.8652 62.0067 74.2413 63.7313 68.9985 65.0186C68.4528 65.2852 67.3843 65.4248 67.9737 66.2767C71.571 64.6145 73.3644 66.3725 76.093 68.4908C84.3519 72.1547 90.9381 64.2708 94.8457 58.0012C101.474 57.5242 97.2036 73.0046 101.392 73.8502C97.1307 57.4471 106.464 75.5666 115.254 64.6937C116.681 78.6993 110.272 100.572 100.495 104.726C101.319 102.664 101.338 97.8311 99.7989 102.38C99.9093 114.784 84.1561 113.139 75.4827 111.316C68.909 107.073 57.9486 97.8207 55.4095 90.0513C50.8145 94.8775 69.9692 106.394 71.2877 110.814C61.2542 104.363 45.8675 97.1791 49.5585 82.9527C50.5271 78.9055 48.8961 70.4551 48.5274 79.2825C45.026 83.2547 42.6952 88.8495 41.5684 93.8568C37.0734 96.3085 32.0764 99.2871 30.4142 104.43C20.4161 109.964 9.08288 113.618 1.95716 123.303C-0.421553 125.794 -0.956868 130.421 2.19045 124.838C9.22244 114.742 21.1827 111.199 31.3057 105.43C32.8783 100.289 37.6274 97.4812 41.937 94.79C41.912 96.0106 42.9785 98.5268 44.4178 97.679C40.9143 91.8426 45.8321 85.9979 48.4108 80.7843C49.2148 83.2672 46.8736 84.7357 46.0737 86.7769C45.2864 91.5302 50.5021 94.3609 49.521 99.1267C50.5875 115.344 68.2841 123.343 70.3212 139.027C72.7645 145.599 61.7041 150.298 56.7925 153.893C44.8302 163.864 50.3313 132.329 37.8191 119.473C36.4277 116.315 33.045 115.971 36.3714 119.4C44.6386 129.577 46.1529 142.881 49.0065 155.241C49.6252 164.221 70.3191 145.572 72.5874 142.795C65.7033 124.426 91.4109 154.489 95.4018 157.716C97.6806 151.046 96.9057 141.442 99.0116 133.889C100.045 128.148 103.813 122.362 101.051 116.652C91.9192 94.0193 119.422 131.835 119.976 138.702C130.054 158.07 107.289 132.541 102.573 138.065C106.306 143.845 109.995 149.884 113.121 156.191C112.926 153.806 112.515 153.645 111.93 152.048C105.079 140.121 100.488 134.401 115.196 143.987C121.301 147.222 126.558 151.354 122.88 140.817C119.354 127.894 109.214 117.85 101.163 107.623C103.392 96.6355 127.604 110.358 135.788 112.441C156.074 127.321 148.179 115.794 133.711 110.102V110.1ZM42.3203 46.922C42.4203 44.435 43.1035 41.7709 44.3449 41.1044C43.9929 43.1582 44.097 45.5244 42.3203 46.922ZM44.6365 51.9232C43.1556 50.563 43.9387 47.7344 45.3822 46.493C45.3343 48.3447 45.1989 50.1589 44.6365 51.9232ZM49.8814 54.2498C49.7085 57.5034 49.7251 61.0027 49.144 62.7107C48.8149 61.0194 49.5148 57.3555 49.8814 54.2498ZM52.383 59.7321C51.5519 58.6073 52.7766 53.5041 52.8412 51.0525C49.9626 53.1188 51.6623 60.1112 50.9978 63.8105C48.6649 61.0756 53.0932 52.2918 50.3542 49.9235C50.2417 50.4526 50.1542 51.0358 50.0834 51.6524C50.1084 50.0256 49.8293 48.9425 48.8836 49.0654C48.8774 51.7232 48.8378 54.3727 48.4025 57.0014C46.5987 54.2206 49.9251 48.8363 47.8901 46.8283C46.2445 58.299 45.9592 54.2311 46.0904 45.7202C55.9594 46.4784 53.6765 52.3231 52.383 59.73V59.7321ZM70.6628 51.6461C71.0606 51.417 71.2898 51.3858 71.7543 51.492C71.8647 52.1294 70.9898 51.7753 70.6628 51.6461ZM85.6329 65.4164C75.3036 70.3613 71.6418 61.6276 73.0207 52.5564C83.7728 50.0631 99.7239 53.777 85.6329 65.4164ZM118.674 47.5969C119.222 49.6549 120.541 51.1379 117.65 49.6944C117.86 49.1612 118.206 46.3721 118.674 47.5969ZM114.434 49.1529C110.784 48.8883 107.145 48.7613 103.679 50.2152C106.004 47.6365 112.061 47.0658 114.434 49.1529ZM101.551 55.3392C105.027 53.125 118.425 48.001 116.787 55.8078C118.262 56.2682 117.398 53.7332 118.079 54.1019C119.958 56.0182 116.187 61.8338 117.516 56.7743C115.515 56.8264 116.265 60.3216 115.592 61.7192C110.126 70.8716 96.4975 66.0788 101.553 55.3413L101.551 55.3392ZM87.8241 112.991C85.612 114.284 83.8353 116.092 81.692 117.473C79.5444 112.566 84.5122 113.676 87.8241 112.991ZM78.63 115.03C77.3032 114.07 73.8497 112.712 73.7456 112.07C75.716 112.47 77.7948 112.989 78.63 115.03ZM50.8583 100.068C50.8333 98.6018 49.7293 94.8837 51.6498 97.477C58.9255 107.488 72.2958 110.333 80.7505 118.842C76.5283 121.337 72.7749 125.228 68.2737 127.709C61.4833 119.104 52.6704 111.545 50.8562 100.068H50.8583ZM82.1648 139.15C81.1671 142.883 74.8391 133.658 71.1106 133.897C69.6359 132.872 69.7276 130.15 68.6319 128.581C71.9355 127.48 74.9787 125.065 77.7885 122.958C79.6444 124.795 76.8991 124.432 77.6636 125.492C82.673 125.817 82.6793 135.132 82.1648 139.15ZM82.3335 118.342C86.2453 113.605 91.7234 112.991 96.964 111.781C94.2958 118.519 103.109 125.98 92.0421 119.998C89.051 118.227 85.5183 119.01 82.3335 118.342ZM99.6948 127.282C97.7431 131.806 97.2931 137.238 96.537 142.191C95.1581 168.305 82.6793 106.819 97.3411 124.461C102.288 129.606 96.085 114.932 98.1388 112.451C100.424 117.219 102.038 122.189 99.6948 127.282Z" fill="black"></path><path d="M77.0595 86.0792C85.0059 88.9515 93.6501 87.8434 101.907 86.6916C109.251 84.0254 101.342 90.9157 98.8762 91.9093C94.577 94.4963 89.001 95.794 84.2894 94.1047C86.4931 92.4488 91.5317 94.8129 94.2125 92.9008C91.1506 92.9195 87.4346 93.2653 84.5997 92.3113C81.3878 92.4613 69.1464 84.6607 77.0595 86.0792ZM89.982 89.6743C89.7842 92.7196 93.8126 92.7883 94.3791 89.7868C95.6455 88.7453 94.5437 90.9532 94.7145 91.551C96.7682 91.6094 97.7576 90.3075 98.1138 88.4954C94.5583 88.1434 90.0008 89.4764 86.1057 88.9182C84.4435 92.9216 89.2468 92.5821 89.982 89.6743ZM81.9127 88.5058C81.015 90.9553 85.8703 92.4488 85.1705 89.1078C84.1831 88.4579 83.0042 88.8932 81.9127 88.5058Z" fill="black"></path><path d="M43.2639 68.345C44.2678 68.4284 46.3487 69.1553 45.678 67.3327C43.4597 64.2854 46.2945 60.2758 44.0387 57.5679C38.9043 57.495 37.7191 66.6475 43.2639 68.345Z" fill="black"></path><path d="M83.4354 74.1856C85.5162 71.9089 82.3793 72.5505 82.5439 74.523C84.7331 80.7864 97.943 79.0471 95.9205 86.4749C97.5514 87.1789 97.7139 83.3693 96.7099 82.8027C99.651 81.1384 102.517 78.6847 104.336 75.7103C105.512 74.4959 104.819 69.9447 102.673 71.484C105.91 74.2314 101.942 77.7287 99.601 79.5721C97.3973 82.0195 95.0852 82.1924 92.8503 79.6345C90.5174 76.4747 85.3996 77.2079 83.4375 74.1856H83.4354Z" fill="black"></path><path d="M37.115 135.322C35.9278 129.925 28.9895 123.657 24.2071 124.112C24.0571 126.367 28.6458 126.624 29.7623 128.681C31.2245 129.55 37.9524 138.894 37.115 135.322Z" fill="black"></path><path d="M41.76 133.422C39.8895 126.182 34.1323 121.937 27.7418 119.773C30.3184 123.634 36.1548 126.007 38.8043 130.5C39.8166 131.189 40.3727 134.412 41.76 133.422Z" fill="black"></path><path d="M66.7344 79.7033C62.1186 78.2348 70.2817 102.184 70.7128 98.4664C70.6691 92.2113 65.0222 86.2708 66.7344 79.7033Z" fill="black"></path><path d="M38.8897 60.1383C34.88 42.9103 42.9243 58.1012 42.8327 53.552C36.4818 45.4015 34.603 57.0055 38.8897 60.1383Z" fill="black"></path><path d="M104.742 90.07C100.82 91.349 99.2178 97.9352 94.7561 98.583C92.5441 103.724 105.079 91.7885 104.742 90.07Z" fill="black"></path><path d="M109.089 84.4336C109.38 82.6465 105.417 74.2501 105.233 77.5703C106.768 80.7031 109.268 84.3295 106.898 87.6976C107.235 90.2325 109.395 85.4938 109.089 84.4315V84.4336Z" fill="black"></path><path d="M80.9067 76.9601C79.2841 74.0877 70.1129 85.021 73.9101 84.2608C75.3161 81.2697 77.9343 78.4181 80.9067 76.9601Z" fill="black"></path><path d="M81.9732 77.9724C79.8923 76.4768 76.2326 82.2153 75.7473 84.2149C77.9989 84.1774 79.2904 79.018 81.9732 77.9724Z" fill="black"></path><path d="M104.071 78.8118C105.137 81.253 105.55 84.7273 106.421 86.7811C108.22 85.6043 106.108 79.0284 104.071 78.8118Z" fill="black"></path><path d="M79.2591 84.5378C79.0987 81.9487 85.1017 79.3013 82.9042 77.7286C82.0835 79.4783 76.143 83.3546 79.2591 84.5378Z" fill="black"></path><path d="M85.9828 79.3846C84.1311 78.8076 80.6672 84.1379 81.1379 86.0417C83.0959 85.0148 83.9999 81.2009 85.9828 79.3846Z" fill="black"></path><path d="M86.5473 80.6718C85.1996 82.3986 83.0355 84.5711 83.5062 86.804C83.9478 87.5789 88.2553 80.1865 86.5473 80.6718Z" fill="black"></path><path d="M103.111 79.5054C103.298 81.5863 104.119 83.865 104.306 85.9063C106.423 85.5189 104.852 79.8158 103.111 79.5054Z" fill="black"></path><path d="M89.5738 81.2988C87.8554 80.3615 86.7702 85.6438 86.4265 87.0456C88.4448 87.3247 88.4365 82.8193 89.5738 81.2988Z" fill="black"></path><path d="M90.9673 80.8656C88.6282 85.9917 89.605 90.9199 91.5838 82.3965C91.7942 81.7383 91.9088 80.9051 90.9673 80.8656Z" fill="black"></path><path d="M102.203 80.8572C100.332 80.3531 102.513 84.0503 101.701 85.3064C103.677 86.6853 103.05 81.732 102.203 80.8572Z" fill="black"></path><path d="M100.538 81.9695C98.9658 81.3363 99.8385 85.2939 99.6448 86.2812C101.653 86.6999 100.792 83.1068 100.538 81.9695Z" fill="black"></path><path d="M91.7192 86.6353C93.1002 88.3391 94.6332 82.8902 93.1585 82.5361C92.192 83.2172 92.5524 85.5043 91.7192 86.6353Z" fill="black"></path><path d="M72.4083 81.8508C72.7999 80.9301 72.4895 82.0029 72.9145 82.0445C73.354 80.8906 74.637 79.9824 75.2369 79.0742C74.1205 77.8057 71.8043 80.5844 72.4083 81.8487V81.8508Z" fill="black"></path><path d="M95.4435 83.6671C94.1438 82.7048 93.8105 86.3541 93.9355 87.0873C95.4643 87.4997 95.5622 84.7607 95.4435 83.6671Z" fill="black"></path><path d="M73.6581 87.935C72.527 87.181 73.1061 85.6063 72.2937 84.9252C70.5066 84.5836 72.1292 90.02 73.6581 87.935Z" fill="black"></path><path d="M98.9553 85.4147C99.0053 82.2111 97.2119 84.6482 97.7951 86.4916C98.4783 87.7601 99.1636 86.2291 98.9553 85.4147Z" fill="black"></path><path d="M83.1417 93.8548C84.4227 92.9758 82.096 91.9197 81.317 92.2113C80.6463 93.0549 82.5876 93.5423 83.1417 93.8548Z" fill="black"></path><path d="M74.8058 56.5181C76.066 53.6957 80.6234 52.8188 83.3896 54.9247C91.2964 57.3909 87.2597 64.0646 80.5859 64.352C76.3201 64.1792 82.2544 62.7232 83.5874 62.6211C84.6851 62.5503 87.4763 59.9446 86.4806 59.5446C85.4954 60.2487 79.1154 62.869 81.4233 60.232C78.6967 61.2339 69.5651 56.4036 76.1784 58.3011C76.7367 56.4827 76.3076 56.8326 74.8079 56.5181H74.8058ZM86.2432 58.5115C85.1996 57.5179 83.827 57.595 82.4647 57.3492C81.3191 60.4299 84.4706 58.9572 86.2432 58.5115ZM84.0998 56.4744C82.2169 55.2975 78.98 53.8041 77.122 55.5746C79.4882 55.4225 81.7857 56.2557 84.0998 56.4744ZM78.4176 58.5406C78.1468 57.797 78.6488 57.3242 79.1466 56.7806C77.2345 55.662 76.1805 58.8864 78.4176 58.5406ZM80.7526 57.0847C81.0254 57.7179 80.7817 58.2282 80.4005 58.7448C81.719 59.0905 81.6815 57.1555 80.7526 57.0847Z" fill="black"></path><path d="M103.082 57.7783C101.609 63.5584 111.024 59.5384 113.834 59.1822C115.965 57.37 107.706 54.1644 105.475 54.9247C104.34 55.0746 99.8905 58.2345 103.082 57.7762V57.7783ZM108.856 57.8137C110.084 57.9241 112.992 58.8864 110.391 59.0947C108.766 59.4509 109.12 59.3301 108.856 57.8137ZM107.027 59.8112C107.337 59.1759 107.466 58.8239 107.649 58.1553C108.408 58.8468 108.087 59.8508 107.027 59.8112ZM103.894 56.6702C105.514 54.7039 108.783 55.9536 110.634 57.0868C108.406 56.6764 106.202 56.2744 103.894 56.6702ZM103.886 57.7741C103.869 57.7679 104.506 57.0868 105.579 57.5492C106.077 57.7637 104.202 58.8489 105.635 59.4801C106.639 60.032 103.844 59.8342 103.879 58.7323C103.844 58.4261 103.736 58.0574 103.886 57.772V57.7741Z" fill="black"></path><path d="M101.759 58.801C99.3969 62.9711 111.676 65.4518 112.713 61.2339C108.931 63.0461 104.038 62.8586 101.759 58.801Z" fill="black"></path><path d="M115.119 56.9722C116.442 55.8287 112.015 55.3496 111.118 55.2663C110.82 56.5035 114.134 56.4765 115.119 56.9722Z" fill="black"></path><path d="M186.257 70.2322H181.473L178.284 35.9221H181.956L183.793 61.2922C184.035 64.5291 184.083 66.1246 184.083 67.0432H184.47C184.566 65.8351 184.76 64.1438 185.485 61.0027L189.303 44.2351H192.781L196.599 61.0027C197.324 64.1438 197.518 65.8351 197.614 67.0432H198.001C198.001 66.1246 198.049 64.5312 198.291 61.2922L200.128 35.9221H203.8L200.611 70.2322H195.826L192.25 54.3331C191.621 51.3858 191.379 49.6465 191.236 47.7136H190.848C190.702 49.6465 190.461 51.3858 189.834 54.3331L186.257 70.2322Z" fill="black"></path><path d="M209.936 58.1512C209.936 50.4193 214.333 45.4911 221.003 45.4911C227.672 45.4911 232.07 50.4193 232.07 58.1512C232.07 65.883 227.672 70.8113 221.003 70.8113C214.333 70.8113 209.936 65.7851 209.936 58.1512ZM228.493 58.1512C228.493 52.1107 225.642 48.4384 221.003 48.4384C216.364 48.4384 213.513 52.0628 213.513 58.1512C213.513 64.2396 216.364 67.8639 221.003 67.8639C225.642 67.8639 228.493 64.2396 228.493 58.1512Z" fill="black"></path><path d="M246.469 53.2229C248.306 48.3426 252.655 45.4911 257.294 45.4911C259.081 45.4911 260.531 45.7327 261.497 46.0222V49.1633C260.531 48.8738 258.887 48.6322 257.196 48.6322C251.349 48.6322 246.517 53.2229 246.517 61.1964V70.2322H243.134V46.0701H246.469V53.2209V53.2229Z" fill="black"></path><path d="M288.076 70.2322L280.248 57.6679L275.174 62.694V70.2322H271.791V35.1972H275.174V58.6823L287.207 46.0701H291.604L282.616 55.2517L292.233 70.2322H288.078H288.076Z" fill="black"></path><path d="M301.269 63.321L304.699 62.742C305.231 66.1726 307.695 68.0097 311.561 68.0097C315.039 68.0097 317.022 66.2705 317.022 63.8543C317.022 61.438 315.668 60.5195 313.108 60.0362L308.422 59.1177C304.46 58.3449 302.14 56.1703 302.14 52.4981C302.14 48.4384 305.57 45.4911 311.079 45.4911C316.589 45.4911 319.924 47.8594 320.357 52.1607L317.022 52.8855C316.491 49.9382 314.46 48.2468 310.886 48.2468C307.599 48.2468 305.474 49.7924 305.474 52.3544C305.474 54.6248 306.924 55.6891 309.436 56.2203L314.173 57.1389C318.474 57.9595 320.407 60.0383 320.407 63.5668C320.407 67.8681 317.12 70.8154 311.419 70.8154C305.718 70.8154 302.044 68.1576 301.271 63.3252L301.269 63.321Z" fill="black"></path><path d="M182.344 113.974V111.17H190.269V92.6133H182.973V89.8097H193.652V111.168H202.011V113.972H182.344V113.974ZM189.255 84.9794V79.1326H193.991V84.9794H189.255Z" fill="black"></path><path d="M214.333 95.1274C215.637 91.5989 218.441 89.2327 222.596 89.2327C224.675 89.2327 226.85 89.7639 228.443 91.3115C230.037 92.8591 230.859 95.2253 230.859 99.1392V113.974H227.477V99.2829C227.477 93.484 224.577 92.228 221.824 92.228C216.314 92.228 214.527 97.302 214.527 101.264V113.972H211.144V89.8097H214.333V95.1253V95.1274Z" fill="black"></path><path d="M186.001 143.364V157.715H182.329V123.405H193.25C202.19 123.405 204.364 128.915 204.364 133.312C204.364 137.709 201.852 143.362 192.623 143.362H186.003L186.001 143.364ZM186.001 140.319H192.719C199.049 140.319 200.498 136.501 200.498 133.36C200.498 130.219 199.145 126.499 193.104 126.499H186.001V140.319Z" fill="black"></path><path d="M217.218 140.706C219.055 135.826 223.405 132.974 228.043 132.974C229.83 132.974 231.28 133.216 232.247 133.506V136.647C231.28 136.357 229.637 136.115 227.945 136.115C222.099 136.115 217.266 140.706 217.266 148.68V157.715H213.883V133.553H217.218V140.704V140.706Z" fill="black"></path><path d="M240.607 145.634C240.607 137.903 245.005 132.974 251.674 132.974C258.344 132.974 262.741 137.903 262.741 145.634C262.741 153.366 258.344 158.295 251.674 158.295C245.005 158.295 240.607 153.268 240.607 145.634ZM259.164 145.634C259.164 139.594 256.313 135.922 251.674 135.922C247.035 135.922 244.184 139.546 244.184 145.634C244.184 151.723 247.035 155.347 251.674 155.347C256.313 155.347 259.164 151.723 259.164 145.634Z" fill="black"></path><path d="M288.061 135.293C289.559 136.695 290.429 138.675 290.429 141.044C290.429 145.924 286.805 149.211 281.537 149.211C279.798 149.211 278.25 148.873 276.946 148.196C275.786 148.728 274.966 149.646 274.966 150.902C274.966 152.546 276.367 153.608 279.073 153.608H285.597C290.525 153.608 293.281 155.976 293.281 159.986C293.281 164.964 289.027 167.718 281.683 167.718C274.87 167.718 270.81 165.302 270.81 161.388C270.81 158.73 272.454 156.845 275.063 155.976C273.083 155.203 271.97 153.754 271.97 151.723C271.97 149.692 273.226 147.953 275.401 147.18C273.805 145.778 272.889 143.702 272.889 141.235C272.889 136.355 276.465 132.972 281.683 132.972C283.47 132.972 285.066 133.36 286.37 134.035C287.19 131.377 289.221 129.781 292.121 129.781C292.556 129.781 293.087 129.829 293.425 129.927V132.922C292.845 132.827 292.458 132.777 291.975 132.777C289.994 132.777 288.738 133.597 288.061 135.289V135.293ZM278.977 156.555C278.3 156.555 277.673 156.507 277.092 156.46C275.255 157.184 274.145 158.634 274.145 160.471C274.145 163.371 276.755 164.916 282.07 164.916C287.386 164.916 289.898 163.321 289.898 160.325C289.898 157.909 288.255 156.555 284.92 156.555H278.975H278.977ZM287.24 141.044C287.24 137.855 284.97 135.582 281.683 135.582C278.396 135.582 276.078 137.903 276.078 141.187C276.078 144.472 278.348 146.599 281.539 146.599C284.73 146.599 287.242 144.278 287.242 141.042L287.24 141.044Z" fill="black"></path><path d="M307.101 140.706C308.938 135.826 313.287 132.974 317.926 132.974C319.713 132.974 321.163 133.216 322.129 133.506V136.647C321.163 136.357 319.52 136.115 317.828 136.115C311.981 136.115 307.149 140.706 307.149 148.68V157.715H303.766V133.553H307.101V140.704V140.706Z" fill="black"></path><path d="M334.115 146.359V146.455C334.115 151.675 336.966 155.299 341.749 155.299C345.469 155.299 347.5 152.931 348.562 150.321L351.461 151.771C349.722 155.878 346.435 158.295 341.749 158.295C334.354 158.295 330.682 153.173 330.682 145.199C330.682 137.805 334.837 132.974 341.457 132.974C348.851 132.974 351.557 138.338 351.557 144.862C351.557 145.345 351.509 145.876 351.509 146.359H334.113H334.115ZM334.163 143.556H348.079C348.127 139.352 346.194 135.63 341.313 135.63C336.433 135.63 334.163 139.592 334.163 143.556Z" fill="black"></path><path d="M361.901 150.804L365.332 150.225C365.863 153.656 368.327 155.493 372.193 155.493C375.671 155.493 377.654 153.754 377.654 151.338C377.654 148.921 376.3 148.003 373.74 147.519L369.054 146.601C365.092 145.828 362.772 143.654 362.772 139.981C362.772 135.922 366.202 132.974 371.712 132.974C377.221 132.974 380.556 135.343 380.989 139.644L377.654 140.369C377.123 137.421 375.092 135.73 371.518 135.73C368.231 135.73 366.106 137.276 366.106 139.838C366.106 142.108 367.556 143.172 370.068 143.704L374.805 144.622C379.106 145.443 381.039 147.522 381.039 151.05C381.039 155.351 377.752 158.299 372.051 158.299C366.35 158.299 362.676 155.641 361.903 150.808L361.901 150.804Z" fill="black"></path><path d="M391.862 150.804L395.293 150.225C395.824 153.656 398.288 155.493 402.154 155.493C405.632 155.493 407.615 153.754 407.615 151.338C407.615 148.921 406.261 148.003 403.701 147.519L399.015 146.601C395.053 145.828 392.733 143.654 392.733 139.981C392.733 135.922 396.163 132.974 401.673 132.974C407.182 132.974 410.517 135.343 410.95 139.644L407.615 140.369C407.084 137.421 405.053 135.73 401.479 135.73C398.192 135.73 396.067 137.276 396.067 139.838C396.067 142.108 397.517 143.172 400.029 143.704L404.766 144.622C409.067 145.443 411 147.522 411 151.05C411 155.351 407.713 158.299 402.012 158.299C396.311 158.299 392.637 155.641 391.864 150.808L391.862 150.804Z" fill="black"></path></svg> 