<svg width="1318" height="365" viewBox="0 0 1318 365" fill="none" xmlns="http://www.w3.org/2000/svg"> <rect width="1318" height="364.457" fill="white"/> <mask id="path-1-inside-1_231_1529" fill="white"> <path d="M40 60H1278V100H40V60Z"/> </mask> <path d="M1278 99H40V101H1278V99Z" fill="black" mask="url(#path-1-inside-1_231_1529)"/> <path d="M421.528 88C421.478 87.33 421.453 86.76 421.453 86.29C421.453 84.71 421.678 83.385 422.128 82.315C422.578 81.235 423.303 80.31 424.303 79.54H419.443V77.875H426.583V79.33C425.773 79.84 425.133 80.395 424.663 80.995C424.203 81.595 423.868 82.295 423.658 83.095C423.458 83.895 423.358 84.865 423.358 86.005C423.358 86.535 423.383 87.2 423.433 88H421.528Z" fill="black"/> <path d="M1168.27 80.29C1167.95 80.6 1167.57 80.835 1167.12 80.995C1166.68 81.155 1166.2 81.235 1165.69 81.235L1165.59 79.39C1166.16 79.37 1166.69 79.22 1167.19 78.94C1167.7 78.65 1168.06 78.295 1168.27 77.875H1170.18V88H1168.27V80.29ZM1175.84 88.135C1175.07 88.135 1174.39 87.955 1173.8 87.595C1173.21 87.235 1172.75 86.695 1172.41 85.975C1172.07 85.255 1171.9 84.365 1171.9 83.305C1171.9 82.105 1172.08 81.09 1172.45 80.26C1172.83 79.42 1173.35 78.79 1174.01 78.37C1174.68 77.95 1175.45 77.74 1176.31 77.74C1177.29 77.74 1178.1 78 1178.74 78.52C1179.39 79.03 1179.78 79.735 1179.92 80.635L1178.14 81.07C1178.04 80.52 1177.82 80.105 1177.49 79.825C1177.17 79.545 1176.75 79.405 1176.23 79.405C1175.49 79.405 1174.9 79.7 1174.46 80.29C1174.03 80.87 1173.8 81.71 1173.76 82.81C1174.02 82.4 1174.38 82.08 1174.84 81.85C1175.31 81.61 1175.82 81.49 1176.37 81.49C1176.98 81.49 1177.52 81.635 1178 81.925C1178.49 82.215 1178.87 82.61 1179.14 83.11C1179.42 83.6 1179.56 84.145 1179.56 84.745C1179.56 85.405 1179.4 85.995 1179.08 86.515C1178.76 87.025 1178.32 87.425 1177.75 87.715C1177.19 87.995 1176.55 88.135 1175.84 88.135ZM1174.09 84.805C1174.09 85.315 1174.26 85.72 1174.6 86.02C1174.94 86.32 1175.37 86.47 1175.89 86.47C1176.4 86.47 1176.82 86.32 1177.15 86.02C1177.49 85.72 1177.66 85.315 1177.66 84.805C1177.66 84.295 1177.49 83.89 1177.15 83.59C1176.82 83.29 1176.4 83.14 1175.89 83.14C1175.37 83.14 1174.94 83.29 1174.6 83.59C1174.26 83.89 1174.09 84.295 1174.09 84.805Z" fill="black"/> <path d="M1250.86 86.335C1251.77 85.895 1252.52 85.47 1253.12 85.06C1253.72 84.65 1254.25 84.215 1254.71 83.755C1255.2 83.275 1255.58 82.815 1255.84 82.375C1256.11 81.925 1256.24 81.475 1256.24 81.025C1256.24 80.545 1256.1 80.17 1255.82 79.9C1255.55 79.62 1255.14 79.48 1254.58 79.48C1253.99 79.48 1253.52 79.65 1253.18 79.99C1252.85 80.33 1252.69 80.86 1252.69 81.58C1252.69 81.67 1252.7 81.845 1252.72 82.105L1250.92 81.955C1250.9 81.715 1250.89 81.535 1250.89 81.415C1250.89 80.225 1251.23 79.315 1251.91 78.685C1252.59 78.055 1253.5 77.74 1254.65 77.74C1255.72 77.74 1256.57 78.015 1257.2 78.565C1257.84 79.105 1258.16 79.855 1258.16 80.815C1258.16 82.105 1257.49 83.375 1256.14 84.625C1255.49 85.225 1254.76 85.795 1253.96 86.335H1258.18V88H1251.01L1250.86 86.335ZM1262.06 80.29C1261.74 80.6 1261.36 80.835 1260.91 80.995C1260.47 81.155 1259.99 81.235 1259.48 81.235L1259.38 79.39C1259.95 79.37 1260.48 79.22 1260.98 78.94C1261.49 78.65 1261.85 78.295 1262.06 77.875H1263.97V88H1262.06V80.29Z" fill="black"/> <path d="M568.277 88.105C567.197 88.105 566.322 87.81 565.652 87.22C564.982 86.63 564.647 85.74 564.647 84.55L566.237 84.115C566.247 84.885 566.437 85.465 566.807 85.855C567.187 86.235 567.692 86.425 568.322 86.425C568.872 86.425 569.322 86.28 569.672 85.99C570.022 85.69 570.197 85.26 570.197 84.7C570.197 84.18 570.037 83.765 569.717 83.455C569.407 83.145 568.972 82.99 568.412 82.99C567.952 82.99 567.487 83.115 567.017 83.365L566.222 82.015L569.417 79.54H565.082V77.875H571.547L571.697 79.54L569.012 81.61H569.177C569.687 81.61 570.167 81.74 570.617 82C571.067 82.25 571.427 82.61 571.697 83.08C571.967 83.55 572.102 84.095 572.102 84.715C572.102 85.385 571.947 85.98 571.637 86.5C571.327 87.01 570.882 87.405 570.302 87.685C569.722 87.965 569.047 88.105 568.277 88.105Z" fill="black"/> <path d="M626.123 80.29C625.803 80.6 625.418 80.835 624.968 80.995C624.528 81.155 624.053 81.235 623.543 81.235L623.438 79.39C624.008 79.37 624.543 79.22 625.043 78.94C625.553 78.65 625.913 78.295 626.123 77.875H628.028V88H626.123V80.29ZM631.443 88C631.393 87.33 631.368 86.76 631.368 86.29C631.368 84.71 631.593 83.385 632.043 82.315C632.493 81.235 633.218 80.31 634.218 79.54H629.358V77.875H636.498V79.33C635.688 79.84 635.048 80.395 634.578 80.995C634.118 81.595 633.783 82.295 633.573 83.095C633.373 83.895 633.273 84.865 633.273 86.005C633.273 86.535 633.298 87.2 633.348 88H631.443Z" fill="black"/> <path d="M300.095 80.29C299.775 80.6 299.39 80.835 298.94 80.995C298.5 81.155 298.025 81.235 297.515 81.235L297.41 79.39C297.98 79.37 298.515 79.22 299.015 78.94C299.525 78.65 299.885 78.295 300.095 77.875H302V88H300.095V80.29ZM307.275 88.135C306.235 88.135 305.375 87.86 304.695 87.31C304.015 86.75 303.655 85.94 303.615 84.88L305.22 84.43C305.3 85.14 305.53 85.655 305.91 85.975C306.29 86.295 306.755 86.455 307.305 86.455C307.915 86.455 308.38 86.29 308.7 85.96C309.02 85.63 309.18 85.2 309.18 84.67C309.18 84.14 309.02 83.71 308.7 83.38C308.38 83.04 307.925 82.87 307.335 82.87C306.625 82.87 305.975 83.155 305.385 83.725L303.975 83.02L304.8 77.875H310.305V79.54H306.21L305.835 81.835C306.425 81.435 307.085 81.235 307.815 81.235C308.475 81.235 309.05 81.375 309.54 81.655C310.04 81.935 310.425 82.33 310.695 82.84C310.965 83.34 311.1 83.92 311.1 84.58C311.1 85.69 310.75 86.56 310.05 87.19C309.35 87.82 308.425 88.135 307.275 88.135Z" fill="black"/> <path d="M798.273 80.29C797.953 80.6 797.568 80.835 797.118 80.995C796.678 81.155 796.203 81.235 795.693 81.235L795.588 79.39C796.158 79.37 796.693 79.22 797.193 78.94C797.703 78.65 798.063 78.295 798.273 77.875H800.178V88H798.273V80.29ZM805.843 88.135C805.073 88.135 804.393 87.955 803.803 87.595C803.213 87.235 802.748 86.695 802.408 85.975C802.068 85.255 801.898 84.365 801.898 83.305C801.898 82.105 802.083 81.09 802.453 80.26C802.833 79.42 803.353 78.79 804.013 78.37C804.683 77.95 805.448 77.74 806.308 77.74C807.288 77.74 808.098 78 808.738 78.52C809.388 79.03 809.783 79.735 809.923 80.635L808.138 81.07C808.038 80.52 807.823 80.105 807.493 79.825C807.173 79.545 806.753 79.405 806.233 79.405C805.493 79.405 804.903 79.7 804.463 80.29C804.033 80.87 803.798 81.71 803.758 82.81C804.018 82.4 804.378 82.08 804.838 81.85C805.308 81.61 805.818 81.49 806.368 81.49C806.978 81.49 807.523 81.635 808.003 81.925C808.493 82.215 808.873 82.61 809.143 83.11C809.423 83.6 809.563 84.145 809.563 84.745C809.563 85.405 809.403 85.995 809.083 86.515C808.763 87.025 808.318 87.425 807.748 87.715C807.188 87.995 806.553 88.135 805.843 88.135ZM804.088 84.805C804.088 85.315 804.258 85.72 804.598 86.02C804.938 86.32 805.368 86.47 805.888 86.47C806.398 86.47 806.818 86.32 807.148 86.02C807.488 85.72 807.658 85.315 807.658 84.805C807.658 84.295 807.488 83.89 807.148 83.59C806.818 83.29 806.398 83.14 805.888 83.14C805.368 83.14 804.938 83.29 804.598 83.59C804.258 83.89 804.088 84.295 804.088 84.805Z" fill="black"/> <g clip-path="url(#clip0_231_1529)"> <line x1="554.5" y1="360.224" x2="554.5" y2="100.091" stroke="black" stroke-opacity="0.25"/> <line x1="392.5" y1="360.224" x2="392.5" y2="100.091" stroke="black" stroke-opacity="0.25"/> <line x1="422.5" y1="106.091" x2="422.5" y2="100.091" stroke="black"/> <line x1="568.5" y1="106.091" x2="568.5" y2="100.091" stroke="black"/> <line x1="629.5" y1="106.091" x2="629.5" y2="100.091" stroke="black"/> <line x1="803.5" y1="106.091" x2="803.5" y2="100.091" stroke="black"/> <line x1="1172.5" y1="106.091" x2="1172.5" y2="100.091" stroke="black"/> <line x1="1257.5" y1="106.091" x2="1257.5" y2="100.091" stroke="black"/> <line x1="304.5" y1="106.091" x2="304.5" y2="100.091" stroke="black"/> <line x1="229.5" y1="360.224" x2="229.5" y2="100.091" stroke="black" stroke-opacity="0.25"/> <line x1="67.5" y1="360.224" x2="67.5" y2="100.091" stroke="black" stroke-opacity="0.25"/> <line x1="1116.5" y1="360.224" x2="1116.5" y2="100.091" stroke="black" stroke-opacity="0.25"/> <line x1="920.5" y1="360.224" x2="920.5" y2="100.091" stroke="black" stroke-opacity="0.25"/> <line x1="725.5" y1="361.091" x2="725.5" y2="100.958" stroke="black" stroke-opacity="0.25"/> <rect width="356" height="80" transform="translate(68 140)" fill="#847872"/> <path d="M143.799 173.738H145.797L150.801 186.5H148.857L147.525 183.098H141.999L140.667 186.5H138.813L143.799 173.738ZM146.859 181.424L144.753 176.042L142.647 181.424H146.859ZM152.382 177.554H154.164V178.922C154.56 178.442 155.016 178.07 155.532 177.806C156.048 177.542 156.606 177.41 157.206 177.41C157.974 177.41 158.676 177.608 159.312 178.004C159.948 178.4 160.446 178.952 160.806 179.66C161.178 180.356 161.364 181.148 161.364 182.036C161.364 182.924 161.178 183.722 160.806 184.43C160.446 185.126 159.942 185.672 159.294 186.068C158.658 186.452 157.95 186.644 157.17 186.644C156.582 186.644 156.03 186.524 155.514 186.284C155.01 186.032 154.572 185.702 154.2 185.294V190.424H152.382V177.554ZM154.2 182.072C154.2 182.96 154.44 183.674 154.92 184.214C155.412 184.754 156.042 185.024 156.81 185.024C157.314 185.024 157.77 184.904 158.178 184.664C158.598 184.424 158.928 184.082 159.168 183.638C159.408 183.182 159.528 182.654 159.528 182.054C159.528 181.466 159.408 180.944 159.168 180.488C158.94 180.02 158.622 179.66 158.214 179.408C157.806 179.144 157.356 179.012 156.864 179.012C156.36 179.012 155.904 179.144 155.496 179.408C155.1 179.66 154.782 180.02 154.542 180.488C154.314 180.944 154.2 181.472 154.2 182.072ZM163.228 177.554H165.01V178.922C165.406 178.442 165.862 178.07 166.378 177.806C166.894 177.542 167.452 177.41 168.052 177.41C168.82 177.41 169.522 177.608 170.158 178.004C170.794 178.4 171.292 178.952 171.652 179.66C172.024 180.356 172.21 181.148 172.21 182.036C172.21 182.924 172.024 183.722 171.652 184.43C171.292 185.126 170.788 185.672 170.14 186.068C169.504 186.452 168.796 186.644 168.016 186.644C167.428 186.644 166.876 186.524 166.36 186.284C165.856 186.032 165.418 185.702 165.046 185.294V190.424H163.228V177.554ZM165.046 182.072C165.046 182.96 165.286 183.674 165.766 184.214C166.258 184.754 166.888 185.024 167.656 185.024C168.16 185.024 168.616 184.904 169.024 184.664C169.444 184.424 169.774 184.082 170.014 183.638C170.254 183.182 170.374 182.654 170.374 182.054C170.374 181.466 170.254 180.944 170.014 180.488C169.786 180.02 169.468 179.66 169.06 179.408C168.652 179.144 168.202 179.012 167.71 179.012C167.206 179.012 166.75 179.144 166.342 179.408C165.946 179.66 165.628 180.02 165.388 180.488C165.16 180.944 165.046 181.472 165.046 182.072ZM174.2 173.738H176.036V186.5H174.2V173.738ZM178.468 177.554H180.286V186.5H178.468V177.554ZM178.126 174.818C178.126 174.482 178.246 174.194 178.486 173.954C178.738 173.714 179.038 173.594 179.386 173.594C179.722 173.594 180.01 173.714 180.25 173.954C180.49 174.194 180.61 174.482 180.61 174.818C180.61 175.154 180.49 175.442 180.25 175.682C180.022 175.91 179.734 176.024 179.386 176.024C179.038 176.024 178.738 175.91 178.486 175.682C178.246 175.454 178.126 175.166 178.126 174.818ZM186.632 186.644C185.768 186.644 184.994 186.452 184.31 186.068C183.638 185.672 183.11 185.132 182.726 184.448C182.342 183.752 182.15 182.966 182.15 182.09C182.15 181.19 182.348 180.386 182.744 179.678C183.152 178.958 183.71 178.4 184.418 178.004C185.126 177.608 185.936 177.41 186.848 177.41C187.988 177.41 188.942 177.722 189.71 178.346C190.478 178.97 190.958 179.84 191.15 180.956L189.494 181.532C189.374 180.728 189.074 180.11 188.594 179.678C188.114 179.246 187.508 179.03 186.776 179.03C185.924 179.03 185.24 179.306 184.724 179.858C184.22 180.41 183.968 181.13 183.968 182.018C183.968 182.918 184.22 183.644 184.724 184.196C185.228 184.736 185.87 185.006 186.65 185.006C187.262 185.006 187.772 184.838 188.18 184.502C188.588 184.154 188.888 183.656 189.08 183.008L190.718 183.53C190.514 184.478 190.04 185.234 189.296 185.798C188.564 186.362 187.676 186.644 186.632 186.644ZM195.331 186.644C194.443 186.644 193.747 186.416 193.243 185.96C192.751 185.492 192.505 184.868 192.505 184.088C192.505 183.332 192.745 182.732 193.225 182.288C193.717 181.844 194.395 181.55 195.259 181.406L198.175 180.92V180.506C198.175 180.026 198.007 179.66 197.671 179.408C197.347 179.156 196.891 179.03 196.303 179.03C195.679 179.03 195.163 179.174 194.755 179.462C194.359 179.738 194.101 180.158 193.981 180.722L192.361 180.326C192.553 179.378 192.991 178.658 193.675 178.166C194.359 177.662 195.259 177.41 196.375 177.41C197.491 177.41 198.361 177.662 198.985 178.166C199.609 178.658 199.921 179.36 199.921 180.272V183.98C199.921 184.436 199.999 184.742 200.155 184.898C200.323 185.054 200.623 185.12 201.055 185.096L200.695 186.626C199.951 186.674 199.345 186.554 198.877 186.266C198.421 185.978 198.199 185.498 198.211 184.826C197.623 186.038 196.663 186.644 195.331 186.644ZM194.323 183.908C194.323 184.244 194.443 184.52 194.683 184.736C194.923 184.952 195.277 185.06 195.745 185.06C196.453 185.06 197.035 184.82 197.491 184.34C197.947 183.848 198.175 183.212 198.175 182.432V182.27L195.691 182.684C195.247 182.744 194.905 182.882 194.665 183.098C194.437 183.302 194.323 183.572 194.323 183.908ZM205.503 186.59C204.663 186.59 204.051 186.392 203.667 185.996C203.295 185.6 203.109 185.03 203.109 184.286V179.138H201.777V177.554H203.109V175.628L204.945 175.052V177.554H207.015V179.138H204.945V184.016C204.945 184.64 205.233 184.952 205.809 184.952C206.097 184.952 206.475 184.862 206.943 184.682L207.339 186.176C206.775 186.452 206.163 186.59 205.503 186.59ZM209.002 177.554H210.82V186.5H209.002V177.554ZM208.66 174.818C208.66 174.482 208.78 174.194 209.02 173.954C209.272 173.714 209.572 173.594 209.92 173.594C210.256 173.594 210.544 173.714 210.784 173.954C211.024 174.194 211.144 174.482 211.144 174.818C211.144 175.154 211.024 175.442 210.784 175.682C210.556 175.91 210.268 176.024 209.92 176.024C209.572 176.024 209.272 175.91 209.02 175.682C208.78 175.454 208.66 175.166 208.66 174.818ZM217.255 186.644C216.367 186.644 215.575 186.446 214.879 186.05C214.183 185.654 213.643 185.108 213.259 184.412C212.875 183.704 212.683 182.906 212.683 182.018C212.683 181.13 212.875 180.338 213.259 179.642C213.655 178.946 214.201 178.4 214.897 178.004C215.593 177.608 216.379 177.41 217.255 177.41C218.131 177.41 218.917 177.608 219.613 178.004C220.309 178.4 220.855 178.946 221.251 179.642C221.647 180.338 221.845 181.13 221.845 182.018C221.845 182.906 221.653 183.704 221.269 184.412C220.885 185.108 220.345 185.654 219.649 186.05C218.953 186.446 218.155 186.644 217.255 186.644ZM214.501 182.018C214.501 182.894 214.759 183.614 215.275 184.178C215.791 184.73 216.451 185.006 217.255 185.006C218.059 185.006 218.719 184.73 219.235 184.178C219.751 183.614 220.009 182.894 220.009 182.018C220.009 181.454 219.889 180.944 219.649 180.488C219.421 180.032 219.097 179.678 218.677 179.426C218.257 179.174 217.783 179.048 217.255 179.048C216.727 179.048 216.253 179.174 215.833 179.426C215.413 179.678 215.083 180.032 214.843 180.488C214.615 180.944 214.501 181.454 214.501 182.018ZM223.732 177.554H225.514V178.94C226.294 177.92 227.302 177.41 228.538 177.41C229.522 177.41 230.302 177.722 230.878 178.346C231.466 178.958 231.76 179.786 231.76 180.83V186.5H229.942V181.37C229.942 180.626 229.75 180.062 229.366 179.678C228.994 179.282 228.502 179.084 227.89 179.084C227.182 179.084 226.612 179.336 226.18 179.84C225.76 180.332 225.55 180.98 225.55 181.784V186.5H223.732V177.554ZM237.148 186.644C236.14 186.644 235.312 186.416 234.664 185.96C234.028 185.492 233.656 184.826 233.548 183.962L235.204 183.476C235.276 184.004 235.492 184.406 235.852 184.682C236.212 184.958 236.674 185.096 237.238 185.096C237.73 185.096 238.12 185 238.408 184.808C238.696 184.616 238.84 184.34 238.84 183.98C238.84 183.404 238.468 183.05 237.724 182.918L236.032 182.558C234.568 182.246 233.836 181.466 233.836 180.218C233.836 179.354 234.16 178.67 234.808 178.166C235.456 177.662 236.29 177.41 237.31 177.41C238.294 177.41 239.11 177.656 239.758 178.148C240.406 178.64 240.79 179.318 240.91 180.182L239.362 180.65C239.278 180.098 239.062 179.678 238.714 179.39C238.366 179.102 237.886 178.958 237.274 178.958C236.758 178.958 236.356 179.06 236.068 179.264C235.78 179.456 235.636 179.726 235.636 180.074C235.636 180.614 235.996 180.95 236.716 181.082L238.264 181.406C239.02 181.55 239.602 181.832 240.01 182.252C240.43 182.672 240.64 183.218 240.64 183.89C240.64 184.742 240.322 185.414 239.686 185.906C239.05 186.398 238.204 186.644 237.148 186.644ZM251.111 186.644C250.223 186.644 249.431 186.446 248.735 186.05C248.039 185.654 247.499 185.108 247.115 184.412C246.731 183.704 246.539 182.906 246.539 182.018C246.539 181.13 246.731 180.338 247.115 179.642C247.511 178.946 248.057 178.4 248.753 178.004C249.449 177.608 250.235 177.41 251.111 177.41C251.987 177.41 252.773 177.608 253.469 178.004C254.165 178.4 254.711 178.946 255.107 179.642C255.503 180.338 255.701 181.13 255.701 182.018C255.701 182.906 255.509 183.704 255.125 184.412C254.741 185.108 254.201 185.654 253.505 186.05C252.809 186.446 252.011 186.644 251.111 186.644ZM248.357 182.018C248.357 182.894 248.615 183.614 249.131 184.178C249.647 184.73 250.307 185.006 251.111 185.006C251.915 185.006 252.575 184.73 253.091 184.178C253.607 183.614 253.865 182.894 253.865 182.018C253.865 181.454 253.745 180.944 253.505 180.488C253.277 180.032 252.953 179.678 252.533 179.426C252.113 179.174 251.639 179.048 251.111 179.048C250.583 179.048 250.109 179.174 249.689 179.426C249.269 179.678 248.939 180.032 248.699 180.488C248.471 180.944 248.357 181.454 248.357 182.018ZM257.588 177.554H259.37V178.922C259.766 178.442 260.222 178.07 260.738 177.806C261.254 177.542 261.812 177.41 262.412 177.41C263.18 177.41 263.882 177.608 264.518 178.004C265.154 178.4 265.652 178.952 266.012 179.66C266.384 180.356 266.57 181.148 266.57 182.036C266.57 182.924 266.384 183.722 266.012 184.43C265.652 185.126 265.148 185.672 264.5 186.068C263.864 186.452 263.156 186.644 262.376 186.644C261.788 186.644 261.236 186.524 260.72 186.284C260.216 186.032 259.778 185.702 259.406 185.294V190.424H257.588V177.554ZM259.406 182.072C259.406 182.96 259.646 183.674 260.126 184.214C260.618 184.754 261.248 185.024 262.016 185.024C262.52 185.024 262.976 184.904 263.384 184.664C263.804 184.424 264.134 184.082 264.374 183.638C264.614 183.182 264.734 182.654 264.734 182.054C264.734 181.466 264.614 180.944 264.374 180.488C264.146 180.02 263.828 179.66 263.42 179.408C263.012 179.144 262.562 179.012 262.07 179.012C261.566 179.012 261.11 179.144 260.702 179.408C260.306 179.66 259.988 180.02 259.748 180.488C259.52 180.944 259.406 181.472 259.406 182.072ZM272.537 186.644C271.637 186.644 270.845 186.452 270.161 186.068C269.477 185.684 268.949 185.15 268.577 184.466C268.205 183.782 268.019 183.002 268.019 182.126C268.019 181.226 268.205 180.422 268.577 179.714C268.961 178.994 269.489 178.43 270.161 178.022C270.845 177.614 271.619 177.41 272.483 177.41C273.311 177.41 274.037 177.602 274.661 177.986C275.297 178.358 275.789 178.886 276.137 179.57C276.497 180.242 276.677 181.01 276.677 181.874C276.677 182.09 276.665 182.294 276.641 182.486H269.837C269.921 183.254 270.209 183.872 270.701 184.34C271.205 184.796 271.829 185.024 272.573 185.024C273.173 185.024 273.695 184.868 274.139 184.556C274.595 184.244 274.907 183.836 275.075 183.332L276.659 183.908C276.419 184.712 275.927 185.372 275.183 185.888C274.439 186.392 273.557 186.644 272.537 186.644ZM274.841 181.19C274.829 180.542 274.595 180.02 274.139 179.624C273.683 179.228 273.107 179.03 272.411 179.03C271.751 179.03 271.193 179.222 270.737 179.606C270.293 179.978 270.005 180.506 269.873 181.19H274.841ZM278.541 177.554H280.323V178.94C281.103 177.92 282.111 177.41 283.347 177.41C284.331 177.41 285.111 177.722 285.687 178.346C286.275 178.958 286.569 179.786 286.569 180.83V186.5H284.751V181.37C284.751 180.626 284.559 180.062 284.175 179.678C283.803 179.282 283.311 179.084 282.699 179.084C281.991 179.084 281.421 179.336 280.989 179.84C280.569 180.332 280.359 180.98 280.359 181.784V186.5H278.541V177.554Z" fill="white"/> <path d="M424 140L424 218.974L424 220L443 180L424 140Z" fill="#847872"/> <rect width="237" height="60" transform="translate(315 150.457)" fill="#E0DAC4"/> <path d="M375.766 168.832H377.273L381.047 178.457H379.581L378.576 175.891H374.408L373.404 178.457H372.006L375.766 168.832ZM378.074 174.628L376.485 170.569L374.897 174.628H378.074ZM382.239 171.71H383.583V172.741C383.882 172.379 384.226 172.099 384.615 171.9C385.004 171.701 385.425 171.601 385.877 171.601C386.457 171.601 386.986 171.75 387.466 172.049C387.945 172.348 388.321 172.764 388.592 173.298C388.873 173.823 389.013 174.42 389.013 175.09C389.013 175.76 388.873 176.361 388.592 176.895C388.321 177.42 387.941 177.832 387.452 178.131C386.972 178.42 386.438 178.565 385.85 178.565C385.407 178.565 384.99 178.475 384.601 178.294C384.221 178.104 383.891 177.855 383.61 177.547V181.416H382.239V171.71ZM383.61 175.117C383.61 175.787 383.791 176.325 384.153 176.733C384.524 177.14 384.999 177.343 385.579 177.343C385.959 177.343 386.303 177.253 386.61 177.072C386.927 176.891 387.176 176.633 387.357 176.298C387.538 175.954 387.629 175.556 387.629 175.103C387.629 174.66 387.538 174.266 387.357 173.922C387.185 173.57 386.945 173.298 386.638 173.108C386.33 172.909 385.99 172.809 385.619 172.809C385.239 172.809 384.895 172.909 384.588 173.108C384.289 173.298 384.049 173.57 383.868 173.922C383.696 174.266 383.61 174.665 383.61 175.117ZM390.419 171.71H391.763V172.741C392.061 172.379 392.405 172.099 392.794 171.9C393.184 171.701 393.604 171.601 394.057 171.601C394.636 171.601 395.166 171.75 395.645 172.049C396.125 172.348 396.5 172.764 396.772 173.298C397.052 173.823 397.193 174.42 397.193 175.09C397.193 175.76 397.052 176.361 396.772 176.895C396.5 177.42 396.12 177.832 395.632 178.131C395.152 178.42 394.618 178.565 394.03 178.565C393.586 178.565 393.17 178.475 392.781 178.294C392.401 178.104 392.07 177.855 391.79 177.547V181.416H390.419V171.71ZM391.79 175.117C391.79 175.787 391.971 176.325 392.333 176.733C392.704 177.14 393.179 177.343 393.758 177.343C394.138 177.343 394.482 177.253 394.79 177.072C395.107 176.891 395.356 176.633 395.537 176.298C395.718 175.954 395.808 175.556 395.808 175.103C395.808 174.66 395.718 174.266 395.537 173.922C395.365 173.57 395.125 173.298 394.817 173.108C394.509 172.909 394.17 172.809 393.799 172.809C393.419 172.809 393.075 172.909 392.767 173.108C392.469 173.298 392.229 173.57 392.048 173.922C391.876 174.266 391.79 174.665 391.79 175.117ZM398.693 168.832H400.078V178.457H398.693V168.832ZM401.913 171.71H403.284V178.457H401.913V171.71ZM401.655 169.646C401.655 169.393 401.745 169.176 401.926 168.995C402.116 168.814 402.342 168.723 402.605 168.723C402.858 168.723 403.075 168.814 403.256 168.995C403.437 169.176 403.528 169.393 403.528 169.646C403.528 169.9 403.437 170.117 403.256 170.298C403.085 170.47 402.867 170.556 402.605 170.556C402.342 170.556 402.116 170.47 401.926 170.298C401.745 170.126 401.655 169.909 401.655 169.646ZM408.069 178.565C407.418 178.565 406.834 178.42 406.318 178.131C405.811 177.832 405.413 177.425 405.124 176.909C404.834 176.384 404.689 175.791 404.689 175.131C404.689 174.452 404.838 173.846 405.137 173.312C405.445 172.769 405.866 172.348 406.4 172.049C406.934 171.75 407.544 171.601 408.232 171.601C409.092 171.601 409.811 171.836 410.391 172.307C410.97 172.778 411.332 173.434 411.477 174.275L410.228 174.71C410.137 174.103 409.911 173.637 409.549 173.312C409.187 172.986 408.73 172.823 408.178 172.823C407.535 172.823 407.02 173.031 406.63 173.447C406.25 173.864 406.06 174.407 406.06 175.076C406.06 175.755 406.25 176.303 406.63 176.719C407.011 177.126 407.495 177.33 408.083 177.33C408.544 177.33 408.929 177.203 409.237 176.95C409.545 176.687 409.771 176.312 409.916 175.823L411.151 176.217C410.997 176.932 410.64 177.502 410.078 177.927C409.526 178.352 408.857 178.565 408.069 178.565ZM414.63 178.565C413.96 178.565 413.435 178.393 413.055 178.049C412.684 177.696 412.499 177.226 412.499 176.637C412.499 176.067 412.68 175.615 413.042 175.28C413.413 174.945 413.924 174.723 414.576 174.615L416.775 174.248V173.936C416.775 173.574 416.648 173.298 416.395 173.108C416.15 172.918 415.807 172.823 415.363 172.823C414.893 172.823 414.503 172.931 414.196 173.149C413.897 173.357 413.702 173.674 413.612 174.099L412.39 173.8C412.535 173.085 412.865 172.542 413.381 172.171C413.897 171.791 414.576 171.601 415.417 171.601C416.259 171.601 416.915 171.791 417.386 172.171C417.856 172.542 418.092 173.072 418.092 173.76V176.556C418.092 176.9 418.151 177.131 418.268 177.248C418.395 177.366 418.621 177.416 418.947 177.398L418.675 178.552C418.114 178.588 417.657 178.497 417.304 178.28C416.96 178.063 416.793 177.701 416.802 177.194C416.359 178.108 415.635 178.565 414.63 178.565ZM413.87 176.502C413.87 176.755 413.96 176.963 414.141 177.126C414.322 177.289 414.589 177.371 414.942 177.371C415.476 177.371 415.915 177.19 416.259 176.828C416.603 176.456 416.775 175.977 416.775 175.389V175.266L414.902 175.579C414.567 175.624 414.309 175.728 414.128 175.891C413.956 176.045 413.87 176.248 413.87 176.502ZM422.301 178.524C421.668 178.524 421.206 178.375 420.917 178.076C420.636 177.778 420.496 177.348 420.496 176.787V172.904H419.491V171.71H420.496V170.257L421.88 169.823V171.71H423.441V172.904H421.88V176.583C421.88 177.054 422.098 177.289 422.532 177.289C422.749 177.289 423.034 177.221 423.387 177.085L423.686 178.212C423.26 178.42 422.799 178.524 422.301 178.524ZM424.94 171.71H426.311V178.457H424.94V171.71ZM424.682 169.646C424.682 169.393 424.772 169.176 424.953 168.995C425.143 168.814 425.37 168.723 425.632 168.723C425.886 168.723 426.103 168.814 426.284 168.995C426.465 169.176 426.555 169.393 426.555 169.646C426.555 169.9 426.465 170.117 426.284 170.298C426.112 170.47 425.895 170.556 425.632 170.556C425.37 170.556 425.143 170.47 424.953 170.298C424.772 170.126 424.682 169.909 424.682 169.646ZM431.165 178.565C430.495 178.565 429.898 178.416 429.373 178.117C428.848 177.819 428.44 177.407 428.151 176.882C427.861 176.348 427.716 175.746 427.716 175.076C427.716 174.407 427.861 173.809 428.151 173.284C428.45 172.76 428.861 172.348 429.386 172.049C429.911 171.75 430.504 171.601 431.165 171.601C431.825 171.601 432.418 171.75 432.943 172.049C433.468 172.348 433.88 172.76 434.178 173.284C434.477 173.809 434.626 174.407 434.626 175.076C434.626 175.746 434.481 176.348 434.192 176.882C433.902 177.407 433.495 177.819 432.97 178.117C432.445 178.416 431.843 178.565 431.165 178.565ZM429.088 175.076C429.088 175.737 429.282 176.28 429.671 176.705C430.06 177.122 430.558 177.33 431.165 177.33C431.771 177.33 432.269 177.122 432.658 176.705C433.047 176.28 433.242 175.737 433.242 175.076C433.242 174.651 433.151 174.266 432.97 173.922C432.798 173.579 432.554 173.312 432.237 173.122C431.92 172.931 431.563 172.836 431.165 172.836C430.766 172.836 430.409 172.931 430.092 173.122C429.775 173.312 429.526 173.579 429.345 173.922C429.174 174.266 429.088 174.651 429.088 175.076ZM436.049 171.71H437.393V172.755C437.981 171.986 438.742 171.601 439.674 171.601C440.416 171.601 441.004 171.836 441.438 172.307C441.882 172.769 442.104 173.393 442.104 174.18V178.457H440.733V174.588C440.733 174.027 440.588 173.601 440.298 173.312C440.018 173.013 439.647 172.864 439.185 172.864C438.651 172.864 438.221 173.054 437.895 173.434C437.579 173.805 437.42 174.294 437.42 174.9V178.457H436.049V171.71ZM447.013 171.71H448.357V172.836C448.556 172.447 448.814 172.144 449.13 171.927C449.456 171.71 449.832 171.601 450.257 171.601C450.61 171.601 450.909 171.669 451.153 171.805L450.732 173.149C450.506 173.04 450.239 172.986 449.931 172.986C449.452 172.986 449.072 173.144 448.791 173.461C448.519 173.769 448.384 174.244 448.384 174.886V178.457H447.013V171.71ZM454.801 178.565C454.122 178.565 453.525 178.42 453.009 178.131C452.493 177.841 452.095 177.438 451.814 176.923C451.534 176.407 451.393 175.818 451.393 175.158C451.393 174.479 451.534 173.873 451.814 173.339C452.104 172.796 452.502 172.37 453.009 172.063C453.525 171.755 454.108 171.601 454.76 171.601C455.384 171.601 455.932 171.746 456.403 172.036C456.882 172.316 457.253 172.714 457.516 173.23C457.787 173.737 457.923 174.316 457.923 174.968C457.923 175.131 457.914 175.284 457.896 175.429H452.764C452.828 176.008 453.045 176.475 453.416 176.828C453.796 177.171 454.267 177.343 454.828 177.343C455.28 177.343 455.674 177.226 456.009 176.99C456.353 176.755 456.588 176.447 456.715 176.067L457.909 176.502C457.728 177.108 457.357 177.606 456.796 177.995C456.235 178.375 455.57 178.565 454.801 178.565ZM456.538 174.452C456.529 173.963 456.353 173.57 456.009 173.271C455.665 172.972 455.231 172.823 454.706 172.823C454.208 172.823 453.787 172.968 453.443 173.257C453.108 173.538 452.891 173.936 452.792 174.452H456.538ZM458.464 171.71H459.889L461.79 176.665L463.704 171.71H465.089L462.496 178.457H461.043L458.464 171.71ZM466.142 171.71H467.514V178.457H466.142V171.71ZM465.884 169.646C465.884 169.393 465.975 169.176 466.156 168.995C466.346 168.814 466.572 168.723 466.835 168.723C467.088 168.723 467.305 168.814 467.486 168.995C467.667 169.176 467.758 169.393 467.758 169.646C467.758 169.9 467.667 170.117 467.486 170.298C467.314 170.47 467.097 170.556 466.835 170.556C466.572 170.556 466.346 170.47 466.156 170.298C465.975 170.126 465.884 169.909 465.884 169.646ZM472.326 178.565C471.648 178.565 471.05 178.42 470.534 178.131C470.019 177.841 469.62 177.438 469.34 176.923C469.059 176.407 468.919 175.818 468.919 175.158C468.919 174.479 469.059 173.873 469.34 173.339C469.629 172.796 470.028 172.37 470.534 172.063C471.05 171.755 471.634 171.601 472.286 171.601C472.91 171.601 473.458 171.746 473.928 172.036C474.408 172.316 474.779 172.714 475.041 173.23C475.313 173.737 475.449 174.316 475.449 174.968C475.449 175.131 475.44 175.284 475.422 175.429H470.29C470.353 176.008 470.571 176.475 470.942 176.828C471.322 177.171 471.792 177.343 472.354 177.343C472.806 177.343 473.2 177.226 473.535 176.99C473.879 176.755 474.114 176.447 474.241 176.067L475.435 176.502C475.254 177.108 474.883 177.606 474.322 177.995C473.761 178.375 473.096 178.565 472.326 178.565ZM474.064 174.452C474.055 173.963 473.879 173.57 473.535 173.271C473.191 172.972 472.756 172.823 472.231 172.823C471.734 172.823 471.313 172.968 470.969 173.257C470.634 173.538 470.417 173.936 470.317 174.452H474.064ZM475.99 171.71H477.374L478.84 176.515L480.456 171.71H481.42L483.035 176.529L484.515 171.71H485.818L483.727 178.457H482.343L480.904 174.194L479.451 178.457H478.067L475.99 171.71ZM492.585 173.746L492.544 173.773C491.621 174.198 491.159 174.823 491.159 175.646C491.159 176.189 491.331 176.615 491.675 176.923C492.019 177.221 492.499 177.371 493.114 177.371C493.503 177.371 493.879 177.312 494.241 177.194C494.612 177.067 494.947 176.891 495.246 176.665L492.911 174.126L492.585 173.746ZM489.788 175.85C489.788 175.262 489.951 174.723 490.277 174.235C490.612 173.746 491.128 173.348 491.825 173.04L492.042 172.945C491.707 172.339 491.54 171.737 491.54 171.14C491.54 170.651 491.648 170.225 491.865 169.863C492.083 169.492 492.377 169.212 492.748 169.022C493.119 168.823 493.54 168.723 494.01 168.723C494.698 168.723 495.255 168.909 495.68 169.28C496.114 169.651 496.332 170.14 496.332 170.746C496.332 171.714 495.671 172.515 494.35 173.149L493.956 173.339L494.105 173.502L496.182 175.769C496.653 175.099 496.888 174.343 496.888 173.502C496.888 173.185 496.856 172.886 496.793 172.606L498.042 172.714C498.069 172.913 498.083 173.122 498.083 173.339C498.083 173.918 497.979 174.488 497.771 175.049C497.571 175.601 497.286 176.108 496.915 176.57L498.639 178.443V178.457H496.888L495.979 177.466C495.535 177.819 495.051 178.09 494.526 178.28C494.001 178.47 493.454 178.565 492.883 178.565C492.268 178.565 491.725 178.452 491.254 178.226C490.784 178 490.422 177.683 490.168 177.276C489.915 176.859 489.788 176.384 489.788 175.85ZM492.883 171.112C492.883 171.574 493.037 172.049 493.345 172.538L493.589 172.429C494.069 172.203 494.436 171.959 494.689 171.696C494.942 171.434 495.069 171.144 495.069 170.827C495.069 170.538 494.97 170.298 494.77 170.108C494.58 169.909 494.331 169.809 494.024 169.809C493.689 169.809 493.413 169.927 493.196 170.162C492.988 170.397 492.883 170.714 492.883 171.112ZM405.001 186.71H406.372V193.457H405.001V186.71ZM404.743 184.646C404.743 184.393 404.834 184.176 405.015 183.995C405.205 183.814 405.431 183.723 405.694 183.723C405.947 183.723 406.164 183.814 406.345 183.995C406.526 184.176 406.617 184.393 406.617 184.646C406.617 184.9 406.526 185.117 406.345 185.298C406.173 185.47 405.956 185.556 405.694 185.556C405.431 185.556 405.205 185.47 405.015 185.298C404.834 185.126 404.743 184.909 404.743 184.646ZM408.09 186.71H409.434V187.755C410.022 186.986 410.783 186.601 411.715 186.601C412.457 186.601 413.045 186.836 413.48 187.307C413.923 187.769 414.145 188.393 414.145 189.18V193.457H412.774V189.588C412.774 189.027 412.629 188.601 412.339 188.312C412.059 188.013 411.688 187.864 411.226 187.864C410.692 187.864 410.262 188.054 409.936 188.434C409.62 188.805 409.461 189.294 409.461 189.9V193.457H408.09V186.71ZM418.059 193.524C417.425 193.524 416.964 193.375 416.674 193.076C416.394 192.778 416.253 192.348 416.253 191.787V187.904H415.249V186.71H416.253V185.257L417.638 184.823V186.71H419.199V187.904H417.638V191.583C417.638 192.054 417.855 192.289 418.29 192.289C418.507 192.289 418.792 192.221 419.145 192.085L419.444 193.212C419.018 193.42 418.557 193.524 418.059 193.524ZM423.673 193.565C422.995 193.565 422.397 193.42 421.882 193.131C421.366 192.841 420.967 192.438 420.687 191.923C420.406 191.407 420.266 190.818 420.266 190.158C420.266 189.479 420.406 188.873 420.687 188.339C420.976 187.796 421.375 187.37 421.882 187.063C422.397 186.755 422.981 186.601 423.633 186.601C424.257 186.601 424.805 186.746 425.275 187.036C425.755 187.316 426.126 187.714 426.388 188.23C426.66 188.737 426.796 189.316 426.796 189.968C426.796 190.131 426.787 190.284 426.769 190.429H421.637C421.701 191.008 421.918 191.475 422.289 191.828C422.669 192.171 423.139 192.343 423.701 192.343C424.153 192.343 424.547 192.226 424.882 191.99C425.226 191.755 425.461 191.447 425.588 191.067L426.782 191.502C426.601 192.108 426.23 192.606 425.669 192.995C425.108 193.375 424.443 193.565 423.673 193.565ZM425.411 189.452C425.402 188.963 425.226 188.57 424.882 188.271C424.538 187.972 424.103 187.823 423.578 187.823C423.081 187.823 422.66 187.968 422.316 188.257C421.981 188.538 421.764 188.936 421.664 189.452H425.411ZM428.201 186.71H429.545V187.836C429.744 187.447 430.002 187.144 430.319 186.927C430.645 186.71 431.02 186.601 431.445 186.601C431.798 186.601 432.097 186.669 432.341 186.805L431.921 188.149C431.694 188.04 431.427 187.986 431.12 187.986C430.64 187.986 430.26 188.144 429.979 188.461C429.708 188.769 429.572 189.244 429.572 189.886V193.457H428.201V186.71ZM432.692 186.71H434.118L436.018 191.665L437.932 186.71H439.317L436.724 193.457H435.272L432.692 186.71ZM440.371 186.71H441.742V193.457H440.371V186.71ZM440.113 184.646C440.113 184.393 440.203 184.176 440.384 183.995C440.575 183.814 440.801 183.723 441.063 183.723C441.317 183.723 441.534 183.814 441.715 183.995C441.896 184.176 441.986 184.393 441.986 184.646C441.986 184.9 441.896 185.117 441.715 185.298C441.543 185.47 441.326 185.556 441.063 185.556C440.801 185.556 440.575 185.47 440.384 185.298C440.203 185.126 440.113 184.909 440.113 184.646ZM446.555 193.565C445.876 193.565 445.279 193.42 444.763 193.131C444.247 192.841 443.849 192.438 443.568 191.923C443.288 191.407 443.148 190.818 443.148 190.158C443.148 189.479 443.288 188.873 443.568 188.339C443.858 187.796 444.256 187.37 444.763 187.063C445.279 186.755 445.863 186.601 446.514 186.601C447.139 186.601 447.686 186.746 448.157 187.036C448.636 187.316 449.007 187.714 449.27 188.23C449.541 188.737 449.677 189.316 449.677 189.968C449.677 190.131 449.668 190.284 449.65 190.429H444.519C444.582 191.008 444.799 191.475 445.17 191.828C445.55 192.171 446.021 192.343 446.582 192.343C447.035 192.343 447.428 192.226 447.763 191.99C448.107 191.755 448.342 191.447 448.469 191.067L449.664 191.502C449.483 192.108 449.112 192.606 448.55 192.995C447.989 193.375 447.324 193.565 446.555 193.565ZM448.293 189.452C448.283 188.963 448.107 188.57 447.763 188.271C447.419 187.972 446.985 187.823 446.46 187.823C445.962 187.823 445.541 187.968 445.197 188.257C444.863 188.538 444.645 188.936 444.546 189.452H448.293ZM450.218 186.71H451.603L453.069 191.515L454.684 186.71H455.648L457.264 191.529L458.743 186.71H460.047L457.956 193.457H456.571L455.132 189.194L453.68 193.457H452.295L450.218 186.71ZM463.348 193.565C462.588 193.565 461.964 193.393 461.475 193.049C460.995 192.696 460.715 192.194 460.633 191.542L461.882 191.176C461.936 191.574 462.099 191.877 462.371 192.085C462.642 192.294 462.991 192.398 463.416 192.398C463.787 192.398 464.081 192.325 464.298 192.18C464.516 192.036 464.624 191.828 464.624 191.556C464.624 191.122 464.344 190.855 463.783 190.755L462.507 190.484C461.402 190.248 460.85 189.66 460.85 188.719C460.85 188.067 461.095 187.551 461.583 187.171C462.072 186.791 462.701 186.601 463.47 186.601C464.212 186.601 464.828 186.787 465.317 187.158C465.805 187.529 466.095 188.04 466.185 188.692L465.018 189.045C464.955 188.628 464.792 188.312 464.529 188.094C464.267 187.877 463.905 187.769 463.443 187.769C463.054 187.769 462.751 187.845 462.534 187.999C462.316 188.144 462.208 188.348 462.208 188.61C462.208 189.017 462.479 189.271 463.022 189.37L464.19 189.615C464.76 189.723 465.199 189.936 465.507 190.253C465.823 190.57 465.982 190.981 465.982 191.488C465.982 192.131 465.742 192.638 465.262 193.009C464.783 193.38 464.145 193.565 463.348 193.565Z" fill="black"/> <path d="M552 150.457L552 209.687L552 210.457L570.854 180.457L552 150.457Z" fill="#E0DAC4"/> <rect width="148" height="80" transform="translate(630.854 140)" fill="#F6F5EE"/> <path d="M660.651 173.738H665.637C667.137 173.738 668.277 174.08 669.057 174.764C669.849 175.448 670.245 176.408 670.245 177.644C670.245 178.88 669.867 179.834 669.111 180.506C668.355 181.178 667.197 181.514 665.637 181.514H662.487V186.5H660.651V173.738ZM665.691 179.822C666.579 179.822 667.245 179.642 667.689 179.282C668.133 178.922 668.355 178.376 668.355 177.644C668.355 176.168 667.467 175.43 665.691 175.43H662.487V179.822H665.691ZM672.014 177.554H673.796V179.048C674.06 178.532 674.402 178.13 674.822 177.842C675.254 177.554 675.752 177.41 676.316 177.41C676.784 177.41 677.18 177.5 677.504 177.68L676.946 179.462C676.646 179.318 676.292 179.246 675.884 179.246C675.248 179.246 674.744 179.456 674.372 179.876C674.012 180.284 673.832 180.914 673.832 181.766V186.5H672.014V177.554ZM682.341 186.644C681.441 186.644 680.649 186.452 679.965 186.068C679.281 185.684 678.753 185.15 678.381 184.466C678.009 183.782 677.823 183.002 677.823 182.126C677.823 181.226 678.009 180.422 678.381 179.714C678.765 178.994 679.293 178.43 679.965 178.022C680.649 177.614 681.423 177.41 682.287 177.41C683.115 177.41 683.841 177.602 684.465 177.986C685.101 178.358 685.593 178.886 685.941 179.57C686.301 180.242 686.481 181.01 686.481 181.874C686.481 182.09 686.469 182.294 686.445 182.486H679.641C679.725 183.254 680.013 183.872 680.505 184.34C681.009 184.796 681.633 185.024 682.377 185.024C682.977 185.024 683.499 184.868 683.943 184.556C684.399 184.244 684.711 183.836 684.879 183.332L686.463 183.908C686.223 184.712 685.731 185.372 684.987 185.888C684.243 186.392 683.361 186.644 682.341 186.644ZM684.645 181.19C684.633 180.542 684.399 180.02 683.943 179.624C683.487 179.228 682.911 179.03 682.215 179.03C681.555 179.03 680.997 179.222 680.541 179.606C680.097 179.978 679.809 180.506 679.677 181.19H684.645ZM688.344 177.554H690.126V178.922C690.522 178.442 690.978 178.07 691.494 177.806C692.01 177.542 692.568 177.41 693.168 177.41C693.936 177.41 694.638 177.608 695.274 178.004C695.91 178.4 696.408 178.952 696.768 179.66C697.14 180.356 697.326 181.148 697.326 182.036C697.326 182.924 697.14 183.722 696.768 184.43C696.408 185.126 695.904 185.672 695.256 186.068C694.62 186.452 693.912 186.644 693.132 186.644C692.544 186.644 691.992 186.524 691.476 186.284C690.972 186.032 690.534 185.702 690.162 185.294V190.424H688.344V177.554ZM690.162 182.072C690.162 182.96 690.402 183.674 690.882 184.214C691.374 184.754 692.004 185.024 692.772 185.024C693.276 185.024 693.732 184.904 694.14 184.664C694.56 184.424 694.89 184.082 695.13 183.638C695.37 183.182 695.49 182.654 695.49 182.054C695.49 181.466 695.37 180.944 695.13 180.488C694.902 180.02 694.584 179.66 694.176 179.408C693.768 179.144 693.318 179.012 692.826 179.012C692.322 179.012 691.866 179.144 691.458 179.408C691.062 179.66 690.744 180.02 690.504 180.488C690.276 180.944 690.162 181.472 690.162 182.072ZM703.479 177.554H705.261V178.922C705.657 178.442 706.113 178.07 706.629 177.806C707.145 177.542 707.703 177.41 708.303 177.41C709.071 177.41 709.773 177.608 710.409 178.004C711.045 178.4 711.543 178.952 711.903 179.66C712.275 180.356 712.461 181.148 712.461 182.036C712.461 182.924 712.275 183.722 711.903 184.43C711.543 185.126 711.039 185.672 710.391 186.068C709.755 186.452 709.047 186.644 708.267 186.644C707.679 186.644 707.127 186.524 706.611 186.284C706.107 186.032 705.669 185.702 705.297 185.294V190.424H703.479V177.554ZM705.297 182.072C705.297 182.96 705.537 183.674 706.017 184.214C706.509 184.754 707.139 185.024 707.907 185.024C708.411 185.024 708.867 184.904 709.275 184.664C709.695 184.424 710.025 184.082 710.265 183.638C710.505 183.182 710.625 182.654 710.625 182.054C710.625 181.466 710.505 180.944 710.265 180.488C710.037 180.02 709.719 179.66 709.311 179.408C708.903 179.144 708.453 179.012 707.961 179.012C707.457 179.012 707.001 179.144 706.593 179.408C706.197 179.66 705.879 180.02 705.639 180.488C705.411 180.944 705.297 181.472 705.297 182.072ZM718.429 186.644C717.529 186.644 716.737 186.452 716.053 186.068C715.369 185.684 714.841 185.15 714.469 184.466C714.097 183.782 713.911 183.002 713.911 182.126C713.911 181.226 714.097 180.422 714.469 179.714C714.853 178.994 715.381 178.43 716.053 178.022C716.737 177.614 717.511 177.41 718.375 177.41C719.203 177.41 719.929 177.602 720.553 177.986C721.189 178.358 721.681 178.886 722.029 179.57C722.389 180.242 722.569 181.01 722.569 181.874C722.569 182.09 722.557 182.294 722.533 182.486H715.729C715.813 183.254 716.101 183.872 716.593 184.34C717.097 184.796 717.721 185.024 718.465 185.024C719.065 185.024 719.587 184.868 720.031 184.556C720.487 184.244 720.799 183.836 720.967 183.332L722.551 183.908C722.311 184.712 721.819 185.372 721.075 185.888C720.331 186.392 719.449 186.644 718.429 186.644ZM720.733 181.19C720.721 180.542 720.487 180.02 720.031 179.624C719.575 179.228 718.999 179.03 718.303 179.03C717.643 179.03 717.085 179.222 716.629 179.606C716.185 179.978 715.897 180.506 715.765 181.19H720.733ZM724.432 177.554H726.214V179.048C726.478 178.532 726.82 178.13 727.24 177.842C727.672 177.554 728.17 177.41 728.734 177.41C729.202 177.41 729.598 177.5 729.922 177.68L729.364 179.462C729.064 179.318 728.71 179.246 728.302 179.246C727.666 179.246 727.162 179.456 726.79 179.876C726.43 180.284 726.25 180.914 726.25 181.766V186.5H724.432V177.554ZM731.217 177.554H733.035V186.5H731.217V177.554ZM730.875 174.818C730.875 174.482 730.995 174.194 731.235 173.954C731.487 173.714 731.787 173.594 732.135 173.594C732.471 173.594 732.759 173.714 732.999 173.954C733.239 174.194 733.359 174.482 733.359 174.818C733.359 175.154 733.239 175.442 732.999 175.682C732.771 175.91 732.483 176.024 732.135 176.024C731.787 176.024 731.487 175.91 731.235 175.682C730.995 175.454 730.875 175.166 730.875 174.818ZM739.471 186.644C738.583 186.644 737.791 186.446 737.095 186.05C736.399 185.654 735.859 185.108 735.475 184.412C735.091 183.704 734.899 182.906 734.899 182.018C734.899 181.13 735.091 180.338 735.475 179.642C735.871 178.946 736.417 178.4 737.113 178.004C737.809 177.608 738.595 177.41 739.471 177.41C740.347 177.41 741.133 177.608 741.829 178.004C742.525 178.4 743.071 178.946 743.467 179.642C743.863 180.338 744.061 181.13 744.061 182.018C744.061 182.906 743.869 183.704 743.485 184.412C743.101 185.108 742.561 185.654 741.865 186.05C741.169 186.446 740.371 186.644 739.471 186.644ZM736.717 182.018C736.717 182.894 736.975 183.614 737.491 184.178C738.007 184.73 738.667 185.006 739.471 185.006C740.275 185.006 740.935 184.73 741.451 184.178C741.967 183.614 742.225 182.894 742.225 182.018C742.225 181.454 742.105 180.944 741.865 180.488C741.637 180.032 741.313 179.678 740.893 179.426C740.473 179.174 739.999 179.048 739.471 179.048C738.943 179.048 738.469 179.174 738.049 179.426C737.629 179.678 737.299 180.032 737.059 180.488C736.831 180.944 736.717 181.454 736.717 182.018ZM749.692 186.644C748.924 186.644 748.222 186.458 747.586 186.086C746.962 185.702 746.464 185.162 746.092 184.466C745.72 183.77 745.534 182.966 745.534 182.054C745.534 181.142 745.72 180.338 746.092 179.642C746.464 178.934 746.968 178.388 747.604 178.004C748.252 177.608 748.972 177.41 749.764 177.41C750.364 177.41 750.91 177.53 751.402 177.77C751.894 177.998 752.32 178.31 752.68 178.706V173.738H754.516V186.5H752.734V185.096C751.894 186.128 750.88 186.644 749.692 186.644ZM747.352 182.054C747.352 182.642 747.466 183.164 747.694 183.62C747.934 184.064 748.252 184.412 748.648 184.664C749.056 184.904 749.506 185.024 749.998 185.024C750.502 185.024 750.958 184.892 751.366 184.628C751.786 184.364 752.11 184.004 752.338 183.548C752.578 183.08 752.698 182.564 752.698 182C752.698 181.436 752.584 180.926 752.356 180.47C752.128 180.014 751.81 179.66 751.402 179.408C750.994 179.144 750.538 179.012 750.034 179.012C749.542 179.012 749.092 179.138 748.684 179.39C748.276 179.642 747.952 180.002 747.712 180.47C747.472 180.926 747.352 181.454 747.352 182.054Z" fill="black"/> <path d="M778.854 140L778.854 218.974L778.854 220L803.854 180L778.854 140Z" fill="#F6F5EE"/> <rect width="344" height="80" transform="translate(803.854 140)" fill="#B92D24"/> <path d="M858.466 186.644C857.626 186.644 856.888 186.506 856.252 186.23C855.628 185.942 855.148 185.54 854.812 185.024C854.476 184.496 854.308 183.89 854.308 183.206C854.308 182.534 854.488 181.934 854.848 181.406C855.208 180.878 855.712 180.476 856.36 180.2C855.784 179.924 855.34 179.546 855.028 179.066C854.716 178.586 854.56 178.046 854.56 177.446C854.56 176.822 854.722 176.264 855.046 175.772C855.382 175.28 855.844 174.896 856.432 174.62C857.02 174.344 857.698 174.206 858.466 174.206C859.222 174.206 859.894 174.344 860.482 174.62C861.07 174.896 861.526 175.28 861.85 175.772C862.186 176.264 862.354 176.822 862.354 177.446C862.354 178.058 862.198 178.604 861.886 179.084C861.574 179.552 861.13 179.924 860.554 180.2C861.202 180.488 861.706 180.896 862.066 181.424C862.426 181.94 862.606 182.534 862.606 183.206C862.606 183.89 862.438 184.496 862.102 185.024C861.766 185.54 861.286 185.942 860.662 186.23C860.038 186.506 859.306 186.644 858.466 186.644ZM856.18 182.99C856.18 183.566 856.396 184.04 856.828 184.412C857.26 184.772 857.806 184.952 858.466 184.952C859.126 184.952 859.666 184.772 860.086 184.412C860.518 184.04 860.734 183.566 860.734 182.99C860.734 182.414 860.524 181.94 860.104 181.568C859.684 181.196 859.138 181.01 858.466 181.01C857.794 181.01 857.242 181.196 856.81 181.568C856.39 181.94 856.18 182.414 856.18 182.99ZM856.432 177.644C856.432 178.16 856.618 178.58 856.99 178.904C857.374 179.228 857.866 179.39 858.466 179.39C859.054 179.39 859.534 179.228 859.906 178.904C860.29 178.58 860.482 178.16 860.482 177.644C860.482 177.128 860.296 176.708 859.924 176.384C859.552 176.06 859.066 175.898 858.466 175.898C857.866 175.898 857.374 176.06 856.99 176.384C856.618 176.708 856.432 177.128 856.432 177.644ZM864.292 180.812H869.278V182.306H864.292V180.812ZM870.185 177.554H872.021L873.965 183.926L876.107 177.554H877.385L879.527 183.944L881.489 177.554H883.217L880.445 186.5H878.609L876.701 180.848L874.775 186.5H872.939L870.185 177.554ZM888.443 186.644C887.543 186.644 886.751 186.452 886.067 186.068C885.383 185.684 884.855 185.15 884.483 184.466C884.111 183.782 883.925 183.002 883.925 182.126C883.925 181.226 884.111 180.422 884.483 179.714C884.867 178.994 885.395 178.43 886.067 178.022C886.751 177.614 887.525 177.41 888.389 177.41C889.217 177.41 889.943 177.602 890.567 177.986C891.203 178.358 891.695 178.886 892.043 179.57C892.403 180.242 892.583 181.01 892.583 181.874C892.583 182.09 892.571 182.294 892.547 182.486H885.743C885.827 183.254 886.115 183.872 886.607 184.34C887.111 184.796 887.735 185.024 888.479 185.024C889.079 185.024 889.601 184.868 890.045 184.556C890.501 184.244 890.813 183.836 890.981 183.332L892.565 183.908C892.325 184.712 891.833 185.372 891.089 185.888C890.345 186.392 889.463 186.644 888.443 186.644ZM890.747 181.19C890.735 180.542 890.501 180.02 890.045 179.624C889.589 179.228 889.013 179.03 888.317 179.03C887.657 179.03 887.099 179.222 886.643 179.606C886.199 179.978 885.911 180.506 885.779 181.19H890.747ZM898.55 186.644C897.65 186.644 896.858 186.452 896.174 186.068C895.49 185.684 894.962 185.15 894.59 184.466C894.218 183.782 894.032 183.002 894.032 182.126C894.032 181.226 894.218 180.422 894.59 179.714C894.974 178.994 895.502 178.43 896.174 178.022C896.858 177.614 897.632 177.41 898.496 177.41C899.324 177.41 900.05 177.602 900.674 177.986C901.31 178.358 901.802 178.886 902.15 179.57C902.51 180.242 902.69 181.01 902.69 181.874C902.69 182.09 902.678 182.294 902.654 182.486H895.85C895.934 183.254 896.222 183.872 896.714 184.34C897.218 184.796 897.842 185.024 898.586 185.024C899.186 185.024 899.708 184.868 900.152 184.556C900.608 184.244 900.92 183.836 901.088 183.332L902.672 183.908C902.432 184.712 901.94 185.372 901.196 185.888C900.452 186.392 899.57 186.644 898.55 186.644ZM900.854 181.19C900.842 180.542 900.608 180.02 900.152 179.624C899.696 179.228 899.12 179.03 898.424 179.03C897.764 179.03 897.206 179.222 896.75 179.606C896.306 179.978 896.018 180.506 895.886 181.19H900.854ZM904.553 173.738H906.371V181.136L910.331 177.554H912.797L909.413 180.614L912.617 186.5H910.547L907.973 181.802L906.371 183.26V186.5H904.553V173.738ZM923.229 186.644C922.029 186.644 921.015 186.134 920.187 185.114V186.5H918.405V173.738H920.223V178.76C920.595 178.34 921.027 178.01 921.519 177.77C922.011 177.53 922.557 177.41 923.157 177.41C923.937 177.41 924.651 177.608 925.299 178.004C925.947 178.388 926.457 178.934 926.829 179.642C927.201 180.338 927.387 181.142 927.387 182.054C927.387 182.954 927.201 183.758 926.829 184.466C926.457 185.162 925.953 185.702 925.317 186.086C924.681 186.458 923.985 186.644 923.229 186.644ZM920.223 182C920.223 182.564 920.337 183.08 920.565 183.548C920.805 184.004 921.129 184.364 921.537 184.628C921.945 184.892 922.401 185.024 922.905 185.024C923.397 185.024 923.841 184.904 924.237 184.664C924.645 184.412 924.963 184.064 925.191 183.62C925.431 183.164 925.551 182.642 925.551 182.054C925.551 181.454 925.431 180.926 925.191 180.47C924.951 180.002 924.627 179.642 924.219 179.39C923.811 179.138 923.361 179.012 922.869 179.012C922.365 179.012 921.909 179.144 921.501 179.408C921.105 179.66 920.793 180.014 920.565 180.47C920.337 180.926 920.223 181.436 920.223 182ZM929.377 173.738H931.213V186.5H929.377V173.738ZM937.803 186.644C936.915 186.644 936.123 186.446 935.427 186.05C934.731 185.654 934.191 185.108 933.807 184.412C933.423 183.704 933.231 182.906 933.231 182.018C933.231 181.13 933.423 180.338 933.807 179.642C934.203 178.946 934.749 178.4 935.445 178.004C936.141 177.608 936.927 177.41 937.803 177.41C938.679 177.41 939.465 177.608 940.161 178.004C940.857 178.4 941.403 178.946 941.799 179.642C942.195 180.338 942.393 181.13 942.393 182.018C942.393 182.906 942.201 183.704 941.817 184.412C941.433 185.108 940.893 185.654 940.197 186.05C939.501 186.446 938.703 186.644 937.803 186.644ZM935.049 182.018C935.049 182.894 935.307 183.614 935.823 184.178C936.339 184.73 936.999 185.006 937.803 185.006C938.607 185.006 939.267 184.73 939.783 184.178C940.299 183.614 940.557 182.894 940.557 182.018C940.557 181.454 940.437 180.944 940.197 180.488C939.969 180.032 939.645 179.678 939.225 179.426C938.805 179.174 938.331 179.048 937.803 179.048C937.275 179.048 936.801 179.174 936.381 179.426C935.961 179.678 935.631 180.032 935.391 180.488C935.163 180.944 935.049 181.454 935.049 182.018ZM948.078 190.568C946.746 190.568 945.66 190.232 944.82 189.56C943.992 188.888 943.524 187.916 943.416 186.644L945.054 186.176C945.102 187.064 945.39 187.748 945.918 188.228C946.458 188.708 947.178 188.948 948.078 188.948C948.99 188.948 949.716 188.696 950.256 188.192C950.796 187.7 951.066 187.022 951.066 186.158V185.006C950.262 186.026 949.248 186.536 948.024 186.536C947.256 186.536 946.554 186.35 945.918 185.978C945.294 185.606 944.796 185.078 944.424 184.394C944.052 183.71 943.866 182.918 943.866 182.018C943.866 181.118 944.052 180.32 944.424 179.624C944.796 178.928 945.3 178.388 945.936 178.004C946.584 177.608 947.304 177.41 948.096 177.41C948.684 177.41 949.23 177.53 949.734 177.77C950.238 178.01 950.67 178.34 951.03 178.76V177.554H952.848V186.158C952.848 187.55 952.422 188.63 951.57 189.398C950.718 190.178 949.554 190.568 948.078 190.568ZM945.684 182C945.684 182.588 945.798 183.104 946.026 183.548C946.266 183.992 946.584 184.34 946.98 184.592C947.388 184.832 947.838 184.952 948.33 184.952C948.834 184.952 949.29 184.826 949.698 184.574C950.118 184.31 950.442 183.95 950.67 183.494C950.91 183.026 951.03 182.51 951.03 181.946C951.03 181.394 950.916 180.896 950.688 180.452C950.46 179.996 950.142 179.642 949.734 179.39C949.326 179.138 948.876 179.012 948.384 179.012C947.892 179.012 947.436 179.138 947.016 179.39C946.608 179.63 946.284 179.978 946.044 180.434C945.804 180.89 945.684 181.412 945.684 182ZM954.802 180.812H959.788V182.306H954.802V180.812ZM966.594 186.644C965.394 186.644 964.38 186.134 963.552 185.114V186.5H961.77V173.738H963.588V178.76C963.96 178.34 964.392 178.01 964.884 177.77C965.376 177.53 965.922 177.41 966.522 177.41C967.302 177.41 968.016 177.608 968.664 178.004C969.312 178.388 969.822 178.934 970.194 179.642C970.566 180.338 970.752 181.142 970.752 182.054C970.752 182.954 970.566 183.758 970.194 184.466C969.822 185.162 969.318 185.702 968.682 186.086C968.046 186.458 967.35 186.644 966.594 186.644ZM963.588 182C963.588 182.564 963.702 183.08 963.93 183.548C964.17 184.004 964.494 184.364 964.902 184.628C965.31 184.892 965.766 185.024 966.27 185.024C966.762 185.024 967.206 184.904 967.602 184.664C968.01 184.412 968.328 184.064 968.556 183.62C968.796 183.164 968.916 182.642 968.916 182.054C968.916 181.454 968.796 180.926 968.556 180.47C968.316 180.002 967.992 179.642 967.584 179.39C967.176 179.138 966.726 179.012 966.234 179.012C965.73 179.012 965.274 179.144 964.866 179.408C964.47 179.66 964.158 180.014 963.93 180.47C963.702 180.926 963.588 181.436 963.588 182ZM975.64 186.644C974.692 186.644 973.936 186.338 973.372 185.726C972.808 185.102 972.526 184.256 972.526 183.188V177.554H974.344V182.684C974.344 183.44 974.506 184.01 974.83 184.394C975.166 184.778 975.64 184.97 976.252 184.97C976.96 184.97 977.524 184.718 977.944 184.214C978.376 183.698 978.592 183.002 978.592 182.126V177.554H980.41V186.5H978.628V185.06C977.86 186.116 976.864 186.644 975.64 186.644ZM982.706 177.554H984.524V186.5H982.706V177.554ZM982.364 174.818C982.364 174.482 982.484 174.194 982.724 173.954C982.976 173.714 983.276 173.594 983.624 173.594C983.96 173.594 984.248 173.714 984.488 173.954C984.728 174.194 984.848 174.482 984.848 174.818C984.848 175.154 984.728 175.442 984.488 175.682C984.26 175.91 983.972 176.024 983.624 176.024C983.276 176.024 982.976 175.91 982.724 175.682C982.484 175.454 982.364 175.166 982.364 174.818ZM986.927 173.738H988.763V186.5H986.927V173.738ZM994.94 186.644C994.172 186.644 993.47 186.458 992.834 186.086C992.21 185.702 991.712 185.162 991.34 184.466C990.968 183.77 990.782 182.966 990.782 182.054C990.782 181.142 990.968 180.338 991.34 179.642C991.712 178.934 992.216 178.388 992.852 178.004C993.5 177.608 994.22 177.41 995.012 177.41C995.612 177.41 996.158 177.53 996.65 177.77C997.142 177.998 997.568 178.31 997.928 178.706V173.738H999.764V186.5H997.982V185.096C997.142 186.128 996.128 186.644 994.94 186.644ZM992.6 182.054C992.6 182.642 992.714 183.164 992.942 183.62C993.182 184.064 993.5 184.412 993.896 184.664C994.304 184.904 994.754 185.024 995.246 185.024C995.75 185.024 996.206 184.892 996.614 184.628C997.034 184.364 997.358 184.004 997.586 183.548C997.826 183.08 997.946 182.564 997.946 182C997.946 181.436 997.832 180.926 997.604 180.47C997.376 180.014 997.058 179.66 996.65 179.408C996.242 179.144 995.786 179.012 995.282 179.012C994.79 179.012 994.34 179.138 993.932 179.39C993.524 179.642 993.2 180.002 992.96 180.47C992.72 180.926 992.6 181.454 992.6 182.054ZM1002.04 177.554H1003.86V186.5H1002.04V177.554ZM1001.7 174.818C1001.7 174.482 1001.82 174.194 1002.06 173.954C1002.31 173.714 1002.61 173.594 1002.96 173.594C1003.3 173.594 1003.58 173.714 1003.82 173.954C1004.06 174.194 1004.18 174.482 1004.18 174.818C1004.18 175.154 1004.06 175.442 1003.82 175.682C1003.6 175.91 1003.31 176.024 1002.96 176.024C1002.61 176.024 1002.31 175.91 1002.06 175.682C1001.82 175.454 1001.7 175.166 1001.7 174.818ZM1006.14 177.554H1007.92V178.94C1008.7 177.92 1009.71 177.41 1010.94 177.41C1011.93 177.41 1012.71 177.722 1013.28 178.346C1013.87 178.958 1014.17 179.786 1014.17 180.83V186.5H1012.35V181.37C1012.35 180.626 1012.16 180.062 1011.77 179.678C1011.4 179.282 1010.91 179.084 1010.3 179.084C1009.59 179.084 1009.02 179.336 1008.59 179.84C1008.17 180.332 1007.96 180.98 1007.96 181.784V186.5H1006.14V177.554ZM1020.18 190.568C1018.85 190.568 1017.77 190.232 1016.93 189.56C1016.1 188.888 1015.63 187.916 1015.52 186.644L1017.16 186.176C1017.21 187.064 1017.5 187.748 1018.02 188.228C1018.56 188.708 1019.28 188.948 1020.18 188.948C1021.1 188.948 1021.82 188.696 1022.36 188.192C1022.9 187.7 1023.17 187.022 1023.17 186.158V185.006C1022.37 186.026 1021.35 186.536 1020.13 186.536C1019.36 186.536 1018.66 186.35 1018.02 185.978C1017.4 185.606 1016.9 185.078 1016.53 184.394C1016.16 183.71 1015.97 182.918 1015.97 182.018C1015.97 181.118 1016.16 180.32 1016.53 179.624C1016.9 178.928 1017.41 178.388 1018.04 178.004C1018.69 177.608 1019.41 177.41 1020.2 177.41C1020.79 177.41 1021.34 177.53 1021.84 177.77C1022.34 178.01 1022.78 178.34 1023.14 178.76V177.554H1024.95V186.158C1024.95 187.55 1024.53 188.63 1023.68 189.398C1022.82 190.178 1021.66 190.568 1020.18 190.568ZM1017.79 182C1017.79 182.588 1017.9 183.104 1018.13 183.548C1018.37 183.992 1018.69 184.34 1019.09 184.592C1019.49 184.832 1019.94 184.952 1020.44 184.952C1020.94 184.952 1021.4 184.826 1021.8 184.574C1022.22 184.31 1022.55 183.95 1022.78 183.494C1023.02 183.026 1023.14 182.51 1023.14 181.946C1023.14 181.394 1023.02 180.896 1022.79 180.452C1022.57 179.996 1022.25 179.642 1021.84 179.39C1021.43 179.138 1020.98 179.012 1020.49 179.012C1020 179.012 1019.54 179.138 1019.12 179.39C1018.71 179.63 1018.39 179.978 1018.15 180.434C1017.91 180.89 1017.79 181.412 1017.79 182ZM1031.52 177.554H1033.34V186.5H1031.52V177.554ZM1031.18 174.818C1031.18 174.482 1031.3 174.194 1031.54 173.954C1031.79 173.714 1032.09 173.594 1032.44 173.594C1032.77 173.594 1033.06 173.714 1033.3 173.954C1033.54 174.194 1033.66 174.482 1033.66 174.818C1033.66 175.154 1033.54 175.442 1033.3 175.682C1033.07 175.91 1032.79 176.024 1032.44 176.024C1032.09 176.024 1031.79 175.91 1031.54 175.682C1031.3 175.454 1031.18 175.166 1031.18 174.818ZM1035.62 177.554H1037.4V178.94C1038.18 177.92 1039.19 177.41 1040.42 177.41C1041.41 177.41 1042.19 177.722 1042.76 178.346C1043.35 178.958 1043.64 179.786 1043.64 180.83V186.5H1041.83V181.37C1041.83 180.626 1041.63 180.062 1041.25 179.678C1040.88 179.282 1040.39 179.084 1039.77 179.084C1039.07 179.084 1038.5 179.336 1038.06 179.84C1037.64 180.332 1037.43 180.98 1037.43 181.784V186.5H1035.62V177.554ZM1048.83 186.59C1047.99 186.59 1047.38 186.392 1047 185.996C1046.63 185.6 1046.44 185.03 1046.44 184.286V179.138H1045.11V177.554H1046.44V175.628L1048.28 175.052V177.554H1050.35V179.138H1048.28V184.016C1048.28 184.64 1048.56 184.952 1049.14 184.952C1049.43 184.952 1049.81 184.862 1050.27 184.682L1050.67 186.176C1050.11 186.452 1049.49 186.59 1048.83 186.59ZM1056.28 186.644C1055.38 186.644 1054.59 186.452 1053.9 186.068C1053.22 185.684 1052.69 185.15 1052.32 184.466C1051.95 183.782 1051.76 183.002 1051.76 182.126C1051.76 181.226 1051.95 180.422 1052.32 179.714C1052.7 178.994 1053.23 178.43 1053.9 178.022C1054.59 177.614 1055.36 177.41 1056.22 177.41C1057.05 177.41 1057.78 177.602 1058.4 177.986C1059.04 178.358 1059.53 178.886 1059.88 179.57C1060.24 180.242 1060.42 181.01 1060.42 181.874C1060.42 182.09 1060.41 182.294 1060.38 182.486H1053.58C1053.66 183.254 1053.95 183.872 1054.44 184.34C1054.95 184.796 1055.57 185.024 1056.31 185.024C1056.91 185.024 1057.44 184.868 1057.88 184.556C1058.34 184.244 1058.65 183.836 1058.82 183.332L1060.4 183.908C1060.16 184.712 1059.67 185.372 1058.92 185.888C1058.18 186.392 1057.3 186.644 1056.28 186.644ZM1058.58 181.19C1058.57 180.542 1058.34 180.02 1057.88 179.624C1057.42 179.228 1056.85 179.03 1056.15 179.03C1055.49 179.03 1054.93 179.222 1054.48 179.606C1054.03 179.978 1053.75 180.506 1053.61 181.19H1058.58ZM1062.28 177.554H1064.06V178.94C1064.84 177.92 1065.85 177.41 1067.09 177.41C1068.07 177.41 1068.85 177.722 1069.43 178.346C1070.02 178.958 1070.31 179.786 1070.31 180.83V186.5H1068.49V181.37C1068.49 180.626 1068.3 180.062 1067.92 179.678C1067.54 179.282 1067.05 179.084 1066.44 179.084C1065.73 179.084 1065.16 179.336 1064.73 179.84C1064.31 180.332 1064.1 180.98 1064.1 181.784V186.5H1062.28V177.554ZM1075.7 186.644C1074.69 186.644 1073.86 186.416 1073.21 185.96C1072.58 185.492 1072.21 184.826 1072.1 183.962L1073.75 183.476C1073.83 184.004 1074.04 184.406 1074.4 184.682C1074.76 184.958 1075.22 185.096 1075.79 185.096C1076.28 185.096 1076.67 185 1076.96 184.808C1077.25 184.616 1077.39 184.34 1077.39 183.98C1077.39 183.404 1077.02 183.05 1076.27 182.918L1074.58 182.558C1073.12 182.246 1072.39 181.466 1072.39 180.218C1072.39 179.354 1072.71 178.67 1073.36 178.166C1074.01 177.662 1074.84 177.41 1075.86 177.41C1076.84 177.41 1077.66 177.656 1078.31 178.148C1078.96 178.64 1079.34 179.318 1079.46 180.182L1077.91 180.65C1077.83 180.098 1077.61 179.678 1077.26 179.39C1076.92 179.102 1076.44 178.958 1075.82 178.958C1075.31 178.958 1074.91 179.06 1074.62 179.264C1074.33 179.456 1074.19 179.726 1074.19 180.074C1074.19 180.614 1074.55 180.95 1075.27 181.082L1076.81 181.406C1077.57 181.55 1078.15 181.832 1078.56 182.252C1078.98 182.672 1079.19 183.218 1079.19 183.89C1079.19 184.742 1078.87 185.414 1078.24 185.906C1077.6 186.398 1076.75 186.644 1075.7 186.644ZM1081.21 177.554H1083.03V186.5H1081.21V177.554ZM1080.87 174.818C1080.87 174.482 1080.99 174.194 1081.23 173.954C1081.48 173.714 1081.78 173.594 1082.13 173.594C1082.47 173.594 1082.76 173.714 1083 173.954C1083.24 174.194 1083.36 174.482 1083.36 174.818C1083.36 175.154 1083.24 175.442 1083 175.682C1082.77 175.91 1082.48 176.024 1082.13 176.024C1081.78 176.024 1081.48 175.91 1081.23 175.682C1080.99 175.454 1080.87 175.166 1080.87 174.818ZM1084.41 177.554H1086.3L1088.82 184.124L1091.36 177.554H1093.19L1089.76 186.5H1087.83L1084.41 177.554ZM1098.41 186.644C1097.51 186.644 1096.72 186.452 1096.04 186.068C1095.35 185.684 1094.83 185.15 1094.45 184.466C1094.08 183.782 1093.9 183.002 1093.9 182.126C1093.9 181.226 1094.08 180.422 1094.45 179.714C1094.84 178.994 1095.37 178.43 1096.04 178.022C1096.72 177.614 1097.5 177.41 1098.36 177.41C1099.19 177.41 1099.91 177.602 1100.54 177.986C1101.17 178.358 1101.67 178.886 1102.01 179.57C1102.37 180.242 1102.55 181.01 1102.55 181.874C1102.55 182.09 1102.54 182.294 1102.52 182.486H1095.71C1095.8 183.254 1096.09 183.872 1096.58 184.34C1097.08 184.796 1097.71 185.024 1098.45 185.024C1099.05 185.024 1099.57 184.868 1100.02 184.556C1100.47 184.244 1100.78 183.836 1100.95 183.332L1102.54 183.908C1102.3 184.712 1101.8 185.372 1101.06 185.888C1100.32 186.392 1099.43 186.644 1098.41 186.644ZM1100.72 181.19C1100.71 180.542 1100.47 180.02 1100.02 179.624C1099.56 179.228 1098.98 179.03 1098.29 179.03C1097.63 179.03 1097.07 179.222 1096.61 179.606C1096.17 179.978 1095.88 180.506 1095.75 181.19H1100.72Z" fill="white"/> <path d="M1147.85 140L1147.85 218.974L1147.85 220L1172.85 180L1147.85 140Z" fill="#B92D24"/> <rect width="85" height="80" transform="translate(1172.85 140)" fill="#B92D24"/> <path d="M1207.39 176.144C1206.16 176.144 1205.08 175.868 1204.13 175.316C1203.18 174.764 1202.45 173.996 1201.93 173.012C1201.42 172.028 1201.16 170.912 1201.16 169.664C1201.16 168.356 1201.44 167.204 1202.01 166.208C1202.57 165.212 1203.34 164.444 1204.33 163.904C1205.31 163.364 1206.42 163.094 1207.64 163.094C1208.72 163.094 1209.7 163.31 1210.57 163.742C1211.45 164.174 1212.16 164.78 1212.72 165.56C1213.28 166.34 1213.63 167.24 1213.78 168.26L1212 168.764C1211.82 167.54 1211.34 166.58 1210.56 165.884C1209.79 165.176 1208.79 164.822 1207.57 164.822C1206.7 164.822 1205.93 165.008 1205.25 165.38C1204.56 165.752 1204.02 166.298 1203.63 167.018C1203.24 167.738 1203.05 168.59 1203.05 169.574C1203.05 170.546 1203.23 171.398 1203.59 172.13C1203.96 172.862 1204.48 173.426 1205.14 173.822C1205.8 174.218 1206.57 174.416 1207.44 174.416C1208.49 174.416 1209.35 174.128 1210.03 173.552C1210.72 172.976 1211.18 172.124 1211.42 170.996L1213.17 171.464C1212.99 172.412 1212.63 173.24 1212.09 173.948C1211.56 174.644 1210.89 175.184 1210.07 175.568C1209.27 175.952 1208.37 176.144 1207.39 176.144ZM1219.97 176.144C1219.08 176.144 1218.29 175.946 1217.59 175.55C1216.89 175.154 1216.35 174.608 1215.97 173.912C1215.59 173.204 1215.39 172.406 1215.39 171.518C1215.39 170.63 1215.59 169.838 1215.97 169.142C1216.37 168.446 1216.91 167.9 1217.61 167.504C1218.3 167.108 1219.09 166.91 1219.97 166.91C1220.84 166.91 1221.63 167.108 1222.32 167.504C1223.02 167.9 1223.57 168.446 1223.96 169.142C1224.36 169.838 1224.56 170.63 1224.56 171.518C1224.56 172.406 1224.36 173.204 1223.98 173.912C1223.6 174.608 1223.06 175.154 1222.36 175.55C1221.66 175.946 1220.87 176.144 1219.97 176.144ZM1217.21 171.518C1217.21 172.394 1217.47 173.114 1217.99 173.678C1218.5 174.23 1219.16 174.506 1219.97 174.506C1220.77 174.506 1221.43 174.23 1221.95 173.678C1222.46 173.114 1222.72 172.394 1222.72 171.518C1222.72 170.954 1222.6 170.444 1222.36 169.988C1222.13 169.532 1221.81 169.178 1221.39 168.926C1220.97 168.674 1220.49 168.548 1219.97 168.548C1219.44 168.548 1218.96 168.674 1218.54 168.926C1218.12 169.178 1217.79 169.532 1217.55 169.988C1217.33 170.444 1217.21 170.954 1217.21 171.518ZM1226.44 167.054H1228.22V168.44C1229 167.42 1230.01 166.91 1231.25 166.91C1232.23 166.91 1233.01 167.222 1233.59 167.846C1234.18 168.458 1234.47 169.286 1234.47 170.33V176H1232.65V170.87C1232.65 170.126 1232.46 169.562 1232.08 169.178C1231.7 168.782 1231.21 168.584 1230.6 168.584C1229.89 168.584 1229.32 168.836 1228.89 169.34C1228.47 169.832 1228.26 170.48 1228.26 171.284V176H1226.44V167.054ZM1197.56 196.326C1198.7 195.666 1199.64 195.072 1200.37 194.544C1201.1 194.016 1201.73 193.488 1202.24 192.96C1202.9 192.3 1203.4 191.694 1203.72 191.142C1204.04 190.578 1204.21 190.014 1204.21 189.45C1204.21 188.814 1204.02 188.322 1203.65 187.974C1203.28 187.614 1202.73 187.434 1202.01 187.434C1201.22 187.434 1200.6 187.662 1200.16 188.118C1199.72 188.574 1199.51 189.3 1199.51 190.296C1199.51 190.548 1199.51 190.74 1199.53 190.872L1197.74 190.692C1197.73 190.572 1197.73 190.398 1197.73 190.17C1197.73 188.73 1198.12 187.626 1198.9 186.858C1199.68 186.09 1200.73 185.706 1202.05 185.706C1203.28 185.706 1204.27 186.036 1205 186.696C1205.73 187.344 1206.1 188.214 1206.1 189.306C1206.1 190.086 1205.88 190.866 1205.45 191.646C1205.03 192.414 1204.39 193.2 1203.52 194.004C1202.62 194.82 1201.64 195.594 1200.59 196.326H1206.22V198H1197.74L1197.56 196.326ZM1212.83 198.144C1211.89 198.144 1211.08 197.898 1210.4 197.406C1209.71 196.914 1209.19 196.2 1208.83 195.264C1208.47 194.328 1208.29 193.212 1208.29 191.916C1208.29 190.62 1208.47 189.51 1208.83 188.586C1209.19 187.65 1209.71 186.936 1210.4 186.444C1211.08 185.952 1211.89 185.706 1212.83 185.706C1213.76 185.706 1214.57 185.952 1215.24 186.444C1215.92 186.936 1216.44 187.65 1216.8 188.586C1217.16 189.51 1217.34 190.62 1217.34 191.916C1217.34 193.212 1217.16 194.328 1216.8 195.264C1216.44 196.2 1215.92 196.914 1215.24 197.406C1214.57 197.898 1213.76 198.144 1212.83 198.144ZM1210.16 191.916C1210.16 193.344 1210.39 194.454 1210.85 195.246C1211.31 196.026 1211.97 196.416 1212.83 196.416C1213.67 196.416 1214.31 196.026 1214.77 195.246C1215.23 194.454 1215.45 193.344 1215.45 191.916C1215.45 190.5 1215.23 189.402 1214.77 188.622C1214.31 187.83 1213.67 187.434 1212.83 187.434C1211.97 187.434 1211.31 187.83 1210.85 188.622C1210.39 189.402 1210.16 190.5 1210.16 191.916ZM1219.24 196.326C1220.38 195.666 1221.31 195.072 1222.05 194.544C1222.78 194.016 1223.4 193.488 1223.92 192.96C1224.58 192.3 1225.07 191.694 1225.39 191.142C1225.72 190.578 1225.88 190.014 1225.88 189.45C1225.88 188.814 1225.69 188.322 1225.32 187.974C1224.95 187.614 1224.4 187.434 1223.68 187.434C1222.89 187.434 1222.27 187.662 1221.83 188.118C1221.4 188.574 1221.18 189.3 1221.18 190.296C1221.18 190.548 1221.19 190.74 1221.2 190.872L1219.42 190.692C1219.41 190.572 1219.4 190.398 1219.4 190.17C1219.4 188.73 1219.79 187.626 1220.57 186.858C1221.35 186.09 1222.4 185.706 1223.72 185.706C1224.96 185.706 1225.94 186.036 1226.67 186.696C1227.4 187.344 1227.77 188.214 1227.77 189.306C1227.77 190.086 1227.55 190.866 1227.12 191.646C1226.7 192.414 1226.06 193.2 1225.2 194.004C1224.3 194.82 1223.32 195.594 1222.26 196.326H1227.9V198H1219.42L1219.24 196.326ZM1231.17 185.85H1233.01L1231.62 192.654H1234.72V188.496H1236.54V192.654H1238.21V194.274H1236.54V198H1234.72V194.274H1229.46L1231.17 185.85Z" fill="white"/> </g> <mask id="path-33-inside-2_231_1529" fill="white"> <path d="M40 260.457H1278V304.457H40V260.457Z"/> </mask> <path d="M40 261.457H1278V259.457H40V261.457Z" fill="black" mask="url(#path-33-inside-2_231_1529)"/> <path d="M54.5211 277.822H56.5311L60.6561 288.457H58.6311L57.6261 285.862H53.3211L52.3161 288.457H50.3961L54.5211 277.822ZM56.9661 284.182L55.4661 280.297L53.9661 284.182H56.9661ZM61.8948 280.942H63.7248V281.977C64.4448 281.197 65.2748 280.807 66.2148 280.807C66.8848 280.807 67.4848 280.977 68.0148 281.317C68.5448 281.657 68.9548 282.122 69.2448 282.712C69.5448 283.302 69.6948 283.967 69.6948 284.707C69.6948 285.457 69.5448 286.127 69.2448 286.717C68.9448 287.307 68.5298 287.767 67.9998 288.097C67.4798 288.427 66.8898 288.592 66.2298 288.592C65.2698 288.592 64.4448 288.212 63.7548 287.452V291.727H61.8948V280.942ZM63.7398 284.722C63.7398 285.412 63.9298 285.967 64.3098 286.387C64.6898 286.807 65.1698 287.017 65.7498 287.017C66.3398 287.017 66.8348 286.807 67.2348 286.387C67.6348 285.967 67.8348 285.412 67.8348 284.722C67.8348 284.022 67.6398 283.457 67.2498 283.027C66.8698 282.597 66.3898 282.382 65.8098 282.382C65.4298 282.382 65.0798 282.482 64.7598 282.682C64.4498 282.872 64.1998 283.147 64.0098 283.507C63.8298 283.857 63.7398 284.262 63.7398 284.722ZM71.2113 280.942H73.0113V282.187C73.2313 281.767 73.5163 281.432 73.8663 281.182C74.2263 280.932 74.6513 280.807 75.1413 280.807C75.5513 280.807 75.9113 280.897 76.2213 281.077L75.6063 282.802C75.2663 282.672 74.9363 282.607 74.6163 282.607C74.1363 282.607 73.7563 282.757 73.4763 283.057C73.2063 283.347 73.0713 283.817 73.0713 284.467V288.457H71.2113V280.942ZM77.2318 280.942H79.0918V288.457H77.2318V280.942ZM76.9918 278.752C76.9918 278.422 77.1018 278.152 77.3218 277.942C77.5518 277.722 77.8318 277.612 78.1618 277.612C78.4918 277.612 78.7668 277.722 78.9868 277.942C79.2168 278.152 79.3318 278.422 79.3318 278.752C79.3318 279.072 79.2168 279.337 78.9868 279.547C78.7668 279.757 78.4918 279.862 78.1618 279.862C77.8318 279.862 77.5518 279.762 77.3218 279.562C77.1018 279.352 76.9918 279.082 76.9918 278.752ZM81.0425 277.822H82.9025V288.457H81.0425V277.822Z" fill="black"/> <path d="M215.451 277.822H218.106L220.821 285.232L223.506 277.822H226.161V288.457H224.331V280.552L221.481 288.457H220.146L217.251 280.582V288.457H215.451V277.822ZM230.433 288.592C229.693 288.592 229.108 288.402 228.678 288.022C228.258 287.642 228.048 287.122 228.048 286.462C228.048 285.842 228.243 285.352 228.633 284.992C229.023 284.622 229.558 284.372 230.238 284.242L232.773 283.777V283.582C232.773 283.192 232.648 282.902 232.398 282.712C232.148 282.512 231.793 282.412 231.333 282.412C230.893 282.412 230.513 282.517 230.193 282.727C229.873 282.937 229.653 283.267 229.533 283.717L227.928 283.357C228.088 282.537 228.463 281.907 229.053 281.467C229.643 281.027 230.433 280.807 231.423 280.807C232.423 280.807 233.193 281.022 233.733 281.452C234.283 281.882 234.558 282.482 234.558 283.252V286.282C234.558 286.632 234.623 286.862 234.753 286.972C234.883 287.082 235.128 287.127 235.488 287.107L235.143 288.577C235.043 288.587 234.903 288.592 234.723 288.592C234.143 288.592 233.683 288.467 233.343 288.217C233.003 287.967 232.848 287.557 232.878 286.987C232.628 287.547 232.298 287.957 231.888 288.217C231.478 288.467 230.993 288.592 230.433 288.592ZM229.908 286.192C229.908 286.442 229.998 286.642 230.178 286.792C230.358 286.942 230.613 287.017 230.943 287.017C231.473 287.017 231.908 286.842 232.248 286.492C232.598 286.132 232.773 285.657 232.773 285.067V284.992L230.808 285.352C230.208 285.442 229.908 285.722 229.908 286.192ZM238.638 288.682L235.728 280.942H237.678L239.643 286.162L241.758 280.942H243.633L239.298 291.727H237.408L238.638 288.682Z" fill="black"/> <path d="M378.049 288.562C377.229 288.562 376.544 288.402 375.994 288.082C375.454 287.762 375.054 287.312 374.794 286.732C374.534 286.202 374.414 285.562 374.434 284.812L376.279 284.542C376.299 285.102 376.384 285.552 376.534 285.892C376.834 286.532 377.339 286.852 378.049 286.852C378.569 286.852 378.964 286.692 379.234 286.372C379.514 286.042 379.654 285.582 379.654 284.992V277.822H381.559V285.172C381.559 286.262 381.249 287.102 380.629 287.692C380.009 288.272 379.149 288.562 378.049 288.562ZM386.244 288.592C385.434 288.592 384.779 288.332 384.279 287.812C383.779 287.292 383.529 286.572 383.529 285.652V280.942H385.389V284.962C385.389 285.612 385.519 286.092 385.779 286.402C386.049 286.712 386.419 286.867 386.889 286.867C387.409 286.867 387.829 286.682 388.149 286.312C388.469 285.942 388.629 285.412 388.629 284.722V280.942H390.504V288.457H388.689V287.302C388.359 287.712 387.999 288.032 387.609 288.262C387.229 288.482 386.774 288.592 386.244 288.592ZM392.349 280.942H394.149V282.097C394.849 281.237 395.694 280.807 396.684 280.807C397.514 280.807 398.179 281.067 398.679 281.587C399.189 282.097 399.444 282.792 399.444 283.672V288.457H397.569V284.437C397.569 283.797 397.424 283.322 397.134 283.012C396.854 282.692 396.474 282.532 395.994 282.532C395.464 282.532 395.034 282.717 394.704 283.087C394.374 283.447 394.209 283.957 394.209 284.617V288.457H392.349V280.942ZM404.722 288.592C403.942 288.592 403.262 288.432 402.682 288.112C402.102 287.782 401.652 287.327 401.332 286.747C401.022 286.167 400.867 285.512 400.867 284.782C400.867 284.022 401.027 283.342 401.347 282.742C401.677 282.132 402.132 281.657 402.712 281.317C403.292 280.977 403.952 280.807 404.692 280.807C405.382 280.807 405.997 280.962 406.537 281.272C407.077 281.582 407.502 282.027 407.812 282.607C408.122 283.177 408.277 283.847 408.277 284.617C408.277 284.777 408.267 284.957 408.247 285.157H402.712C402.802 285.727 403.032 286.177 403.402 286.507C403.772 286.837 404.227 287.002 404.767 287.002C405.217 287.002 405.607 286.892 405.937 286.672C406.277 286.442 406.512 286.127 406.642 285.727L408.262 286.222C408.082 286.922 407.672 287.492 407.032 287.932C406.392 288.372 405.622 288.592 404.722 288.592ZM406.432 284.017C406.392 283.517 406.202 283.122 405.862 282.832C405.522 282.542 405.107 282.397 404.617 282.397C404.137 282.397 403.732 282.542 403.402 282.832C403.072 283.112 402.852 283.507 402.742 284.017H406.432Z" fill="black"/> <path d="M543.171 288.562C542.351 288.562 541.666 288.402 541.116 288.082C540.576 287.762 540.176 287.312 539.916 286.732C539.656 286.202 539.536 285.562 539.556 284.812L541.401 284.542C541.421 285.102 541.506 285.552 541.656 285.892C541.956 286.532 542.461 286.852 543.171 286.852C543.691 286.852 544.086 286.692 544.356 286.372C544.636 286.042 544.776 285.582 544.776 284.992V277.822H546.681V285.172C546.681 286.262 546.371 287.102 545.751 287.692C545.131 288.272 544.271 288.562 543.171 288.562ZM551.366 288.592C550.556 288.592 549.901 288.332 549.401 287.812C548.901 287.292 548.651 286.572 548.651 285.652V280.942H550.511V284.962C550.511 285.612 550.641 286.092 550.901 286.402C551.171 286.712 551.541 286.867 552.011 286.867C552.531 286.867 552.951 286.682 553.271 286.312C553.591 285.942 553.751 285.412 553.751 284.722V280.942H555.626V288.457H553.811V287.302C553.481 287.712 553.121 288.032 552.731 288.262C552.351 288.482 551.896 288.592 551.366 288.592ZM557.562 277.822H559.422V288.457H557.562V277.822ZM563.543 288.682L560.633 280.942H562.583L564.548 286.162L566.663 280.942H568.538L564.203 291.727H562.313L563.543 288.682Z" fill="black"/> <path d="M703.635 277.822H705.645L709.77 288.457H707.745L706.74 285.862H702.435L701.43 288.457H699.51L703.635 277.822ZM706.08 284.182L704.58 280.297L703.08 284.182H706.08ZM713.429 288.592C712.619 288.592 711.964 288.332 711.464 287.812C710.964 287.292 710.714 286.572 710.714 285.652V280.942H712.574V284.962C712.574 285.612 712.704 286.092 712.964 286.402C713.234 286.712 713.604 286.867 714.074 286.867C714.594 286.867 715.014 286.682 715.334 286.312C715.654 285.942 715.814 285.412 715.814 284.722V280.942H717.689V288.457H715.874V287.302C715.544 287.712 715.184 288.032 714.794 288.262C714.414 288.482 713.959 288.592 713.429 288.592ZM722.804 291.862C721.684 291.862 720.764 291.592 720.044 291.052C719.324 290.512 718.899 289.692 718.769 288.592L720.359 288.097C720.439 288.827 720.694 289.372 721.124 289.732C721.564 290.092 722.119 290.272 722.789 290.272C723.519 290.272 724.109 290.072 724.559 289.672C725.019 289.282 725.249 288.742 725.249 288.052V287.107C724.589 287.927 723.724 288.337 722.654 288.337C721.994 288.337 721.399 288.187 720.869 287.887C720.349 287.587 719.939 287.162 719.639 286.612C719.339 286.052 719.189 285.402 719.189 284.662C719.189 283.932 719.339 283.277 719.639 282.697C719.939 282.107 720.354 281.647 720.884 281.317C721.424 280.977 722.034 280.807 722.714 280.807C723.644 280.807 724.459 281.177 725.159 281.917V280.942H726.989V288.097C726.989 289.267 726.619 290.187 725.879 290.857C725.139 291.527 724.114 291.862 722.804 291.862ZM721.049 284.617C721.049 285.287 721.244 285.827 721.634 286.237C722.024 286.637 722.509 286.837 723.089 286.837C723.679 286.837 724.169 286.632 724.559 286.222C724.949 285.802 725.144 285.257 725.144 284.587C725.144 283.937 724.949 283.407 724.559 282.997C724.179 282.587 723.694 282.382 723.104 282.382C722.724 282.382 722.379 282.477 722.069 282.667C721.759 282.847 721.509 283.107 721.319 283.447C721.139 283.787 721.049 284.177 721.049 284.617ZM731.49 288.592C730.68 288.592 730.025 288.332 729.525 287.812C729.025 287.292 728.775 286.572 728.775 285.652V280.942H730.635V284.962C730.635 285.612 730.765 286.092 731.025 286.402C731.295 286.712 731.665 286.867 732.135 286.867C732.655 286.867 733.075 286.682 733.395 286.312C733.715 285.942 733.875 285.412 733.875 284.722V280.942H735.75V288.457H733.935V287.302C733.605 287.712 733.245 288.032 732.855 288.262C732.475 288.482 732.02 288.592 731.49 288.592ZM740.311 288.592C739.431 288.592 738.706 288.397 738.136 288.007C737.566 287.607 737.246 287.022 737.176 286.252L738.781 285.802C738.821 286.232 738.986 286.557 739.276 286.777C739.576 286.997 739.941 287.107 740.371 287.107C740.731 287.107 741.026 287.037 741.256 286.897C741.486 286.757 741.601 286.552 741.601 286.282C741.601 286.092 741.531 285.937 741.391 285.817C741.261 285.687 741.036 285.592 740.716 285.532L739.351 285.262C738.671 285.122 738.176 284.877 737.866 284.527C737.556 284.167 737.401 283.727 737.401 283.207C737.401 282.457 737.686 281.872 738.256 281.452C738.826 281.022 739.561 280.807 740.461 280.807C741.341 280.807 742.056 281.017 742.606 281.437C743.156 281.857 743.481 282.437 743.581 283.177L742.066 283.612C742.006 283.182 741.831 282.857 741.541 282.637C741.251 282.407 740.871 282.292 740.401 282.292C740.011 282.292 739.701 282.367 739.471 282.517C739.251 282.657 739.141 282.857 739.141 283.117C739.141 283.497 739.431 283.742 740.011 283.852L741.286 284.092C741.956 284.212 742.466 284.452 742.816 284.812C743.176 285.162 743.356 285.627 743.356 286.207C743.356 286.967 743.076 287.557 742.516 287.977C741.956 288.387 741.221 288.592 740.311 288.592ZM747.694 288.547C746.244 288.547 745.519 287.847 745.519 286.447V282.487H744.349V280.942H745.519V279.457L747.394 278.857V280.942H749.149V282.487H747.394V286.072C747.394 286.622 747.634 286.897 748.114 286.897C748.344 286.897 748.659 286.827 749.059 286.687L749.434 288.142C748.894 288.412 748.314 288.547 747.694 288.547Z" fill="black"/> <path d="M885.204 288.592C884.404 288.592 883.709 288.457 883.119 288.187C882.539 287.917 882.084 287.552 881.754 287.092C881.424 286.622 881.219 286.097 881.139 285.517L882.939 284.977C883.029 285.547 883.279 286.012 883.689 286.372C884.109 286.732 884.649 286.912 885.309 286.912C885.849 286.912 886.294 286.787 886.644 286.537C886.994 286.287 887.169 285.942 887.169 285.502C887.169 285.172 887.049 284.887 886.809 284.647C886.579 284.407 886.229 284.237 885.759 284.137L884.004 283.762C883.164 283.582 882.529 283.252 882.099 282.772C881.679 282.282 881.469 281.647 881.469 280.867C881.469 279.847 881.819 279.062 882.519 278.512C883.219 277.962 884.139 277.687 885.279 277.687C886.429 277.687 887.369 277.962 888.099 278.512C888.839 279.062 889.279 279.867 889.419 280.927L887.679 281.377C887.579 280.727 887.319 280.232 886.899 279.892C886.479 279.542 885.929 279.367 885.249 279.367C884.669 279.367 884.209 279.492 883.869 279.742C883.529 279.982 883.359 280.312 883.359 280.732C883.359 281.052 883.464 281.332 883.674 281.572C883.894 281.812 884.224 281.977 884.664 282.067L886.449 282.442C887.309 282.622 887.959 282.957 888.399 283.447C888.839 283.937 889.059 284.577 889.059 285.367C889.059 286.377 888.714 287.167 888.024 287.737C887.344 288.307 886.404 288.592 885.204 288.592ZM894.425 288.592C893.645 288.592 892.965 288.432 892.385 288.112C891.805 287.782 891.355 287.327 891.035 286.747C890.725 286.167 890.57 285.512 890.57 284.782C890.57 284.022 890.73 283.342 891.05 282.742C891.38 282.132 891.835 281.657 892.415 281.317C892.995 280.977 893.655 280.807 894.395 280.807C895.085 280.807 895.7 280.962 896.24 281.272C896.78 281.582 897.205 282.027 897.515 282.607C897.825 283.177 897.98 283.847 897.98 284.617C897.98 284.777 897.97 284.957 897.95 285.157H892.415C892.505 285.727 892.735 286.177 893.105 286.507C893.475 286.837 893.93 287.002 894.47 287.002C894.92 287.002 895.31 286.892 895.64 286.672C895.98 286.442 896.215 286.127 896.345 285.727L897.965 286.222C897.785 286.922 897.375 287.492 896.735 287.932C896.095 288.372 895.325 288.592 894.425 288.592ZM896.135 284.017C896.095 283.517 895.905 283.122 895.565 282.832C895.225 282.542 894.81 282.397 894.32 282.397C893.84 282.397 893.435 282.542 893.105 282.832C892.775 283.112 892.555 283.507 892.445 284.017H896.135ZM899.485 280.942H901.315V281.977C902.035 281.197 902.865 280.807 903.805 280.807C904.475 280.807 905.075 280.977 905.605 281.317C906.135 281.657 906.545 282.122 906.835 282.712C907.135 283.302 907.285 283.967 907.285 284.707C907.285 285.457 907.135 286.127 906.835 286.717C906.535 287.307 906.12 287.767 905.59 288.097C905.07 288.427 904.48 288.592 903.82 288.592C902.86 288.592 902.035 288.212 901.345 287.452V291.727H899.485V280.942ZM901.33 284.722C901.33 285.412 901.52 285.967 901.9 286.387C902.28 286.807 902.76 287.017 903.34 287.017C903.93 287.017 904.425 286.807 904.825 286.387C905.225 285.967 905.425 285.412 905.425 284.722C905.425 284.022 905.23 283.457 904.84 283.027C904.46 282.597 903.98 282.382 903.4 282.382C903.02 282.382 902.67 282.482 902.35 282.682C902.04 282.872 901.79 283.147 901.6 283.507C901.42 283.857 901.33 284.262 901.33 284.722ZM911.531 288.547C910.081 288.547 909.356 287.847 909.356 286.447V282.487H908.186V280.942H909.356V279.457L911.231 278.857V280.942H912.986V282.487H911.231V286.072C911.231 286.622 911.471 286.897 911.951 286.897C912.181 286.897 912.496 286.827 912.896 286.687L913.271 288.142C912.731 288.412 912.151 288.547 911.531 288.547ZM917.98 288.592C917.2 288.592 916.52 288.432 915.94 288.112C915.36 287.782 914.91 287.327 914.59 286.747C914.28 286.167 914.125 285.512 914.125 284.782C914.125 284.022 914.285 283.342 914.605 282.742C914.935 282.132 915.39 281.657 915.97 281.317C916.55 280.977 917.21 280.807 917.95 280.807C918.64 280.807 919.255 280.962 919.795 281.272C920.335 281.582 920.76 282.027 921.07 282.607C921.38 283.177 921.535 283.847 921.535 284.617C921.535 284.777 921.525 284.957 921.505 285.157H915.97C916.06 285.727 916.29 286.177 916.66 286.507C917.03 286.837 917.485 287.002 918.025 287.002C918.475 287.002 918.865 286.892 919.195 286.672C919.535 286.442 919.77 286.127 919.9 285.727L921.52 286.222C921.34 286.922 920.93 287.492 920.29 287.932C919.65 288.372 918.88 288.592 917.98 288.592ZM919.69 284.017C919.65 283.517 919.46 283.122 919.12 282.832C918.78 282.542 918.365 282.397 917.875 282.397C917.395 282.397 916.99 282.542 916.66 282.832C916.33 283.112 916.11 283.507 916 284.017H919.69ZM923.039 280.942H924.839V282.082C925.159 281.682 925.509 281.372 925.889 281.152C926.279 280.922 926.724 280.807 927.224 280.807C927.764 280.807 928.234 280.932 928.634 281.182C929.044 281.422 929.349 281.767 929.549 282.217C929.849 281.757 930.224 281.407 930.674 281.167C931.134 280.927 931.619 280.807 932.129 280.807C932.929 280.807 933.564 281.062 934.034 281.572C934.514 282.082 934.754 282.762 934.754 283.612V288.457H932.894V284.317C932.894 283.727 932.759 283.282 932.489 282.982C932.229 282.682 931.884 282.532 931.454 282.532C930.974 282.532 930.584 282.712 930.284 283.072C929.984 283.422 929.834 283.917 929.834 284.557V288.457H927.959V284.332C927.959 283.732 927.829 283.282 927.569 282.982C927.309 282.682 926.964 282.532 926.534 282.532C926.054 282.532 925.659 282.712 925.349 283.072C925.049 283.432 924.899 283.927 924.899 284.557V288.457H923.039V280.942ZM940.895 288.592C939.915 288.592 939.07 288.177 938.36 287.347V288.457H936.545V277.822H938.405V281.917C939.055 281.177 939.865 280.807 940.835 280.807C941.515 280.807 942.12 280.977 942.65 281.317C943.19 281.647 943.605 282.112 943.895 282.712C944.195 283.302 944.345 283.972 944.345 284.722C944.345 285.482 944.195 286.157 943.895 286.747C943.595 287.327 943.18 287.782 942.65 288.112C942.13 288.432 941.545 288.592 940.895 288.592ZM938.39 284.692C938.39 285.372 938.58 285.932 938.96 286.372C939.35 286.802 939.84 287.017 940.43 287.017C940.81 287.017 941.155 286.922 941.465 286.732C941.775 286.542 942.02 286.272 942.2 285.922C942.39 285.572 942.485 285.172 942.485 284.722C942.485 284.262 942.395 283.857 942.215 283.507C942.035 283.147 941.79 282.872 941.48 282.682C941.17 282.482 940.825 282.382 940.445 282.382C940.065 282.382 939.715 282.482 939.395 282.682C939.085 282.872 938.84 283.142 938.66 283.492C938.48 283.842 938.39 284.242 938.39 284.692ZM949.372 288.592C948.592 288.592 947.912 288.432 947.332 288.112C946.752 287.782 946.302 287.327 945.982 286.747C945.672 286.167 945.517 285.512 945.517 284.782C945.517 284.022 945.677 283.342 945.997 282.742C946.327 282.132 946.782 281.657 947.362 281.317C947.942 280.977 948.602 280.807 949.342 280.807C950.032 280.807 950.647 280.962 951.187 281.272C951.727 281.582 952.152 282.027 952.462 282.607C952.772 283.177 952.927 283.847 952.927 284.617C952.927 284.777 952.917 284.957 952.897 285.157H947.362C947.452 285.727 947.682 286.177 948.052 286.507C948.422 286.837 948.877 287.002 949.417 287.002C949.867 287.002 950.257 286.892 950.587 286.672C950.927 286.442 951.162 286.127 951.292 285.727L952.912 286.222C952.732 286.922 952.322 287.492 951.682 287.932C951.042 288.372 950.272 288.592 949.372 288.592ZM951.082 284.017C951.042 283.517 950.852 283.122 950.512 282.832C950.172 282.542 949.757 282.397 949.267 282.397C948.787 282.397 948.382 282.542 948.052 282.832C947.722 283.112 947.502 283.507 947.392 284.017H951.082ZM954.431 280.942H956.231V282.187C956.451 281.767 956.736 281.432 957.086 281.182C957.446 280.932 957.871 280.807 958.361 280.807C958.771 280.807 959.131 280.897 959.441 281.077L958.826 282.802C958.486 282.672 958.156 282.607 957.836 282.607C957.356 282.607 956.976 282.757 956.696 283.057C956.426 283.347 956.291 283.817 956.291 284.467V288.457H954.431V280.942Z" fill="black"/> <path d="M1096.37 288.592C1095.31 288.592 1094.37 288.357 1093.55 287.887C1092.73 287.417 1092.1 286.772 1091.65 285.952C1091.2 285.122 1090.97 284.182 1090.97 283.132C1090.97 282.092 1091.2 281.162 1091.66 280.342C1092.12 279.512 1092.76 278.862 1093.58 278.392C1094.4 277.922 1095.33 277.687 1096.37 277.687C1097.4 277.687 1098.33 277.922 1099.15 278.392C1099.97 278.862 1100.61 279.512 1101.07 280.342C1101.53 281.162 1101.76 282.092 1101.76 283.132C1101.76 284.182 1101.53 285.122 1101.08 285.952C1100.63 286.772 1100 287.417 1099.18 287.887C1098.36 288.357 1097.42 288.592 1096.37 288.592ZM1092.89 283.132C1092.89 283.892 1093.04 284.557 1093.34 285.127C1093.64 285.687 1094.05 286.117 1094.57 286.417C1095.1 286.707 1095.7 286.852 1096.37 286.852C1097.03 286.852 1097.62 286.702 1098.14 286.402C1098.67 286.102 1099.09 285.672 1099.39 285.112C1099.69 284.552 1099.84 283.892 1099.84 283.132C1099.84 282.382 1099.69 281.727 1099.39 281.167C1099.09 280.607 1098.67 280.177 1098.14 279.877C1097.62 279.577 1097.03 279.427 1096.37 279.427C1095.7 279.427 1095.1 279.577 1094.57 279.877C1094.05 280.177 1093.64 280.607 1093.34 281.167C1093.04 281.727 1092.89 282.382 1092.89 283.132ZM1106.95 288.592C1106.21 288.592 1105.55 288.427 1104.97 288.097C1104.39 287.767 1103.93 287.312 1103.6 286.732C1103.28 286.152 1103.12 285.492 1103.12 284.752C1103.12 283.992 1103.29 283.317 1103.63 282.727C1103.97 282.127 1104.45 281.657 1105.06 281.317C1105.67 280.977 1106.36 280.807 1107.13 280.807C1108.1 280.807 1108.91 281.072 1109.56 281.602C1110.22 282.122 1110.64 282.852 1110.82 283.792L1109.15 284.332C1109.04 283.712 1108.8 283.242 1108.43 282.922C1108.06 282.592 1107.61 282.427 1107.07 282.427C1106.44 282.427 1105.93 282.637 1105.55 283.057C1105.17 283.477 1104.98 284.027 1104.98 284.707C1104.98 285.387 1105.17 285.937 1105.54 286.357C1105.91 286.767 1106.39 286.972 1106.99 286.972C1107.45 286.972 1107.84 286.842 1108.15 286.582C1108.46 286.322 1108.67 285.947 1108.79 285.457L1110.44 285.967C1110.27 286.767 1109.87 287.407 1109.24 287.887C1108.61 288.357 1107.85 288.592 1106.95 288.592ZM1114.87 288.547C1113.42 288.547 1112.7 287.847 1112.7 286.447V282.487H1111.53V280.942H1112.7V279.457L1114.57 278.857V280.942H1116.33V282.487H1114.57V286.072C1114.57 286.622 1114.81 286.897 1115.29 286.897C1115.52 286.897 1115.84 286.827 1116.24 286.687L1116.61 288.142C1116.07 288.412 1115.49 288.547 1114.87 288.547ZM1121.39 288.592C1120.62 288.592 1119.94 288.427 1119.34 288.097C1118.75 287.757 1118.29 287.292 1117.96 286.702C1117.63 286.112 1117.46 285.447 1117.46 284.707C1117.46 283.957 1117.63 283.287 1117.96 282.697C1118.3 282.107 1118.77 281.647 1119.37 281.317C1119.97 280.977 1120.64 280.807 1121.39 280.807C1122.14 280.807 1122.82 280.977 1123.42 281.317C1124.02 281.647 1124.48 282.107 1124.81 282.697C1125.15 283.287 1125.32 283.957 1125.32 284.707C1125.32 285.447 1125.16 286.112 1124.83 286.702C1124.5 287.292 1124.03 287.757 1123.43 288.097C1122.84 288.427 1122.16 288.592 1121.39 288.592ZM1119.32 284.707C1119.32 285.357 1119.52 285.897 1119.91 286.327C1120.3 286.747 1120.79 286.957 1121.39 286.957C1121.99 286.957 1122.49 286.747 1122.88 286.327C1123.27 285.897 1123.46 285.357 1123.46 284.707C1123.46 284.057 1123.27 283.517 1122.88 283.087C1122.49 282.657 1121.99 282.442 1121.39 282.442C1120.79 282.442 1120.3 282.657 1119.91 283.087C1119.52 283.517 1119.32 284.057 1119.32 284.707ZM1131.18 288.592C1130.2 288.592 1129.36 288.177 1128.65 287.347V288.457H1126.83V277.822H1128.69V281.917C1129.34 281.177 1130.15 280.807 1131.12 280.807C1131.8 280.807 1132.41 280.977 1132.94 281.317C1133.48 281.647 1133.89 282.112 1134.18 282.712C1134.48 283.302 1134.63 283.972 1134.63 284.722C1134.63 285.482 1134.48 286.157 1134.18 286.747C1133.88 287.327 1133.47 287.782 1132.94 288.112C1132.42 288.432 1131.83 288.592 1131.18 288.592ZM1128.68 284.692C1128.68 285.372 1128.87 285.932 1129.25 286.372C1129.64 286.802 1130.13 287.017 1130.72 287.017C1131.1 287.017 1131.44 286.922 1131.75 286.732C1132.06 286.542 1132.31 286.272 1132.49 285.922C1132.68 285.572 1132.77 285.172 1132.77 284.722C1132.77 284.262 1132.68 283.857 1132.5 283.507C1132.32 283.147 1132.08 282.872 1131.77 282.682C1131.46 282.482 1131.11 282.382 1130.73 282.382C1130.35 282.382 1130 282.482 1129.68 282.682C1129.37 282.872 1129.13 283.142 1128.95 283.492C1128.77 283.842 1128.68 284.242 1128.68 284.692ZM1139.66 288.592C1138.88 288.592 1138.2 288.432 1137.62 288.112C1137.04 287.782 1136.59 287.327 1136.27 286.747C1135.96 286.167 1135.8 285.512 1135.8 284.782C1135.8 284.022 1135.96 283.342 1136.28 282.742C1136.61 282.132 1137.07 281.657 1137.65 281.317C1138.23 280.977 1138.89 280.807 1139.63 280.807C1140.32 280.807 1140.93 280.962 1141.47 281.272C1142.01 281.582 1142.44 282.027 1142.75 282.607C1143.06 283.177 1143.21 283.847 1143.21 284.617C1143.21 284.777 1143.2 284.957 1143.18 285.157H1137.65C1137.74 285.727 1137.97 286.177 1138.34 286.507C1138.71 286.837 1139.16 287.002 1139.7 287.002C1140.15 287.002 1140.54 286.892 1140.87 286.672C1141.21 286.442 1141.45 286.127 1141.58 285.727L1143.2 286.222C1143.02 286.922 1142.61 287.492 1141.97 287.932C1141.33 288.372 1140.56 288.592 1139.66 288.592ZM1141.37 284.017C1141.33 283.517 1141.14 283.122 1140.8 282.832C1140.46 282.542 1140.04 282.397 1139.55 282.397C1139.07 282.397 1138.67 282.542 1138.34 282.832C1138.01 283.112 1137.79 283.507 1137.68 284.017H1141.37ZM1144.72 280.942H1146.52V282.187C1146.74 281.767 1147.02 281.432 1147.37 281.182C1147.73 280.932 1148.16 280.807 1148.65 280.807C1149.06 280.807 1149.42 280.897 1149.73 281.077L1149.11 282.802C1148.77 282.672 1148.44 282.607 1148.12 282.607C1147.64 282.607 1147.26 282.757 1146.98 283.057C1146.71 283.347 1146.58 283.817 1146.58 284.467V288.457H1144.72V280.942Z" fill="black"/> <defs> <clipPath id="clip0_231_1529"> <rect width="1237.85" height="160.457" fill="white" transform="translate(40 100)"/> </clipPath> </defs> </svg>