<svg width="25" height="25" viewBox="0 0 25 25" fill="none" xmlns="http://www.w3.org/2000/svg">
<g clip-path="url(#clip0_4330_7503)">
<path d="M7.64487 22.0229C16.8128 22.0229 21.8287 14.4255 21.8287 7.83902C21.8287 7.62544 21.824 7.40711 21.8145 7.19353C22.7902 6.48788 23.6323 5.61385 24.3011 4.61249C23.3923 5.0168 22.4275 5.28085 21.4395 5.39563C22.4798 4.77207 23.2587 3.7925 23.6318 2.6385C22.6532 3.21847 21.583 3.6276 20.467 3.84833C19.7151 3.04938 18.7209 2.52038 17.6382 2.34312C16.5555 2.16586 15.4445 2.35021 14.4771 2.86767C13.5097 3.38512 12.7396 4.20687 12.2861 5.20585C11.8325 6.20483 11.7206 7.32541 11.9678 8.39434C9.98621 8.2949 8.04764 7.78014 6.27776 6.88342C4.50788 5.98671 2.94619 4.72806 1.69396 3.18907C1.0575 4.28639 0.862745 5.58488 1.14927 6.82064C1.43579 8.05639 2.1821 9.13669 3.2365 9.84196C2.44492 9.81683 1.67067 9.60371 0.977739 9.2202V9.2819C0.977029 10.4335 1.37513 11.5497 2.10438 12.4409C2.83363 13.3322 3.84901 13.9434 4.97792 14.1706C4.24464 14.3712 3.47504 14.4005 2.72865 14.256C3.04721 15.2464 3.667 16.1126 4.50154 16.7337C5.33608 17.3548 6.34372 17.6999 7.38382 17.7208C5.61803 19.1079 3.43675 19.8602 1.19132 19.8567C0.793113 19.8561 0.395296 19.8316 0 19.7836C2.28112 21.247 4.93467 22.0243 7.64487 22.0229Z" fill="#5F6E60"/>
</g>
<defs>
<clipPath id="clip0_4330_7503">
<rect width="24.3011" height="24.3011" fill="white"/>
</clipPath>
</defs>
</svg>
