<?xml version="1.0" encoding="UTF-8"?> <svg xmlns="http://www.w3.org/2000/svg" width="500" height="500" viewBox="0 0 500 500" fill="none"><path d="M54.9407 203.85L38.3613 197.423L247.71 121.593L462 198.114L247.684 273.957L67.9738 208.523L54.9407 203.85Z" fill="#5F6E60"></path><path d="M81.3023 378.376L67.1682 250.426L68.3845 208.651L61.343 206.091V249.85L47.3242 378.286H49.2446C59.986 378.068 70.5737 378.529 81.3023 378.376Z" fill="#5F6E60"></path><path d="M248.323 324.514V288.667L381.471 240.657V273.304L248.323 324.514Z" fill="#A7C4A8"></path><path d="M248.323 324.514V288.667L115.176 240.657V273.304L248.323 324.514Z" fill="#A7C4A8"></path><path d="M137.582 231.695L115.178 240.657L144.624 251.539L163.188 241.937L137.582 231.695Z" fill="#5F6E60"></path><path d="M64.6136 378.286H47.3242L61.413 249.619L64.6136 378.286Z" fill="#A6C4A7"></path><path d="M358.428 231.695L381.473 240.657L351.386 251.539L332.823 241.937L358.428 231.695Z" fill="#5F6E60"></path></svg> 