<?xml version="1.0" encoding="UTF-8"?> <svg xmlns="http://www.w3.org/2000/svg" width="133" height="106" viewBox="0 0 133 106" fill="none"><path d="M58.1425 34.5759L79.2324 82.0331L21.2517 94.692L0.161822 47.2348L58.1425 34.5759Z" fill="#EDEADE"></path><path d="M58.1375 34.5638L79.2274 82.021L127.479 47.4702L106.389 0.013025L58.1375 34.5638Z" fill="#5F6E60"></path><path d="M58.1425 34.5759L79.2324 82.0331L36.7313 87.8129L15.6414 40.3557L58.1425 34.5759Z" fill="#A6C4A7"></path><path d="M58.1406 34.5695L79.2305 82.0267L49.7393 82.0175L28.6522 34.5665L58.1406 34.5695Z" fill="#5F6E60"></path><path d="M58.1366 34.563L79.2265 82.0202L111.999 54.3485L90.909 6.89132L58.1366 34.563Z" fill="#A6C4A7"></path><path d="M58.1346 34.5571L79.2217 82.0081L98.9814 60.1193L77.8914 12.6621L58.1346 34.5571Z" fill="#EDEADE"></path></svg> 