<?xml version="1.0" encoding="UTF-8"?> <svg xmlns="http://www.w3.org/2000/svg" width="500" height="500" viewBox="0 0 500 500" fill="none"><path d="M378.152 330.105C354.441 331.77 317.116 330.481 280.086 328.252H280.059L266.605 317.699C269.855 317.404 272.11 317.135 273.211 317.001L273.99 316.92C310.107 316.92 342.626 301.399 365.209 276.668H365.236C365.236 276.668 365.289 276.587 365.316 276.56C367.277 274.627 398.372 243.37 399.419 197.56C399.554 199.171 399.715 200.862 399.849 202.608C403.877 251.507 397.486 304.595 378.152 330.105Z" fill="#5F6E60"></path><path d="M399.421 197.453C399.421 197.453 399.448 197.533 399.421 197.56C398.373 243.371 367.278 274.628 365.318 276.561L365.237 276.642H365.21C365.613 275.379 378.502 233.516 382.074 191.679C383.094 179.784 381.617 167.082 378.986 154.945C378.69 153.575 378.395 152.206 378.073 150.863C373.991 133.865 367.869 118.344 363.411 108.248C372.89 118.183 380.704 129.703 386.478 142.351C387.256 144.096 388.008 145.842 388.706 147.614C390.694 152.985 393.164 158.489 395.044 164.961C395.044 165.015 395.071 165.068 395.071 165.122C395.178 165.498 395.285 165.847 395.393 166.223C398.508 177.206 399.662 187.651 399.421 197.453Z" fill="#A6C4A7"></path><path d="M382.074 191.679C378.502 233.516 365.613 275.379 365.21 276.641C342.627 301.4 310.108 316.921 273.991 316.921L318.083 200.782L332.853 161.873C338.814 161.658 363.572 160.235 378.073 150.863C378.395 152.206 378.69 153.575 378.986 154.945C381.617 167.082 383.094 179.783 382.074 191.679Z" fill="#EDEADE"></path><path d="M378.074 150.862C363.573 160.234 338.815 161.657 332.854 161.872L318.085 200.782L273.992 316.92C272.865 316.92 271.71 316.893 270.582 316.866C272.784 316.625 273.965 316.49 273.965 316.49L280.598 299.036L280.92 298.204L317.95 200.889L332.8 161.872L355.947 101.051C358.525 103.333 361.022 105.723 363.385 108.22H363.412C367.87 118.317 373.992 133.838 378.074 150.836V150.862Z" fill="#EDE9DE"></path><path d="M355.946 101.051L332.799 161.872L317.949 200.889L280.919 298.204L280.597 299.036L273.964 316.49C273.964 316.49 272.783 316.625 270.581 316.866H270.527C268.755 316.813 266.983 316.732 265.21 316.625L266.07 317.296C260.484 317.86 252.214 318.585 242.385 319.229L218.46 312.221L183.658 301.99L98.2129 276.936C98.2666 275.943 98.374 274.976 98.5351 274.009L110.941 248.204L111.451 247.157H111.478L111.505 247.049L157.074 152.151L159.464 147.184L166.231 133.086C176.945 113.94 192.627 97.9625 211.532 86.8723C229.845 76.1044 251.193 69.9282 273.991 69.9282C302.482 69.9282 328.717 79.5684 349.609 95.7874C351.461 97.2106 353.261 98.6875 355.006 100.218C355.328 100.487 355.651 100.755 355.946 101.051Z" fill="#A6C4A7"></path><path d="M378.072 150.862C363.571 160.234 338.813 161.657 332.852 161.872H332.798L355.945 101.051C358.523 103.333 361.02 105.723 363.383 108.22H363.41C367.868 118.317 373.99 133.838 378.072 150.836V150.862Z" fill="#5F6F61"></path><path d="M284.861 327.888L282.422 388.994L211.101 333.247L214.511 323.5L215.558 320.546L218.458 312.221C226.971 312.221 259.624 317.189 265.209 316.625L266.605 316.71L273.841 316.625L280.059 327.888H284.861Z" fill="#EDEADE"></path><mask id="mask0_6147_5942" style="mask-type:luminance" maskUnits="userSpaceOnUse" x="184" y="329" width="143" height="103"><path d="M326.432 329.917H184.246V431.072H326.432V329.917Z" fill="white"></path></mask><g mask="url(#mask0_6147_5942)"><path d="M282.554 381.179V423.473L188.462 362.168L207.501 329.917L282.554 381.179Z" fill="#5F6E60"></path><path d="M282.554 431.072V353.172L297.35 376.695V431.072H282.554Z" fill="#A6C4A7"></path><path d="M326.43 431.071L297.349 376.694V431.071H326.43Z" fill="#5F6E60"></path></g></svg> 