<svg width="25" height="25" viewBox="0 0 25 25" fill="none" xmlns="http://www.w3.org/2000/svg">
<g clip-path="url(#clip0_4330_7505)">
<path d="M22.5026 0H1.79447C0.802491 0 0.000366211 0.78314 0.000366211 1.75139V22.5449C0.000366211 23.5132 0.802491 24.3011 1.79447 24.3011H22.5026C23.4946 24.3011 24.3014 23.5132 24.3014 22.5497V1.75139C24.3014 0.78314 23.4946 0 22.5026 0ZM7.21 20.7081H3.60281V9.10816H7.21V20.7081ZM5.40641 7.52764C4.24831 7.52764 3.31329 6.59262 3.31329 5.43926C3.31329 4.28591 4.24831 3.35089 5.40641 3.35089C6.55976 3.35089 7.49478 4.28591 7.49478 5.43926C7.49478 6.58787 6.55976 7.52764 5.40641 7.52764ZM20.7085 20.7081H17.106V15.0695C17.106 13.7263 17.0823 11.9939 15.2313 11.9939C13.3565 11.9939 13.0717 13.4605 13.0717 14.9746V20.7081H9.47399V9.10816H12.9293V10.6934H12.9768C13.4561 9.78213 14.6332 8.81863 16.3846 8.81863C20.0345 8.81863 20.7085 11.2203 20.7085 14.3433V20.7081Z" fill="#5F6E60"/>
</g>
<defs>
<clipPath id="clip0_4330_7505">
<rect width="24.3011" height="24.3011" fill="white"/>
</clipPath>
</defs>
</svg>
