<svg width="335" height="861" viewBox="0 0 335 861" fill="none" xmlns="http://www.w3.org/2000/svg"> <g clip-path="url(#clip0_230_1590)"> <rect width="335" height="861" fill="white"/> <g clip-path="url(#clip1_230_1590)"> <line x1="307.582" y1="304.08" x2="314.577" y2="304.08" stroke="black" stroke-width="1.16585"/> <line x1="307" y1="422.417" x2="313.995" y2="422.417" stroke="black" stroke-width="1.16585"/> <line x1="307.084" y1="488.077" x2="314.079" y2="488.077" stroke="black" stroke-width="1.16585"/> <line x1="306.922" y1="587.125" x2="313.917" y2="587.125" stroke="black" stroke-width="1.16585"/> <line x1="307.922" y1="798.324" x2="314.917" y2="798.324" stroke="black" stroke-width="1.16585"/> <line x1="307" y1="225.417" x2="313.995" y2="225.417" stroke="black" stroke-width="1.16585"/> <line x1="42" y1="162.417" x2="369" y2="162.417" stroke="black" stroke-opacity="0.1" stroke-width="1.16585"/> <line x1="42" y1="279.417" x2="369" y2="279.417" stroke="black" stroke-opacity="0.1" stroke-width="1.16585"/> <line x1="42" y1="397.417" x2="369" y2="397.417" stroke="black" stroke-opacity="0.1" stroke-width="1.16585"/> <line x1="42" y1="746.417" x2="369" y2="746.417" stroke="black" stroke-opacity="0.1" stroke-width="1.16585"/> <line x1="42" y1="629.417" x2="369" y2="629.417" stroke="black" stroke-opacity="0.1" stroke-width="1.16585"/> <line x1="42" y1="514.417" x2="369" y2="514.417" stroke="black" stroke-opacity="0.1" stroke-width="1.16585"/> <line x1="42" y1="36.4171" x2="332" y2="36.417" stroke="black" stroke-opacity="0.1" stroke-width="1.16585"/> <rect width="191" height="246" transform="translate(77 36)" fill="#847872"/> <path d="M124.217 143.238H126.215L131.219 156H129.275L127.943 152.598H122.417L121.085 156H119.231L124.217 143.238ZM127.277 150.924L125.171 145.542L123.065 150.924H127.277ZM132.8 147.054H134.582V148.422C134.978 147.942 135.434 147.57 135.95 147.306C136.466 147.042 137.024 146.91 137.624 146.91C138.392 146.91 139.094 147.108 139.73 147.504C140.366 147.9 140.864 148.452 141.224 149.16C141.596 149.856 141.782 150.648 141.782 151.536C141.782 152.424 141.596 153.222 141.224 153.93C140.864 154.626 140.36 155.172 139.712 155.568C139.076 155.952 138.368 156.144 137.588 156.144C137 156.144 136.448 156.024 135.932 155.784C135.428 155.532 134.99 155.202 134.618 154.794V159.924H132.8V147.054ZM134.618 151.572C134.618 152.46 134.858 153.174 135.338 153.714C135.83 154.254 136.46 154.524 137.228 154.524C137.732 154.524 138.188 154.404 138.596 154.164C139.016 153.924 139.346 153.582 139.586 153.138C139.826 152.682 139.946 152.154 139.946 151.554C139.946 150.966 139.826 150.444 139.586 149.988C139.358 149.52 139.04 149.16 138.632 148.908C138.224 148.644 137.774 148.512 137.282 148.512C136.778 148.512 136.322 148.644 135.914 148.908C135.518 149.16 135.2 149.52 134.96 149.988C134.732 150.444 134.618 150.972 134.618 151.572ZM143.646 147.054H145.428V148.422C145.824 147.942 146.28 147.57 146.796 147.306C147.312 147.042 147.87 146.91 148.47 146.91C149.238 146.91 149.94 147.108 150.576 147.504C151.212 147.9 151.71 148.452 152.07 149.16C152.442 149.856 152.628 150.648 152.628 151.536C152.628 152.424 152.442 153.222 152.07 153.93C151.71 154.626 151.206 155.172 150.558 155.568C149.922 155.952 149.214 156.144 148.434 156.144C147.846 156.144 147.294 156.024 146.778 155.784C146.274 155.532 145.836 155.202 145.464 154.794V159.924H143.646V147.054ZM145.464 151.572C145.464 152.46 145.704 153.174 146.184 153.714C146.676 154.254 147.306 154.524 148.074 154.524C148.578 154.524 149.034 154.404 149.442 154.164C149.862 153.924 150.192 153.582 150.432 153.138C150.672 152.682 150.792 152.154 150.792 151.554C150.792 150.966 150.672 150.444 150.432 149.988C150.204 149.52 149.886 149.16 149.478 148.908C149.07 148.644 148.62 148.512 148.128 148.512C147.624 148.512 147.168 148.644 146.76 148.908C146.364 149.16 146.046 149.52 145.806 149.988C145.578 150.444 145.464 150.972 145.464 151.572ZM154.618 143.238H156.454V156H154.618V143.238ZM158.886 147.054H160.704V156H158.886V147.054ZM158.544 144.318C158.544 143.982 158.664 143.694 158.904 143.454C159.156 143.214 159.456 143.094 159.804 143.094C160.14 143.094 160.428 143.214 160.668 143.454C160.908 143.694 161.028 143.982 161.028 144.318C161.028 144.654 160.908 144.942 160.668 145.182C160.44 145.41 160.152 145.524 159.804 145.524C159.456 145.524 159.156 145.41 158.904 145.182C158.664 144.954 158.544 144.666 158.544 144.318ZM167.05 156.144C166.186 156.144 165.412 155.952 164.728 155.568C164.056 155.172 163.528 154.632 163.144 153.948C162.76 153.252 162.568 152.466 162.568 151.59C162.568 150.69 162.766 149.886 163.162 149.178C163.57 148.458 164.128 147.9 164.836 147.504C165.544 147.108 166.354 146.91 167.266 146.91C168.406 146.91 169.36 147.222 170.128 147.846C170.896 148.47 171.376 149.34 171.568 150.456L169.912 151.032C169.792 150.228 169.492 149.61 169.012 149.178C168.532 148.746 167.926 148.53 167.194 148.53C166.342 148.53 165.658 148.806 165.142 149.358C164.638 149.91 164.386 150.63 164.386 151.518C164.386 152.418 164.638 153.144 165.142 153.696C165.646 154.236 166.288 154.506 167.068 154.506C167.68 154.506 168.19 154.338 168.598 154.002C169.006 153.654 169.306 153.156 169.498 152.508L171.136 153.03C170.932 153.978 170.458 154.734 169.714 155.298C168.982 155.862 168.094 156.144 167.05 156.144ZM175.749 156.144C174.861 156.144 174.165 155.916 173.661 155.46C173.169 154.992 172.923 154.368 172.923 153.588C172.923 152.832 173.163 152.232 173.643 151.788C174.135 151.344 174.813 151.05 175.677 150.906L178.593 150.42V150.006C178.593 149.526 178.425 149.16 178.089 148.908C177.765 148.656 177.309 148.53 176.721 148.53C176.097 148.53 175.581 148.674 175.173 148.962C174.777 149.238 174.519 149.658 174.399 150.222L172.779 149.826C172.971 148.878 173.409 148.158 174.093 147.666C174.777 147.162 175.677 146.91 176.793 146.91C177.909 146.91 178.779 147.162 179.403 147.666C180.027 148.158 180.339 148.86 180.339 149.772V153.48C180.339 153.936 180.417 154.242 180.573 154.398C180.741 154.554 181.041 154.62 181.473 154.596L181.113 156.126C180.369 156.174 179.763 156.054 179.295 155.766C178.839 155.478 178.617 154.998 178.629 154.326C178.041 155.538 177.081 156.144 175.749 156.144ZM174.741 153.408C174.741 153.744 174.861 154.02 175.101 154.236C175.341 154.452 175.695 154.56 176.163 154.56C176.871 154.56 177.453 154.32 177.909 153.84C178.365 153.348 178.593 152.712 178.593 151.932V151.77L176.109 152.184C175.665 152.244 175.323 152.382 175.083 152.598C174.855 152.802 174.741 153.072 174.741 153.408ZM185.921 156.09C185.081 156.09 184.469 155.892 184.085 155.496C183.713 155.1 183.527 154.53 183.527 153.786V148.638H182.195V147.054H183.527V145.128L185.363 144.552V147.054H187.433V148.638H185.363V153.516C185.363 154.14 185.651 154.452 186.227 154.452C186.515 154.452 186.893 154.362 187.361 154.182L187.757 155.676C187.193 155.952 186.581 156.09 185.921 156.09ZM189.42 147.054H191.238V156H189.42V147.054ZM189.078 144.318C189.078 143.982 189.198 143.694 189.438 143.454C189.69 143.214 189.99 143.094 190.338 143.094C190.674 143.094 190.962 143.214 191.202 143.454C191.442 143.694 191.562 143.982 191.562 144.318C191.562 144.654 191.442 144.942 191.202 145.182C190.974 145.41 190.686 145.524 190.338 145.524C189.99 145.524 189.69 145.41 189.438 145.182C189.198 144.954 189.078 144.666 189.078 144.318ZM197.673 156.144C196.785 156.144 195.993 155.946 195.297 155.55C194.601 155.154 194.061 154.608 193.677 153.912C193.293 153.204 193.101 152.406 193.101 151.518C193.101 150.63 193.293 149.838 193.677 149.142C194.073 148.446 194.619 147.9 195.315 147.504C196.011 147.108 196.797 146.91 197.673 146.91C198.549 146.91 199.335 147.108 200.031 147.504C200.727 147.9 201.273 148.446 201.669 149.142C202.065 149.838 202.263 150.63 202.263 151.518C202.263 152.406 202.071 153.204 201.687 153.912C201.303 154.608 200.763 155.154 200.067 155.55C199.371 155.946 198.573 156.144 197.673 156.144ZM194.919 151.518C194.919 152.394 195.177 153.114 195.693 153.678C196.209 154.23 196.869 154.506 197.673 154.506C198.477 154.506 199.137 154.23 199.653 153.678C200.169 153.114 200.427 152.394 200.427 151.518C200.427 150.954 200.307 150.444 200.067 149.988C199.839 149.532 199.515 149.178 199.095 148.926C198.675 148.674 198.201 148.548 197.673 148.548C197.145 148.548 196.671 148.674 196.251 148.926C195.831 149.178 195.501 149.532 195.261 149.988C195.033 150.444 194.919 150.954 194.919 151.518ZM204.15 147.054H205.932V148.44C206.712 147.42 207.72 146.91 208.956 146.91C209.94 146.91 210.72 147.222 211.296 147.846C211.884 148.458 212.178 149.286 212.178 150.33V156H210.36V150.87C210.36 150.126 210.168 149.562 209.784 149.178C209.412 148.782 208.92 148.584 208.308 148.584C207.6 148.584 207.03 148.836 206.598 149.34C206.178 149.832 205.968 150.48 205.968 151.284V156H204.15V147.054ZM217.566 156.144C216.558 156.144 215.73 155.916 215.082 155.46C214.446 154.992 214.074 154.326 213.966 153.462L215.622 152.976C215.694 153.504 215.91 153.906 216.27 154.182C216.63 154.458 217.092 154.596 217.656 154.596C218.148 154.596 218.538 154.5 218.826 154.308C219.114 154.116 219.258 153.84 219.258 153.48C219.258 152.904 218.886 152.55 218.142 152.418L216.45 152.058C214.986 151.746 214.254 150.966 214.254 149.718C214.254 148.854 214.578 148.17 215.226 147.666C215.874 147.162 216.708 146.91 217.728 146.91C218.712 146.91 219.528 147.156 220.176 147.648C220.824 148.14 221.208 148.818 221.328 149.682L219.78 150.15C219.696 149.598 219.48 149.178 219.132 148.89C218.784 148.602 218.304 148.458 217.692 148.458C217.176 148.458 216.774 148.56 216.486 148.764C216.198 148.956 216.054 149.226 216.054 149.574C216.054 150.114 216.414 150.45 217.134 150.582L218.682 150.906C219.438 151.05 220.02 151.332 220.428 151.752C220.848 152.172 221.058 152.718 221.058 153.39C221.058 154.242 220.74 154.914 220.104 155.406C219.468 155.898 218.622 156.144 217.566 156.144ZM156.892 176.144C156.004 176.144 155.212 175.946 154.516 175.55C153.82 175.154 153.28 174.608 152.896 173.912C152.512 173.204 152.32 172.406 152.32 171.518C152.32 170.63 152.512 169.838 152.896 169.142C153.292 168.446 153.838 167.9 154.534 167.504C155.23 167.108 156.016 166.91 156.892 166.91C157.768 166.91 158.554 167.108 159.25 167.504C159.946 167.9 160.492 168.446 160.888 169.142C161.284 169.838 161.482 170.63 161.482 171.518C161.482 172.406 161.29 173.204 160.906 173.912C160.522 174.608 159.982 175.154 159.286 175.55C158.59 175.946 157.792 176.144 156.892 176.144ZM154.138 171.518C154.138 172.394 154.396 173.114 154.912 173.678C155.428 174.23 156.088 174.506 156.892 174.506C157.696 174.506 158.356 174.23 158.872 173.678C159.388 173.114 159.646 172.394 159.646 171.518C159.646 170.954 159.526 170.444 159.286 169.988C159.058 169.532 158.734 169.178 158.314 168.926C157.894 168.674 157.42 168.548 156.892 168.548C156.364 168.548 155.89 168.674 155.47 168.926C155.05 169.178 154.72 169.532 154.48 169.988C154.252 170.444 154.138 170.954 154.138 171.518ZM163.369 167.054H165.151V168.422C165.547 167.942 166.003 167.57 166.519 167.306C167.035 167.042 167.593 166.91 168.193 166.91C168.961 166.91 169.663 167.108 170.299 167.504C170.935 167.9 171.433 168.452 171.793 169.16C172.165 169.856 172.351 170.648 172.351 171.536C172.351 172.424 172.165 173.222 171.793 173.93C171.433 174.626 170.929 175.172 170.281 175.568C169.645 175.952 168.937 176.144 168.157 176.144C167.569 176.144 167.017 176.024 166.501 175.784C165.997 175.532 165.559 175.202 165.187 174.794V179.924H163.369V167.054ZM165.187 171.572C165.187 172.46 165.427 173.174 165.907 173.714C166.399 174.254 167.029 174.524 167.797 174.524C168.301 174.524 168.757 174.404 169.165 174.164C169.585 173.924 169.915 173.582 170.155 173.138C170.395 172.682 170.515 172.154 170.515 171.554C170.515 170.966 170.395 170.444 170.155 169.988C169.927 169.52 169.609 169.16 169.201 168.908C168.793 168.644 168.343 168.512 167.851 168.512C167.347 168.512 166.891 168.644 166.483 168.908C166.087 169.16 165.769 169.52 165.529 169.988C165.301 170.444 165.187 170.972 165.187 171.572ZM178.319 176.144C177.419 176.144 176.627 175.952 175.943 175.568C175.259 175.184 174.731 174.65 174.359 173.966C173.987 173.282 173.801 172.502 173.801 171.626C173.801 170.726 173.987 169.922 174.359 169.214C174.743 168.494 175.271 167.93 175.943 167.522C176.627 167.114 177.401 166.91 178.265 166.91C179.093 166.91 179.819 167.102 180.443 167.486C181.079 167.858 181.571 168.386 181.919 169.07C182.279 169.742 182.459 170.51 182.459 171.374C182.459 171.59 182.447 171.794 182.423 171.986H175.619C175.703 172.754 175.991 173.372 176.483 173.84C176.987 174.296 177.611 174.524 178.354 174.524C178.955 174.524 179.477 174.368 179.921 174.056C180.377 173.744 180.689 173.336 180.857 172.832L182.441 173.408C182.201 174.212 181.709 174.872 180.965 175.388C180.221 175.892 179.339 176.144 178.319 176.144ZM180.623 170.69C180.611 170.042 180.377 169.52 179.921 169.124C179.465 168.728 178.889 168.53 178.193 168.53C177.533 168.53 176.975 168.722 176.519 169.106C176.075 169.478 175.787 170.006 175.655 170.69H180.623ZM184.322 167.054H186.104V168.44C186.884 167.42 187.892 166.91 189.128 166.91C190.112 166.91 190.892 167.222 191.468 167.846C192.056 168.458 192.35 169.286 192.35 170.33V176H190.532V170.87C190.532 170.126 190.34 169.562 189.956 169.178C189.584 168.782 189.092 168.584 188.48 168.584C187.772 168.584 187.202 168.836 186.77 169.34C186.35 169.832 186.14 170.48 186.14 171.284V176H184.322V167.054Z" fill="white"/> <path d="M268 282L79.4487 282L77 282L172.5 304.151L268 282Z" fill="#847872"/> <rect width="161" height="173" transform="translate(92 222.151)" fill="#E0DAC4"/> <path d="M116.168 296.725H117.722L121.614 306.651H120.102L119.066 304.005H114.768L113.732 306.651H112.29L116.168 296.725ZM118.548 302.703L116.91 298.517L115.272 302.703H118.548ZM122.844 299.693H124.23V300.757C124.538 300.384 124.893 300.095 125.294 299.889C125.696 299.684 126.13 299.581 126.596 299.581C127.194 299.581 127.74 299.735 128.234 300.043C128.729 300.351 129.116 300.781 129.396 301.331C129.686 301.873 129.83 302.489 129.83 303.179C129.83 303.87 129.686 304.491 129.396 305.041C129.116 305.583 128.724 306.007 128.22 306.315C127.726 306.614 127.175 306.763 126.568 306.763C126.111 306.763 125.682 306.67 125.28 306.483C124.888 306.287 124.548 306.031 124.258 305.713V309.703H122.844V299.693ZM124.258 303.207C124.258 303.898 124.445 304.453 124.818 304.873C125.201 305.293 125.691 305.503 126.288 305.503C126.68 305.503 127.035 305.41 127.352 305.223C127.679 305.037 127.936 304.771 128.122 304.425C128.309 304.071 128.402 303.66 128.402 303.193C128.402 302.736 128.309 302.33 128.122 301.975C127.945 301.611 127.698 301.331 127.38 301.135C127.063 300.93 126.713 300.827 126.33 300.827C125.938 300.827 125.584 300.93 125.266 301.135C124.958 301.331 124.711 301.611 124.524 301.975C124.347 302.33 124.258 302.741 124.258 303.207ZM131.28 299.693H132.666V300.757C132.974 300.384 133.328 300.095 133.73 299.889C134.131 299.684 134.565 299.581 135.032 299.581C135.629 299.581 136.175 299.735 136.67 300.043C137.164 300.351 137.552 300.781 137.832 301.331C138.121 301.873 138.266 302.489 138.266 303.179C138.266 303.87 138.121 304.491 137.832 305.041C137.552 305.583 137.16 306.007 136.656 306.315C136.161 306.614 135.61 306.763 135.004 306.763C134.546 306.763 134.117 306.67 133.716 306.483C133.324 306.287 132.983 306.031 132.694 305.713V309.703H131.28V299.693ZM132.694 303.207C132.694 303.898 132.88 304.453 133.254 304.873C133.636 305.293 134.126 305.503 134.724 305.503C135.116 305.503 135.47 305.41 135.788 305.223C136.114 305.037 136.371 304.771 136.558 304.425C136.744 304.071 136.838 303.66 136.838 303.193C136.838 302.736 136.744 302.33 136.558 301.975C136.38 301.611 136.133 301.331 135.816 301.135C135.498 300.93 135.148 300.827 134.766 300.827C134.374 300.827 134.019 300.93 133.702 301.135C133.394 301.331 133.146 301.611 132.96 301.975C132.782 302.33 132.694 302.741 132.694 303.207ZM139.813 296.725H141.241V306.651H139.813V296.725ZM143.133 299.693H144.547V306.651H143.133V299.693ZM142.867 297.565C142.867 297.304 142.961 297.08 143.147 296.893C143.343 296.707 143.577 296.613 143.847 296.613C144.109 296.613 144.333 296.707 144.519 296.893C144.706 297.08 144.799 297.304 144.799 297.565C144.799 297.827 144.706 298.051 144.519 298.237C144.342 298.415 144.118 298.503 143.847 298.503C143.577 298.503 143.343 298.415 143.147 298.237C142.961 298.06 142.867 297.836 142.867 297.565ZM149.483 306.763C148.811 306.763 148.209 306.614 147.677 306.315C147.154 306.007 146.744 305.587 146.445 305.055C146.146 304.514 145.997 303.903 145.997 303.221C145.997 302.521 146.151 301.896 146.459 301.345C146.776 300.785 147.21 300.351 147.761 300.043C148.312 299.735 148.942 299.581 149.651 299.581C150.538 299.581 151.28 299.824 151.877 300.309C152.474 300.795 152.848 301.471 152.997 302.339L151.709 302.787C151.616 302.162 151.382 301.681 151.009 301.345C150.636 301.009 150.164 300.841 149.595 300.841C148.932 300.841 148.4 301.056 147.999 301.485C147.607 301.915 147.411 302.475 147.411 303.165C147.411 303.865 147.607 304.43 147.999 304.859C148.391 305.279 148.89 305.489 149.497 305.489C149.973 305.489 150.37 305.359 150.687 305.097C151.004 304.827 151.238 304.439 151.387 303.935L152.661 304.341C152.502 305.079 152.134 305.667 151.555 306.105C150.986 306.544 150.295 306.763 149.483 306.763ZM156.249 306.763C155.558 306.763 155.017 306.586 154.625 306.231C154.242 305.867 154.051 305.382 154.051 304.775C154.051 304.187 154.238 303.721 154.611 303.375C154.994 303.03 155.521 302.801 156.193 302.689L158.461 302.311V301.989C158.461 301.616 158.33 301.331 158.069 301.135C157.817 300.939 157.462 300.841 157.005 300.841C156.52 300.841 156.118 300.953 155.801 301.177C155.493 301.392 155.292 301.719 155.199 302.157L153.939 301.849C154.088 301.112 154.429 300.552 154.961 300.169C155.493 299.777 156.193 299.581 157.061 299.581C157.929 299.581 158.606 299.777 159.091 300.169C159.576 300.552 159.819 301.098 159.819 301.807V304.691C159.819 305.046 159.88 305.284 160.001 305.405C160.132 305.527 160.365 305.578 160.701 305.559L160.421 306.749C159.842 306.787 159.371 306.693 159.007 306.469C158.652 306.245 158.48 305.872 158.489 305.349C158.032 306.292 157.285 306.763 156.249 306.763ZM155.465 304.635C155.465 304.897 155.558 305.111 155.745 305.279C155.932 305.447 156.207 305.531 156.571 305.531C157.122 305.531 157.574 305.345 157.929 304.971C158.284 304.589 158.461 304.094 158.461 303.487V303.361L156.529 303.683C156.184 303.73 155.918 303.837 155.731 304.005C155.554 304.164 155.465 304.374 155.465 304.635ZM164.16 306.721C163.507 306.721 163.031 306.567 162.732 306.259C162.443 305.951 162.298 305.508 162.298 304.929V300.925H161.262V299.693H162.298V298.195L163.726 297.747V299.693H165.336V300.925H163.726V304.719C163.726 305.205 163.95 305.447 164.398 305.447C164.622 305.447 164.916 305.377 165.28 305.237L165.588 306.399C165.149 306.614 164.673 306.721 164.16 306.721ZM166.881 299.693H168.295V306.651H166.881V299.693ZM166.615 297.565C166.615 297.304 166.709 297.08 166.895 296.893C167.091 296.707 167.325 296.613 167.595 296.613C167.857 296.613 168.081 296.707 168.267 296.893C168.454 297.08 168.547 297.304 168.547 297.565C168.547 297.827 168.454 298.051 168.267 298.237C168.09 298.415 167.866 298.503 167.595 298.503C167.325 298.503 167.091 298.415 166.895 298.237C166.709 298.06 166.615 297.836 166.615 297.565ZM173.301 306.763C172.61 306.763 171.994 306.609 171.453 306.301C170.912 305.993 170.492 305.569 170.193 305.027C169.894 304.477 169.745 303.856 169.745 303.165C169.745 302.475 169.894 301.859 170.193 301.317C170.501 300.776 170.926 300.351 171.467 300.043C172.008 299.735 172.62 299.581 173.301 299.581C173.982 299.581 174.594 299.735 175.135 300.043C175.676 300.351 176.101 300.776 176.409 301.317C176.717 301.859 176.871 302.475 176.871 303.165C176.871 303.856 176.722 304.477 176.423 305.027C176.124 305.569 175.704 305.993 175.163 306.301C174.622 306.609 174.001 306.763 173.301 306.763ZM171.159 303.165C171.159 303.847 171.36 304.407 171.761 304.845C172.162 305.275 172.676 305.489 173.301 305.489C173.926 305.489 174.44 305.275 174.841 304.845C175.242 304.407 175.443 303.847 175.443 303.165C175.443 302.727 175.35 302.33 175.163 301.975C174.986 301.621 174.734 301.345 174.407 301.149C174.08 300.953 173.712 300.855 173.301 300.855C172.89 300.855 172.522 300.953 172.195 301.149C171.868 301.345 171.612 301.621 171.425 301.975C171.248 302.33 171.159 302.727 171.159 303.165ZM178.338 299.693H179.724V300.771C180.331 299.978 181.115 299.581 182.076 299.581C182.842 299.581 183.448 299.824 183.896 300.309C184.354 300.785 184.582 301.429 184.582 302.241V306.651H183.168V302.661C183.168 302.083 183.019 301.644 182.72 301.345C182.431 301.037 182.048 300.883 181.572 300.883C181.022 300.883 180.578 301.079 180.242 301.471C179.916 301.854 179.752 302.358 179.752 302.983V306.651H178.338V299.693ZM189.645 299.693H191.031V300.855C191.236 300.454 191.502 300.141 191.829 299.917C192.165 299.693 192.552 299.581 192.991 299.581C193.355 299.581 193.663 299.651 193.915 299.791L193.481 301.177C193.248 301.065 192.972 301.009 192.655 301.009C192.16 301.009 191.768 301.173 191.479 301.499C191.199 301.817 191.059 302.307 191.059 302.969V306.651H189.645V299.693ZM197.677 306.763C196.977 306.763 196.361 306.614 195.829 306.315C195.297 306.017 194.886 305.601 194.597 305.069C194.308 304.537 194.163 303.931 194.163 303.249C194.163 302.549 194.308 301.924 194.597 301.373C194.896 300.813 195.306 300.375 195.829 300.057C196.361 299.74 196.963 299.581 197.635 299.581C198.279 299.581 198.844 299.731 199.329 300.029C199.824 300.319 200.206 300.729 200.477 301.261C200.757 301.784 200.897 302.381 200.897 303.053C200.897 303.221 200.888 303.38 200.869 303.529H195.577C195.642 304.127 195.866 304.607 196.249 304.971C196.641 305.326 197.126 305.503 197.705 305.503C198.172 305.503 198.578 305.382 198.923 305.139C199.278 304.897 199.52 304.579 199.651 304.187L200.883 304.635C200.696 305.261 200.314 305.774 199.735 306.175C199.156 306.567 198.47 306.763 197.677 306.763ZM199.469 302.521C199.46 302.017 199.278 301.611 198.923 301.303C198.568 300.995 198.12 300.841 197.579 300.841C197.066 300.841 196.632 300.991 196.277 301.289C195.932 301.579 195.708 301.989 195.605 302.521H199.469ZM201.455 299.693H202.925L204.885 304.803L206.859 299.693H208.287L205.613 306.651H204.115L201.455 299.693ZM209.374 299.693H210.788V306.651H209.374V299.693ZM209.108 297.565C209.108 297.304 209.201 297.08 209.388 296.893C209.584 296.707 209.817 296.613 210.088 296.613C210.349 296.613 210.573 296.707 210.76 296.893C210.946 297.08 211.04 297.304 211.04 297.565C211.04 297.827 210.946 298.051 210.76 298.237C210.582 298.415 210.358 298.503 210.088 298.503C209.817 298.503 209.584 298.415 209.388 298.237C209.201 298.06 209.108 297.836 209.108 297.565ZM215.751 306.763C215.051 306.763 214.435 306.614 213.903 306.315C213.371 306.017 212.96 305.601 212.671 305.069C212.382 304.537 212.237 303.931 212.237 303.249C212.237 302.549 212.382 301.924 212.671 301.373C212.97 300.813 213.38 300.375 213.903 300.057C214.435 299.74 215.037 299.581 215.709 299.581C216.353 299.581 216.918 299.731 217.403 300.029C217.898 300.319 218.28 300.729 218.551 301.261C218.831 301.784 218.971 302.381 218.971 303.053C218.971 303.221 218.962 303.38 218.943 303.529H213.651C213.716 304.127 213.94 304.607 214.323 304.971C214.715 305.326 215.2 305.503 215.779 305.503C216.246 305.503 216.652 305.382 216.997 305.139C217.352 304.897 217.594 304.579 217.725 304.187L218.957 304.635C218.77 305.261 218.388 305.774 217.809 306.175C217.23 306.567 216.544 306.763 215.751 306.763ZM217.543 302.521C217.534 302.017 217.352 301.611 216.997 301.303C216.642 300.995 216.194 300.841 215.653 300.841C215.14 300.841 214.706 300.991 214.351 301.289C214.006 301.579 213.782 301.989 213.679 302.521H217.543ZM219.529 299.693H220.957L222.469 304.649L224.135 299.693H225.129L226.795 304.663L228.321 299.693H229.665L227.509 306.651H226.081L224.597 302.255L223.099 306.651H221.671L219.529 299.693ZM137.03 316.793L136.988 316.821C136.036 317.26 135.56 317.904 135.56 318.753C135.56 319.313 135.738 319.752 136.092 320.069C136.447 320.377 136.942 320.531 137.576 320.531C137.978 320.531 138.365 320.471 138.738 320.349C139.121 320.219 139.466 320.037 139.774 319.803L137.366 317.185L137.03 316.793ZM134.146 318.963C134.146 318.357 134.314 317.801 134.65 317.297C134.996 316.793 135.528 316.383 136.246 316.065L136.47 315.967C136.125 315.342 135.952 314.721 135.952 314.105C135.952 313.601 136.064 313.163 136.288 312.789C136.512 312.407 136.816 312.117 137.198 311.921C137.581 311.716 138.015 311.613 138.5 311.613C139.21 311.613 139.784 311.805 140.222 312.187C140.67 312.57 140.894 313.074 140.894 313.699C140.894 314.698 140.213 315.524 138.85 316.177L138.444 316.373L138.598 316.541L140.74 318.879C141.226 318.189 141.468 317.409 141.468 316.541C141.468 316.215 141.436 315.907 141.37 315.617L142.658 315.729C142.686 315.935 142.7 316.149 142.7 316.373C142.7 316.971 142.593 317.559 142.378 318.137C142.173 318.707 141.879 319.229 141.496 319.705L143.274 321.637V321.651H141.468L140.53 320.629C140.073 320.993 139.574 321.273 139.032 321.469C138.491 321.665 137.926 321.763 137.338 321.763C136.704 321.763 136.144 321.647 135.658 321.413C135.173 321.18 134.8 320.853 134.538 320.433C134.277 320.004 134.146 319.514 134.146 318.963ZM137.338 314.077C137.338 314.553 137.497 315.043 137.814 315.547L138.066 315.435C138.561 315.202 138.939 314.95 139.2 314.679C139.462 314.409 139.592 314.11 139.592 313.783C139.592 313.485 139.49 313.237 139.284 313.041C139.088 312.836 138.832 312.733 138.514 312.733C138.169 312.733 137.884 312.855 137.66 313.097C137.446 313.34 137.338 313.667 137.338 314.077ZM147.987 314.693H149.401V321.651H147.987V314.693ZM147.721 312.565C147.721 312.304 147.814 312.08 148.001 311.893C148.197 311.707 148.43 311.613 148.701 311.613C148.962 311.613 149.186 311.707 149.373 311.893C149.559 312.08 149.653 312.304 149.653 312.565C149.653 312.827 149.559 313.051 149.373 313.237C149.195 313.415 148.971 313.503 148.701 313.503C148.43 313.503 148.197 313.415 148.001 313.237C147.814 313.06 147.721 312.836 147.721 312.565ZM151.172 314.693H152.558V315.771C153.165 314.978 153.949 314.581 154.91 314.581C155.676 314.581 156.282 314.824 156.73 315.309C157.188 315.785 157.416 316.429 157.416 317.241V321.651H156.002V317.661C156.002 317.083 155.853 316.644 155.554 316.345C155.265 316.037 154.882 315.883 154.406 315.883C153.856 315.883 153.412 316.079 153.076 316.471C152.75 316.854 152.586 317.358 152.586 317.983V321.651H151.172V314.693ZM161.453 321.721C160.8 321.721 160.324 321.567 160.025 321.259C159.736 320.951 159.591 320.508 159.591 319.929V315.925H158.555V314.693H159.591V313.195L161.019 312.747V314.693H162.629V315.925H161.019V319.719C161.019 320.205 161.243 320.447 161.691 320.447C161.915 320.447 162.209 320.377 162.573 320.237L162.881 321.399C162.442 321.614 161.966 321.721 161.453 321.721ZM167.243 321.763C166.543 321.763 165.927 321.614 165.395 321.315C164.863 321.017 164.453 320.601 164.163 320.069C163.874 319.537 163.729 318.931 163.729 318.249C163.729 317.549 163.874 316.924 164.163 316.373C164.462 315.813 164.873 315.375 165.395 315.057C165.927 314.74 166.529 314.581 167.201 314.581C167.845 314.581 168.41 314.731 168.895 315.029C169.39 315.319 169.773 315.729 170.043 316.261C170.323 316.784 170.463 317.381 170.463 318.053C170.463 318.221 170.454 318.38 170.435 318.529H165.143C165.209 319.127 165.433 319.607 165.815 319.971C166.207 320.326 166.693 320.503 167.271 320.503C167.738 320.503 168.144 320.382 168.489 320.139C168.844 319.897 169.087 319.579 169.217 319.187L170.449 319.635C170.263 320.261 169.88 320.774 169.301 321.175C168.723 321.567 168.037 321.763 167.243 321.763ZM169.035 317.521C169.026 317.017 168.844 316.611 168.489 316.303C168.135 315.995 167.687 315.841 167.145 315.841C166.632 315.841 166.198 315.991 165.843 316.289C165.498 316.579 165.274 316.989 165.171 317.521H169.035ZM171.913 314.693H173.299V315.855C173.504 315.454 173.77 315.141 174.097 314.917C174.433 314.693 174.82 314.581 175.259 314.581C175.623 314.581 175.931 314.651 176.183 314.791L175.749 316.177C175.515 316.065 175.24 316.009 174.923 316.009C174.428 316.009 174.036 316.173 173.747 316.499C173.467 316.817 173.327 317.307 173.327 317.969V321.651H171.913V314.693ZM176.545 314.693H178.015L179.975 319.803L181.949 314.693H183.377L180.703 321.651H179.205L176.545 314.693ZM184.463 314.693H185.877V321.651H184.463V314.693ZM184.197 312.565C184.197 312.304 184.291 312.08 184.477 311.893C184.673 311.707 184.907 311.613 185.177 311.613C185.439 311.613 185.663 311.707 185.849 311.893C186.036 312.08 186.129 312.304 186.129 312.565C186.129 312.827 186.036 313.051 185.849 313.237C185.672 313.415 185.448 313.503 185.177 313.503C184.907 313.503 184.673 313.415 184.477 313.237C184.291 313.06 184.197 312.836 184.197 312.565ZM190.841 321.763C190.141 321.763 189.525 321.614 188.993 321.315C188.461 321.017 188.05 320.601 187.761 320.069C187.472 319.537 187.327 318.931 187.327 318.249C187.327 317.549 187.472 316.924 187.761 316.373C188.06 315.813 188.47 315.375 188.993 315.057C189.525 314.74 190.127 314.581 190.799 314.581C191.443 314.581 192.008 314.731 192.493 315.029C192.988 315.319 193.37 315.729 193.641 316.261C193.921 316.784 194.061 317.381 194.061 318.053C194.061 318.221 194.052 318.38 194.033 318.529H188.741C188.806 319.127 189.03 319.607 189.413 319.971C189.805 320.326 190.29 320.503 190.869 320.503C191.336 320.503 191.742 320.382 192.087 320.139C192.442 319.897 192.684 319.579 192.815 319.187L194.047 319.635C193.86 320.261 193.478 320.774 192.899 321.175C192.32 321.567 191.634 321.763 190.841 321.763ZM192.633 317.521C192.624 317.017 192.442 316.611 192.087 316.303C191.732 315.995 191.284 315.841 190.743 315.841C190.23 315.841 189.796 315.991 189.441 316.289C189.096 316.579 188.872 316.989 188.769 317.521H192.633ZM194.619 314.693H196.047L197.559 319.649L199.225 314.693H200.219L201.885 319.663L203.411 314.693H204.755L202.599 321.651H201.171L199.687 317.255L198.189 321.651H196.761L194.619 314.693ZM208.16 321.763C207.376 321.763 206.732 321.586 206.228 321.231C205.733 320.867 205.444 320.349 205.36 319.677L206.648 319.299C206.704 319.71 206.872 320.023 207.152 320.237C207.432 320.452 207.791 320.559 208.23 320.559C208.612 320.559 208.916 320.485 209.14 320.335C209.364 320.186 209.476 319.971 209.476 319.691C209.476 319.243 209.186 318.968 208.608 318.865L207.292 318.585C206.153 318.343 205.584 317.736 205.584 316.765C205.584 316.093 205.836 315.561 206.34 315.169C206.844 314.777 207.492 314.581 208.286 314.581C209.051 314.581 209.686 314.773 210.19 315.155C210.694 315.538 210.992 316.065 211.086 316.737L209.882 317.101C209.816 316.672 209.648 316.345 209.378 316.121C209.107 315.897 208.734 315.785 208.258 315.785C207.856 315.785 207.544 315.865 207.32 316.023C207.096 316.173 206.984 316.383 206.984 316.653C206.984 317.073 207.264 317.335 207.824 317.437L209.028 317.689C209.616 317.801 210.068 318.021 210.386 318.347C210.712 318.674 210.876 319.099 210.876 319.621C210.876 320.284 210.628 320.807 210.134 321.189C209.639 321.572 208.981 321.763 208.16 321.763Z" fill="black"/> <path d="M253 395.151H94.0641H92L172.5 417.133L253 395.151Z" fill="#E0DAC4"/> <rect width="191" height="77" transform="translate(77 488.133)" fill="#F6F5EE"/> <path d="M125.797 520.371H130.783C132.283 520.371 133.423 520.713 134.203 521.397C134.995 522.081 135.391 523.041 135.391 524.277C135.391 525.513 135.013 526.467 134.257 527.139C133.501 527.811 132.343 528.147 130.783 528.147H127.633V533.133H125.797V520.371ZM130.837 526.455C131.725 526.455 132.391 526.275 132.835 525.915C133.279 525.555 133.501 525.009 133.501 524.277C133.501 522.801 132.613 522.063 130.837 522.063H127.633V526.455H130.837ZM137.16 524.187H138.942V525.681C139.206 525.165 139.548 524.763 139.968 524.475C140.4 524.187 140.898 524.043 141.462 524.043C141.93 524.043 142.326 524.133 142.65 524.313L142.092 526.095C141.792 525.951 141.438 525.879 141.03 525.879C140.394 525.879 139.89 526.089 139.518 526.509C139.158 526.917 138.978 527.547 138.978 528.399V533.133H137.16V524.187ZM147.486 533.277C146.586 533.277 145.794 533.085 145.11 532.701C144.426 532.317 143.898 531.783 143.526 531.099C143.154 530.415 142.968 529.635 142.968 528.759C142.968 527.859 143.154 527.055 143.526 526.347C143.91 525.627 144.438 525.063 145.11 524.655C145.794 524.247 146.568 524.043 147.432 524.043C148.26 524.043 148.986 524.235 149.61 524.619C150.246 524.991 150.738 525.519 151.086 526.203C151.446 526.875 151.626 527.643 151.626 528.507C151.626 528.723 151.614 528.927 151.59 529.119H144.786C144.87 529.887 145.158 530.505 145.65 530.973C146.154 531.429 146.778 531.657 147.522 531.657C148.122 531.657 148.644 531.501 149.088 531.189C149.544 530.877 149.856 530.469 150.024 529.965L151.608 530.541C151.368 531.345 150.876 532.005 150.132 532.521C149.388 533.025 148.506 533.277 147.486 533.277ZM149.79 527.823C149.778 527.175 149.544 526.653 149.088 526.257C148.632 525.861 148.056 525.663 147.36 525.663C146.7 525.663 146.142 525.855 145.686 526.239C145.242 526.611 144.954 527.139 144.822 527.823H149.79ZM153.49 524.187H155.272V525.555C155.668 525.075 156.124 524.703 156.64 524.439C157.156 524.175 157.714 524.043 158.314 524.043C159.082 524.043 159.784 524.241 160.42 524.637C161.056 525.033 161.554 525.585 161.914 526.293C162.286 526.989 162.472 527.781 162.472 528.669C162.472 529.557 162.286 530.355 161.914 531.063C161.554 531.759 161.05 532.305 160.402 532.701C159.766 533.085 159.058 533.277 158.278 533.277C157.69 533.277 157.138 533.157 156.622 532.917C156.118 532.665 155.68 532.335 155.308 531.927V537.057H153.49V524.187ZM155.308 528.705C155.308 529.593 155.548 530.307 156.028 530.847C156.52 531.387 157.15 531.657 157.918 531.657C158.422 531.657 158.878 531.537 159.286 531.297C159.706 531.057 160.036 530.715 160.276 530.271C160.516 529.815 160.636 529.287 160.636 528.687C160.636 528.099 160.516 527.577 160.276 527.121C160.048 526.653 159.73 526.293 159.322 526.041C158.914 525.777 158.464 525.645 157.972 525.645C157.468 525.645 157.012 525.777 156.604 526.041C156.208 526.293 155.89 526.653 155.65 527.121C155.422 527.577 155.308 528.105 155.308 528.705ZM168.625 524.187H170.407V525.555C170.803 525.075 171.259 524.703 171.775 524.439C172.291 524.175 172.849 524.043 173.449 524.043C174.217 524.043 174.919 524.241 175.555 524.637C176.191 525.033 176.689 525.585 177.049 526.293C177.421 526.989 177.607 527.781 177.607 528.669C177.607 529.557 177.421 530.355 177.049 531.063C176.689 531.759 176.185 532.305 175.537 532.701C174.901 533.085 174.193 533.277 173.413 533.277C172.825 533.277 172.273 533.157 171.757 532.917C171.253 532.665 170.815 532.335 170.443 531.927V537.057H168.625V524.187ZM170.443 528.705C170.443 529.593 170.683 530.307 171.163 530.847C171.655 531.387 172.285 531.657 173.053 531.657C173.557 531.657 174.013 531.537 174.421 531.297C174.841 531.057 175.171 530.715 175.411 530.271C175.651 529.815 175.771 529.287 175.771 528.687C175.771 528.099 175.651 527.577 175.411 527.121C175.183 526.653 174.865 526.293 174.457 526.041C174.049 525.777 173.599 525.645 173.107 525.645C172.603 525.645 172.147 525.777 171.739 526.041C171.343 526.293 171.025 526.653 170.785 527.121C170.557 527.577 170.443 528.105 170.443 528.705ZM183.574 533.277C182.674 533.277 181.882 533.085 181.198 532.701C180.514 532.317 179.986 531.783 179.614 531.099C179.242 530.415 179.056 529.635 179.056 528.759C179.056 527.859 179.242 527.055 179.614 526.347C179.998 525.627 180.526 525.063 181.198 524.655C181.882 524.247 182.656 524.043 183.52 524.043C184.348 524.043 185.074 524.235 185.698 524.619C186.334 524.991 186.826 525.519 187.174 526.203C187.534 526.875 187.714 527.643 187.714 528.507C187.714 528.723 187.702 528.927 187.678 529.119H180.874C180.958 529.887 181.246 530.505 181.738 530.973C182.242 531.429 182.866 531.657 183.61 531.657C184.21 531.657 184.732 531.501 185.176 531.189C185.632 530.877 185.944 530.469 186.112 529.965L187.696 530.541C187.456 531.345 186.964 532.005 186.22 532.521C185.476 533.025 184.594 533.277 183.574 533.277ZM185.878 527.823C185.866 527.175 185.632 526.653 185.176 526.257C184.72 525.861 184.144 525.663 183.448 525.663C182.788 525.663 182.23 525.855 181.774 526.239C181.33 526.611 181.042 527.139 180.91 527.823H185.878ZM189.578 524.187H191.36V525.681C191.624 525.165 191.966 524.763 192.386 524.475C192.818 524.187 193.316 524.043 193.88 524.043C194.348 524.043 194.744 524.133 195.068 524.313L194.51 526.095C194.21 525.951 193.856 525.879 193.448 525.879C192.812 525.879 192.308 526.089 191.936 526.509C191.576 526.917 191.396 527.547 191.396 528.399V533.133H189.578V524.187ZM196.363 524.187H198.181V533.133H196.363V524.187ZM196.021 521.451C196.021 521.115 196.141 520.827 196.381 520.587C196.633 520.347 196.933 520.227 197.281 520.227C197.617 520.227 197.905 520.347 198.145 520.587C198.385 520.827 198.505 521.115 198.505 521.451C198.505 521.787 198.385 522.075 198.145 522.315C197.917 522.543 197.629 522.657 197.281 522.657C196.933 522.657 196.633 522.543 196.381 522.315C196.141 522.087 196.021 521.799 196.021 521.451ZM204.617 533.277C203.729 533.277 202.937 533.079 202.241 532.683C201.545 532.287 201.005 531.741 200.621 531.045C200.237 530.337 200.045 529.539 200.045 528.651C200.045 527.763 200.237 526.971 200.621 526.275C201.017 525.579 201.563 525.033 202.259 524.637C202.955 524.241 203.741 524.043 204.617 524.043C205.493 524.043 206.279 524.241 206.975 524.637C207.671 525.033 208.217 525.579 208.613 526.275C209.009 526.971 209.207 527.763 209.207 528.651C209.207 529.539 209.015 530.337 208.631 531.045C208.247 531.741 207.707 532.287 207.011 532.683C206.315 533.079 205.517 533.277 204.617 533.277ZM201.863 528.651C201.863 529.527 202.121 530.247 202.637 530.811C203.153 531.363 203.813 531.639 204.617 531.639C205.421 531.639 206.081 531.363 206.597 530.811C207.113 530.247 207.371 529.527 207.371 528.651C207.371 528.087 207.251 527.577 207.011 527.121C206.783 526.665 206.459 526.311 206.039 526.059C205.619 525.807 205.145 525.681 204.617 525.681C204.089 525.681 203.615 525.807 203.195 526.059C202.775 526.311 202.445 526.665 202.205 527.121C201.977 527.577 201.863 528.087 201.863 528.651ZM214.837 533.277C214.069 533.277 213.367 533.091 212.731 532.719C212.107 532.335 211.609 531.795 211.237 531.099C210.865 530.403 210.679 529.599 210.679 528.687C210.679 527.775 210.865 526.971 211.237 526.275C211.609 525.567 212.113 525.021 212.749 524.637C213.397 524.241 214.117 524.043 214.909 524.043C215.509 524.043 216.055 524.163 216.547 524.403C217.039 524.631 217.465 524.943 217.825 525.339V520.371H219.661V533.133H217.879V531.729C217.039 532.761 216.025 533.277 214.837 533.277ZM212.497 528.687C212.497 529.275 212.611 529.797 212.839 530.253C213.079 530.697 213.397 531.045 213.793 531.297C214.201 531.537 214.651 531.657 215.143 531.657C215.647 531.657 216.103 531.525 216.511 531.261C216.931 530.997 217.255 530.637 217.483 530.181C217.723 529.713 217.843 529.197 217.843 528.633C217.843 528.069 217.729 527.559 217.501 527.103C217.273 526.647 216.955 526.293 216.547 526.041C216.139 525.777 215.683 525.645 215.179 525.645C214.687 525.645 214.237 525.771 213.829 526.023C213.421 526.275 213.097 526.635 212.857 527.103C212.617 527.559 212.497 528.087 212.497 528.687Z" fill="black"/> <path d="M268 565.133H79.4487H77L172.5 587.133L268 565.133Z" fill="#F6F5EE"/> <rect width="179" height="191" transform="translate(268 587.133) rotate(90)" fill="#B92D24"/> <path d="M91.2046 673.777C90.3646 673.777 89.6266 673.639 88.9906 673.363C88.3666 673.075 87.8866 672.673 87.5506 672.157C87.2146 671.629 87.0466 671.023 87.0466 670.339C87.0466 669.667 87.2266 669.067 87.5866 668.539C87.9466 668.011 88.4506 667.609 89.0986 667.333C88.5226 667.057 88.0786 666.679 87.7666 666.199C87.4546 665.719 87.2986 665.179 87.2986 664.579C87.2986 663.955 87.4606 663.397 87.7846 662.905C88.1206 662.413 88.5826 662.029 89.1706 661.753C89.7586 661.477 90.4366 661.339 91.2046 661.339C91.9606 661.339 92.6326 661.477 93.2206 661.753C93.8086 662.029 94.2646 662.413 94.5886 662.905C94.9246 663.397 95.0926 663.955 95.0926 664.579C95.0926 665.191 94.9366 665.737 94.6246 666.217C94.3126 666.685 93.8686 667.057 93.2926 667.333C93.9406 667.621 94.4446 668.029 94.8046 668.557C95.1646 669.073 95.3446 669.667 95.3446 670.339C95.3446 671.023 95.1766 671.629 94.8406 672.157C94.5046 672.673 94.0246 673.075 93.4006 673.363C92.7766 673.639 92.0446 673.777 91.2046 673.777ZM88.9186 670.123C88.9186 670.699 89.1346 671.173 89.5666 671.545C89.9986 671.905 90.5446 672.085 91.2046 672.085C91.8646 672.085 92.4046 671.905 92.8246 671.545C93.2566 671.173 93.4726 670.699 93.4726 670.123C93.4726 669.547 93.2626 669.073 92.8426 668.701C92.4226 668.329 91.8766 668.143 91.2046 668.143C90.5326 668.143 89.9806 668.329 89.5486 668.701C89.1286 669.073 88.9186 669.547 88.9186 670.123ZM89.1706 664.777C89.1706 665.293 89.3566 665.713 89.7286 666.037C90.1126 666.361 90.6046 666.523 91.2046 666.523C91.7926 666.523 92.2726 666.361 92.6446 666.037C93.0286 665.713 93.2206 665.293 93.2206 664.777C93.2206 664.261 93.0346 663.841 92.6626 663.517C92.2906 663.193 91.8046 663.031 91.2046 663.031C90.6046 663.031 90.1126 663.193 89.7286 663.517C89.3566 663.841 89.1706 664.261 89.1706 664.777ZM97.0301 667.945H102.016V669.439H97.0301V667.945ZM102.923 664.687H104.759L106.703 671.059L108.845 664.687H110.123L112.265 671.077L114.227 664.687H115.955L113.183 673.633H111.347L109.439 667.981L107.513 673.633H105.677L102.923 664.687ZM121.181 673.777C120.281 673.777 119.489 673.585 118.805 673.201C118.121 672.817 117.593 672.283 117.221 671.599C116.849 670.915 116.663 670.135 116.663 669.259C116.663 668.359 116.849 667.555 117.221 666.847C117.605 666.127 118.133 665.563 118.805 665.155C119.489 664.747 120.263 664.543 121.127 664.543C121.955 664.543 122.681 664.735 123.305 665.119C123.941 665.491 124.433 666.019 124.781 666.703C125.141 667.375 125.321 668.143 125.321 669.007C125.321 669.223 125.309 669.427 125.285 669.619H118.481C118.565 670.387 118.853 671.005 119.345 671.473C119.849 671.929 120.473 672.157 121.217 672.157C121.817 672.157 122.339 672.001 122.783 671.689C123.239 671.377 123.551 670.969 123.719 670.465L125.303 671.041C125.063 671.845 124.571 672.505 123.827 673.021C123.083 673.525 122.201 673.777 121.181 673.777ZM123.485 668.323C123.473 667.675 123.239 667.153 122.783 666.757C122.327 666.361 121.751 666.163 121.055 666.163C120.395 666.163 119.837 666.355 119.381 666.739C118.937 667.111 118.649 667.639 118.517 668.323H123.485ZM131.288 673.777C130.388 673.777 129.596 673.585 128.912 673.201C128.228 672.817 127.7 672.283 127.328 671.599C126.956 670.915 126.77 670.135 126.77 669.259C126.77 668.359 126.956 667.555 127.328 666.847C127.712 666.127 128.24 665.563 128.912 665.155C129.596 664.747 130.37 664.543 131.234 664.543C132.062 664.543 132.788 664.735 133.412 665.119C134.048 665.491 134.54 666.019 134.888 666.703C135.248 667.375 135.428 668.143 135.428 669.007C135.428 669.223 135.416 669.427 135.392 669.619H128.588C128.672 670.387 128.96 671.005 129.452 671.473C129.956 671.929 130.58 672.157 131.324 672.157C131.924 672.157 132.446 672.001 132.89 671.689C133.346 671.377 133.658 670.969 133.826 670.465L135.41 671.041C135.17 671.845 134.678 672.505 133.934 673.021C133.19 673.525 132.308 673.777 131.288 673.777ZM133.592 668.323C133.58 667.675 133.346 667.153 132.89 666.757C132.434 666.361 131.858 666.163 131.162 666.163C130.502 666.163 129.944 666.355 129.488 666.739C129.044 667.111 128.756 667.639 128.624 668.323H133.592ZM137.292 660.871H139.11V668.269L143.07 664.687H145.536L142.152 667.747L145.356 673.633H143.286L140.712 668.935L139.11 670.393V673.633H137.292V660.871ZM155.967 673.777C154.767 673.777 153.753 673.267 152.925 672.247V673.633H151.143V660.871H152.961V665.893C153.333 665.473 153.765 665.143 154.257 664.903C154.749 664.663 155.295 664.543 155.895 664.543C156.675 664.543 157.389 664.741 158.037 665.137C158.685 665.521 159.195 666.067 159.567 666.775C159.939 667.471 160.125 668.275 160.125 669.187C160.125 670.087 159.939 670.891 159.567 671.599C159.195 672.295 158.691 672.835 158.055 673.219C157.419 673.591 156.723 673.777 155.967 673.777ZM152.961 669.133C152.961 669.697 153.075 670.213 153.303 670.681C153.543 671.137 153.867 671.497 154.275 671.761C154.683 672.025 155.139 672.157 155.643 672.157C156.135 672.157 156.579 672.037 156.975 671.797C157.383 671.545 157.701 671.197 157.929 670.753C158.169 670.297 158.289 669.775 158.289 669.187C158.289 668.587 158.169 668.059 157.929 667.603C157.689 667.135 157.365 666.775 156.957 666.523C156.549 666.271 156.099 666.145 155.607 666.145C155.103 666.145 154.647 666.277 154.239 666.541C153.843 666.793 153.531 667.147 153.303 667.603C153.075 668.059 152.961 668.569 152.961 669.133ZM162.115 660.871H163.951V673.633H162.115V660.871ZM170.541 673.777C169.653 673.777 168.861 673.579 168.165 673.183C167.469 672.787 166.929 672.241 166.545 671.545C166.161 670.837 165.969 670.039 165.969 669.151C165.969 668.263 166.161 667.471 166.545 666.775C166.941 666.079 167.487 665.533 168.183 665.137C168.879 664.741 169.665 664.543 170.541 664.543C171.417 664.543 172.203 664.741 172.899 665.137C173.595 665.533 174.141 666.079 174.537 666.775C174.933 667.471 175.131 668.263 175.131 669.151C175.131 670.039 174.939 670.837 174.555 671.545C174.171 672.241 173.631 672.787 172.935 673.183C172.239 673.579 171.441 673.777 170.541 673.777ZM167.787 669.151C167.787 670.027 168.045 670.747 168.561 671.311C169.077 671.863 169.737 672.139 170.541 672.139C171.345 672.139 172.005 671.863 172.521 671.311C173.037 670.747 173.295 670.027 173.295 669.151C173.295 668.587 173.175 668.077 172.935 667.621C172.707 667.165 172.383 666.811 171.963 666.559C171.543 666.307 171.069 666.181 170.541 666.181C170.013 666.181 169.539 666.307 169.119 666.559C168.699 666.811 168.369 667.165 168.129 667.621C167.901 668.077 167.787 668.587 167.787 669.151ZM180.816 677.701C179.484 677.701 178.398 677.365 177.558 676.693C176.73 676.021 176.262 675.049 176.154 673.777L177.792 673.309C177.84 674.197 178.128 674.881 178.656 675.361C179.196 675.841 179.916 676.081 180.816 676.081C181.728 676.081 182.454 675.829 182.994 675.325C183.534 674.833 183.804 674.155 183.804 673.291V672.139C183 673.159 181.986 673.669 180.762 673.669C179.994 673.669 179.292 673.483 178.656 673.111C178.032 672.739 177.534 672.211 177.162 671.527C176.79 670.843 176.604 670.051 176.604 669.151C176.604 668.251 176.79 667.453 177.162 666.757C177.534 666.061 178.038 665.521 178.674 665.137C179.322 664.741 180.042 664.543 180.834 664.543C181.422 664.543 181.968 664.663 182.472 664.903C182.976 665.143 183.408 665.473 183.768 665.893V664.687H185.586V673.291C185.586 674.683 185.16 675.763 184.308 676.531C183.456 677.311 182.292 677.701 180.816 677.701ZM178.422 669.133C178.422 669.721 178.536 670.237 178.764 670.681C179.004 671.125 179.322 671.473 179.718 671.725C180.126 671.965 180.576 672.085 181.068 672.085C181.572 672.085 182.028 671.959 182.436 671.707C182.856 671.443 183.18 671.083 183.408 670.627C183.648 670.159 183.768 669.643 183.768 669.079C183.768 668.527 183.654 668.029 183.426 667.585C183.198 667.129 182.88 666.775 182.472 666.523C182.064 666.271 181.614 666.145 181.122 666.145C180.63 666.145 180.174 666.271 179.754 666.523C179.346 666.763 179.022 667.111 178.782 667.567C178.542 668.023 178.422 668.545 178.422 669.133ZM187.54 667.945H192.526V669.439H187.54V667.945ZM199.332 673.777C198.132 673.777 197.118 673.267 196.29 672.247V673.633H194.508V660.871H196.326V665.893C196.698 665.473 197.13 665.143 197.622 664.903C198.114 664.663 198.66 664.543 199.26 664.543C200.04 664.543 200.754 664.741 201.402 665.137C202.05 665.521 202.56 666.067 202.932 666.775C203.304 667.471 203.49 668.275 203.49 669.187C203.49 670.087 203.304 670.891 202.932 671.599C202.56 672.295 202.056 672.835 201.42 673.219C200.784 673.591 200.088 673.777 199.332 673.777ZM196.326 669.133C196.326 669.697 196.44 670.213 196.668 670.681C196.908 671.137 197.232 671.497 197.64 671.761C198.048 672.025 198.504 672.157 199.008 672.157C199.5 672.157 199.944 672.037 200.34 671.797C200.748 671.545 201.066 671.197 201.294 670.753C201.534 670.297 201.654 669.775 201.654 669.187C201.654 668.587 201.534 668.059 201.294 667.603C201.054 667.135 200.73 666.775 200.322 666.523C199.914 666.271 199.464 666.145 198.972 666.145C198.468 666.145 198.012 666.277 197.604 666.541C197.208 666.793 196.896 667.147 196.668 667.603C196.44 668.059 196.326 668.569 196.326 669.133ZM208.378 673.777C207.43 673.777 206.674 673.471 206.11 672.859C205.546 672.235 205.264 671.389 205.264 670.321V664.687H207.082V669.817C207.082 670.573 207.244 671.143 207.568 671.527C207.904 671.911 208.378 672.103 208.99 672.103C209.698 672.103 210.262 671.851 210.682 671.347C211.114 670.831 211.33 670.135 211.33 669.259V664.687H213.148V673.633H211.366V672.193C210.598 673.249 209.602 673.777 208.378 673.777ZM215.444 664.687H217.262V673.633H215.444V664.687ZM215.102 661.951C215.102 661.615 215.222 661.327 215.462 661.087C215.714 660.847 216.014 660.727 216.362 660.727C216.698 660.727 216.986 660.847 217.226 661.087C217.466 661.327 217.586 661.615 217.586 661.951C217.586 662.287 217.466 662.575 217.226 662.815C216.998 663.043 216.71 663.157 216.362 663.157C216.014 663.157 215.714 663.043 215.462 662.815C215.222 662.587 215.102 662.299 215.102 661.951ZM219.666 660.871H221.502V673.633H219.666V660.871ZM227.678 673.777C226.91 673.777 226.208 673.591 225.572 673.219C224.948 672.835 224.45 672.295 224.078 671.599C223.706 670.903 223.52 670.099 223.52 669.187C223.52 668.275 223.706 667.471 224.078 666.775C224.45 666.067 224.954 665.521 225.59 665.137C226.238 664.741 226.958 664.543 227.75 664.543C228.35 664.543 228.896 664.663 229.388 664.903C229.88 665.131 230.306 665.443 230.666 665.839V660.871H232.502V673.633H230.72V672.229C229.88 673.261 228.866 673.777 227.678 673.777ZM225.338 669.187C225.338 669.775 225.452 670.297 225.68 670.753C225.92 671.197 226.238 671.545 226.634 671.797C227.042 672.037 227.492 672.157 227.984 672.157C228.488 672.157 228.944 672.025 229.352 671.761C229.772 671.497 230.096 671.137 230.324 670.681C230.564 670.213 230.684 669.697 230.684 669.133C230.684 668.569 230.57 668.059 230.342 667.603C230.114 667.147 229.796 666.793 229.388 666.541C228.98 666.277 228.524 666.145 228.02 666.145C227.528 666.145 227.078 666.271 226.67 666.523C226.262 666.775 225.938 667.135 225.698 667.603C225.458 668.059 225.338 668.587 225.338 669.187ZM234.78 664.687H236.598V673.633H234.78V664.687ZM234.438 661.951C234.438 661.615 234.558 661.327 234.798 661.087C235.05 660.847 235.35 660.727 235.698 660.727C236.034 660.727 236.322 660.847 236.562 661.087C236.802 661.327 236.922 661.615 236.922 661.951C236.922 662.287 236.802 662.575 236.562 662.815C236.334 663.043 236.046 663.157 235.698 663.157C235.35 663.157 235.05 663.043 234.798 662.815C234.558 662.587 234.438 662.299 234.438 661.951ZM238.876 664.687H240.658V666.073C241.438 665.053 242.446 664.543 243.682 664.543C244.666 664.543 245.446 664.855 246.022 665.479C246.61 666.091 246.904 666.919 246.904 667.963V673.633H245.086V668.503C245.086 667.759 244.894 667.195 244.51 666.811C244.138 666.415 243.646 666.217 243.034 666.217C242.326 666.217 241.756 666.469 241.324 666.973C240.904 667.465 240.694 668.113 240.694 668.917V673.633H238.876V664.687ZM252.922 677.701C251.59 677.701 250.504 677.365 249.664 676.693C248.836 676.021 248.368 675.049 248.26 673.777L249.898 673.309C249.946 674.197 250.234 674.881 250.762 675.361C251.302 675.841 252.022 676.081 252.922 676.081C253.834 676.081 254.56 675.829 255.1 675.325C255.64 674.833 255.91 674.155 255.91 673.291V672.139C255.106 673.159 254.092 673.669 252.868 673.669C252.1 673.669 251.398 673.483 250.762 673.111C250.138 672.739 249.64 672.211 249.268 671.527C248.896 670.843 248.71 670.051 248.71 669.151C248.71 668.251 248.896 667.453 249.268 666.757C249.64 666.061 250.144 665.521 250.78 665.137C251.428 664.741 252.148 664.543 252.94 664.543C253.528 664.543 254.074 664.663 254.578 664.903C255.082 665.143 255.514 665.473 255.874 665.893V664.687H257.692V673.291C257.692 674.683 257.266 675.763 256.414 676.531C255.562 677.311 254.398 677.701 252.922 677.701ZM250.528 669.133C250.528 669.721 250.642 670.237 250.87 670.681C251.11 671.125 251.428 671.473 251.824 671.725C252.232 671.965 252.682 672.085 253.174 672.085C253.678 672.085 254.134 671.959 254.542 671.707C254.962 671.443 255.286 671.083 255.514 670.627C255.754 670.159 255.874 669.643 255.874 669.079C255.874 668.527 255.76 668.029 255.532 667.585C255.304 667.129 254.986 666.775 254.578 666.523C254.17 666.271 253.72 666.145 253.228 666.145C252.736 666.145 252.28 666.271 251.86 666.523C251.452 666.763 251.128 667.111 250.888 667.567C250.648 668.023 250.528 668.545 250.528 669.133ZM137.204 684.687H139.022V693.633H137.204V684.687ZM136.862 681.951C136.862 681.615 136.982 681.327 137.222 681.087C137.474 680.847 137.774 680.727 138.122 680.727C138.458 680.727 138.746 680.847 138.986 681.087C139.226 681.327 139.346 681.615 139.346 681.951C139.346 682.287 139.226 682.575 138.986 682.815C138.758 683.043 138.47 683.157 138.122 683.157C137.774 683.157 137.474 683.043 137.222 682.815C136.982 682.587 136.862 682.299 136.862 681.951ZM141.299 684.687H143.081V686.073C143.861 685.053 144.869 684.543 146.105 684.543C147.089 684.543 147.869 684.855 148.445 685.479C149.033 686.091 149.327 686.919 149.327 687.963V693.633H147.509V688.503C147.509 687.759 147.317 687.195 146.933 686.811C146.561 686.415 146.069 686.217 145.457 686.217C144.749 686.217 144.179 686.469 143.747 686.973C143.327 687.465 143.117 688.113 143.117 688.917V693.633H141.299V684.687ZM154.518 693.723C153.678 693.723 153.066 693.525 152.682 693.129C152.31 692.733 152.124 692.163 152.124 691.419V686.271H150.792V684.687H152.124V682.761L153.96 682.185V684.687H156.03V686.271H153.96V691.149C153.96 691.773 154.248 692.085 154.824 692.085C155.112 692.085 155.49 691.995 155.958 691.815L156.354 693.309C155.79 693.585 155.178 693.723 154.518 693.723ZM161.962 693.777C161.062 693.777 160.27 693.585 159.586 693.201C158.902 692.817 158.374 692.283 158.002 691.599C157.63 690.915 157.444 690.135 157.444 689.259C157.444 688.359 157.63 687.555 158.002 686.847C158.386 686.127 158.914 685.563 159.586 685.155C160.27 684.747 161.044 684.543 161.908 684.543C162.736 684.543 163.462 684.735 164.086 685.119C164.722 685.491 165.214 686.019 165.562 686.703C165.922 687.375 166.102 688.143 166.102 689.007C166.102 689.223 166.09 689.427 166.066 689.619H159.262C159.346 690.387 159.634 691.005 160.126 691.473C160.63 691.929 161.254 692.157 161.998 692.157C162.598 692.157 163.12 692.001 163.564 691.689C164.02 691.377 164.332 690.969 164.5 690.465L166.084 691.041C165.844 691.845 165.352 692.505 164.608 693.021C163.864 693.525 162.982 693.777 161.962 693.777ZM164.266 688.323C164.254 687.675 164.02 687.153 163.564 686.757C163.108 686.361 162.532 686.163 161.836 686.163C161.176 686.163 160.618 686.355 160.162 686.739C159.718 687.111 159.43 687.639 159.298 688.323H164.266ZM167.965 684.687H169.747V686.073C170.527 685.053 171.535 684.543 172.771 684.543C173.755 684.543 174.535 684.855 175.111 685.479C175.699 686.091 175.993 686.919 175.993 687.963V693.633H174.175V688.503C174.175 687.759 173.983 687.195 173.599 686.811C173.227 686.415 172.735 686.217 172.123 686.217C171.415 686.217 170.845 686.469 170.413 686.973C169.993 687.465 169.783 688.113 169.783 688.917V693.633H167.965V684.687ZM181.382 693.777C180.374 693.777 179.546 693.549 178.898 693.093C178.262 692.625 177.89 691.959 177.782 691.095L179.438 690.609C179.51 691.137 179.726 691.539 180.086 691.815C180.446 692.091 180.908 692.229 181.472 692.229C181.964 692.229 182.354 692.133 182.642 691.941C182.93 691.749 183.074 691.473 183.074 691.113C183.074 690.537 182.702 690.183 181.958 690.051L180.266 689.691C178.802 689.379 178.07 688.599 178.07 687.351C178.07 686.487 178.394 685.803 179.042 685.299C179.69 684.795 180.524 684.543 181.544 684.543C182.528 684.543 183.344 684.789 183.992 685.281C184.64 685.773 185.024 686.451 185.144 687.315L183.596 687.783C183.512 687.231 183.296 686.811 182.948 686.523C182.6 686.235 182.12 686.091 181.508 686.091C180.992 686.091 180.59 686.193 180.302 686.397C180.014 686.589 179.87 686.859 179.87 687.207C179.87 687.747 180.23 688.083 180.95 688.215L182.498 688.539C183.254 688.683 183.836 688.965 184.244 689.385C184.664 689.805 184.874 690.351 184.874 691.023C184.874 691.875 184.556 692.547 183.92 693.039C183.284 693.531 182.438 693.777 181.382 693.777ZM186.897 684.687H188.715V693.633H186.897V684.687ZM186.555 681.951C186.555 681.615 186.675 681.327 186.915 681.087C187.167 680.847 187.467 680.727 187.815 680.727C188.151 680.727 188.439 680.847 188.679 681.087C188.919 681.327 189.039 681.615 189.039 681.951C189.039 682.287 188.919 682.575 188.679 682.815C188.451 683.043 188.163 683.157 187.815 683.157C187.467 683.157 187.167 683.043 186.915 682.815C186.675 682.587 186.555 682.299 186.555 681.951ZM190.093 684.687H191.983L194.503 691.257L197.041 684.687H198.877L195.439 693.633H193.513L190.093 684.687ZM204.097 693.777C203.197 693.777 202.405 693.585 201.721 693.201C201.037 692.817 200.509 692.283 200.137 691.599C199.765 690.915 199.579 690.135 199.579 689.259C199.579 688.359 199.765 687.555 200.137 686.847C200.521 686.127 201.049 685.563 201.721 685.155C202.405 684.747 203.179 684.543 204.043 684.543C204.871 684.543 205.597 684.735 206.221 685.119C206.857 685.491 207.349 686.019 207.697 686.703C208.057 687.375 208.237 688.143 208.237 689.007C208.237 689.223 208.225 689.427 208.201 689.619H201.397C201.481 690.387 201.769 691.005 202.261 691.473C202.765 691.929 203.389 692.157 204.133 692.157C204.733 692.157 205.255 692.001 205.699 691.689C206.155 691.377 206.467 690.969 206.635 690.465L208.219 691.041C207.979 691.845 207.487 692.505 206.743 693.021C205.999 693.525 205.117 693.777 204.097 693.777ZM206.401 688.323C206.389 687.675 206.155 687.153 205.699 686.757C205.243 686.361 204.667 686.163 203.971 686.163C203.311 686.163 202.753 686.355 202.297 686.739C201.853 687.111 201.565 687.639 201.433 688.323H206.401Z" fill="white"/> <path d="M268 766.133H79.4487H77L172.5 795.279L268 766.133Z" fill="#B92D24"/> <rect width="191" height="30" transform="translate(77 795.279)" fill="#B92D24"/> <path d="M138.735 816.923C137.511 816.923 136.425 816.647 135.477 816.095C134.529 815.543 133.797 814.775 133.281 813.791C132.765 812.807 132.507 811.691 132.507 810.443C132.507 809.135 132.789 807.983 133.353 806.987C133.917 805.991 134.691 805.223 135.675 804.683C136.659 804.143 137.763 803.873 138.987 803.873C140.067 803.873 141.045 804.089 141.921 804.521C142.797 804.953 143.511 805.559 144.063 806.339C144.627 807.119 144.981 808.019 145.125 809.039L143.343 809.543C143.163 808.319 142.683 807.359 141.903 806.663C141.135 805.955 140.139 805.601 138.915 805.601C138.051 805.601 137.277 805.787 136.593 806.159C135.909 806.531 135.369 807.077 134.973 807.797C134.589 808.517 134.397 809.369 134.397 810.353C134.397 811.325 134.577 812.177 134.937 812.909C135.309 813.641 135.825 814.205 136.485 814.601C137.145 814.997 137.913 815.195 138.789 815.195C139.833 815.195 140.697 814.907 141.381 814.331C142.065 813.755 142.527 812.903 142.767 811.775L144.513 812.243C144.333 813.191 143.973 814.019 143.433 814.727C142.905 815.423 142.233 815.963 141.417 816.347C140.613 816.731 139.719 816.923 138.735 816.923ZM151.311 816.923C150.423 816.923 149.631 816.725 148.935 816.329C148.239 815.933 147.699 815.387 147.315 814.691C146.931 813.983 146.739 813.185 146.739 812.297C146.739 811.409 146.931 810.617 147.315 809.921C147.711 809.225 148.257 808.679 148.953 808.283C149.649 807.887 150.435 807.689 151.311 807.689C152.187 807.689 152.973 807.887 153.669 808.283C154.365 808.679 154.911 809.225 155.307 809.921C155.703 810.617 155.901 811.409 155.901 812.297C155.901 813.185 155.709 813.983 155.325 814.691C154.941 815.387 154.401 815.933 153.705 816.329C153.009 816.725 152.211 816.923 151.311 816.923ZM148.557 812.297C148.557 813.173 148.815 813.893 149.331 814.457C149.847 815.009 150.507 815.285 151.311 815.285C152.115 815.285 152.775 815.009 153.291 814.457C153.807 813.893 154.065 813.173 154.065 812.297C154.065 811.733 153.945 811.223 153.705 810.767C153.477 810.311 153.153 809.957 152.733 809.705C152.313 809.453 151.839 809.327 151.311 809.327C150.783 809.327 150.309 809.453 149.889 809.705C149.469 809.957 149.139 810.311 148.899 810.767C148.671 811.223 148.557 811.733 148.557 812.297ZM157.788 807.833L159.57 807.833L159.57 809.219C160.35 808.199 161.358 807.689 162.594 807.689C163.578 807.689 164.358 808.001 164.934 808.625C165.522 809.237 165.816 810.065 165.816 811.109L165.816 816.779L163.998 816.779L163.998 811.649C163.998 810.905 163.806 810.341 163.422 809.957C163.05 809.561 162.558 809.363 161.946 809.363C161.238 809.363 160.668 809.615 160.236 810.119C159.816 810.611 159.606 811.259 159.606 812.063L159.606 816.779L157.788 816.779L157.788 807.833ZM172.037 815.105C173.177 814.445 174.113 813.851 174.845 813.323C175.577 812.795 176.201 812.267 176.717 811.739C177.377 811.079 177.869 810.473 178.193 809.921C178.517 809.357 178.679 808.793 178.679 808.229C178.679 807.593 178.493 807.101 178.121 806.753C177.749 806.393 177.203 806.213 176.483 806.213C175.691 806.213 175.073 806.441 174.629 806.897C174.197 807.353 173.981 808.079 173.981 809.075C173.981 809.327 173.987 809.519 173.999 809.651L172.217 809.471C172.205 809.351 172.199 809.177 172.199 808.949C172.199 807.509 172.589 806.405 173.369 805.637C174.149 804.869 175.199 804.485 176.519 804.485C177.755 804.485 178.739 804.815 179.471 805.475C180.203 806.123 180.569 806.993 180.569 808.085C180.569 808.865 180.353 809.645 179.921 810.425C179.501 811.193 178.859 811.979 177.995 812.783C177.095 813.599 176.117 814.373 175.061 815.105L180.695 815.105L180.695 816.779L172.217 816.779L172.037 815.105ZM187.3 816.923C186.364 816.923 185.554 816.677 184.87 816.185C184.186 815.693 183.664 814.979 183.304 814.043C182.944 813.107 182.764 811.991 182.764 810.695C182.764 809.399 182.944 808.289 183.304 807.365C183.664 806.429 184.186 805.715 184.87 805.223C185.554 804.731 186.364 804.485 187.3 804.485C188.236 804.485 189.04 804.731 189.712 805.223C190.396 805.715 190.918 806.429 191.278 807.365C191.638 808.289 191.818 809.399 191.818 810.695C191.818 811.991 191.638 813.107 191.278 814.043C190.918 814.979 190.396 815.693 189.712 816.185C189.04 816.677 188.236 816.923 187.3 816.923ZM184.636 810.695C184.636 812.123 184.864 813.233 185.32 814.025C185.788 814.805 186.448 815.195 187.3 815.195C188.14 815.195 188.788 814.805 189.244 814.025C189.7 813.233 189.928 812.123 189.928 810.695C189.928 809.279 189.7 808.181 189.244 807.401C188.788 806.609 188.14 806.213 187.3 806.213C186.448 806.213 185.788 806.609 185.32 807.401C184.864 808.181 184.636 809.279 184.636 810.695ZM193.711 815.105C194.851 814.445 195.787 813.851 196.519 813.323C197.251 812.795 197.875 812.267 198.391 811.739C199.051 811.079 199.543 810.473 199.867 809.921C200.191 809.357 200.353 808.793 200.353 808.229C200.353 807.593 200.167 807.101 199.795 806.753C199.423 806.393 198.877 806.213 198.157 806.213C197.365 806.213 196.747 806.441 196.303 806.897C195.871 807.353 195.655 808.079 195.655 809.075C195.655 809.327 195.661 809.519 195.673 809.651L193.891 809.471C193.879 809.351 193.873 809.177 193.873 808.949C193.873 807.509 194.263 806.405 195.043 805.637C195.823 804.869 196.873 804.485 198.193 804.485C199.429 804.485 200.413 804.815 201.145 805.475C201.877 806.123 202.243 806.993 202.243 808.085C202.243 808.865 202.027 809.645 201.595 810.425C201.175 811.193 200.533 811.979 199.669 812.783C198.769 813.599 197.791 814.373 196.735 815.105L202.369 815.105L202.369 816.779L193.891 816.779L193.711 815.105ZM205.648 804.629L207.484 804.629L206.098 811.433L209.194 811.433L209.194 807.275L211.012 807.275L211.012 811.433L212.686 811.433L212.686 813.053L211.012 813.053L211.012 816.779L209.194 816.779L209.194 813.053L203.938 813.053L205.648 804.629Z" fill="white"/> <mask id="path-23-inside-1_230_1590" fill="white"> <path d="M42 7L42 861L1 861L1.00004 7L42 7Z"/> </mask> <path d="M41 7L41 861L43 861L43 7L41 7Z" fill="black" mask="url(#path-23-inside-1_230_1590)"/> <path d="M12.0168 31.492H13.6248L16.9248 40H15.3048L14.5008 37.924H11.0568L10.2528 40H8.71684L12.0168 31.492ZM13.9728 36.58L12.7728 33.472L11.5728 36.58H13.9728ZM17.9159 33.988H19.3799V34.816C19.9559 34.192 20.6199 33.88 21.3719 33.88C21.9079 33.88 22.3879 34.016 22.8119 34.288C23.2359 34.56 23.5639 34.932 23.7959 35.404C24.0359 35.876 24.1559 36.408 24.1559 37C24.1559 37.6 24.0359 38.136 23.7959 38.608C23.5559 39.08 23.2239 39.448 22.7999 39.712C22.3839 39.976 21.9119 40.108 21.3839 40.108C20.6159 40.108 19.9559 39.804 19.4039 39.196V42.616H17.9159V33.988ZM19.3919 37.012C19.3919 37.564 19.5439 38.008 19.8479 38.344C20.1519 38.68 20.5359 38.848 20.9999 38.848C21.4719 38.848 21.8679 38.68 22.1879 38.344C22.5079 38.008 22.6679 37.564 22.6679 37.012C22.6679 36.452 22.5119 36 22.1999 35.656C21.8959 35.312 21.5119 35.14 21.0479 35.14C20.7439 35.14 20.4639 35.22 20.2079 35.38C19.9599 35.532 19.7599 35.752 19.6079 36.04C19.4639 36.32 19.3919 36.644 19.3919 37.012ZM25.369 33.988H26.809V34.984C26.985 34.648 27.213 34.38 27.493 34.18C27.781 33.98 28.121 33.88 28.513 33.88C28.841 33.88 29.129 33.952 29.377 34.096L28.885 35.476C28.613 35.372 28.349 35.32 28.093 35.32C27.709 35.32 27.405 35.44 27.181 35.68C26.965 35.912 26.857 36.288 26.857 36.808V40H25.369V33.988ZM30.1854 33.988H31.6734V40H30.1854V33.988ZM29.9934 32.236C29.9934 31.972 30.0814 31.756 30.2574 31.588C30.4414 31.412 30.6654 31.324 30.9294 31.324C31.1934 31.324 31.4134 31.412 31.5894 31.588C31.7734 31.756 31.8654 31.972 31.8654 32.236C31.8654 32.492 31.7734 32.704 31.5894 32.872C31.4134 33.04 31.1934 33.124 30.9294 33.124C30.6654 33.124 30.4414 33.044 30.2574 32.884C30.0814 32.716 29.9934 32.5 29.9934 32.236ZM33.234 31.492H34.722V40H33.234V31.492Z" fill="black"/> <path d="M11.1606 157.492H13.2846L15.4566 163.42L17.6046 157.492H19.7286V166H18.2646V159.676L15.9846 166H14.9166L12.6006 159.7V166H11.1606V157.492ZM23.1464 166.108C22.5544 166.108 22.0864 165.956 21.7424 165.652C21.4064 165.348 21.2384 164.932 21.2384 164.404C21.2384 163.908 21.3944 163.516 21.7064 163.228C22.0184 162.932 22.4464 162.732 22.9904 162.628L25.0184 162.256V162.1C25.0184 161.788 24.9184 161.556 24.7184 161.404C24.5184 161.244 24.2344 161.164 23.8664 161.164C23.5144 161.164 23.2104 161.248 22.9544 161.416C22.6984 161.584 22.5224 161.848 22.4264 162.208L21.1424 161.92C21.2704 161.264 21.5704 160.76 22.0424 160.408C22.5144 160.056 23.1464 159.88 23.9384 159.88C24.7384 159.88 25.3544 160.052 25.7864 160.396C26.2264 160.74 26.4464 161.22 26.4464 161.836V164.26C26.4464 164.54 26.4984 164.724 26.6024 164.812C26.7064 164.9 26.9024 164.936 27.1904 164.92L26.9144 166.096C26.8344 166.104 26.7224 166.108 26.5784 166.108C26.1144 166.108 25.7464 166.008 25.4744 165.808C25.2024 165.608 25.0784 165.28 25.1024 164.824C24.9024 165.272 24.6384 165.6 24.3104 165.808C23.9824 166.008 23.5944 166.108 23.1464 166.108ZM22.7264 164.188C22.7264 164.388 22.7984 164.548 22.9424 164.668C23.0864 164.788 23.2904 164.848 23.5544 164.848C23.9784 164.848 24.3264 164.708 24.5984 164.428C24.8784 164.14 25.0184 163.76 25.0184 163.288V163.228L23.4464 163.516C22.9664 163.588 22.7264 163.812 22.7264 164.188ZM29.7106 166.18L27.3826 159.988H28.9426L30.5146 164.164L32.2066 159.988H33.7066L30.2386 168.616H28.7266L29.7106 166.18Z" fill="black"/> <path d="M11.2391 283.084C10.5831 283.084 10.0351 282.956 9.59514 282.7C9.16314 282.444 8.84314 282.084 8.63514 281.62C8.42714 281.196 8.33114 280.684 8.34714 280.084L9.82314 279.868C9.83914 280.316 9.90714 280.676 10.0271 280.948C10.2671 281.46 10.6711 281.716 11.2391 281.716C11.6551 281.716 11.9711 281.588 12.1871 281.332C12.4111 281.068 12.5231 280.7 12.5231 280.228V274.492H14.0471V280.372C14.0471 281.244 13.7991 281.916 13.3031 282.388C12.8071 282.852 12.1191 283.084 11.2391 283.084ZM17.7955 283.108C17.1475 283.108 16.6235 282.9 16.2235 282.484C15.8235 282.068 15.6235 281.492 15.6235 280.756V276.988H17.1115V280.204C17.1115 280.724 17.2155 281.108 17.4235 281.356C17.6395 281.604 17.9355 281.728 18.3115 281.728C18.7275 281.728 19.0635 281.58 19.3195 281.284C19.5755 280.988 19.7035 280.564 19.7035 280.012V276.988H21.2035V283H19.7515V282.076C19.4875 282.404 19.1995 282.66 18.8875 282.844C18.5835 283.02 18.2195 283.108 17.7955 283.108ZM22.6795 276.988H24.1195V277.912C24.6795 277.224 25.3555 276.88 26.1475 276.88C26.8115 276.88 27.3435 277.088 27.7435 277.504C28.1515 277.912 28.3555 278.468 28.3555 279.172V283H26.8555V279.784C26.8555 279.272 26.7395 278.892 26.5075 278.644C26.2835 278.388 25.9795 278.26 25.5955 278.26C25.1715 278.26 24.8275 278.408 24.5635 278.704C24.2995 278.992 24.1675 279.4 24.1675 279.928V283H22.6795V276.988ZM32.5774 283.108C31.9534 283.108 31.4094 282.98 30.9454 282.724C30.4814 282.46 30.1214 282.096 29.8654 281.632C29.6174 281.168 29.4934 280.644 29.4934 280.06C29.4934 279.452 29.6214 278.908 29.8774 278.428C30.1414 277.94 30.5054 277.56 30.9694 277.288C31.4334 277.016 31.9614 276.88 32.5534 276.88C33.1054 276.88 33.5974 277.004 34.0294 277.252C34.4614 277.5 34.8014 277.856 35.0494 278.32C35.2974 278.776 35.4214 279.312 35.4214 279.928C35.4214 280.056 35.4134 280.2 35.3974 280.36H30.9694C31.0414 280.816 31.2254 281.176 31.5214 281.44C31.8174 281.704 32.1814 281.836 32.6134 281.836C32.9734 281.836 33.2854 281.748 33.5494 281.572C33.8214 281.388 34.0094 281.136 34.1134 280.816L35.4094 281.212C35.2654 281.772 34.9374 282.228 34.4254 282.58C33.9134 282.932 33.2974 283.108 32.5774 283.108ZM33.9454 279.448C33.9134 279.048 33.7614 278.732 33.4894 278.5C33.2174 278.268 32.8854 278.152 32.4934 278.152C32.1094 278.152 31.7854 278.268 31.5214 278.5C31.2574 278.724 31.0814 279.04 30.9934 279.448H33.9454Z" fill="black"/> <path d="M13.3368 400.084C12.6808 400.084 12.1328 399.956 11.6928 399.7C11.2608 399.444 10.9408 399.084 10.7328 398.62C10.5248 398.196 10.4288 397.684 10.4448 397.084L11.9208 396.868C11.9368 397.316 12.0048 397.676 12.1248 397.948C12.3648 398.46 12.7688 398.716 13.3368 398.716C13.7528 398.716 14.0688 398.588 14.2848 398.332C14.5088 398.068 14.6208 397.7 14.6208 397.228V391.492H16.1448V397.372C16.1448 398.244 15.8968 398.916 15.4008 399.388C14.9048 399.852 14.2168 400.084 13.3368 400.084ZM19.8931 400.108C19.2451 400.108 18.7211 399.9 18.3211 399.484C17.9211 399.068 17.7211 398.492 17.7211 397.756V393.988H19.2091V397.204C19.2091 397.724 19.3131 398.108 19.5211 398.356C19.7371 398.604 20.0331 398.728 20.4091 398.728C20.8251 398.728 21.1611 398.58 21.4171 398.284C21.6731 397.988 21.8011 397.564 21.8011 397.012V393.988H23.3011V400H21.8491V399.076C21.5851 399.404 21.2971 399.66 20.9851 399.844C20.6811 400.02 20.3171 400.108 19.8931 400.108ZM24.8492 391.492H26.3372V400H24.8492V391.492ZM29.6344 400.18L27.3064 393.988H28.8664L30.4384 398.164L32.1304 393.988H33.6304L30.1624 402.616H28.6504L29.6344 400.18Z" fill="black"/> <path d="M13.5618 508.492H15.1698L18.4698 517H16.8498L16.0458 514.924H12.6018L11.7978 517H10.2618L13.5618 508.492ZM15.5178 513.58L14.3178 510.472L13.1178 513.58H15.5178ZM21.397 517.108C20.749 517.108 20.225 516.9 19.825 516.484C19.425 516.068 19.225 515.492 19.225 514.756V510.988H20.713V514.204C20.713 514.724 20.817 515.108 21.025 515.356C21.241 515.604 21.537 515.728 21.913 515.728C22.329 515.728 22.665 515.58 22.921 515.284C23.177 514.988 23.305 514.564 23.305 514.012V510.988H24.805V517H23.353V516.076C23.089 516.404 22.801 516.66 22.489 516.844C22.185 517.02 21.821 517.108 21.397 517.108ZM28.8971 519.724C28.0011 519.724 27.2651 519.508 26.6891 519.076C26.1131 518.644 25.7731 517.988 25.6691 517.108L26.9411 516.712C27.0051 517.296 27.2091 517.732 27.5531 518.02C27.9051 518.308 28.3491 518.452 28.8851 518.452C29.4691 518.452 29.9411 518.292 30.3011 517.972C30.6691 517.66 30.8531 517.228 30.8531 516.676V515.92C30.3251 516.576 29.6331 516.904 28.7771 516.904C28.2491 516.904 27.7731 516.784 27.3491 516.544C26.9331 516.304 26.6051 515.964 26.3651 515.524C26.1251 515.076 26.0051 514.556 26.0051 513.964C26.0051 513.38 26.1251 512.856 26.3651 512.392C26.6051 511.92 26.9371 511.552 27.3611 511.288C27.7931 511.016 28.2811 510.88 28.8251 510.88C29.5691 510.88 30.2211 511.176 30.7811 511.768V510.988H32.2451V516.712C32.2451 517.648 31.9491 518.384 31.3571 518.92C30.7651 519.456 29.9451 519.724 28.8971 519.724ZM27.4931 513.928C27.4931 514.464 27.6491 514.896 27.9611 515.224C28.2731 515.544 28.6611 515.704 29.1251 515.704C29.5971 515.704 29.9891 515.54 30.3011 515.212C30.6131 514.876 30.7691 514.44 30.7691 513.904C30.7691 513.384 30.6131 512.96 30.3011 512.632C29.9971 512.304 29.6091 512.14 29.1371 512.14C28.8331 512.14 28.5571 512.216 28.3091 512.368C28.0611 512.512 27.8611 512.72 27.7091 512.992C27.5651 513.264 27.4931 513.576 27.4931 513.928Z" fill="black"/> <path d="M14.0144 634.108C13.3744 634.108 12.8184 634 12.3464 633.784C11.8824 633.568 11.5184 633.276 11.2544 632.908C10.9904 632.532 10.8264 632.112 10.7624 631.648L12.2024 631.216C12.2744 631.672 12.4744 632.044 12.8024 632.332C13.1384 632.62 13.5704 632.764 14.0984 632.764C14.5304 632.764 14.8864 632.664 15.1664 632.464C15.4464 632.264 15.5864 631.988 15.5864 631.636C15.5864 631.372 15.4904 631.144 15.2984 630.952C15.1144 630.76 14.8344 630.624 14.4584 630.544L13.0544 630.244C12.3824 630.1 11.8744 629.836 11.5304 629.452C11.1944 629.06 11.0264 628.552 11.0264 627.928C11.0264 627.112 11.3064 626.484 11.8664 626.044C12.4264 625.604 13.1624 625.384 14.0744 625.384C14.9944 625.384 15.7464 625.604 16.3304 626.044C16.9224 626.484 17.2744 627.128 17.3864 627.976L15.9944 628.336C15.9144 627.816 15.7064 627.42 15.3704 627.148C15.0344 626.868 14.5944 626.728 14.0504 626.728C13.5864 626.728 13.2184 626.828 12.9464 627.028C12.6744 627.22 12.5384 627.484 12.5384 627.82C12.5384 628.076 12.6224 628.3 12.7904 628.492C12.9664 628.684 13.2304 628.816 13.5824 628.888L15.0104 629.188C15.6984 629.332 16.2184 629.6 16.5704 629.992C16.9224 630.384 17.0984 630.896 17.0984 631.528C17.0984 632.336 16.8224 632.968 16.2704 633.424C15.7264 633.88 14.9744 634.108 14.0144 634.108ZM21.3918 634.108C20.7678 634.108 20.2238 633.98 19.7598 633.724C19.2958 633.46 18.9358 633.096 18.6798 632.632C18.4318 632.168 18.3078 631.644 18.3078 631.06C18.3078 630.452 18.4358 629.908 18.6918 629.428C18.9558 628.94 19.3198 628.56 19.7838 628.288C20.2478 628.016 20.7758 627.88 21.3678 627.88C21.9198 627.88 22.4118 628.004 22.8438 628.252C23.2758 628.5 23.6158 628.856 23.8638 629.32C24.1118 629.776 24.2358 630.312 24.2358 630.928C24.2358 631.056 24.2278 631.2 24.2118 631.36H19.7838C19.8558 631.816 20.0398 632.176 20.3358 632.44C20.6318 632.704 20.9958 632.836 21.4278 632.836C21.7878 632.836 22.0998 632.748 22.3638 632.572C22.6358 632.388 22.8238 632.136 22.9278 631.816L24.2238 632.212C24.0798 632.772 23.7518 633.228 23.2398 633.58C22.7278 633.932 22.1118 634.108 21.3918 634.108ZM22.7598 630.448C22.7278 630.048 22.5758 629.732 22.3038 629.5C22.0318 629.268 21.6998 629.152 21.3078 629.152C20.9238 629.152 20.5998 629.268 20.3358 629.5C20.0718 629.724 19.8958 630.04 19.8078 630.448H22.7598ZM25.4393 627.988H26.9033V628.816C27.4793 628.192 28.1433 627.88 28.8953 627.88C29.4313 627.88 29.9113 628.016 30.3353 628.288C30.7593 628.56 31.0873 628.932 31.3193 629.404C31.5593 629.876 31.6793 630.408 31.6793 631C31.6793 631.6 31.5593 632.136 31.3193 632.608C31.0793 633.08 30.7473 633.448 30.3233 633.712C29.9073 633.976 29.4353 634.108 28.9073 634.108C28.1393 634.108 27.4793 633.804 26.9273 633.196V636.616H25.4393V627.988ZM26.9153 631.012C26.9153 631.564 27.0673 632.008 27.3713 632.344C27.6753 632.68 28.0593 632.848 28.5233 632.848C28.9953 632.848 29.3913 632.68 29.7113 632.344C30.0313 632.008 30.1913 631.564 30.1913 631.012C30.1913 630.452 30.0353 630 29.7233 629.656C29.4193 629.312 29.0353 629.14 28.5713 629.14C28.2673 629.14 27.9873 629.22 27.7313 629.38C27.4833 629.532 27.2833 629.752 27.1313 630.04C26.9873 630.32 26.9153 630.644 26.9153 631.012ZM35.0764 634.072C33.9164 634.072 33.3364 633.512 33.3364 632.392V629.224H32.4004V627.988H33.3364V626.8L34.8364 626.32V627.988H36.2404V629.224H34.8364V632.092C34.8364 632.532 35.0284 632.752 35.4124 632.752C35.5964 632.752 35.8484 632.696 36.1684 632.584L36.4684 633.748C36.0364 633.964 35.5724 634.072 35.0764 634.072Z" fill="black"/> <path d="M18.2272 751.108C17.3792 751.108 16.6272 750.92 15.9712 750.544C15.3152 750.168 14.8072 749.652 14.4472 748.996C14.0872 748.332 13.9072 747.58 13.9072 746.74C13.9072 745.908 14.0912 745.164 14.4592 744.508C14.8272 743.844 15.3392 743.324 15.9952 742.948C16.6512 742.572 17.3952 742.384 18.2272 742.384C19.0512 742.384 19.7912 742.572 20.4472 742.948C21.1032 743.324 21.6152 743.844 21.9832 744.508C22.3512 745.164 22.5352 745.908 22.5352 746.74C22.5352 747.58 22.3552 748.332 21.9952 748.996C21.6352 749.652 21.1272 750.168 20.4712 750.544C19.8152 750.92 19.0672 751.108 18.2272 751.108ZM15.4432 746.74C15.4432 747.348 15.5632 747.88 15.8032 748.336C16.0432 748.784 16.3712 749.128 16.7872 749.368C17.2112 749.6 17.6912 749.716 18.2272 749.716C18.7552 749.716 19.2272 749.596 19.6432 749.356C20.0672 749.116 20.3992 748.772 20.6392 748.324C20.8792 747.876 20.9992 747.348 20.9992 746.74C20.9992 746.14 20.8792 745.616 20.6392 745.168C20.3992 744.72 20.0672 744.376 19.6432 744.136C19.2272 743.896 18.7552 743.776 18.2272 743.776C17.6912 743.776 17.2112 743.896 16.7872 744.136C16.3712 744.376 16.0432 744.72 15.8032 745.168C15.5632 745.616 15.4432 746.14 15.4432 746.74ZM26.6901 751.108C26.0981 751.108 25.5701 750.976 25.1061 750.712C24.6421 750.448 24.2781 750.084 24.0141 749.62C23.7581 749.156 23.6301 748.628 23.6301 748.036C23.6301 747.428 23.7661 746.888 24.0381 746.416C24.3101 745.936 24.6901 745.56 25.1781 745.288C25.6661 745.016 26.2181 744.88 26.8341 744.88C27.6101 744.88 28.2581 745.092 28.7781 745.516C29.3061 745.932 29.6421 746.516 29.7861 747.268L28.4541 747.7C28.3661 747.204 28.1741 746.828 27.8781 746.572C27.5821 746.308 27.2181 746.176 26.7861 746.176C26.2821 746.176 25.8781 746.344 25.5741 746.68C25.2701 747.016 25.1181 747.456 25.1181 748C25.1181 748.544 25.2661 748.984 25.5621 749.32C25.8581 749.648 26.2461 749.812 26.7261 749.812C27.0941 749.812 27.4021 749.708 27.6501 749.5C27.8981 749.292 28.0701 748.992 28.1661 748.6L29.4861 749.008C29.3501 749.648 29.0301 750.16 28.5261 750.544C28.0221 750.92 27.4101 751.108 26.6901 751.108ZM33.0276 751.072C31.8676 751.072 31.2876 750.512 31.2876 749.392V746.224H30.3516V744.988H31.2876V743.8L32.7876 743.32V744.988H34.1916V746.224H32.7876V749.092C32.7876 749.532 32.9796 749.752 33.3636 749.752C33.5476 749.752 33.7996 749.696 34.1196 749.584L34.4196 750.748C33.9876 750.964 33.5236 751.072 33.0276 751.072Z" fill="black"/> </g> <mask id="path-32-inside-2_230_1590" fill="white"> <path d="M315 7L315 861L268.366 861L268.366 7L315 7Z"/> </mask> <path d="M313.834 7L313.834 861L316.166 861L316.166 7L313.834 7Z" fill="black" mask="url(#path-32-inside-2_230_1590)"/> <path d="M294.626 308C294.579 307.375 294.556 306.843 294.556 306.404C294.556 304.929 294.766 303.693 295.186 302.694C295.606 301.686 296.282 300.823 297.216 300.104H292.68V298.55H299.344V299.908C298.588 300.384 297.99 300.902 297.552 301.462C297.122 302.022 296.81 302.675 296.614 303.422C296.427 304.169 296.334 305.074 296.334 306.138C296.334 306.633 296.357 307.253 296.404 308H294.626Z" fill="black"/> <path d="M292.088 794.804C291.789 795.093 291.43 795.313 291.01 795.462C290.599 795.611 290.156 795.686 289.68 795.686L289.582 793.964C290.114 793.945 290.613 793.805 291.08 793.544C291.556 793.273 291.892 792.942 292.088 792.55H293.866V802H292.088V794.804ZM299.153 802.126C298.435 802.126 297.8 801.958 297.249 801.622C296.699 801.286 296.265 800.782 295.947 800.11C295.63 799.438 295.471 798.607 295.471 797.618C295.471 796.498 295.644 795.551 295.989 794.776C296.344 793.992 296.829 793.404 297.445 793.012C298.071 792.62 298.785 792.424 299.587 792.424C300.502 792.424 301.258 792.667 301.855 793.152C302.462 793.628 302.831 794.286 302.961 795.126L301.295 795.532C301.202 795.019 301.001 794.631 300.693 794.37C300.395 794.109 300.003 793.978 299.517 793.978C298.827 793.978 298.276 794.253 297.865 794.804C297.464 795.345 297.245 796.129 297.207 797.156C297.45 796.773 297.786 796.475 298.215 796.26C298.654 796.036 299.13 795.924 299.643 795.924C300.213 795.924 300.721 796.059 301.169 796.33C301.627 796.601 301.981 796.969 302.233 797.436C302.495 797.893 302.625 798.402 302.625 798.962C302.625 799.578 302.476 800.129 302.177 800.614C301.879 801.09 301.463 801.463 300.931 801.734C300.409 801.995 299.816 802.126 299.153 802.126ZM297.515 799.018C297.515 799.494 297.674 799.872 297.991 800.152C298.309 800.432 298.71 800.572 299.195 800.572C299.671 800.572 300.063 800.432 300.371 800.152C300.689 799.872 300.847 799.494 300.847 799.018C300.847 798.542 300.689 798.164 300.371 797.884C300.063 797.604 299.671 797.464 299.195 797.464C298.71 797.464 298.309 797.604 297.991 797.884C297.674 798.164 297.515 798.542 297.515 799.018Z" fill="black"/> <path d="M289.803 829.446C290.652 829.035 291.357 828.639 291.917 828.256C292.477 827.873 292.971 827.467 293.401 827.038C293.858 826.59 294.208 826.161 294.451 825.75C294.703 825.33 294.829 824.91 294.829 824.49C294.829 824.042 294.698 823.692 294.437 823.44C294.185 823.179 293.797 823.048 293.275 823.048C292.724 823.048 292.29 823.207 291.973 823.524C291.665 823.841 291.511 824.336 291.511 825.008C291.511 825.092 291.52 825.255 291.539 825.498L289.859 825.358C289.84 825.134 289.831 824.966 289.831 824.854C289.831 823.743 290.148 822.894 290.783 822.306C291.417 821.718 292.271 821.424 293.345 821.424C294.343 821.424 295.137 821.681 295.725 822.194C296.322 822.698 296.621 823.398 296.621 824.294C296.621 825.498 295.991 826.683 294.731 827.85C294.124 828.41 293.447 828.942 292.701 829.446H296.635V831H289.943L289.803 829.446ZM300.256 823.804C299.957 824.093 299.598 824.313 299.178 824.462C298.767 824.611 298.324 824.686 297.848 824.686L297.75 822.964C298.282 822.945 298.781 822.805 299.248 822.544C299.724 822.273 300.06 821.942 300.256 821.55H302.034V831H300.256V823.804Z" fill="black"/> <path d="M296.292 427.098C295.284 427.098 294.467 426.823 293.842 426.272C293.216 425.721 292.904 424.891 292.904 423.78L294.388 423.374C294.397 424.093 294.574 424.634 294.92 424.998C295.274 425.353 295.746 425.53 296.334 425.53C296.847 425.53 297.267 425.395 297.594 425.124C297.92 424.844 298.084 424.443 298.084 423.92C298.084 423.435 297.934 423.047 297.636 422.758C297.346 422.469 296.94 422.324 296.418 422.324C295.988 422.324 295.554 422.441 295.116 422.674L294.374 421.414L297.356 419.104H293.31V417.55H299.344L299.484 419.104L296.978 421.036H297.132C297.608 421.036 298.056 421.157 298.476 421.4C298.896 421.633 299.232 421.969 299.484 422.408C299.736 422.847 299.862 423.355 299.862 423.934C299.862 424.559 299.717 425.115 299.428 425.6C299.138 426.076 298.723 426.445 298.182 426.706C297.64 426.967 297.01 427.098 296.292 427.098Z" fill="black"/> <path d="M292.881 485.804C292.582 486.093 292.223 486.313 291.803 486.462C291.392 486.611 290.949 486.686 290.473 486.686L290.375 484.964C290.907 484.945 291.406 484.805 291.873 484.544C292.349 484.273 292.685 483.942 292.881 483.55H294.659V493H292.881V485.804ZM297.846 493C297.8 492.375 297.776 491.843 297.776 491.404C297.776 489.929 297.986 488.693 298.406 487.694C298.826 486.686 299.503 485.823 300.436 485.104H295.9V483.55H302.564V484.908C301.808 485.384 301.211 485.902 300.772 486.462C300.343 487.022 300.03 487.675 299.834 488.422C299.648 489.169 299.554 490.074 299.554 491.138C299.554 491.633 299.578 492.253 299.624 493H297.846Z" fill="black"/> <path d="M291.889 221.804C291.59 222.093 291.231 222.313 290.811 222.462C290.4 222.611 289.957 222.686 289.481 222.686L289.383 220.964C289.915 220.945 290.414 220.805 290.881 220.544C291.357 220.273 291.693 219.942 291.889 219.55H293.667V229H291.889V221.804ZM298.59 229.126C297.62 229.126 296.817 228.869 296.182 228.356C295.548 227.833 295.212 227.077 295.174 226.088L296.672 225.668C296.747 226.331 296.962 226.811 297.316 227.11C297.671 227.409 298.105 227.558 298.618 227.558C299.188 227.558 299.622 227.404 299.92 227.096C300.219 226.788 300.368 226.387 300.368 225.892C300.368 225.397 300.219 224.996 299.92 224.688C299.622 224.371 299.197 224.212 298.646 224.212C297.984 224.212 297.377 224.478 296.826 225.01L295.51 224.352L296.28 219.55H301.418V221.104H297.596L297.246 223.246C297.797 222.873 298.413 222.686 299.094 222.686C299.71 222.686 300.247 222.817 300.704 223.078C301.171 223.339 301.53 223.708 301.782 224.184C302.034 224.651 302.16 225.192 302.16 225.808C302.16 226.844 301.834 227.656 301.18 228.244C300.527 228.832 299.664 229.126 298.59 229.126Z" fill="black"/> <path d="M292.088 583.804C291.789 584.093 291.43 584.313 291.01 584.462C290.599 584.611 290.156 584.686 289.68 584.686L289.582 582.964C290.114 582.945 290.613 582.805 291.08 582.544C291.556 582.273 291.892 581.942 292.088 581.55H293.866V591H292.088V583.804ZM299.153 591.126C298.435 591.126 297.8 590.958 297.249 590.622C296.699 590.286 296.265 589.782 295.947 589.11C295.63 588.438 295.471 587.607 295.471 586.618C295.471 585.498 295.644 584.551 295.989 583.776C296.344 582.992 296.829 582.404 297.445 582.012C298.071 581.62 298.785 581.424 299.587 581.424C300.502 581.424 301.258 581.667 301.855 582.152C302.462 582.628 302.831 583.286 302.961 584.126L301.295 584.532C301.202 584.019 301.001 583.631 300.693 583.37C300.395 583.109 300.003 582.978 299.517 582.978C298.827 582.978 298.276 583.253 297.865 583.804C297.464 584.345 297.245 585.129 297.207 586.156C297.45 585.773 297.786 585.475 298.215 585.26C298.654 585.036 299.13 584.924 299.643 584.924C300.213 584.924 300.721 585.059 301.169 585.33C301.627 585.601 301.981 585.969 302.233 586.436C302.495 586.893 302.625 587.402 302.625 587.962C302.625 588.578 302.476 589.129 302.177 589.614C301.879 590.09 301.463 590.463 300.931 590.734C300.409 590.995 299.816 591.126 299.153 591.126ZM297.515 588.018C297.515 588.494 297.674 588.872 297.991 589.152C298.309 589.432 298.71 589.572 299.195 589.572C299.671 589.572 300.063 589.432 300.371 589.152C300.689 588.872 300.847 588.494 300.847 588.018C300.847 587.542 300.689 587.164 300.371 586.884C300.063 586.604 299.671 586.464 299.195 586.464C298.71 586.464 298.309 586.604 297.991 586.884C297.674 587.164 297.515 587.542 297.515 588.018Z" fill="black"/> <line x1="307.588" y1="827.743" x2="314.583" y2="827.743" stroke="black" stroke-width="1.16585"/> </g> <defs> <clipPath id="clip0_230_1590"> <rect width="335" height="861" fill="white"/> </clipPath> <clipPath id="clip1_230_1590"> <rect width="854" height="315" fill="white" transform="translate(315 7) rotate(90)"/> </clipPath> </defs> </svg>