<svg width="25" height="25" viewBox="0 0 25 25" fill="none" xmlns="http://www.w3.org/2000/svg">
<path d="M21.7428 16.8121H2.32544V18.4639H21.7428V16.8121Z" fill="#5F6E60"/>
<path d="M21.7428 5.60403H2.32544V7.25575H21.7428V5.60403Z" fill="#5F6E60"/>
<path d="M12.8598 0.825851H11.2081V23.1869H12.8598V0.825851Z" fill="#5F6E60"/>
<path d="M23.2145 11.1804H0.853516V12.8321H23.2145V11.1804Z" fill="#5F6E60"/>
<path d="M12.0339 24.0679C5.39838 24.0679 0 18.6694 0 12.0339C0 5.3985 5.39838 0 12.0339 0C18.6694 0 24.0679 5.3985 24.0679 12.0339C24.0679 18.6694 18.6694 24.0679 12.0339 24.0679ZM12.0339 1.65172C6.30915 1.65172 1.65172 6.30915 1.65172 12.0339C1.65172 17.7587 6.30915 22.4162 12.0339 22.4162C17.7587 22.4162 22.4162 17.7587 22.4162 12.0339C22.4162 6.30915 17.7587 1.65172 12.0339 1.65172Z" fill="#5F6E60"/>
<path d="M12.034 24.0679C8.4285 24.0679 5.60413 18.7818 5.60413 12.0339C5.60413 5.28605 8.4285 0 12.034 0C15.6395 0 18.4639 5.28605 18.4639 12.0339C18.4639 18.7818 15.6395 24.0679 12.034 24.0679ZM12.034 1.65172C9.7265 1.65172 7.25584 5.82364 7.25584 12.0339C7.25584 18.2442 9.7265 22.4162 12.034 22.4162C14.3415 22.4162 16.8122 18.2442 16.8122 12.0339C16.8122 5.82364 14.3415 1.65172 12.034 1.65172Z" fill="#5F6E60"/>
</svg>
