<?xml version="1.0" encoding="UTF-8"?> <svg xmlns="http://www.w3.org/2000/svg" width="500" height="500" viewBox="0 0 500 500" fill="none"><path d="M361.919 308.711L295.727 268.99C290.781 266.095 286.361 272.792 290.9 276.194L354.291 314.128C355.33 319.702 354.362 325.819 350.621 330.205C346.093 335.521 338.282 335.27 331.846 335.049L278.537 304.172C273.642 300.465 268.129 306.107 272.423 310.629L326.119 341.625C326.336 347.684 323.882 356.385 317.68 358.706C312.88 360.502 307.309 359.895 302.316 359.487L258.851 338.458C253.855 336.034 249.869 341.754 253.78 345.654L295.951 366.178C292.879 370.567 288.792 375.099 283.968 377.611C272.881 383.385 253.827 378.076 242.326 374.668C240.422 374.101 234.057 372.441 232.818 371.616C232.228 371.222 232.652 371.233 232.825 370.941C233.816 369.27 235.564 367.614 236.634 365.92C244.587 353.292 237.265 336.472 223.989 331.224C220.968 330.029 217.159 329.143 213.988 329.686L213.635 329.35C216.548 314.227 203.991 299.691 188.692 299.817C192.015 283.665 176.94 267.123 160.438 270.375C151.867 272.066 148.574 278.19 143.713 284.534C142.566 282.273 141.765 279.846 140.363 277.708C133.546 267.32 118.651 262.473 108.127 270.341C106.461 271.587 105.395 273.067 103.833 274.357L86.5479 253.093L140.821 156.717C144.521 158.37 147.77 160.981 151.344 162.851C161.48 168.153 173.837 168.537 184.958 170.486L168.864 193.936C158.29 207.816 149.806 233.591 176.994 232.278C198.125 231.256 216.633 215.617 227.828 198.756C232.615 197.758 237.968 194.903 242.652 194.051C243.209 193.953 243.501 193.851 244.109 193.966C245.497 194.238 250.823 197.276 252.517 198.141C292.017 218.333 329.31 243.426 364.01 270.976C368.474 274.52 374.482 278.814 378.457 282.667C392.439 296.205 379.394 314.505 361.919 308.711Z" fill="#5F6E60"></path><path d="M411.683 250.717C403.892 257.642 397.388 266.068 388.399 271.577C387.391 272.195 382.978 274.785 382.174 274.561C366.046 261.105 349.215 248.511 332.052 236.399C307.855 219.327 283.289 204.245 256.929 190.673C254.743 189.546 246.562 184.991 244.845 184.75C243.626 184.583 242.526 185.042 241.389 185.33C236.538 186.566 228.72 188.949 224.158 190.843C223.557 191.094 222.82 191.308 222.311 191.712C220.76 192.944 217.111 198.946 215.345 201.041C206.234 211.842 193.185 221.978 178.633 223.394C176.382 223.615 170.021 223.9 168.418 222.325C167.431 221.357 167.529 217.864 167.631 216.469C168.072 210.644 172.567 204.255 175.652 199.367C184.186 185.833 194.18 173.269 203.295 160.135C207.928 154.925 225.339 152.43 232.356 151.517C256.475 148.38 280.223 147.871 304.121 152.647C317.584 155.339 332.164 160.862 345.939 158.849C350.02 158.255 353.998 156.849 357.922 155.655L411.683 250.717Z" fill="#A6C4A7"></path><path d="M460.573 241.912L429.807 260.708C428.079 261.109 427.302 260.566 426.372 259.194L358.483 138.319C358.249 137.1 358.772 135.722 359.8 135.03L389.975 116.665C390.99 116.03 392.266 115.932 393.291 116.607L461.886 238.277C462.222 239.753 461.825 241.053 460.573 241.912Z" fill="#A6C4A7"></path><path d="M141.107 138.319L73.2213 259.197C72.4303 260.436 71.2694 261.047 69.7859 260.715L39.0172 241.912C37.9139 241.145 37.3606 239.97 37.7035 238.626L105.867 117.36C106.237 117.004 106.628 116.383 107.127 116.233C107.537 116.111 107.955 116.111 108.379 116.179L139.79 135.029C140.818 135.722 141.341 137.1 141.107 138.319Z" fill="#5F6E60"></path><path d="M178.105 302.298C169.588 315.609 158.138 328.175 149.333 341.418C139.033 351.615 118.683 335.409 127.994 320.758C136.301 307.679 147.642 295.451 156.112 282.341C157.805 280.569 160.002 279.198 162.473 278.859C174.775 277.171 185.098 291.378 178.105 302.298Z" fill="#A6C4A7"></path><path d="M203.43 331.7C195.728 340.851 189.383 352.933 181.569 361.776C171.32 373.382 153.224 359.03 157.555 345.57C158.18 343.628 159.765 341.795 160.916 340.105C167.637 330.243 175.377 320.962 182.244 311.193C183.473 309.991 185.9 308.962 187.591 308.732C199.373 307.119 209.883 321.214 203.43 331.7Z" fill="#A6C4A7"></path><path d="M229.166 361.508C227.02 364.97 215.363 380.955 212.773 382.795C201.642 390.698 184.354 374.319 192.491 361.834C197.114 354.735 202.763 348.235 207.522 341.222C209.297 339.769 211.446 338.56 213.737 338.272C225.578 336.781 235.646 351.022 229.166 361.508Z" fill="#A6C4A7"></path><path d="M134.777 296.653C133.684 298.952 124.906 310.728 123.015 312.388C112.77 321.376 94.7275 305.378 101.517 292.587C102.929 289.922 111.684 278.268 113.897 276.792C115.143 275.96 117.2 275.288 118.687 275.135C129.38 274.015 139.496 286.734 134.777 296.653Z" fill="#A6C4A7"></path></svg> 