<?xml version="1.0" encoding="UTF-8"?> <svg xmlns="http://www.w3.org/2000/svg" width="500" height="500" viewBox="0 0 500 500" fill="none"><path d="M207.779 324.295V344.138C207.779 389.498 244.895 426.606 290.247 426.606H297.292C342.652 426.606 379.76 389.498 379.76 344.138V237.836C379.76 228.633 375.825 221.317 370.858 215.748C367.621 212.114 363.947 209.226 360.639 207.036C355.236 203.473 350.792 201.768 350.792 201.768" stroke="#A7C4A8" stroke-width="21.2607" stroke-miterlimit="10"></path><path d="M163.097 112.215C173.977 112.215 182.797 103.395 182.797 92.5143C182.797 81.6341 173.977 72.8138 163.097 72.8138C152.217 72.8138 143.396 81.6341 143.396 92.5143C143.396 103.395 152.217 112.215 163.097 112.215Z" fill="#5F6E60"></path><path d="M249.274 112.215C260.154 112.215 268.974 103.395 268.974 92.5143C268.974 81.6341 260.154 72.8138 249.274 72.8138C238.393 72.8138 229.573 81.6341 229.573 92.5143C229.573 103.395 238.393 112.215 249.274 112.215Z" fill="#5F6E60"></path><path d="M348.986 224.38C366.667 224.38 381 210.046 381 192.365C381 174.684 366.667 160.351 348.986 160.351C331.305 160.351 316.972 174.684 316.972 192.365C316.972 210.046 331.305 224.38 348.986 224.38Z" fill="#5F6E60"></path><path d="M348.984 211.106C359.334 211.106 367.724 202.716 367.724 192.366C367.724 182.016 359.334 173.625 348.984 173.625C338.634 173.625 330.243 182.016 330.243 192.366C330.243 202.716 338.634 211.106 348.984 211.106Z" fill="#A7C4A8"></path><path d="M262.431 99.4486C262.431 99.4486 291.399 110.548 291.399 135.517V163.485V241.819C291.399 287.179 254.29 324.287 208.931 324.287H201.893C156.534 324.287 119.426 287.179 119.426 241.819V163.485C119.426 163.485 119.426 160.494 119.426 135.517C119.426 110.541 148.393 99.4486 148.393 99.4486" stroke="#5F6E60" stroke-width="21.2607" stroke-miterlimit="10"></path></svg> 